<svg id="Layer_1" data-name="Layer 1" xmlns="http://www.w3.org/2000/svg" xmlns:xlink="http://www.w3.org/1999/xlink" viewBox="0 0 2000 2000"><defs><style>.cls-1{fill:#4054b7;}.cls-16,.cls-2,.cls-5{fill:#fff;}.cls-2{opacity:0.7;isolation:isolate;}.cls-3,.cls-4{fill:#263238;}.cls-4,.cls-5,.cls-6{stroke:#263238;stroke-linecap:round;stroke-linejoin:round;}.cls-6{fill:none;}.cls-7{fill:#92bbf7;}.cls-8{fill:#2a4e96;}.cls-9{fill:#4989f5;}.cls-10{fill:url(#linear-gradient);}.cls-11,.cls-15{fill:#3c4ba6;}.cls-12{fill:#7babf7;}.cls-13{fill:#3f51b5;}.cls-14{fill:#709be0;}.cls-14,.cls-15{fill-rule:evenodd;}</style><linearGradient id="linear-gradient" x1="201.16" y1="1600.93" x2="201.2" y2="1600.93" gradientTransform="matrix(2185.08, 0, 0, -1647.96, -438873.28, 2639314.38)" gradientUnits="userSpaceOnUse"><stop offset="0.03" stop-color="#4079d8"/><stop offset="1" stop-color="#4989f5"/></linearGradient></defs><title>JETPAX 8</title><g id="freepik--background-simple--inject-2"><path class="cls-1" d="M1855.59,1699.86c13.54-51.34,58.35-223.57,88.69-398.14,36.4-208.17,68.14-495.23-76.55-615.65s-335.13,22.87-434.55-23.34S1329.09,385,1062.11,315.47s-416.35,171.3-534.44,301-249.24,41.55-421,180.64C-63.71,934.39,81,1556.57,206.55,1699.86Z"/><path class="cls-2" d="M1855.59,1699.86c13.54-51.34,58.35-223.57,88.69-398.14,36.4-208.17,68.14-495.23-76.55-615.65s-335.13,22.87-434.55-23.34S1329.09,385,1062.11,315.47s-416.35,171.3-534.44,301-249.24,41.55-421,180.64C-63.71,934.39,81,1556.57,206.55,1699.86Z"/></g><path class="cls-1" d="M1468.19,583.38H553.81a6.19,6.19,0,0,0-6.07,6.07V1045a6.18,6.18,0,0,0,6.07,6.06h914.38a6.17,6.17,0,0,0,6.06-6.06V589.45A6.18,6.18,0,0,0,1468.19,583.38ZM1461.65,596v422.88H559.88V596Z"/><path class="cls-1" d="M1062.58,857.84V673.47L1310,680.94l7.46,172.7Zm9.33-175V848l235.71-4.67-6.53-154Z"/><rect class="cls-1" x="1185.29" y="701.17" width="9.34" height="72.35" transform="translate(414.58 1902.88) rotate(-88.15)"/><rect class="cls-1" x="1116.25" y="768.21" width="165.7" height="9.34" transform="translate(-10.41 16.4) rotate(-0.78)"/><rect class="cls-1" x="1187.47" y="770.03" width="9.34" height="63.01" transform="translate(304.66 1931.15) rotate(-85.76)"/><path class="cls-1" d="M1468.19,583.38H553.81a6.19,6.19,0,0,0-6.07,6.07V1045a6.18,6.18,0,0,0,6.07,6.06h914.38a6.17,6.17,0,0,0,6.06-6.06V589.45A6.18,6.18,0,0,0,1468.19,583.38ZM1461.65,596v422.88H559.88V596Z"/><path class="cls-1" d="M1062.58,857.84V673.47L1310,680.94l7.46,172.7Zm9.33-175V848l235.71-4.67-6.53-154Z"/><rect class="cls-1" x="1185.29" y="701.17" width="9.34" height="72.35" transform="translate(414.58 1902.88) rotate(-88.15)"/><rect class="cls-1" x="1116.25" y="768.21" width="165.7" height="9.34" transform="translate(-10.41 16.4) rotate(-0.78)"/><rect class="cls-1" x="1187.47" y="770.03" width="9.34" height="63.01" transform="translate(304.66 1931.15) rotate(-85.76)"/><g id="freepik--Plants--inject-2"><path class="cls-3" d="M68.39,1283.52c6.53,2.8,22.4,2.33,22.87,2.33s-3.27-10.73-3.74-11.2c-3.73-7.47-14.93-19.6-23.8-18.2-6.07.93-9.8,6.53-8.87,12.6,0,.47,0,.93.47.93C57.18,1276.52,62.32,1281.18,68.39,1283.52Z"/><path class="cls-3" d="M279.36,1228.91c-9.34-.94-20.07,11.67-23.34,19.14-.47.46-3.73,11.2-3.27,11.2h0a82.65,82.65,0,0,0-5.6,6.53c-3.73,4.2-7.47,9.34-11.67,14.94-4.2,6.07-8.4,12.6-12.13,19.14a142.43,142.43,0,0,0-10.27,22.87v-10.27c-.93-7.94-7.94-23.34-16.8-24.74a11.11,11.11,0,0,0-12.61,8.87v.93c.47,6.54,3.27,13.07,8.87,16.8a68,68,0,0,0,20.54,9.34c-2.33,8.4-4.67,16.34-6.07,25.2-.93,4.67-1.4,9.81-2.33,14.94v-4.67c-.94-7.93-7.94-23.33-16.8-24.73a11.09,11.09,0,0,0-12.61,8.86v.94c.47,6.53,3.27,13.07,8.87,16.8a65.68,65.68,0,0,0,20.07,9.34,23.84,23.84,0,0,1-.93,5.6c-.94,9.33-2.34,18.2-3.27,27.54-.47,3.26-.93,6.06-1.4,9.33v-4.2c-.93-8.4-7.93-23.34-16.8-24.74-6.07-.93-11.67,2.8-12.61,8.4v1.87c.47,6.53,3.27,13.07,8.87,16.8a62.08,62.08,0,0,0,19.61,8.87c-.47,3.27-1.4,6.54-1.87,9.34a29.93,29.93,0,0,1-1.87,6.06l-1.86,6.07-4.2,11.2c-.94,2.34-1.87,5.14-2.81,7.47.47-3.26,1.4-9.33,1.4-9.8a39.93,39.93,0,0,0-5.6-20.54v-2.33a10.39,10.39,0,0,0-12.13-9.34h-1.4c-8.87,2.34-14.47,17.74-14.94,26.14,0,.47.47,5.6.47,8.87l-1.4-5.6c-.94-3.73-1.87-7.93-3.27-12.14l-1.87-6.06a32.18,32.18,0,0,0-2.33-6.07c-1.87-4.67-3.73-9.34-6.07-14.47a83.52,83.52,0,0,0,20.54-7.47,21.8,21.8,0,0,0,9.8-16.34,11,11,0,0,0-10.73-11.2h-.94c-9.33.94-17.27,15.41-18.67,23.34,0,.47-.46,6.54-.93,9.8a67.13,67.13,0,0,1-3.74-8.4c-4.2-8.4-8.4-16.34-12.6-24.74a54.74,54.74,0,0,1-3.73-7.47,67.34,67.34,0,0,0,21-7.93,21.77,21.77,0,0,0,9.8-16.34,11,11,0,0,0-10.73-11.2h-.93c-9.34.93-17.27,15.4-18.68,23.34,0,.47-.93,9.33-.93,11.2l-8.4-16.8a142,142,0,0,1-8.87-23.34,74.78,74.78,0,0,0,21.47-7.93,21.8,21.8,0,0,0,9.8-16.34,11.25,11.25,0,0,0-10.73-11.2h-1.4c-9.34.93-17.27,15.4-18.67,23.33,0,.47-.94,9.81-.94,11.67l-.46-1.4a147.11,147.11,0,0,1-4.67-24.27c-.47-4.67-.93-8.87-.93-13.07a58.41,58.41,0,0,0,21.47-5.6c6.07-3.27,10.27-8.4,11.67-14.93a10.41,10.41,0,0,0-9.34-12.14h-.93c-9.34,0-18.67,13.54-21,21.47a77.06,77.06,0,0,1-1.86,7.94V1277c0-7,.46-13.53.93-18.67a52.37,52.37,0,0,1,.93-8.86A81,81,0,0,0,110.86,1235a22.2,22.2,0,0,0,3.27-18.67c-1.87-5.61-8.4-8.41-14-6.54a1.64,1.64,0,0,0-.93.47c-8.4,4.2-10.27,20.54-8.87,28.47,0,.47,3.27,11.67,3.27,11.2h0a46,46,0,0,0-.93,8.4c-.47,5.61-.94,12.14-1.4,19.14a180.29,180.29,0,0,0,.46,22.41,110,110,0,0,0,4.2,24.73v.47c-1.4-2.33-5.6-8.4-6.06-8.87-5.6-6.07-19.61-14.93-28-11.67-5.6,2.8-7.93,9.34-5.13,14.47,0,.47.46.47.46.94A21.44,21.44,0,0,0,74,1329.26c7,.93,21-3.27,22.4-3.73a151.39,151.39,0,0,0,8.87,24.27,121.73,121.73,0,0,0,6.53,13.53c-1.4-1.86-2.33-3.73-2.8-3.73-5.6-6.07-19.13-14.94-28-11.67a10.41,10.41,0,0,0-5.14,14.47,1.6,1.6,0,0,0,.47.93,21.39,21.39,0,0,0,16.8,9.34,71.29,71.29,0,0,0,21.94-3.27c.93,1.87,1.87,3.27,2.8,5.14,4.2,8.4,8.4,16.33,12.14,24.73a50.56,50.56,0,0,1,3.73,8.87,14.12,14.12,0,0,0-2.33-3.26c-5.6-6.07-19.14-14.94-28-11.67a10.41,10.41,0,0,0-5.13,14.47,1.65,1.65,0,0,0,.46.93,21.41,21.41,0,0,0,16.81,9.33,63.84,63.84,0,0,0,21-3.26c.94,2.8,2.34,6.07,3.27,8.87.47,1.86,1.4,4.2,1.87,6.06a30,30,0,0,0,1.86,6.07c.94,3.74,1.87,7.94,2.8,11.67.47,2.8.94,5.13,1.4,7.93-1.4-2.8-4.2-8.4-4.2-8.86-4.2-7-16.8-17.74-25.67-15.41a11.07,11.07,0,0,0-7.93,13.07c0,.47.46,1.4.46,1.87a21.17,21.17,0,0,0,14.94,11.67,90.27,90.27,0,0,0,22.4,0c.94,4.2,1.87,8.4,2.34,12.13,2.33,13.54,3.73,25.21,4.67,33.14,0,1.4.46,2.8.46,3.74H127.66l10.27,196.5h47.14l10.27-196.5H169.67l.47-1.4c3.73-7.47,8.4-17.74,13.53-30.81,1.87-4.2,3.27-8.4,5.14-13.07a72.66,72.66,0,0,0,22.4,1.87c6.54-.93,12.14-5.13,15.87-10.74A10.4,10.4,0,0,0,222,1438c-.47,0-.47-.47-.94-.47-8.86-2.8-21.93,7-27.07,13.53-.46.47-2.8,5.14-4.66,7.94a26.1,26.1,0,0,0,1.86-5.6c1.4-3.74,2.8-7.47,4.2-11.67l1.87-6.07c.47-1.87.93-4.2,1.4-6.53.93-5.14,2.33-9.81,2.8-15.41a68.16,68.16,0,0,0,21.47,4.67,22.41,22.41,0,0,0,17.27-7.93,10.63,10.63,0,0,0-2.8-14.94c-.47,0-.47-.47-.93-.47-8.4-4.2-22.87,3.74-28.47,9.34-.47.47-4.21,5.13-6.07,7.47.46-3.27.93-6.07,1.4-9.34.93-9.33,1.86-18.2,2.8-27.54.47-2.8.47-5.6.93-8.4.94.47,14.94,5.6,21.94,5.14a22.4,22.4,0,0,0,17.27-7.94,10.64,10.64,0,0,0-2.8-14.94c-.47,0-.47-.46-.93-.46-7.94-4.2-22.88,3.73-28.48,9.33-.46.47-5.6,7-7,8.87.47-6.07,1.4-12.13,2.34-18.67a195,195,0,0,1,5.6-23.8,71.68,71.68,0,0,0,21.93,5.13,22.41,22.41,0,0,0,17.27-7.93,10.63,10.63,0,0,0-2.8-14.94c-.46,0-.46-.47-.93-.47-8.4-4.2-22.87,3.74-28.47,9.34-.47.46-6.07,7.47-7,8.87a1.72,1.72,0,0,1,.46-1.4,108.55,108.55,0,0,1,9.81-22.87,92.59,92.59,0,0,1,6.53-11.67,66.51,66.51,0,0,0,21,7.46,24.12,24.12,0,0,0,18.21-6.06,10.61,10.61,0,0,0-.94-15.41l-.93-.93c-7.47-5.13-22.87.93-29.41,6.07l-6.06,6.07,3.26-4.67c3.74-5.6,7.94-10.74,11.21-15.4q2.79-3.51,5.6-7a69.57,69.57,0,0,0,21.94-3.26,21.71,21.71,0,0,0,13.06-14,10.85,10.85,0,0,0-7.93-13.07C280.29,1228.91,279.83,1228.91,279.36,1228.91ZM178.54,1474c-5.6,12.61-10.74,22.88-14,30.34l-1.87,3.74h-.47c0-1.4-.46-2.8-.46-4.67-.94-7.93-2.8-19.6-5.6-33.14-.94-4.2-1.87-8.87-2.8-13.54,4.2-1.86,8.4-3.73,12.6-6.06a75.74,75.74,0,0,0,18.2,11.67A87.77,87.77,0,0,0,178.54,1474Z"/><path class="cls-3" d="M231.28,1287.25s2.8-10.73,3.27-11.2c.93-7.93-1.4-24.27-9.8-28.47a11,11,0,0,0-14.47,5.6,1.6,1.6,0,0,1-.47.93,23.72,23.72,0,0,0,3.74,18.67C217.75,1278.85,231.28,1287.25,231.28,1287.25Z"/></g><g id="freepik--character-2--inject-2"><path class="cls-4" d="M1119.05,1455.28,1155,1711.07c.47,2.33,2.34,4.2,4.67,3.73h.47a3.84,3.84,0,0,0,3.26-4.67l-25.2-259.05Z"/><path class="cls-4" d="M913.68,1455.28l-35.94,255.79c-.47,2.33-2.33,4.2-4.67,3.73h-.46a3.84,3.84,0,0,1-3.27-4.67l25.2-259.05Z"/><path class="cls-4" d="M900.14,1481.42,888,1187.37c-.93-16.81,12.6-31.28,29.4-32.21h207.24a30.78,30.78,0,0,1,30.81,30.81v2.33L1132.59,1481Z"/><rect class="cls-1" x="878.67" y="1417.01" width="273.05" height="64.41"/><path class="cls-4" d="M900.14,1481.42H879.61l-14.47-120.89a17.72,17.72,0,0,1,17.73-17.73h0a17.72,17.72,0,0,1,17.74,17.73h0v120.89Z"/><path class="cls-4" d="M1132.12,1481.42h20.54l14.47-120.89a17.73,17.73,0,0,0-17.74-17.73h0a17.72,17.72,0,0,0-17.73,17.73h0Z"/><polygon class="cls-5" points="927.22 1253.65 937.02 1353.07 1091.05 1353.07 1100.85 1253.65 927.22 1253.65"/><path class="cls-5" d="M990.23,1090.75,908.08,1137l-44.81,135.82H1184.4s-51.34-132.09-61.61-139.09-89.15-43.87-89.15-43.87Z"/><path class="cls-5" d="M1050,1044.54s8.4-6.07,9.8,0,0,19.14-5.6,21.47a8,8,0,0,1-9.33-2.33l3.73-16.34Z"/><path class="cls-5" d="M974.83,1044.54s-8.41-6.07-9.81,0,0,19.14,5.14,21.47a8,8,0,0,0,9.33-2.33l-3.73-16.34Z"/><path class="cls-5" d="M987,1079.08a27,27,0,0,0-8.4,10.73c-1.4,5.14-7,49-7,49s29.4-19.13,37.81-20.53,49.94,23.8,49.94,23.8-9.8-49.94-17.74-60.68S1000,1066.94,987,1079.08Z"/><path class="cls-5" d="M991.63,1096.82s20.54,70,22.4,62.07,20.07-60.21,20.07-60.21S999.1,1102,991.63,1096.82Z"/><path class="cls-5" d="M977.63,1052.94c1.86,12.14,5.13,23.81,8.4,35.47,3.73,9.81,17.73,30.81,28.47,28.48s28.47-24.74,30.81-33.14a375.92,375.92,0,0,0,5.13-51.35c0-7.46-7.47-19.13-31.74-12.13S978.56,1037.54,977.63,1052.94Z"/><path class="cls-4" d="M1036,1027.74a247.23,247.23,0,0,1-30.81,23.8c-19.13,13.07-35.94,7.47-35.47,3.74a55.29,55.29,0,0,1,3.73-9.34s-7,2.33-8.4-10.74-4.66-42.47,9.81-53.67,47.6-16.34,62.07-11.67,21,26.14,21,35.94c-.47,10.27-1.4,20.07-2.8,30.34,0,0,3.26,4.67-5.6,8.4s-14.47,0-13.07-7A9.26,9.26,0,0,0,1036,1027.74Z"/><path class="cls-5" d="M876.81,1235.91s9.33-3.73,25.2,2.33,48.54,15.41,53.21,15.41S986,1256,986,1256l.93,16.8s-116.69,2.34-123.69,0S858.6,1248.05,876.81,1235.91Z"/><path class="cls-5" d="M959,1263.45s20.53-17.74,26.6-21.47,23.81,23.8,24.27,26.14-4.67,3.26-4.67,3.26l-16.33-3.26c-2.8-.47-5.6,2.33-13.07,2.33H955.22"/><path class="cls-5" d="M1174.13,1235.91s-9.34-3.73-25.2,2.33-48.55,15.41-53.22,15.41-30.8,2.33-30.8,2.33l-.93,16.8s116.68,2.34,123.69,0S1192.33,1248.05,1174.13,1235.91Z"/><path class="cls-5" d="M1085,1263.45s-20.54-17.74-26.61-21.47-23.8,23.8-24.27,26.14,4.67,3.26,4.67,3.26l16.34-3.26c2.8-.47,5.6,2.33,13.07,2.33h20.53"/><rect class="cls-5" x="937.02" y="1353.07" width="148.43" height="64.41"/><path class="cls-6" d="M950.55,1349.33s43,11.67,50.88,42.94"/><path class="cls-6" d="M1075.64,1353.07s-35-1.87-46.67,37.34"/><path class="cls-5" d="M967.36,1390.41a46.78,46.78,0,0,0-37.81-49.48,35.63,35.63,0,0,0-21.94,2.8c-29.4,13.54-.46,333.26-.46,333.26h23.33C930.48,1676.53,961.29,1487.49,967.36,1390.41Z"/><polygon class="cls-5" points="904.35 1657.39 897.81 1687.26 874.47 1701.73 933.75 1701.73 934.68 1657.39 904.35 1657.39"/><path class="cls-5" d="M897.81,1687.26s14.94-9.33,25.21,0"/><path class="cls-5" d="M1064.91,1390.41a46.77,46.77,0,0,1,37.81-49.48,35.61,35.61,0,0,1,21.93,2.8c29.41,13.54.47,333.26.47,333.26h-23.34C1101.78,1676.53,1071,1487.49,1064.91,1390.41Z"/><polygon class="cls-5" points="1127.92 1657.39 1134.92 1687.26 1157.79 1701.73 1098.52 1701.73 1097.58 1657.39 1127.92 1657.39"/><path class="cls-5" d="M1134.92,1687.26s-14.93-9.33-25.67,0"/></g><g id="freepik--device-3--inject-2"><path class="cls-5" d="M1462.12,1270.92H1296.89a3.15,3.15,0,0,1-2.8-1.87L1248.34,1165c-.93-1.4-.46-3.26,1.4-4.2.47-.46.94-.46,1.87-.46h164.77a3.15,3.15,0,0,1,2.8,1.86l45.74,104.09a3.08,3.08,0,0,1-1.4,4.2C1463.05,1270.45,1462.59,1270.92,1462.12,1270.92Z"/><path class="cls-1" d="M1446.72,1262.51h-141a2.38,2.38,0,0,1-2.33-1.86L1264.21,1172a3.13,3.13,0,0,1,1.4-3.73c.47,0,.94-.47,1.4-.47h141a2.39,2.39,0,0,1,2.34,1.87l39.21,88.68a3.15,3.15,0,0,1-1.4,3.74A3.69,3.69,0,0,1,1446.72,1262.51Z"/><rect class="cls-5" x="1294.55" y="1263.91" width="247.85" height="7.93"/><rect class="cls-5" x="1294.55" y="1263.91" width="119.96" height="7.93"/><path class="cls-4" d="M1384.17,1108h0a71.92,71.92,0,0,1-71.88-71.88h0c0-39.68,32.21-72.35,71.88-72.35h0a72,72,0,0,1,71.88,72.35h0A71.92,71.92,0,0,1,1384.17,1108Z"/><path class="cls-7" d="M1384.17,1003.47c10.74,0,11.67,0,15.87.46a21.27,21.27,0,0,1,7.47,1.4,11.21,11.21,0,0,1,7.47,7.47,19.41,19.41,0,0,1,1.4,7.47V1052a21.27,21.27,0,0,1-1.4,7.47,11.22,11.22,0,0,1-7.47,7.46,19.26,19.26,0,0,1-7.47,1.4H1368.3a21,21,0,0,1-7.47-1.4c-1.86-.46-3.27-1.86-4.67-2.8a9.72,9.72,0,0,1-2.8-4.66,19.45,19.45,0,0,1-1.4-7.47v-31.74a21.19,21.19,0,0,1,1.4-7.47c.47-1.87,1.87-3.27,2.8-4.67a9.75,9.75,0,0,1,4.67-2.8,19.45,19.45,0,0,1,7.47-1.4c4.2,0,5.13-.46,15.87-.46m0-7c-10.74,0-12.14,0-16.34.47a20.9,20.9,0,0,0-9.33,1.87,20.46,20.46,0,0,0-11.67,11.67,30.23,30.23,0,0,0-1.87,9.33v32.67a24.42,24.42,0,0,0,1.87,9.81A20.54,20.54,0,0,0,1358.5,1074c3.27.93,6.07,1.86,9.33,1.86h32.68a35.33,35.33,0,0,0,9.8-1.4,20.51,20.51,0,0,0,11.67-11.67c.93-3.26,1.86-6.06,1.86-9.8v-32.67a30.29,30.29,0,0,0-1.86-9.34,20.54,20.54,0,0,0-11.67-11.67,36.54,36.54,0,0,0-9.8-1.86c-4.2-.47-5.14-.47-16.34-.94"/><path class="cls-7" d="M1384.17,1015.6a20.42,20.42,0,0,0-20.54,20.54c0,11.2,8.87,20.07,20.54,20.07s20.54-8.87,20.54-20.07a20.73,20.73,0,0,0-20.54-20.54h0m0,33.61a13.07,13.07,0,1,1,13.07-13.07h0a13,13,0,0,1-13.07,13.07h0"/><path class="cls-7" d="M1409.84,1014.67a4.67,4.67,0,1,1-4.67-4.67,4.68,4.68,0,0,1,4.67,4.67"/><polyline class="cls-4" points="1367.37 1106.62 1380.44 1195.77 1395.84 1102.88"/></g><g id="freepik--device-2--inject-2"><path class="cls-5" d="M931.88,1160.3h168a11.55,11.55,0,0,1,11.66,11.66v102.22H920.21V1172A11.55,11.55,0,0,1,931.88,1160.3Z"/><path class="cls-4" d="M1151.73,1028.67h0c-39.68,0-71.88-32.21-72.35-71.88h0a72,72,0,0,1,72.35-71.88h0a71.92,71.92,0,0,1,71.88,71.88h0A71.92,71.92,0,0,1,1151.73,1028.67Z"/><path class="cls-7" d="M1140.06,1000.2h17.73V956.32h12.14l1.4-14.47h-13.54v-8.4c0-3.27.47-4.67,4.2-4.67h9.34v-15.4h-12.14c-13.07,0-19.13,5.6-19.13,16.8v11.67h-9.34v14.94h9.34Z"/><polyline class="cls-4" points="1132.12 1024.94 1098.05 1133.22 1156.86 1021.2"/></g><path class="cls-5" d="M647.63,1270.92H812.86a3.16,3.16,0,0,0,2.8-1.87L861.4,1165a3.07,3.07,0,0,0-1.4-4.2,1.72,1.72,0,0,0-1.4-.46H693.84a3.14,3.14,0,0,0-2.8,1.86L645.3,1266.25a3.07,3.07,0,0,0,1.4,4.2C646.23,1270.45,646.7,1270.92,647.63,1270.92Z"/><path class="cls-1" d="M663,1262.51h140.5a2.38,2.38,0,0,0,2.33-1.86L845.07,1172a3.13,3.13,0,0,0-1.4-3.73,1.64,1.64,0,0,1-.94-.47H702.24a2.38,2.38,0,0,0-2.33,1.87l-39.21,88.68a3.13,3.13,0,0,0,1.4,3.74C662.1,1262.51,662.57,1262.51,663,1262.51Z"/><rect class="cls-5" x="566.88" y="1263.91" width="247.85" height="7.93"/><rect class="cls-5" x="694.77" y="1263.91" width="119.96" height="7.93"/><path class="cls-4" d="M717.18,1108h0a71.91,71.91,0,0,1-71.88-71.88h0a71.9,71.9,0,0,1,71.88-71.88h0a71.91,71.91,0,0,1,71.88,71.88h0A71.92,71.92,0,0,1,717.18,1108Z"/><polygon class="cls-4" points="717.18 1108.02 733.98 1189.7 737.71 1098.68 717.18 1108.02"/><g id="freepik--Table--inject-2"><path class="cls-4" d="M1366.9,1305.92,1401,1709.67a4.3,4.3,0,0,0,5.14,3.26,4.47,4.47,0,0,0,3.26-4.2L1386,1305.92Z"/><path class="cls-4" d="M1594.68,1305.92l34.07,405.15a4.37,4.37,0,0,0,5.13,3.73h.47a3.85,3.85,0,0,0,3.27-4.67l-23.34-404.21Z"/><path class="cls-4" d="M654.16,1305.92,636.43,1706.4a4.65,4.65,0,0,0,3.26,4.67h0a4.31,4.31,0,0,0,5.14-3.27v-.47l28.47-401.41Z"/><path class="cls-4" d="M444.12,1305.92,426.39,1705a4.65,4.65,0,0,0,3.26,4.67,4.31,4.31,0,0,0,5.14-3.27v-.47l28.47-400Z"/><rect class="cls-1" x="431.05" y="1283.52" width="1207.96" height="34.54"/><rect class="cls-4" x="431.05" y="1283.52" width="1207.96" height="11.67"/><rect class="cls-4" x="1337.03" y="1283.52" width="302.46" height="34.54"/><rect class="cls-1" x="420.32" y="1271.85" width="1229.43" height="13.07"/><rect class="cls-4" x="1349.63" y="1271.85" width="300.59" height="13.07"/><rect class="cls-5" x="1204.47" y="1207.44" width="43.88" height="64.41"/><path class="cls-5" d="M1246,1263.45h-4.67a3.74,3.74,0,0,1,0-7.47H1246a7.18,7.18,0,0,0,7-7v-15.87a7.18,7.18,0,0,0-7-7h-6.07c-1.86,0-3.26-1.87-3.26-4.2,0-1.87,1.4-2.8,3.26-3.27H1246a13.75,13.75,0,0,1,14,14v15.87c0,8.4-6.06,14.94-14,14.94Z"/></g><g id="freepik--character-3--inject-2"><path class="cls-5" d="M1537.27,1052.47s18.67,42.48,30.34,61.15,26.13,20.54,32.67,14L1619,1109l22.87,20.54,19.6-29.41c-8.87-11.67-17.27-24.27-25.2-36.87-7.47-14-27.07-48.08-62.08-42.47S1535.4,1042.67,1537.27,1052.47Z"/><path class="cls-4" d="M1569.94,1032.87s-31.74,36.87-54.61,30.34-15.4-51.34,27.07-76.08,84.95-18.67,100.35,8.87,9.8,65.34,6.54,77.48-10.74,21.94-25.21,14a195.88,195.88,0,0,1-32.67-26.14s-.93,21.94-6.54,13.07c-3.73-6.53-5.6-14-6.53-21.94C1578.81,1052.47,1559.2,1052.47,1569.94,1032.87Z"/><path class="cls-5" d="M1592.81,1076.28s-4.2-25.21,6.53-21.94,9.81,17.27,4.21,27.07"/><polygon class="cls-5" points="1514.39 1434.28 1564.34 1667.66 1590.94 1669.06 1570.4 1431.01 1514.39 1434.28"/><polygon class="cls-5" points="1564.34 1667.66 1509.73 1703.13 1595.61 1703.13 1590.94 1669.06 1564.34 1667.66"/><path class="cls-5" d="M1649.75,1329.26l-9.8,22.87s-76.08,14-116.69,22.87-85.88,25.21-85.88,35,34.07,259,34.07,259l20.54.93,4.2-226.37s125.56-8.87,160.1-9.81,63,4.2,88.22-26.13,8.86-79.35,8.86-79.35Z"/><polygon class="cls-5" points="1470.99 1668.59 1467.72 1670.93 1400.97 1709.67 1494.32 1709.67 1491.99 1669.99 1470.99 1668.59"/><path class="cls-5" d="M1530.73,1237.31a120.53,120.53,0,0,0-18.2-2.33c-7,0-21.94,18.2-21.94,20.53s.93,6.07,4.67,3.74,13.53-8.87,13.53-8.87l39.21,11.67,3.74-16.34Z"/><path class="cls-5" d="M1530.73,1245.71s-25.67,1.4-31.27,2.34-7.94,7-.94,7,16.34-.94,16.34-.94a30.88,30.88,0,0,0,15.87,5.6c10.27.94,12.6.94,12.6.94"/><polygon class="cls-5" points="1551.73 1245.71 1548 1262.52 1680.56 1305.46 1683.36 1267.18 1551.73 1245.71"/><path class="cls-5" d="M1676.83,1101.48s-40.15,43.41-49,58.82,17.27,85.88,19.6,106.88,8.87,33.61-.93,44.81-.94,17.27,4.2,21.94,52.27,22.87,77.48,19.6,30.34-20.54,32.67-48.07,0-123.23-21.94-162.43S1695.5,1084.21,1676.83,1101.48Z"/><path class="cls-5" d="M1662.82,1088.41,1618,1147.23l5.61,16.33s26.6-28,37.34-34.54,40.6-32.67,40.6-32.67S1683.36,1075.35,1662.82,1088.41Z"/><path class="cls-5" d="M1664.69,1141.62s-25.2,12.14-38.27,29.41-65.35,105.49-65.35,105.49L1445.31,1256l-.93,15.4s67.68,35,98.95,42.48,52.28,18.67,57.88,8.87,54.61-91.49,54.61-91.49l35.94-27.07"/><line class="cls-6" x1="1656.29" y1="1231.24" x2="1698.76" y2="1218.17"/><path class="cls-5" d="M1445.78,1256.45s-25.2-12.14-33.6-13.07-25.21,15.4-23.81,20.53,17.27-4.2,17.27-4.2,3.27,5.61,16.34,9.81a48.16,48.16,0,0,0,22.87,2.33Z"/><path class="cls-4" d="M1702,1455.28l-35.94,255.79c-.47,2.33-2.33,4.2-4.67,3.73H1661a3.84,3.84,0,0,1-3.27-4.67l25.2-259.05Z"/><path class="cls-4" d="M1805.65,1457.15l60.21,251.58a4.3,4.3,0,0,1-3.27,5.14h-.46a4.08,4.08,0,0,1-4.67-3.27l-70-244.11Z"/><path class="cls-4" d="M1696.43,1454.35l38.27,255.78a4.63,4.63,0,0,1-3.73,5.14h-.47a4.18,4.18,0,0,1-4.66-3.27l-48.55-249.25Z"/><path class="cls-4" d="M1560.6,1455.28l-35.94,255.79c-.46,2.33-2.33,4.2-4.66,3.73h-.47a3.86,3.86,0,0,1-3.27-4.67l25.21-259.05Z"/><path class="cls-1" d="M1862.59,1189.7l-43.87,285.19H1506.93s-4.67-82.15,9.33-111.09,183.44,33.14,189.5,31.74c4.67-.93-2.33-148.43-10.26-205.84a28.4,28.4,0,0,1,23.8-32.21c1.4,0,2.8-.46,4.2-.46h111.09a28.58,28.58,0,0,1,28.47,28.47A12.83,12.83,0,0,1,1862.59,1189.7Z"/><path class="cls-4" d="M1516.26,1363.33c14-28.94,183.44,33.14,189.5,31.74,4.67-.93-2.33-148.43-10.26-205.84-2.8-14.93,7.46-29.4,22.4-32.2s29.41,7.47,32.21,22.4a38.39,38.39,0,0,1,0,10.27l-43.88,285.19H1507.39C1506.93,1474.42,1502.26,1392.27,1516.26,1363.33Z"/></g><g id="freepik--character-1--inject-2"><polygon class="cls-5" points="483.33 1123.42 456.26 1143.03 434.32 1123.42 471.2 1089.35 483.33 1123.42"/><path class="cls-5" d="M621,1378.27c-28.93-4.67-147,15.87-147,15.87s-10.27,38.74,11.2,35.47,96.15-2.33,96.15-2.33-48.08,112-60.21,171.77C514.6,1631.72,496.4,1649,492.2,1663s8.4,8.4,21,16.8a99.35,99.35,0,0,0,48.55,15.41c15.4,0-26.61-28-26.61-50.41s50.88-96.15,75.62-138.16c36.4-60.21,12.6-21.47,20.53-43.88a61.5,61.5,0,0,0,7-13.53C647.63,1420.74,650,1382.47,621,1378.27Z"/><path class="cls-4" d="M520.21,1691.46c-2.34-7.93-17.27-6.53-17.27-6.53-4.21,5.13-1.41,15.87-1.41,15.87H493.6s0-21.47-6.53-28,1.4-6.53,1.4-6.53l10.26,2.33c9.81,3.27,28,11.67,29.88,14.47a28.34,28.34,0,0,0,7.46,7.47c4.67,2.8,22.41,3.73,27.08,3.27s4.2.46,3.26,2.8a14.78,14.78,0,0,1-12.6,5.13H528.14A27.68,27.68,0,0,1,520.21,1691.46Z"/><path class="cls-4" d="M521.14,1677c0-1.86,18.2-19.13,18.2-19.13a18.25,18.25,0,0,1,12.14,9.8l.93,6.07-18.67,11.2C533.27,1684.46,521.61,1681.66,521.14,1677Z"/><path class="cls-5" d="M533.74,1341.86s106-7.93,115.76,4.2,57.41,292.66,57.41,292.66,26.6,45.28,30.8,49.48,11.67,6.06,7.94,8.4-23.81,2.33-28.47-.47-20.07-17.74-25.21-20.07-13.53,0-15.87-7.47a20.12,20.12,0,0,1,2.8-12.6,40.23,40.23,0,0,0,.94-30.34c-7.47-18.67-21.48-65.81-33.61-81.21-18.2-23.34-42.94-98.49-40.61-136.76l-95.22,8.4C496.87,1417,515.07,1349.33,533.74,1341.86Z"/><path class="cls-4" d="M702.71,1694.26c-2.34-7.46-17.27-6.53-17.27-6.53-4.2,5.13-1.4,15.87-1.4,15.87H676.1s0-21.47-6.53-28,1.4-6.53,1.4-6.53l10.27,2.33c9.8,3.27,28,12.14,29.87,14.47a28.53,28.53,0,0,0,7.47,7.47c4.66,2.8,22.4,3.73,27.07,3.27s4.2.46,3.27,2.8a14.81,14.81,0,0,1-12.61,5.13H710.17A27.82,27.82,0,0,1,702.71,1694.26Z"/><path class="cls-4" d="M705.51,1683.06c0-1.87,18.2-19.14,18.2-19.14a15.48,15.48,0,0,1,8.87,9.81l2.33,8.4-18.67,11.2C716.24,1692.4,706,1687.73,705.51,1683.06Z"/><path class="cls-5" d="M541.68,1241l21-8.86a122,122,0,0,1,18.2-2.34c7,0,21.94,18.21,21.94,20.54s-.93,6.07-4.67,3.73-13.53-8.87-13.53-8.87l-39.21,11.67-132.56,42.95-3.27-38.28Z"/><path class="cls-5" d="M562.68,1241s26.14,1.4,31.27,2.34,7.94,7,.94,7-16.34-.93-16.34-.93c-4.67,3.26-9.8,5.6-15.87,5.6-10.27.93-12.6.93-12.6.93"/><path class="cls-5" d="M440.39,1119.69s25.67,14.47,31.74,42.94,7.47,81.21,5.13,93.35-31.74,31.74-31.74,31.74l-8.86,54.14s141-7,148.42-7,3.74,40.61,2.34,54.15-14,42-14,42-73.29,7.94-108.29,9.81c-42,2.33-60.21,3.26-92.42.46s-50.41-27.07-52.74-60.21,12.13-41.54,15.87-73.75,9.8-93.35,13.53-136.29S386.25,1111.29,440.39,1119.69Z"/><path class="cls-5" d="M549.61,1059.48a147.56,147.56,0,0,1-14.94,46.67c-11.2,19.61-41.54,31.74-49,31.74s-21-30.81-21-30.81,39.21-56.47,60.21-62.54S549.61,1059.48,549.61,1059.48Z"/><path class="cls-4" d="M511.34,1081.88s-1.4-8.4,27.07-8.4,50.41-27.07,52.74-56.48-29.4-31.74-50.41-31.74-48.07-17.27-78.41-6.07-30.81,45.28-31.74,67.68-2.34,28-50.41,45.28-76.08,48.07-84.95,91.95,39.21,77.48,76.08,58.81,36.87-103.15,63.95-113S497.8,1118.75,511.34,1081.88Z"/><path class="cls-5" d="M432.92,1201.84s62.55,134,70.95,134,106.89-66.28,106.89-66.28a22.32,22.32,0,0,0,13.53,0,73.21,73.21,0,0,0,14.47-14.94s19.6,14.94,17.27,4.67a29.24,29.24,0,0,0-25.67-19.61c-11.2,0-27.07,25.68-27.07,25.68l-85.89,30.8s-21.93-95.68-33.14-119-21.93-37.81-28-34.54"/><path class="cls-5" d="M630.36,1240.11c-11.2,0-27.07,25.67-27.07,25.67l-85.89,30.81s-2.8-12.14-7-28.94l-35,21.94c13.07,25.2,24.73,46.21,28,46.21,8.4,0,106.89-66.28,106.89-66.28a22.32,22.32,0,0,0,13.53,0,73,73,0,0,0,14.47-14.94s19.61,14.94,17.27,4.67C652.3,1248.51,642,1241,630.36,1240.11Z"/><path class="cls-4" d="M355,1455.28l35.94,255.79c.47,2.33,2.34,4.2,4.67,3.73h.47a3.86,3.86,0,0,0,3.27-4.67l-25.68-259.05Z"/><path class="cls-4" d="M251.82,1457.15l-60.21,251.58a4.3,4.3,0,0,0,3.27,5.14h.46a4.08,4.08,0,0,0,4.67-3.27l70-244.11Z"/><path class="cls-4" d="M361,1454.35l-38.27,255.78a4.63,4.63,0,0,0,3.73,5.14H327a4.2,4.2,0,0,0,4.67-3.27l48.54-249.25Z"/><path class="cls-4" d="M496.4,1455.28l35.94,255.79c.47,2.33,2.33,4.2,4.67,3.73h.47a3.84,3.84,0,0,0,3.26-4.67l-25.2-259.05Z"/><path class="cls-1" d="M194.41,1189.7l43.87,285.19h311.8s4.67-82.15-9.34-111.09-183.43,33.14-189.5,31.74c-4.67-.93,2.33-148.43,10.27-205.84a28.41,28.41,0,0,0-24.27-32.21c-1.4,0-2.8-.46-4.2-.46H222.88a28.28,28.28,0,0,0-28.47,28.47Z"/><path class="cls-4" d="M541.21,1363.33c-13.54-28.94-183.44,33.14-189.5,31.74-4.67-.93,2.33-148.43,10.26-205.84,2.81-14.93-7.46-29.4-22.4-32.2s-29.41,7.47-32.21,22.4a38.39,38.39,0,0,0,0,10.27l43.88,285.19H550.08C550.08,1474.42,554.74,1392.27,541.21,1363.33Z"/></g><path class="cls-1" d="M899.34,908.81l-187.28,0a6.7,6.7,0,0,1-6.71-6.71h0a6.71,6.71,0,0,1,6.71-6.72l187.28,0a6.72,6.72,0,0,1,6.72,6.71h0A6.72,6.72,0,0,1,899.34,908.81Z"/><path class="cls-1" d="M899.35,948.28l-187.29,0a6.72,6.72,0,0,1-6.71-6.71h0a6.71,6.71,0,0,1,6.71-6.72l187.29,0a6.71,6.71,0,0,1,6.71,6.71h0A6.71,6.71,0,0,1,899.35,948.28Z"/><rect class="cls-1" x="613.91" y="868.67" width="433.48" height="3.47"/><polygon class="cls-1" points="1042.55 877.46 1042.54 863.29 1061.98 870.37 1042.55 877.46"/><rect class="cls-1" x="520.7" y="776.66" width="230.46" height="3.63" transform="translate(-142.46 1414.5) rotate(-90.01)"/><polygon class="cls-1" points="628.51 669.81 643.33 669.81 635.91 652.17 628.51 669.81"/><path class="cls-8" d="M679.94,915.92h-1.12a12.17,12.17,0,0,1-12.18-12.17h0a12.18,12.18,0,0,1,12.18-12.18h1.12a12.19,12.19,0,0,1,12.18,12.18h0A12.18,12.18,0,0,1,679.94,915.92Z"/><rect class="cls-3" x="666.64" y="926.54" width="25.48" height="24.36" rx="2.61"/><polygon class="cls-1" points="1024.32 673.76 999.42 675.84 1002.7 682.29 924.56 719.08 851.56 841.78 765.4 767.92 695.91 801.62 695.71 801.72 651.4 842.99 653.43 844.98 697.41 804 764.95 771.25 852.3 846.14 926.63 721.19 1003.96 684.78 1007.19 691.16 1024.32 673.76"/><path class="cls-1" d="M696.41,812.79h-.82a9,9,0,0,1-9-9h0a9,9,0,0,1,9-9h.83a9,9,0,0,1,9,9h0A9,9,0,0,1,696.41,812.79Z"/><path class="cls-1" d="M925.6,731h-.83a9,9,0,0,1-9-9h0a9,9,0,0,1,9-9h.83a9,9,0,0,1,9,9h0A9,9,0,0,1,925.6,731Z"/><path class="cls-1" d="M765.18,780.9h-.83a9,9,0,0,1-9-9h0a9,9,0,0,1,9-9h.82a9,9,0,0,1,9,9h0A9,9,0,0,1,765.18,780.9Z"/><path class="cls-3" d="M851.93,850.42h-.83a9,9,0,0,1,0-18h.83a9,9,0,1,1,0,18Z"/><rect class="cls-9" x="677.68" y="1017.01" width="76.84" height="57.46" rx="3.04"/><path class="cls-10" d="M750.59,1016.58H681.53c-2.14,0-3.81,16.55-3.81,18.69l37.82,39.19h35.05a3.9,3.9,0,0,0,3.89-3.89v-50.11A3.9,3.9,0,0,0,750.59,1016.58Z"/><path class="cls-11" d="M695.22,1026.63h22V997.81H698.51Z"/><path class="cls-12" d="M739.13,1026.63h-22V997.81h18.67Zm15.39-23.35,0,.09Z"/><path class="cls-13" d="M754.55,1003.37l0-.09a7,7,0,0,0-6.78-5.47H735.85l3.28,28.82h22Z"/><path class="cls-12" d="M679.84,1003.28l0,.09Z"/><path class="cls-12" d="M679.81,1003.37l0-.09a7,7,0,0,1,6.78-5.47h11.89l-3.29,28.82h-22Z"/><path class="cls-14" d="M695.26,1026.62a11,11,0,0,1-21.94,0Z"/><path class="cls-15" d="M717.2,1026.62a11,11,0,0,1-21.94,0Z"/><path class="cls-14" d="M739.15,1026.62a11,11,0,0,1-21.95,0Z"/><path class="cls-15" d="M761.08,1026.62a11,11,0,0,1-21.94,0Z"/><path class="cls-16" d="M750.11,1056.34c0-.52-.1-1-.19-1.6H738v5.17h6.93a6,6,0,0,1-2.54,3.87v0a7.34,7.34,0,0,1-2.81,1.1,8.18,8.18,0,0,1-3,0,7.68,7.68,0,0,1-2.83-1.22,7.93,7.93,0,0,1-2.78-3.56,3.42,3.42,0,0,1-.13-.34h0a7.73,7.73,0,0,1,0-4.94,7.85,7.85,0,0,1,1.84-3,7.47,7.47,0,0,1,7.54-2,6.82,6.82,0,0,1,2.74,1.62l2.34-2.34c.41-.42.84-.82,1.24-1.25a12.37,12.37,0,0,0-4.1-2.54,12.92,12.92,0,0,0-8.57-.08l-.29.11a12.82,12.82,0,0,0-6.92,6.2,12.5,12.5,0,0,0-1.1,3.2,12.73,12.73,0,0,0,9.18,14.81,13.65,13.65,0,0,0,6.51.06,11.55,11.55,0,0,0,5.21-2.7,11.67,11.67,0,0,0,3.22-5.31,14.66,14.66,0,0,0,.51-5.23Z"/></svg>