<svg id="Layer_1" data-name="Layer 1" xmlns="http://www.w3.org/2000/svg" viewBox="0 0 2000 2000"><defs><style>.cls-1{fill:#92bbf7;}.cls-15,.cls-2{fill:#1a2e35;}.cls-17,.cls-18,.cls-19,.cls-20,.cls-3{fill:#4054b7;}.cls-4{fill:#232a44;}.cls-5{fill:#a8a8a8;}.cls-6{fill:#c8c8c8;}.cls-13,.cls-7{fill:#fff;}.cls-8{fill:#375a64;}.cls-9{fill:#ececec;}.cls-10{fill:#dcdcdc;}.cls-11{fill:#ed776a;}.cls-12{fill:#263238;}.cls-13,.cls-15{stroke:#000;stroke-miterlimit:10;}.cls-14{fill:#ff9cbf;}.cls-16,.cls-26{opacity:0.1;}.cls-17,.cls-22{opacity:0.8;}.cls-18,.cls-23{opacity:0.6;}.cls-19,.cls-24{opacity:0.4;}.cls-20,.cls-21,.cls-25{opacity:0.2;}</style></defs><title>JETPAX 5</title><polygon class="cls-1" points="1861.76 617.29 1854.69 617.29 1854.69 612.58 1857.05 612.58 1857.05 610.23 1861.76 610.23 1861.76 617.29"/><path class="cls-1" d="M1845.16,617.29h-9.53v-4.71h9.53Zm-19.06,0h-9.54v-4.71h9.54Zm-19.07,0h-9.53v-4.71H1807Zm-19.07,0h-9.53v-4.71H1788Zm-19.06,0h-9.54v-4.71h9.54Zm-19.07,0h-9.53v-4.71h9.53Zm-19.06,0h-9.54v-4.71h9.54Zm-19.07,0h-9.53v-4.71h9.53Zm-19.07,0h-9.53v-4.71h9.53Zm-19.06,0H1664v-4.71h9.54Zm-19.07,0H1645v-4.71h9.53Zm-19.07,0h-9.53v-4.71h9.53Zm-19.06,0h-9.53v-4.71h9.53Z"/><polygon class="cls-1" points="1597.3 617.29 1590.24 617.29 1590.24 610.23 1594.95 610.23 1594.95 612.58 1597.3 612.58 1597.3 617.29"/><path class="cls-1" d="M1595,600.69h-4.71v-9.53H1595Zm0-19.06h-4.71V572.1H1595Zm0-19.07h-4.71V553H1595Zm0-19.06h-4.71V534H1595Zm0-19.07h-4.71V514.9H1595Zm0-19.07h-4.71v-9.53H1595Zm0-19.06h-4.71v-9.53H1595Zm0-19.07h-4.71V457.7H1595Zm0-19.07h-4.71v-9.53H1595Zm0-19.06h-4.71v-9.53H1595Zm0-19.07h-4.71V400.5H1595Zm0-19.06h-4.71v-9.53H1595Zm0-19.07h-4.71v-9.53H1595Z"/><polygon class="cls-1" points="1594.95 352.84 1590.24 352.84 1590.24 345.77 1597.3 345.77 1597.3 350.48 1594.95 350.48 1594.95 352.84"/><path class="cls-1" d="M1845.16,350.48h-9.53v-4.71h9.53Zm-19.06,0h-9.54v-4.71h9.54Zm-19.07,0h-9.53v-4.71H1807Zm-19.07,0h-9.53v-4.71H1788Zm-19.06,0h-9.54v-4.71h9.54Zm-19.07,0h-9.53v-4.71h9.53Zm-19.06,0h-9.54v-4.71h9.54Zm-19.07,0h-9.53v-4.71h9.53Zm-19.07,0h-9.53v-4.71h9.53Zm-19.06,0H1664v-4.71h9.53Zm-19.07,0H1645v-4.71h9.53Zm-19.07,0h-9.53v-4.71h9.53Zm-19.06,0h-9.53v-4.71h9.53Z"/><polygon class="cls-1" points="1861.76 352.84 1857.05 352.84 1857.05 350.48 1854.69 350.48 1854.69 345.77 1861.76 345.77 1861.76 352.84"/><path class="cls-1" d="M1861.76,600.69h-4.71v-9.53h4.71Zm0-19.06h-4.71V572.1h4.71Zm0-19.07h-4.71V553h4.71Zm0-19.06h-4.71V534h4.71Zm0-19.07h-4.71V514.9h4.71Zm0-19.07h-4.71v-9.53h4.71Zm0-19.06h-4.71v-9.53h4.71Zm0-19.07h-4.71V457.7h4.71Zm0-19.06h-4.71v-9.54h4.71Zm0-19.07h-4.71v-9.53h4.71Zm0-19.07h-4.71V400.5h4.71Zm0-19.06h-4.71v-9.53h4.71Zm0-19.07h-4.71v-9.53h4.71Z"/><rect class="cls-1" x="1575.97" y="598.31" width="33.25" height="33.25"/><path class="cls-1" d="M1611.57,633.92h-38V596h38Zm-33.25-4.71h28.54V600.67h-28.54Z"/><rect class="cls-1" x="1575.97" y="464.91" width="33.25" height="33.25"/><path class="cls-1" d="M1611.57,500.51h-38v-38h38Zm-33.25-4.71h28.54V467.26h-28.54Z"/><rect class="cls-1" x="1575.97" y="331.5" width="33.25" height="33.25"/><path class="cls-1" d="M1611.57,367.1h-38v-38h38Zm-33.25-4.71h28.54V333.86h-28.54Z"/><rect class="cls-1" x="1842.78" y="598.31" width="33.25" height="33.25"/><path class="cls-1" d="M1878.39,633.92h-38V596h38Zm-33.25-4.71h28.53V600.67h-28.53Z"/><rect class="cls-1" x="1842.78" y="464.91" width="33.25" height="33.25"/><path class="cls-1" d="M1878.39,500.51h-38v-38h38Zm-33.25-4.71h28.53V467.26h-28.53Z"/><rect class="cls-1" x="1842.78" y="331.5" width="33.25" height="33.25"/><path class="cls-1" d="M1878.39,367.1h-38v-38h38Zm-33.25-4.71h28.53V333.86h-28.53Z"/><rect class="cls-1" x="1709.37" y="331.5" width="33.25" height="33.25"/><path class="cls-1" d="M1745,367.1h-38v-38h38Zm-33.25-4.71h28.54V333.86h-28.54Z"/><rect class="cls-1" x="1709.37" y="598.31" width="33.25" height="33.25"/><path class="cls-1" d="M1745,633.92h-38V596h38Zm-33.25-4.71h28.54V600.67h-28.54Z"/><path class="cls-1" d="M1729.23,513.26H1676l-20.71,58.08h20.17v5.11h-41.14v-5.11H1647l68.56-184.72h22l67.76,184.72h12.37v5.11h-87.93v-5.11h19.09Zm-50.82-5.92h48.66l-23.39-70.44Z"/><path class="cls-1" d="M378.47,227.53s-.92,52.4-34.48,111.84H296.72c-33.56-59.44-34.48-111.84-34.48-111.84,48.55-27.16,49.81-87.92,49.81-87.92H317v96.22a14.81,14.81,0,1,0,6.8,0V139.61h4.9S329.93,200.37,378.47,227.53Z"/><rect class="cls-1" x="285.43" y="333.62" width="69.85" height="29.4"/><path class="cls-1" d="M482.52,296.88h-4.71c0-86.82-70.63-157.45-157.45-157.45S162.9,210.06,162.9,296.88h-4.71c0-89.42,72.75-162.16,162.17-162.16S482.52,207.46,482.52,296.88Z"/><rect class="cls-1" x="156.89" y="132.77" width="323.27" height="4.71"/><rect class="cls-1" x="143.92" y="280.26" width="33.25" height="33.25"/><path class="cls-1" d="M179.53,315.87h-38v-38h38Zm-33.25-4.72h28.54V282.62H146.28Z"/><rect class="cls-1" x="143.92" y="118.5" width="33.25" height="33.25"/><path class="cls-1" d="M179.53,154.1h-38v-38h38Zm-33.25-4.71h28.54V120.85H146.28Z"/><rect class="cls-1" x="463.54" y="280.26" width="33.25" height="33.25"/><path class="cls-1" d="M499.15,315.87h-38v-38h38Zm-33.25-4.72h28.54V282.62H465.9Z"/><rect class="cls-1" x="463.54" y="118.5" width="33.25" height="33.25"/><path class="cls-1" d="M499.15,154.1h-38v-38h38Zm-33.25-4.71h28.54V120.85H465.9Z"/><path class="cls-1" d="M1786.34,1425.42l62.93-1.31,31-.53c10.31-.22,20.56-.17,30.84-.26l-2.1,2.1-.25-52.71,2.35,2.35-62.38-.3c-20.79,0-41.58-.53-62.37-.77l1.28-1.28c-.09,8.62-.4,17.3-.62,26.08Zm0,0-.66-26.08c-.22-8.79-.53-17.69-.62-26.63v-1.27l1.3,0c20.79-.24,41.58-.75,62.37-.77l62.38-.3h2.36v2.37l-.25,52.71v2.12l-2.09,0c-10.51-.08-21,0-31.54-.26l-31.38-.52Z"/><path class="cls-1" d="M1855.94,1491.9l62.92-1.32,31-.52c10.31-.22,20.56-.18,30.84-.26l-2.1,2.1-.25-52.72,2.35,2.35-62.38-.29c-20.79,0-41.58-.53-62.37-.77l1.28-1.29c-.09,8.63-.4,17.31-.61,26.08Zm0,0-.67-26.08c-.21-8.8-.53-17.69-.62-26.64v-1.27l1.3,0c20.79-.24,41.58-.74,62.37-.77l62.38-.29h2.37v2.36l-.26,52.72V1494h-2.09c-10.51-.09-21,0-31.54-.26l-31.38-.53Z"/><path class="cls-1" d="M1716.75,1491.9l62.92-1.32,31-.52c10.31-.22,20.56-.18,30.84-.26l-2.1,2.1-.26-52.72,2.36,2.35-62.38-.29c-20.79,0-41.58-.53-62.38-.77l1.29-1.29c-.09,8.63-.41,17.31-.62,26.08Zm0,0-.67-26.08c-.21-8.8-.53-17.69-.61-26.64v-1.27l1.29,0c20.8-.24,41.59-.74,62.38-.77l62.38-.29h2.36v2.36l-.25,52.72V1494h-2.09c-10.52-.09-21.06,0-31.54-.26l-31.39-.53Z"/><path class="cls-1" d="M108.85,1491.9l62.92-1.32,31-.52c10.31-.22,20.56-.18,30.84-.26l-2.1,2.1-.26-52.72,2.36,2.35-62.38-.29c-20.79,0-41.59-.53-62.38-.77l1.29-1.29c-.09,8.63-.41,17.31-.62,26.08Zm0,0-.67-26.08c-.21-8.8-.53-17.69-.61-26.64l0-1.27,1.3,0c20.79-.24,41.59-.74,62.38-.77l62.38-.29H236v2.36l-.25,52.72V1494h-2.09c-10.52-.09-21.06,0-31.54-.26l-31.39-.53Z"/><path class="cls-1" d="M108.85,261.17l62.92-1.31,31-.53c10.31-.22,20.56-.17,30.84-.26l-2.1,2.1-.26-52.71,2.36,2.35-62.38-.3c-20.79,0-41.59-.53-62.38-.77l1.29-1.28c-.09,8.62-.41,17.3-.62,26.08Zm0,0-.67-26.08c-.21-8.79-.53-17.69-.61-26.63l0-1.27,1.3,0c20.79-.24,41.59-.75,62.38-.77l62.38-.3H236v2.37l-.25,52.71v2.12l-2.09,0c-10.52-.08-21.06,0-31.54-.26l-31.39-.52Z"/><path class="cls-1" d="M39.26,327.65l62.92-1.32,31-.52c10.3-.23,20.55-.18,30.83-.26l-2.1,2.1-.25-52.72,2.35,2.35L101.64,277c-20.8,0-41.59-.53-62.38-.77l1.28-1.29c-.08,8.63-.4,17.31-.61,26.08Zm0,0-.67-26.08c-.21-8.8-.53-17.69-.62-26.64v-1.27l1.3,0c20.79-.24,41.58-.74,62.38-.77l62.37-.29h2.37v2.36l-.26,52.72v2.11H164c-10.51-.09-21,0-31.54-.26L101.09,329Z"/><path class="cls-1" d="M1855.94,261.23l62.92-1.31,31-.53c10.31-.22,20.56-.18,30.84-.26l-2.1,2.1-.25-52.72,2.35,2.36-62.38-.3c-20.79,0-41.58-.53-62.37-.77l1.28-1.29c-.09,8.63-.4,17.31-.61,26.08Zm0,0-.67-26.08c-.21-8.8-.53-17.69-.62-26.64v-1.27h1.3c20.79-.24,41.58-.75,62.37-.77l62.38-.3h2.37v2.36l-.26,52.72v2.12l-2.09,0c-10.51-.08-21,0-31.54-.26l-31.38-.53Z"/><path class="cls-1" d="M745.14,1139.49l-62.92,1.31-31,.53c-10.3.22-20.55.18-30.83.26l2.1-2.1.25,52.72-2.35-2.36,62.37.3c20.8,0,41.59.53,62.38.77l-1.28,1.29c.08-8.63.4-17.31.61-26.08Zm0,0,.67,26.08c.21,8.8.53,17.69.62,26.64v1.27h-1.3c-20.79.24-41.58.75-62.38.77l-62.37.3H618v-2.36l.26-52.72v-2.12l2.09,0c10.51.08,21.05,0,31.54.26l31.38.53Z"/><path class="cls-1" d="M675.55,1073l-62.92,1.31-31,.53c-10.3.22-20.56.17-30.84.26l2.1-2.1.26,52.71-2.36-2.35,62.38.3c20.79,0,41.59.53,62.38.77l-1.29,1.28c.09-8.62.41-17.3.62-26.08Zm0,0,.67,26.08c.21,8.79.53,17.69.61,26.63l0,1.27-1.3,0c-20.79.24-41.59.75-62.38.77l-62.38.3h-2.36v-2.37l.25-52.71v-2.12l2.09,0c10.52.08,21.06,0,31.54.26l31.39.52Z"/><polygon class="cls-2" points="41.12 1686.13 283.33 1684.99 525.55 1684.57 1009.98 1683.78 1494.4 1684.57 1736.62 1684.98 1978.83 1686.13 1736.62 1687.29 1494.4 1687.7 1009.98 1688.48 525.55 1687.69 283.33 1687.28 41.12 1686.13"/><path class="cls-2" d="M353.62,1216.92c-14.84-14.55-34-32.12-56.72-25.85-21.35,5.9-29.52,29.2-33.35,48.62-4.93,25-8.76,50.3-12.73,75.49-4,25.44-7.78,50.92-11.45,76.42q-3.1,21.59-6.12,43.17l-3,21.59c-1,7.06-2.16,14.12-2.55,21.24-.12,2.27,3.44,2.6,3.94.43,2.75-12,3.88-24.48,5.65-36.67s3.54-24.51,5.33-36.76q5.34-36.51,10.91-73t11.35-72.95c3.29-20.6,4.84-46.21,23.12-59.8,10-7.45,22.8-7.54,34.16-3.2,12,4.58,21.63,13.19,31,21.71A.31.31,0,0,0,353.62,1216.92Z"/><path class="cls-1" d="M333.31,1202.05S303,1191.13,288,1213.28s2.93,78.46,141.08,110.24c0,0-3.62-60.3-33.24-124.89S313.44,1158.5,333.31,1202.05Z"/><path class="cls-2" d="M421.13,1314.3c-1.9-3.91-4.58-7.55-6.95-11.2s-4.64-7.11-7-10.64q-2.67-4-5.41-7.91c.13-.63.17-1.3.26-2,.15-1.2.31-2.39.47-3.59.34-2.59.72-5.17,1.1-7.76s.81-5.14,1.3-7.7.76-5.7,1.81-8.15c.17-.4-.55-.6-.61-.12a30.55,30.55,0,0,1-1.23,4.57c-.32,1.16-.63,2.33-.93,3.49-.67,2.62-1.31,5.25-1.9,7.89-.54,2.43-1,4.88-1.42,7.34-.2,1.18-.37,2.36-.53,3.54-2.46-3.51-5-7-7.57-10.4-7.33-9.67-15.09-19-23.12-28,0-.09.12-.14.12-.25.72-14.52.37-28.88,3.59-43.17.09-.38-.5-.6-.59-.21-3,13.4-6,27.46-5.16,41.3q-4.32-4.83-8.74-9.57-10.08-10.86-20.58-21.33c-.28-.29-.73.13-.46.42,11.65,12.53,22.7,25.59,33.47,38.87a239,239,0,0,0-25.25.94c-9.37.69-18.68,1.89-28,3.18-.4.05-.28.67.12.61a261.2,261.2,0,0,1,27.94-2.5c9-.38,18,0,27,0q8.72,10.83,17.24,21.81l-1.28,0c-2.12,0-4.23-.08-6.35,0-4.2.07-8.4.37-12.59.72a192.64,192.64,0,0,0-25.51,3.82.31.31,0,0,0,.12.61c8.49-1,17-1.75,25.54-2,4.07-.15,8.14-.14,12.22-.15,2.12,0,4.23,0,6.35,0a8,8,0,0,0,3.49-.32q5.58,7.23,11.12,14.5,4.4,5.79,8.66,11.68c2.9,4,5.53,8.39,8.76,12.14C420.87,1314.94,421.28,1314.61,421.13,1314.3Z"/><path class="cls-2" d="M346.52,1233.43a92.29,92.29,0,0,0-14.77-.71c-4.93,0-9.87.14-14.8.31a.31.31,0,1,0,0,.62c5-.36,10-.45,15-.37,4.83.07,9.68.53,14.51.4A.13.13,0,0,0,346.52,1233.43Z"/><path class="cls-2" d="M389.88,1244.57c.57-4.72,1.16-9.46,2.17-14.11a.31.31,0,1,0-.61-.12c-.71,4.64-1.61,9.25-2.3,13.9-.34,2.33-.66,4.66-.94,7a32.49,32.49,0,0,0-.57,6.59.42.42,0,0,0,.81.06,41.27,41.27,0,0,0,.72-6.58Q389.48,1247.93,389.88,1244.57Z"/><path class="cls-2" d="M380.8,1192.29c-1.21,4.59-2.41,9.24-3.26,13.91-.43,2.37-.79,4.76-1.11,7.14a28.72,28.72,0,0,0-.47,7,.19.19,0,0,0,.36,0,40.3,40.3,0,0,0,1.1-6.65q.45-3.45,1.05-6.87c.84-4.82,1.69-9.59,2.91-14.33C381.48,1192.11,380.9,1191.9,380.8,1192.29Z"/><path class="cls-2" d="M200.89,1472.5q-1.14-13.05-2.52-26.08-2.73-25.82-6.23-51.54c-2.3-17.1-4.5-34.23-7.25-51.27-1.26-7.81-2.56-15.81-5.27-23.28-2.33-6.42-6.17-12.23-12.89-14.55C150.47,1300.17,139.51,1317,133,1329c-.2.36.32.62.54.3,3.93-5.64,14.79-21.5,27.12-20.76,8.3.49,14.94,6.37,18.92,27.06,9.92,51.55,18.87,156.16,19.91,163,.56,3.63,3.12,3.47,3.14-.42C202.63,1489.58,201.64,1481,200.89,1472.5Z"/><path class="cls-1" d="M137.33,1322.54s14.2-50.17-17.2-25.09C67.85,1339.21,66,1430,66,1430s92.94-54,104.49-89.58C187.7,1287.42,137.33,1322.54,137.33,1322.54Z"/><path class="cls-2" d="M154.92,1347.17c-7.29,1.47-14.69,2.44-22,3.5l-10.46,1.47c-2.36.33-4.74.55-7.11.84,6.92-9.54,13.9-19,20.54-28.77.25-.37-.32-.76-.63-.45a216.23,216.23,0,0,0-15.52,17.92c-1.37-3.88-2.76-7.76-4.12-11.64-1.59-4.5-3.28-9-4.43-13.59-.09-.39-.7-.21-.59.18,1.27,4.59,2.17,9.29,3.39,13.9,1.19,4.45,2.54,8.85,4.12,13.18-3.4,4.42-6.67,8.94-9.84,13.52-1.6-4.53-3.59-8.92-5-13.52a.31.31,0,0,0-.59.18c1.66,5.09,2.56,10.38,4.12,15.5-2.13,3.12-4.26,6.23-6.3,9.38-3.75,5.8-7.29,11.71-10.75,17.65a1.37,1.37,0,0,0-.81,1.41c-5.88,10.15-11.46,20.46-17,30.86a.31.31,0,0,0,.54.3c5.52-10.27,11.66-20.27,18-30.09h.07a14,14,0,0,1,3-.59c1.07-.22,2.14-.46,3.21-.7,2.4-.52,4.78-1.14,7.17-1.73,4.71-1.17,9.38-2.28,14.16-3.11.39-.07.22-.67-.18-.6-5.62,1.07-11.27,1.71-17,2.37-2.69.31-5.36.66-8,1.08l-.39.06q5-7.62,10.16-15.1c3.38-4.9,6.85-9.74,10.33-14.56,3.23-.46,6.42-1.3,9.62-1.91q5.4-1,10.79-2.1c7.19-1.43,14.35-3,21.59-4.24C155.49,1347.7,155.32,1347.08,154.92,1347.17Z"/><path class="cls-2" d="M99.07,1352.11c-.44-1.32-.84-2.66-1.26-4a78.42,78.42,0,0,1-2.13-8.41c-.08-.39-.68-.21-.6.18.61,2.83,1.27,5.65,1.92,8.48a54.88,54.88,0,0,0,2.42,8.34.57.57,0,0,0,1.08-.33C100.1,1354.94,99.53,1353.54,99.07,1352.11Z"/><path class="cls-2" d="M164.43,1335.55c-4.24.64-8.52.93-12.78,1.31s-8.52,1-12.78,1.61c-.23,0-.23.39,0,.37,4.28-.29,8.53-.62,12.79-1.18s8.49-1.19,12.77-1.49C164.85,1336.15,164.82,1335.49,164.43,1335.55Z"/><path class="cls-2" d="M269.29,1409c-1.65-36.94-4-73.81-7.71-110.6-1.85-18.32-3.92-36.63-6.5-54.86-2.52-17.87-5.61-35.74-10.58-53.11-3.8-13.29-8.79-26.64-17.68-37.44s-21.68-17.32-35.71-15.59c-16.17,2-29.18,12.19-40.44,23.25-12.63,12.42-24.2,26-35.9,39.25q-4.44,5-8.81,10.14c-.26.3.19.73.45.43,11.44-13.14,23.33-25.91,35.76-38.12,11.49-11.28,23.33-23.61,39.25-28.27,7.37-2.16,15.37-2.75,22.8-.53a36.17,36.17,0,0,1,15.58,9.86c9,9.32,14,21.94,17.57,34.16,9.93,34,13.49,69.55,17.18,104.62,3.75,35.62,6.27,71.34,8.07,107.11,1.8,36,3.2,72,6.66,107.82.43,4.42,1,8.83,1.57,13.24.38,3,5,3,4.74-.11C272.65,1483.18,270.94,1446.1,269.29,1409Z"/><path class="cls-1" d="M148.64,1164.63s21.09-39-3.84-51.55S36.47,1193.66,12.1,1329.82c0,0,134.72-59.61,180.47-119S186.46,1138.34,148.64,1164.63Z"/><path class="cls-2" d="M168.44,1196.38c-15.14,0-30.24-1.15-45.39-1,2.84-3.25,5.67-6.51,8.54-9.75,4-4.46,8.48-8.8,11.83-13.75.22-.31-.24-.76-.54-.52-4.21,3.3-7.8,7.61-11.46,11.5s-7.57,8.07-11.32,12.13c-5.79,6.26-11.46,12.63-17.12,19,0-.62,0-1.23,0-1.83,0-2.65,0-5.3,0-8,0-5.13.11-10.27.16-15.4.1-10.41.08-20.88.8-31.26,0-.4-.6-.39-.63,0-.72,10.44-1.8,20.84-2.31,31.3-.26,5.14-.38,10.27-.44,15.41,0,2.66-.08,5.31-.06,8,0,1.44,0,3,.07,4.46-.88,1-1.8,2-2.67,3-12.09,13.81-23.58,28.09-34.76,42.62,0-.8-.13-1.62-.2-2.41-.16-1.6-.35-3.2-.53-4.8-.39-3.48-.87-6.94-1.39-10.39-.49-3.25-1-6.5-1.55-9.73-.61-3.64-1.5-7.33-1.77-11a.32.32,0,1,0-.62.1,95.52,95.52,0,0,1,1.27,11.09c.31,3.33.63,6.66.92,10s.6,6.67,1,10c.16,1.6.31,3.21.48,4.81.09.8.18,1.6.29,2.4a4.6,4.6,0,0,0,.65,1.9c-1.92,2.51-3.85,5-5.76,7.53-7.64,10.11-15.13,20.33-22.64,30.54-.23.32.21.76.45.43,7.11-9.26,14.42-18.35,21.82-27.37,5.55.24,11.2-.17,16.74-.26,5.85-.1,11.69-.13,17.53-.15a.31.31,0,0,0,0-.62c-5.85.1-11.69.19-17.53.21-5.32,0-10.76-.24-16.09,0q9.78-11.88,19.7-23.63c2.4-2.87,4.83-5.72,7.23-8.58a33.28,33.28,0,0,0,6.77.23h8c5,0,10-.14,14.93-.21,10.29-.16,20.58-.5,30.86-.53a.31.31,0,0,0,0-.62c-10.29-.13-20.59-.57-30.88-.83-5-.13-10-.29-15-.36l-8-.09c-1.51,0-3.06-.12-4.6-.06q8.47-10.06,17-20.12a.73.73,0,0,0,.32-.37q8.28-9.77,16.62-19.48c.77-.89,1.55-1.76,2.31-2.64,15.7.49,31.38-.54,47.07-.24C168.86,1197,168.85,1196.38,168.44,1196.38Z"/><path class="cls-2" d="M160.7,1223.15l-3.67,0a.28.28,0,0,0,0,.56l3.67,0C161.11,1223.78,161.1,1223.15,160.7,1223.15Z"/><path class="cls-2" d="M152.54,1223.19q-7.28-.09-14.55-.3l-7.27-.23c-2.17-.08-4.65-.41-6.77.08-.24,0-.2.38,0,.45,2.1.63,4.6.44,6.78.48,2.43,0,4.85.08,7.27.1q7.28.07,14.55,0C153,1223.82,152.94,1223.2,152.54,1223.19Z"/><path class="cls-2" d="M110.19,1268.66c-9.86-1.38-19.82-2.78-29.79-2.69a.11.11,0,0,0,0,.22c9.9,1,19.81,1.48,29.64,3.08C110.43,1269.33,110.58,1268.72,110.19,1268.66Z"/><path class="cls-2" d="M69.69,1225.32c-.1-.87-.2-1.74-.31-2.6-.25-2-.56-3.89-.87-5.83q-.87-5.55-1.93-11.07c-.06-.35-.65-.25-.61.09q.7,5.71,1.23,11.44c.18,1.88.32,3.75.48,5.63.16,1.69,0,3.79.76,5.34.29.58,1.16.34,1.31-.21A7.29,7.29,0,0,0,69.69,1225.32Z"/><path class="cls-2" d="M268,1114.5c-4.83-9-11-20.83-23-20.08-9.94.62-14.41,10.76-16.54,19.14-6.56,25.93-7,53.28-8.3,79.85-2.7,56.15-5.13,112.37-5.49,168.6q-.13,23.37.11,46.75c.14,15.9.1,31.88,1.11,47.75a1.17,1.17,0,0,0,2.34-.06c.09-13.59-.4-27.2-.45-40.8-.06-13.27,0-26.53.26-39.8q.65-40.3,2.15-80.6c1-26.7,2.17-53.38,3.3-80.07q.84-20,1.73-40c.58-12.92,1.14-25.86,2.62-38.71.82-7.2,1.89-14.41,3.39-21.5,1.07-5,2.61-10.52,6.21-14.4,4.76-5.12,11.94-4.75,17.57-1.27,5.84,3.6,9.38,9.6,12.46,15.54C267.61,1115.18,268.15,1114.85,268,1114.5Z"/><path class="cls-1" d="M264.7,1110.21s-9.9-34.94,12-17.47c36.42,29.09,37.71,92.36,37.71,92.36s-64.74-37.61-72.79-62.41C229.61,1085.75,264.7,1110.21,264.7,1110.21Z"/><path class="cls-2" d="M300.77,1159.16c-.59-1-1.23-1.91-1.83-2.86a18.51,18.51,0,0,0,0-3c0-1.51,0-3,0-4.52q.1-4.42.33-8.85c0-.4-.6-.38-.62,0-.16,2.89-.27,5.79-.35,8.68,0,1.45-.11,2.9-.16,4.35,0,.57-.09,1.22-.12,1.87-2.54-3.95-5.15-7.86-7.85-11.69-.78-1.12-1.6-2.2-2.4-3.31-.59-3.73-.24-7.65-.2-11.41.05-4.06.11-8.12.25-12.18,0-.4-.61-.38-.62,0-.12,4.22-.33,8.44-.54,12.66a80.21,80.21,0,0,0-.25,9c-6.26-8.5-12.89-16.7-19.6-24.85-.23-.27-.7.11-.48.39,4.15,5.26,8.14,10.66,12.05,16.12-7.62-1.78-15.37-2.8-23.11-3.92-.39,0-.55.55-.15.61,8.19,1.24,16.24,3.29,24.33,5.08.06,0,.1,0,.16,0q4.65,6.55,9.21,13.16c1.24,1.79,2.45,3.61,3.67,5.41l-.35,0c-.83-.12-1.67-.24-2.51-.34-1.79-.21-3.59-.36-5.39-.5-3.73-.29-7.47-.49-11.21-.69-.4,0-.39.61,0,.62,3.68.09,7.33.37,11,.76,1.93.21,3.86.48,5.79.7l2.53.3.74.11,6.22,9.17c3.66,5.41,6.92,11.2,10.82,16.42a.3.3,0,0,0,.51-.31C307.94,1170.27,304.17,1164.68,300.77,1159.16Z"/><path class="cls-2" d="M284.65,1119.69c0-1.36,0-2.72,0-4.08a61.1,61.1,0,0,1,.34-8.56.31.31,0,1,0-.61-.07c0,2.83-.31,5.66-.45,8.48-.07,1.41-.07,2.83-.07,4.25,0,.65,0,1.3,0,2a6.27,6.27,0,0,0,.15,2,.28.28,0,0,0,.54,0,5.57,5.57,0,0,0,.09-1.87C284.66,1121.1,284.65,1120.4,284.65,1119.69Z"/><path class="cls-2" d="M276.65,1134.16c-2.41-.41-4.88-.53-7.31-.74-2.67-.23-5.33-.46-8-.8a.31.31,0,1,0-.07.61c5.11.33,10.2,1.24,15.31,1.42A.25.25,0,0,0,276.65,1134.16Z"/><path class="cls-2" d="M297,1134.38c.19.26.06,1,.06,1.34v1.13c0,.81,0,1.63,0,2.44s0,1.63,0,2.45a5.07,5.07,0,0,0,.11,2.13.15.15,0,0,0,.25,0,2.33,2.33,0,0,0,.12-1c0-.37,0-.75,0-1.13l0-2.44c0-.81,0-1.63,0-2.44v-1.13c0-.35-.14-1.06.07-1.35C297.92,1133.8,296.57,1133.79,297,1134.38Z"/><path class="cls-2" d="M269.46,1301c-13.61-10.22-25.84-24.91-44.16-25.63-15.11-.6-25.7,10.78-31.76,23.45a132.87,132.87,0,0,0-7.41,20.88q-4.09,14.34-7.71,28.82-7.12,28.48-12.13,57.44c-1.84,10.75-3.55,21.54-4.91,32.37s-3.16,22.13-3.18,33.14c0,1.91,3,2.28,3.38.37,1.84-9,2.61-18.4,3.95-27.54s2.73-18.4,4.29-27.57q4.67-27.51,10.84-54.75c3.91-17.13,7.75-34.52,13.27-51.21,4-12,10.32-25.91,23.23-30.21,19.65-6.54,37.49,10.09,51.87,20.89C269.35,1301.66,269.78,1301.21,269.46,1301Z"/><path class="cls-1" d="M255.37,1291.19s-12.55-35.84,5.61-42.87c27.2-10.53,98.4,69.67,84.47,192.55,0,0-55-30.31-95.64-64.4s-51-78.63-33.13-90.14S255.37,1291.19,255.37,1291.19Z"/><path class="cls-2" d="M337.22,1414.53c-1.59-4.32-4.38-8.37-6.61-12.39-2.33-4.21-4.68-8.4-7.11-12.55-4.73-8.08-9.42-16.19-14.26-24.21-.79-1.3-1.6-2.58-2.39-3.88.11-.48.19-1,.3-1.44l.81-3.55c.6-2.67,1.07-5.36,1.57-8,1-5.26,1.9-10.59,3.32-15.75.1-.38-.53-.5-.62-.11-1.12,5.26-2.78,10.43-4.33,15.57-.77,2.54-1.58,5.06-2.25,7.62l-.69,2.63c-5.85-9.59-11.8-19.13-18.21-28.35a12.9,12.9,0,0,0,.63-3.94c.19-1.8.41-3.59.62-5.39.48-4,.95-8.08,1.54-12.11a237.56,237.56,0,0,1,4.31-23.54c.1-.39-.51-.5-.61-.11-2,7.74-4.09,15.48-5.56,23.32-.72,3.85-1.4,7.71-1.92,11.59-.26,1.94-.46,3.89-.66,5.84-.06.57-.15,1.17-.23,1.76-2-2.79-3.94-5.57-6-8.29-6.29-8.26-12.8-16.34-19.37-24.38-.25-.3-.76,0-.51.36,11.54,14.11,21.29,29.75,30.94,45.19,1.8,2.88,3.56,5.79,5.35,8.68l-1.77-.22c-2.3-.29-4.63-.44-6.94-.65q-6.93-.65-13.89-1.21c-9.27-.73-18.56-1.3-27.81-2.29-.39,0-.5.56-.1.61,9.37,1.07,18.69,2.58,28,3.91q6.89,1,13.78,1.85c3.18.41,7.15,1.35,10.61,1.09,3.64,5.91,7.3,11.82,10.93,17.74a20.24,20.24,0,0,0-2.46-.1c-1.55,0-3.09,0-4.63,0h-8.62c-6,0-11.93.12-17.9.11-.4,0-.34.62.06.62,6.05.08,12.08.38,18.12.7,2.86.15,5.73.32,8.59.52,1.43.1,2.86.22,4.29.3a8.74,8.74,0,0,0,3.78-.14c3.09,5,6.21,10,9.29,15.09q4.28,7,8.67,13.87c3,4.61,5.7,9.91,9.33,14C336.86,1415.12,337.37,1414.92,337.22,1414.53Z"/><path class="cls-2" d="M311,1315.21a88.32,88.32,0,0,1-2.46,11.69q-1.51,6-3.46,11.82a.39.39,0,1,0,.74.24c1.21-3.87,2.31-7.78,3.26-11.73s1.57-8,2.53-11.91C311.72,1314.93,311.05,1314.81,311,1315.21Z"/><path class="cls-2" d="M270.59,1339.22a4.54,4.54,0,0,0-3-1.12c-1.73-.25-3.46-.47-5.19-.71-3.22-.44-6.45-.8-9.67-1.17-6.71-.79-13.42-1.44-20.12-2.29-.4,0-.51.57-.11.62,6.32.77,12.62,1.73,18.93,2.55,3.09.41,6.19.85,9.29,1.21l4.47.5c1.65.18,3.59.14,5.1.87A.28.28,0,0,0,270.59,1339.22Z"/><path class="cls-2" d="M310.91,1393.25c-3.16-.27-6.35-.37-9.52-.46l-4.81-.15-2.3-.07a14.28,14.28,0,0,1-3-.18c-.44-.11-.49.69,0,.62a13.26,13.26,0,0,1,2.81.09l2.49.15,4.8.29c3.17.19,6.35.37,9.53.39C311.27,1393.94,311.3,1393.29,310.91,1393.25Z"/><path class="cls-2" d="M330.31,1379.51c.36-1.8.7-3.6,1-5.41l1.95-10.62a.32.32,0,0,0-.62-.11q-1.17,5.18-2.33,10.35c-.39,1.72-.78,3.45-1.14,5.18-.16.8-.33,1.6-.49,2.4a6.66,6.66,0,0,0-.29,2.54c.06.28.49.52.69.21C330,1382.79,330,1381,330.31,1379.51Z"/><polygon class="cls-3" points="303.56 1485.41 300.5 1536.2 291.46 1686.13 137.71 1686.13 128.66 1536.2 125.61 1485.41 303.56 1485.41"/><polygon class="cls-4" points="303.56 1485.41 300.5 1536.2 128.66 1536.2 125.61 1485.41 303.56 1485.41"/><rect class="cls-1" x="111.42" y="1449.48" width="206.32" height="50.82"/><rect class="cls-5" x="590.68" y="120.37" width="795.38" height="793.74"/><rect class="cls-2" x="590.68" y="120.37" width="795.89" height="47.98"/><path class="cls-6" d="M628.49,144.36a10,10,0,1,1-10-10A10,10,0,0,1,628.49,144.36Z"/><path class="cls-7" d="M669.21,144.36a10,10,0,1,1-10-10A10,10,0,0,1,669.21,144.36Z"/><path class="cls-1" d="M709.91,144.36a10,10,0,1,1-10-10A10,10,0,0,1,709.91,144.36Z"/><rect class="cls-7" x="697.83" y="249.55" width="581.58" height="581.58"/><path class="cls-3" d="M988.26,736v-4.54c111.51,0,202.22-90.71,202.22-202.22S1099.77,327,988.26,327,786,417.74,786,529.24h-4.53c0-114,92.75-206.75,206.75-206.75S1195,415.24,1195,529.24,1102.27,736,988.26,736Z"/><path class="cls-3" d="M794.88,529.24a11.1,11.1,0,1,1-11.1-11.1A11.1,11.1,0,0,1,794.88,529.24Z"/><path class="cls-3" d="M783.78,542.61a13.37,13.37,0,1,1,13.36-13.37A13.39,13.39,0,0,1,783.78,542.61Zm0-22.2a8.83,8.83,0,1,0,8.83,8.83A8.85,8.85,0,0,0,783.78,520.41Z"/><path class="cls-3" d="M926.16,486.58a24.11,24.11,0,1,1-24.11-24.1A24.11,24.11,0,0,1,926.16,486.58Z"/><circle class="cls-3" cx="1074.47" cy="486.58" r="24.1"/><circle class="cls-7" cx="1192.75" cy="529.24" r="11.1"/><path class="cls-3" d="M1192.75,542.61a13.37,13.37,0,1,1,13.36-13.37A13.39,13.39,0,0,1,1192.75,542.61Zm0-22.2a8.83,8.83,0,1,0,8.83,8.83A8.85,8.85,0,0,0,1192.75,520.41Z"/><path class="cls-3" d="M999.36,324.76a11.1,11.1,0,1,1-11.1-11.1A11.1,11.1,0,0,1,999.36,324.76Z"/><path class="cls-3" d="M988.26,338.12a13.37,13.37,0,1,1,13.37-13.36A13.38,13.38,0,0,1,988.26,338.12Zm0-22.2a8.84,8.84,0,1,0,8.84,8.84A8.85,8.85,0,0,0,988.26,315.92Z"/><path class="cls-1" d="M999.36,733.64a11.1,11.1,0,1,1-11.1-11.1A11.1,11.1,0,0,1,999.36,733.64Z"/><path class="cls-2" d="M1032.42,759.66s10.78,23.09,8.81,56.22L1020.57,826c-27.34-18.81-38.93-41.51-38.93-41.51,15.41-22.22,3-49,3-49l2.14-1,20.54,42a7.2,7.2,0,1,0,3-1.45l-20.54-42,2.14-1S1005.42,758.15,1032.42,759.66Z"/><rect class="cls-2" x="1015.83" y="817.68" width="33.96" height="14.29" transform="translate(-257.22 536.99) rotate(-26.03)"/><rect class="cls-2" x="1068.32" y="814.83" width="2.64" height="25.44"/><rect class="cls-2" x="1056.92" y="826.23" width="25.44" height="2.64"/><rect class="cls-2" x="1056.92" y="826.23" width="25.44" height="2.64" transform="translate(-271.88 998.73) rotate(-45)"/><rect class="cls-2" x="1068.32" y="814.83" width="2.64" height="25.44" transform="translate(-271.88 998.73) rotate(-45)"/><path class="cls-2" d="M1069.57,772.38c-20-.51-26.77-13.59-32.71-25.14-3.29-6.39-6.39-12.42-11.41-15.35-16-9.33-31.13,4.28-31.77,4.87l-3.58-3.88c.19-.17,18.6-16.87,38-5.54,6.35,3.7,9.79,10.4,13.44,17.49,5.78,11.23,11.24,21.85,28.15,22.27Z"/><path class="cls-3" d="M1033.54,481.13a45.28,45.28,0,0,1-90.56,0Z"/><rect class="cls-8" x="379.2" y="287.24" width="138.71" height="521.61"/><rect class="cls-9" x="389.89" y="291.68" width="1.13" height="12.12" transform="translate(-96.17 363.29) rotate(-45)"/><rect class="cls-9" x="384.4" y="297.17" width="12.12" height="1.13" transform="translate(-96.17 363.3) rotate(-45)"/><rect class="cls-9" x="502.95" y="296.3" width="1.13" height="7.2" transform="translate(-64.55 444.01) rotate(-45.01)"/><rect class="cls-9" x="499.92" y="295.05" width="7.2" height="1.13" transform="translate(-61.55 442.62) rotate(-45)"/><rect class="cls-9" x="508.56" y="296.3" width="1.13" height="7.19" transform="translate(-62.94 447.84) rotate(-45)"/><rect class="cls-9" x="505.53" y="295.05" width="7.19" height="1.13" transform="translate(-59.91 446.59) rotate(-45)"/><path class="cls-9" d="M417.51,374.05l-5.95-14.4-10.65,8.26V321.64l32.35,32.68-13.54,2,5.94,14.33Zm-5-18,6.22,15,4-1.64-6.18-14.92,12-1.79-25.34-25.59v36.14Z"/><polygon class="cls-9" points="491.33 355.44 497.38 370.06 491.34 372.57 485.25 357.84 475.25 365.6 475.25 324.39 504.09 353.53 491.33 355.44"/><rect class="cls-9" x="393.56" y="429.43" width="45.81" height="3.4" transform="translate(-179.58 494.75) rotate(-52.08)"/><polygon class="cls-9" points="413.76 416.58 406.88 417.85 405.34 425.11 403.8 417.85 396.91 416.57 403.77 414.9 405.34 408.04 406.91 414.9 413.76 416.58"/><polygon class="cls-9" points="429.04 405.09 425 405.83 424.09 410.09 423.19 405.83 419.15 405.08 423.17 404.1 424.09 400.08 425.01 404.1 429.04 405.09"/><polygon class="cls-9" points="433.81 427.96 431.5 428.39 430.99 430.82 430.47 428.39 428.17 427.96 430.46 427.4 430.99 425.11 431.51 427.4 433.81 427.96"/><rect class="cls-9" x="460.44" y="558.75" width="45.81" height="3.4" transform="translate(-255.82 597.37) rotate(-52.08)"/><polygon class="cls-9" points="491.33 437.5 497.38 452.13 491.34 454.63 485.25 439.9 475.25 447.66 475.25 406.46 504.09 435.6 491.33 437.5"/><path class="cls-9" d="M472.45,431.87c-5.94,0-10.58-2.06-12.18-5.2-2.39-4.69-.59-14.59,14.17-22.63,11.74-6.42,23.42-3.77,26.31.86,1.24,2,1.41,4.79.46,7.86-1.58,5.13-6.67,12.12-16.21,16.32h0A31.33,31.33,0,0,1,472.45,431.87Zm16.4-29.41A28.23,28.23,0,0,0,475.52,406c-13.24,7.23-15.14,15.87-13.23,19.63s11.12,6.07,21.79,1.36h0c8.86-3.91,13.6-10.48,15-14.92.74-2.43.67-4.56-.23-6C497.52,404,493.73,402.46,488.85,402.46Z"/><path class="cls-9" d="M466,434.81a5.27,5.27,0,0,1-4.33-2.17h0a4.84,4.84,0,0,1-.66-5.21,6.82,6.82,0,0,1,5.87-3.52,5.11,5.11,0,0,1,4.71,2.67,5.29,5.29,0,0,1-2.07,7.19A6.61,6.61,0,0,1,466,434.81Zm-2.52-3.53a3.52,3.52,0,0,0,4.82.58,3.07,3.07,0,0,0,1.29-4.22,2.79,2.79,0,0,0-2.67-1.46,4.61,4.61,0,0,0-3.88,2.24,2.63,2.63,0,0,0,.44,2.86Z"/><path class="cls-9" d="M472.42,440.88l-1.36-1.82c.67-.5,1.46-1.27,1.36-2-.18-1.33-2.69-2.73-3.88-3.19l.83-2.11c.5.19,4.89,2,5.3,5C474.87,438.22,474.11,439.61,472.42,440.88Z"/><path class="cls-9" d="M402,491.09s8.13-7.85,22.31-11.8l7.2,7.21c-3.94,14.18-11.79,22.31-11.79,22.31-11.54-3.26-21,5.81-21,5.81l-.75-.75,14.67-14.67a3.19,3.19,0,1,0-1-1l-14.67,14.67-.74-.74S405.21,502.63,402,491.09Z"/><rect class="cls-9" x="421.69" y="478.36" width="15.06" height="6.34" transform="translate(392.23 1125.53) rotate(-135)"/><rect class="cls-2" x="453.07" y="466.88" width="55.52" height="51.86"/><path class="cls-9" d="M473.18,491.09s8.14-7.85,22.31-11.8l7.21,7.21c-3.94,14.18-11.79,22.31-11.79,22.31-11.55-3.26-21,5.81-21,5.81l-.75-.75,14.67-14.67a3.19,3.19,0,1,0-1-1l-14.67,14.67-.75-.74S476.45,502.63,473.18,491.09Z"/><rect class="cls-9" x="492.93" y="478.36" width="15.06" height="6.34" transform="translate(513.85 1175.91) rotate(-135)"/><path class="cls-9" d="M468.12,514a8.81,8.81,0,0,1-7.74-3.84c-1.6-2.52-2.59-7.41,1.69-16.33,1.52-3.18,1.74-5.78.66-7.74-1.86-3.37-7-4-7-4l.25-2.25c.26,0,6.33.75,8.75,5.13,1.46,2.64,1.26,6-.6,9.82-3.83,8-3.1,12.1-1.82,14.15,1.52,2.41,4.31,2.77,5.83,2.77Z"/><path class="cls-9" d="M430,539.4v9.25h-3.09a1.24,1.24,0,0,1-1.3-1c-.05-.33-.16-1-.27-2.22h-7.95v27.76c.65.11,1.19.22,1.56.27s.65.16.82.16a1.64,1.64,0,0,1,.32.06,1.6,1.6,0,0,1,1.41,1.68v3.19H406.05v-3.19a1.55,1.55,0,0,1,1.35-1.68,2,2,0,0,1,.33-.06c.16,0,.43-.1.81-.16s.92-.16,1.57-.27V545.35h-8c-.1,1.2-.21,1.95-.26,2.28a1.19,1.19,0,0,1-1.25,1H397.5V539.4H430Z"/><path class="cls-9" d="M435.51,653.91H395.8V614.2h39.71Zm-36.31-3.4h32.91v-32.9H399.2Z"/><path class="cls-9" d="M498.1,772.29H463.82V741.6H498.1Zm-30.87-3.4H494.7V745H467.23Z"/><path class="cls-9" d="M479.28,781.34H455.39V759.83h23.89Zm-20.49-3.4h17.09V763.23H458.79Z"/><rect class="cls-9" x="480.92" y="751.9" width="12.22" height="2.27" transform="translate(-389.83 564.94) rotate(-45)"/><polygon class="cls-9" points="492.99 753.85 490.72 753.85 490.72 749.32 486.38 749.32 486.38 747.05 492.99 747.05 492.99 753.85"/><path class="cls-9" d="M500,653.92H460.26V614.2H478.8a15.06,15.06,0,0,1,30,2,15.17,15.17,0,0,1-8.8,13.72Zm-36.32-3.4h32.92v-22.9l1.11-.42a11.68,11.68,0,0,0-4-22.65,11.61,11.61,0,0,0-11.65,11.39l0,1.66H463.66Z"/><path class="cls-9" d="M485.37,625.34c-5.92-1-6.76,5.25-6.85,7.69s-3,4.88-4.78,5.25c0,0,9.19,2.53,13.78-2.16C491.84,631.72,489.3,626,485.37,625.34Z"/><path class="cls-9" d="M505.64,606.28l-14.85,21a6.39,6.39,0,0,0-4.6-3.52,7.84,7.84,0,0,0-1-.09l12.32-17.38Z"/><rect class="cls-9" x="405.88" y="687.39" width="14.76" height="30.07" transform="translate(617.73 -86.48) rotate(45)"/><rect class="cls-9" x="420.51" y="684.6" width="14.76" height="6.38" transform="translate(611.67 -101.12) rotate(45)"/><polygon class="cls-9" points="396.5 719.18 397.32 708.09 399.59 708.26 398.95 716.73 407.42 716.09 407.59 718.36 396.5 719.18"/><path class="cls-9" d="M492.52,701.52a8,8,0,1,1,8-8A8,8,0,0,1,492.52,701.52Zm0-12.6a4.6,4.6,0,1,0,4.6,4.6A4.61,4.61,0,0,0,492.52,688.92Z"/><path class="cls-9" d="M455.73,714.06l31.4-17.29,5.39,3.05s-22.86,14-26.91,15.45S455.73,714.06,455.73,714.06Z"/><path class="cls-9" d="M492.4,719.33a8,8,0,1,1,8-8A8,8,0,0,1,492.4,719.33Zm0-12.6a4.6,4.6,0,1,0,4.61,4.6A4.61,4.61,0,0,0,492.4,706.73Z"/><path class="cls-9" d="M455.62,690.79,487,708.08l5.4-3.05s-22.87-14-26.92-15.46S455.62,690.79,455.62,690.79Z"/><path class="cls-9" d="M396,776.19V746.75l18.78,14.72Zm3.4-22.46V769.2l9.87-7.73Z"/><polygon class="cls-9" points="435.24 747.18 435.24 775.75 417.05 761.47 435.24 747.18"/><path class="cls-9" d="M416.61,777.14h-1.13V772.6h1.13Zm0-9.07h-1.13v-4.53h1.13Zm0-9.07h-1.13v-4.53h1.13Zm0-9.07h-1.13V745.4h1.13Z"/><rect class="cls-8" x="1405.6" y="158.01" width="285.67" height="169.49"/><polygon class="cls-9" points="1420.75 173.2 1412.18 164.63 1412.98 163.83 1421.55 172.4 1420.75 173.2"/><polygon class="cls-9" points="1412.98 173.2 1412.18 172.4 1420.75 163.83 1421.55 164.63 1412.98 173.2"/><rect class="cls-9" x="1675.67" y="167.08" width="1.13" height="7.2" transform="translate(370.07 1235.02) rotate(-44.99)"/><rect class="cls-9" x="1672.64" y="165.82" width="7.19" height="1.13" transform="translate(373.27 1233.98) rotate(-45)"/><rect class="cls-9" x="1681.28" y="167.08" width="1.13" height="7.2" transform="translate(371.72 1238.99) rotate(-44.99)"/><rect class="cls-9" x="1678.25" y="165.82" width="7.19" height="1.13" transform="translate(375.26 1238.36) rotate(-45.02)"/><rect class="cls-9" x="1456.09" y="184.99" width="1.13" height="111.37"/><rect class="cls-9" x="1497.17" y="184.99" width="1.13" height="111.37"/><path class="cls-9" d="M1435.76,195.25a14,14,0,0,0-11.9,6.74s4,6.78,11.9,6.78,12.08-6.78,12.08-6.78A14.56,14.56,0,0,0,1435.76,195.25Zm0,12.29a5.53,5.53,0,1,1,5.51-5.51A5.52,5.52,0,0,1,1435.76,207.54Z"/><path class="cls-9" d="M1440,202a4.27,4.27,0,1,1-4.27-4.27A4.27,4.27,0,0,1,1440,202Z"/><path class="cls-9" d="M1435.76,234a14,14,0,0,0-11.9,6.74s4,6.78,11.9,6.78,12.08-6.78,12.08-6.78A14.56,14.56,0,0,0,1435.76,234Zm0,12.28a5.53,5.53,0,1,1,5.51-5.5A5.51,5.51,0,0,1,1435.76,246.28Z"/><path class="cls-9" d="M1440,240.76a4.27,4.27,0,1,1-4.27-4.27A4.27,4.27,0,0,1,1440,240.76Z"/><path class="cls-9" d="M1435.76,271a14,14,0,0,0-11.9,6.74s4,6.78,11.9,6.78,12.08-6.78,12.08-6.78A14.56,14.56,0,0,0,1435.76,271Zm0,12.29a5.53,5.53,0,1,1,5.51-5.51A5.52,5.52,0,0,1,1435.76,283.3Z"/><path class="cls-9" d="M1440,277.77a4.27,4.27,0,1,1-4.27-4.27A4.27,4.27,0,0,1,1440,277.77Z"/><rect class="cls-9" x="1417.41" y="221.6" width="262.07" height="1.13"/><rect class="cls-9" x="1417.41" y="258.78" width="262.07" height="1.13"/><path class="cls-9" d="M1528.71,210.07h0a.66.66,0,0,1-.65-.65V191.78a.65.65,0,0,1,.65-.64.66.66,0,0,1,.68.64v17h9.06a.67.67,0,1,1,0,1.33Z"/><path class="cls-9" d="M1554.06,197.47v11.95a.65.65,0,1,1-1.29,0v-2a6.22,6.22,0,0,1-5,2.62,6.63,6.63,0,0,1,0-13.25,6.16,6.16,0,0,1,5,2.59v-1.94a.65.65,0,1,1,1.29,0Zm-1.29,6a5,5,0,1,0-5,5.33A5.18,5.18,0,0,0,1552.77,203.44Z"/><path class="cls-9" d="M1559.42,197.44a.63.63,0,0,1,.62-.62.64.64,0,0,1,.68.62v7.19a4.06,4.06,0,0,0,4,4.09,4.11,4.11,0,0,0,4.12-4.09v-7.19a.5.5,0,0,1,.1-.33s0-.05,0-.08,0,0,.06,0a.49.49,0,0,1,.24-.16h0l.08,0h.17a1.66,1.66,0,0,1,.32.13.6.6,0,0,1,.16.22.47.47,0,0,1,.08.27V209a6.24,6.24,0,0,1-6.3,6.23,6.78,6.78,0,0,1-2.73-.62.67.67,0,0,1-.27-.87.69.69,0,0,1,.84-.33,4.84,4.84,0,0,0,2.16.52,5,5,0,0,0,5-4.93v-.86a5.48,5.48,0,0,1-4.12,1.89,5.4,5.4,0,0,1-5.35-5.41Z"/><path class="cls-9" d="M1574.67,203.47a6.42,6.42,0,0,1,12.83-.49v.11a.62.62,0,0,1-.65.6H1576a5.22,5.22,0,0,0,5.14,5.08,5,5,0,0,0,4.28-2.41.63.63,0,0,1,.86-.21.69.69,0,0,1,.22.92,6.33,6.33,0,0,1-5.36,3A6.53,6.53,0,0,1,1574.67,203.47Zm1.38-1.05h10a5.12,5.12,0,0,0-5-4.31A5.18,5.18,0,0,0,1576.05,202.42Z"/><path class="cls-9" d="M1591.52,197.49a.65.65,0,0,1,.68-.65.64.64,0,0,1,.62.65v2.92c.06-.1.11-.21.19-.32a6.4,6.4,0,0,1,5.31-3.25.63.63,0,0,1,.64.65.65.65,0,0,1-.64.65,4.78,4.78,0,0,0-3.85,2.17,12,12,0,0,0-1.59,3.08.38.38,0,0,0-.06.22v5.81a.64.64,0,0,1-.62.65.65.65,0,0,1-.68-.65Z"/><path class="cls-9" d="M1613.57,193.06l-2.68,1.56a.59.59,0,0,1-.32.11.65.65,0,0,1-.57-.32.62.62,0,0,1,.24-.89l3.66-2.22a.68.68,0,0,1,.89.24.78.78,0,0,1,.08.49v17.39a.64.64,0,0,1-.65.65.66.66,0,0,1-.65-.65Z"/><path class="cls-9" d="M1528.71,249.08h0a.66.66,0,0,1-.65-.65V230.8a.66.66,0,0,1,.65-.65.66.66,0,0,1,.68.65v17h9.06a.66.66,0,1,1,0,1.32Z"/><path class="cls-9" d="M1554.06,236.48v12a.65.65,0,1,1-1.29,0v-2a6.19,6.19,0,0,1-5,2.62,6.63,6.63,0,0,1,0-13.25,6.19,6.19,0,0,1,5,2.59v-1.94a.65.65,0,1,1,1.29,0Zm-1.29,6a5,5,0,1,0-5,5.33A5.18,5.18,0,0,0,1552.77,242.45Z"/><path class="cls-9" d="M1559.42,236.45a.63.63,0,0,1,.62-.62.64.64,0,0,1,.68.62v7.19a4.05,4.05,0,0,0,4,4.09,4.11,4.11,0,0,0,4.12-4.09v-7.19a.5.5,0,0,1,.1-.33s0-.05,0-.08l.06,0a.51.51,0,0,1,.24-.17h0l.08,0h.17a1.66,1.66,0,0,1,.32.13.69.69,0,0,1,.16.22.47.47,0,0,1,.08.27V248a6.24,6.24,0,0,1-6.3,6.22,6.62,6.62,0,0,1-2.73-.62.67.67,0,0,1-.27-.87.69.69,0,0,1,.84-.32,5,5,0,0,0,7.17-4.41v-.87a5.49,5.49,0,0,1-4.12,1.9,5.42,5.42,0,0,1-5.35-5.42Z"/><path class="cls-9" d="M1574.67,242.48a6.42,6.42,0,0,1,12.83-.48v.1a.62.62,0,0,1-.65.6H1576a5.22,5.22,0,0,0,5.14,5.08,5,5,0,0,0,4.28-2.4.62.62,0,0,1,.86-.22.69.69,0,0,1,.22.92,6.33,6.33,0,0,1-5.36,3A6.52,6.52,0,0,1,1574.67,242.48Zm1.38-1h10a5.11,5.11,0,0,0-5-4.3A5.17,5.17,0,0,0,1576.05,241.43Z"/><path class="cls-9" d="M1591.52,236.5a.65.65,0,0,1,.68-.65.64.64,0,0,1,.62.65v2.93a2.79,2.79,0,0,1,.19-.33,6.4,6.4,0,0,1,5.31-3.25.63.63,0,0,1,.64.65.65.65,0,0,1-.64.65,4.81,4.81,0,0,0-3.85,2.17,12,12,0,0,0-1.59,3.08.38.38,0,0,0-.06.22v5.81a.64.64,0,0,1-.62.65.65.65,0,0,1-.68-.65Z"/><path class="cls-9" d="M1610.46,247.92l8.85-8a4.94,4.94,0,0,0,1.62-3.63,4.89,4.89,0,0,0-4.87-4.84,4.93,4.93,0,0,0-3.3,1.25l-.92.83a.62.62,0,0,1-.92,0,.62.62,0,0,1,0-.92l.92-.87a6.36,6.36,0,0,1,4.19-1.59,6.23,6.23,0,0,1,6.17,6.16,6.23,6.23,0,0,1-2,4.6l-7.57,6.85h8.95a.66.66,0,0,1,0,1.32h-10.66a.61.61,0,0,1-.49-.19A.71.71,0,0,1,1610.46,247.92Z"/><path class="cls-9" d="M1528.71,288.09h0a.66.66,0,0,1-.65-.65V269.81a.67.67,0,0,1,1.33,0v17h9.06a.67.67,0,0,1,.68.67.66.66,0,0,1-.68.65Z"/><path class="cls-9" d="M1554.06,275.49v11.95a.65.65,0,1,1-1.29,0v-2a6.19,6.19,0,0,1-5,2.62,6.63,6.63,0,0,1,0-13.25,6.17,6.17,0,0,1,5,2.6v-1.95a.65.65,0,1,1,1.29,0Zm-1.29,6a5,5,0,1,0-5,5.34A5.18,5.18,0,0,0,1552.77,281.46Z"/><path class="cls-9" d="M1559.42,275.46a.63.63,0,0,1,.62-.62.64.64,0,0,1,.68.62v7.2a4.05,4.05,0,0,0,4,4.08,4.11,4.11,0,0,0,4.12-4.08v-7.2a.46.46,0,0,1,.1-.32s0-.06,0-.08,0,0,.06,0a.43.43,0,0,1,.24-.16h0s.06,0,.08,0h.17a2.69,2.69,0,0,1,.32.13.69.69,0,0,1,.16.22.47.47,0,0,1,.08.27V287a6.24,6.24,0,0,1-6.3,6.22,6.62,6.62,0,0,1-2.73-.62.67.67,0,0,1-.27-.87.7.7,0,0,1,.84-.32,5,5,0,0,0,7.17-4.41v-.87a5.49,5.49,0,0,1-4.12,1.9,5.41,5.41,0,0,1-5.35-5.41Z"/><path class="cls-9" d="M1574.67,281.49a6.42,6.42,0,0,1,12.83-.48v.11a.62.62,0,0,1-.65.59H1576a5.23,5.23,0,0,0,5.14,5.09,5,5,0,0,0,4.28-2.41.62.62,0,0,1,.86-.22.69.69,0,0,1,.22.92,6.33,6.33,0,0,1-5.36,3A6.52,6.52,0,0,1,1574.67,281.49Zm1.38-1.05h10a5.11,5.11,0,0,0-5-4.3A5.17,5.17,0,0,0,1576.05,280.44Z"/><path class="cls-9" d="M1591.52,275.51a.65.65,0,0,1,.68-.64.63.63,0,0,1,.62.64v2.93a2.79,2.79,0,0,1,.19-.33,6.39,6.39,0,0,1,5.31-3.24.63.63,0,0,1,.64.64.66.66,0,0,1-.64.66,4.8,4.8,0,0,0-3.85,2.16,12,12,0,0,0-1.59,3.08.38.38,0,0,0-.06.22v5.81a.64.64,0,0,1-.62.65.65.65,0,0,1-.68-.65Z"/><path class="cls-9" d="M1621.93,270.35l-4.9,5a6.4,6.4,0,0,1,3.22,10.82,6.43,6.43,0,0,1-4.54,1.89,6.33,6.33,0,0,1-4.52-1.89.67.67,0,1,1,1-.95,5,5,0,0,0,3.57,1.46,5.12,5.12,0,0,0,3.6-1.46,5,5,0,0,0,1.48-3.59,5.05,5.05,0,0,0-5.06-5.06.73.73,0,0,1-.54-.27h0a.69.69,0,0,1,0-1l4.7-4.84h-7.24a.68.68,0,1,1,0-1.35h8.84a.67.67,0,0,1,.68.67.58.58,0,0,1-.08.3A.64.64,0,0,1,1621.93,270.35Z"/><rect class="cls-8" x="1501.13" y="224.68" width="8.48" height="32.15"/><rect class="cls-2" x="1501.13" y="261.69" width="8.48" height="32.15"/><rect class="cls-1" x="1501.13" y="185.94" width="8.48" height="32.15"/><rect class="cls-9" x="1417.41" y="313.83" width="49.8" height="1.13"/><rect class="cls-9" x="1468.67" y="200.04" width="17.24" height="14.49"/><path class="cls-9" d="M1483.83,201.63h-2v-3.81c0-4.19-1.48-6.31-4.4-6.31-4.75,0-4.8,5.6-4.8,5.84v4.28h-2v-4.28c0-3.78,2.13-7.85,6.81-7.85,4.13,0,6.41,3,6.41,8.32Z"/><path class="cls-9" d="M1656.52,210.83a8.82,8.82,0,1,1,8.81-8.82A8.83,8.83,0,0,1,1656.52,210.83Zm0-16.5a7.69,7.69,0,1,0,7.68,7.68A7.7,7.7,0,0,0,1656.52,194.33Z"/><path class="cls-9" d="M1656.52,249.57a8.82,8.82,0,1,1,8.81-8.81A8.83,8.83,0,0,1,1656.52,249.57Zm0-16.5a7.69,7.69,0,1,0,7.68,7.69A7.7,7.7,0,0,0,1656.52,233.07Z"/><path class="cls-9" d="M1656.52,288.31a8.82,8.82,0,1,1,8.81-8.81A8.83,8.83,0,0,1,1656.52,288.31Zm0-16.49a7.68,7.68,0,1,0,7.68,7.68A7.69,7.69,0,0,0,1656.52,271.82Z"/><polygon class="cls-6" points="1159.42 1324.33 1147.24 1397.39 1064.71 1843.1 1051.4 1843.1 1111.42 1397.39 1120.29 1324.33 1159.42 1324.33"/><polygon class="cls-5" points="1120.29 1324.33 1159.42 1324.33 1147.24 1397.39 1111.42 1397.39 1120.29 1324.33"/><polygon class="cls-6" points="1418.61 1843.1 1405.31 1843.1 1322.77 1397.39 1310.59 1324.33 1349.72 1324.33 1358.59 1397.39 1418.61 1843.1"/><polygon class="cls-5" points="1349.72 1324.33 1358.59 1397.39 1322.77 1397.39 1310.59 1324.33 1349.72 1324.33"/><polygon class="cls-6" points="1666.17 1843.1 1652.86 1843.1 1570.33 1397.39 1558.15 1324.33 1597.28 1324.33 1606.15 1397.39 1666.17 1843.1"/><polygon class="cls-5" points="1606.15 1397.39 1570.33 1397.39 1558.15 1324.33 1597.28 1324.33 1606.15 1397.39"/><polygon class="cls-6" points="1645.07 1358.65 1040.29 1358.65 1040.29 1294.93 1266.69 1294.93 1342.78 758.01 1622.01 758.01 1645.07 1358.65"/><polygon class="cls-10" points="1609.83 1294.93 1040.29 1294.93 1040.29 1358.65 1612.1 1358.65 1609.83 1294.93"/><polygon class="cls-10" points="1645.07 1358.65 1612.1 1358.65 1590.61 758.01 1622.01 758.01 1645.07 1358.65"/><path class="cls-11" d="M1029.84,1926.47c11.72,1.11,330.51-75.17,340.54-85.52,1.23-1.15-5.07-30.13-14.32-69.64l-.18-.78c-5.77-25-98.87-227.6-98.87-227.6l-206.61,57.83,94.09,187.93s-38.87,28.12-72.19,54.82c0,.06-.09.07-.08.11-20.58,16.4-38.32,31.13-42.08,35.89C1020.4,1892,1018.15,1925.46,1029.84,1926.47Z"/><path class="cls-7" d="M1029.86,1926.45c11.68,1.12,330.47-75.17,340.54-85.5,1.22-1.17-5.1-30.11-14.33-69.65l-.19-.75c-2.12-9.33-16.47-43.37-33.54-82.39-34,9.19-155.89,42.25-200.16,56l22.28,44.54s-38.86,28.15-72.19,54.83c0,0,0,0,0,.09-20.58,16.39-38.34,31.14-42.09,35.89C1020.39,1892,1018.13,1925.48,1029.86,1926.45Z"/><path class="cls-1" d="M1028.8,1928c12,1,331.06-76.12,341.37-86.75,3.93-4-3.19-54.36-20.71-107.69l-205.61,50s-104.95,83.25-115,96.12S1016.76,1927,1028.8,1928Z"/><path class="cls-2" d="M1030.29,1914.12c53.16-14.24,268.91-66.69,322.54-76.73.43-.08.5.21.08.34-52.38,15.27-268.55,66-322.41,77.27C1029.36,1915.24,1029.17,1914.42,1030.29,1914.12Z"/><path class="cls-2" d="M1046.59,1863.22c12.56-3.58,26.41-.55,35.15,5.33,8.4,5.65,16.55,14.48,18.86,25.66.07.32-.52.47-.65.15-8.11-20.19-31.59-34-53.2-30.47A.34.34,0,0,1,1046.59,1863.22Z"/><path class="cls-2" d="M1128.37,1793c21.34-5.48,48-3.93,65.51,10.36.68.56-.12,1.51-.83,1.34a304.52,304.52,0,0,0-64.41-9A1.38,1.38,0,0,1,1128.37,1793Z"/><path class="cls-2" d="M1113.41,1803.39c21.33-5.47,48-3.92,65.51,10.37.68.55-.12,1.51-.83,1.34a304.06,304.06,0,0,0-64.41-9A1.39,1.39,0,0,1,1113.41,1803.39Z"/><path class="cls-2" d="M1098.44,1813.83c21.34-5.47,48-3.92,65.51,10.37.68.55-.12,1.51-.83,1.34a304.53,304.53,0,0,0-64.41-9A1.38,1.38,0,0,1,1098.44,1813.83Z"/><path class="cls-2" d="M1083.48,1824.27c21.33-5.48,48-3.92,65.51,10.37.68.55-.12,1.51-.84,1.33a304.52,304.52,0,0,0-64.4-9A1.38,1.38,0,0,1,1083.48,1824.27Z"/><path class="cls-2" d="M1326.92,1789.89c24-5.74,33,31.6,8.92,37.35S1302.85,1795.64,1326.92,1789.89Z"/><path class="cls-2" d="M1100.73,1772.4c15.15,12.1,35,17.23,52.81,24.08,1.84.72,3.34-1,3.43-2.66a.58.58,0,0,0,.52-.77c-5.66-18.16-18.22-37.54-32.69-50-8.94-7.71-24.71-13.19-33.37-1.58C1083.24,1752.41,1091.88,1765.33,1100.73,1772.4Zm-5.28-17.5c-3.51-23.8,21.83-11,28.19-5A123.35,123.35,0,0,1,1135,1762.4c7.38,9.09,13.33,19.06,19.73,28.8-8.53-3.9-17.32-7-26-10.62C1118.36,1776.3,1097.38,1768,1095.45,1754.9Z"/><path class="cls-2" d="M1230.19,1761c-5-13.57-21.73-12.74-32.47-7.84-17.4,7.92-34.89,23-45.41,38.84a.58.58,0,0,0,.28.89c-.38,1.61.57,3.68,2.55,3.52,19-1.59,39.5-.94,57.44-8.3C1223.06,1783.82,1235,1773.85,1230.19,1761Zm-46.75,27.11c-9.32,1-18.64,1.55-27.92,2.9,8.88-7.55,17.38-15.45,27-22.1a123.44,123.44,0,0,1,14.38-8.87c7.77-3.92,35.68-9.11,25.64,12.76C1217,1784.87,1194.56,1786.93,1183.44,1788.13Z"/><path class="cls-12" d="M1121.09,1771.51l221.36-66.39s-182.45-380.25-176.7-399.59c3.84-12.92,277.41-13.81,357.58-85.8,83-74.52,18.37-220.89,18.37-220.89l-230-1.18s4,48-4.83,55.47c-5.8,5-320.27,32.65-380.48,148.27C871.73,1306.34,1121.09,1771.51,1121.09,1771.51Z"/><path class="cls-2" d="M1165.74,1305.52c-1,3.26,3.44,16.93,11.55,37.36L1012,1546c-59-134.39-114.38-289.37-85.6-344.58,60.24-115.61,374.67-143.3,380.51-148.27,8.74-7.46,4.8-55.49,4.8-55.49l146,.75-242.63,298C1185.83,1299.64,1166.73,1302.16,1165.74,1305.52Z"/><path class="cls-7" d="M1115.6,1724.68c5.72-2.9,12-4.67,18-6.71,6.39-2.17,12.77-4.37,19.19-6.43q18.95-6.11,38.08-11.56c25.71-7.27,51.46-14.4,77.35-21,13.5-3.43,42.42-10.92,44.21-10.64.86.13,1.06,1.58.29,1.85-25,9-50.43,16.63-75.84,24.37s-50.77,15.38-76.48,21.87c-7.12,1.8-14.29,3.4-21.43,5.11-7.48,1.79-15,4.18-22.75,4.87C1115.51,1726.5,1114.79,1725.08,1115.6,1724.68Z"/><path class="cls-7" d="M1529.35,1042.65c-.71-7.67-1.57-15.34-2.44-23-.1-.88-1.49-.87-1.4,0,3.06,31.1,6.21,63,.49,93.94a133.88,133.88,0,0,1-41.08,74.44c-45.63,42.55-109.44,55.08-168.89,65.2-34,5.79-68.3,10.25-102.68,13.62q-25.26,2.47-50.59,4c-16.73,1-33.5,1.21-50.23,2.14-5.28.29-10,2.71-9.17,8.75.5,3.66,2.55,7.21,4,10.56q2.67,6.11,5.38,12.19,10.07,22.79,20.26,45.52,21,46.86,42.6,93.43,42.87,92.48,89,183.44,5.72,11.28,11.46,22.56c.25.49,1,0,.72-.45q-44-92.1-87-184.72c-14.18-30.66-28.4-61.29-42.43-92q-10.53-23-20.93-46.13-5.19-11.55-10.36-23.11l-5.16-11.56c-1.43-3.2-6.64-10.89-3-13.88,2.4-2,7.39-1.31,10.26-1.4,4.45-.12,8.9-.29,13.35-.44q12.67-.42,25.34-1,25.67-1.27,51.28-3.5c33.43-2.9,66.76-7.14,99.89-12.47,59.08-9.5,123.32-20.23,170.61-59.89,20.85-17.49,37.24-40,45.35-66.13C1533,1103.7,1532.12,1072.62,1529.35,1042.65Z"/><path class="cls-11" d="M543.47,1635c8.32,8.32,302.52,152.87,316.85,151.3,1.68-.11,15.31-26.44,33.38-62.77l.35-.72c11.53-23,116.19-216.26,116.19-216.26l-183-92.67L719.64,1602s-47.87-3.13-90.56-3.82c-.06,0-.11,0-.13,0-26.3-.49-49.36-.46-55.3.81C558.2,1602.42,535.11,1626.79,543.47,1635Z"/><path class="cls-7" d="M543.47,1635c8.32,8.31,302.51,152.88,316.87,151.3,1.66-.08,15.29-26.44,33.36-62.74l.35-.72c.81-1.59,1.63-3.23,2.5-4.84.57-1.19,1.18-2.35,1.83-3.49.87-1.72,1.81-3.45,2.74-5.19,8-15.11,21.06-39.56,35.48-66.34L750,1548.93,719.63,1602s-47.86-3.11-90.56-3.81c-.06,0-.1,0-.12,0-26.31-.48-49.38-.46-55.29.81C558.22,1602.43,535.1,1626.77,543.47,1635Z"/><path class="cls-1" d="M541.7,1635.52C550.32,1644,845.25,1788,860,1786.4c5.59-.58,32.22-43.89,52.73-96.15l-190.25-92.62s-133.93-2.8-149.88.7S533.08,1627.05,541.7,1635.52Z"/><path class="cls-2" d="M551.69,1625.79c50,22.93,249.66,120.13,297.38,146.59.38.22.25.49-.16.31C798.83,1751.05,600,1652.24,551.3,1626.6,550.27,1626.06,550.64,1625.31,551.69,1625.79Z"/><path class="cls-2" d="M596.71,1597c12,5.24,20.7,16.41,23.68,26.51,2.87,9.71,3.51,21.71-1.84,31.79-.15.29-.7,0-.6-.29,6.63-20.73-2.67-46.31-21.54-57.4A.34.34,0,0,1,596.71,1597Z"/><path class="cls-2" d="M704.52,1595c19.92,9.39,39.45,27.58,43.84,49.77.17.86-1.05,1.09-1.49.5a305.28,305.28,0,0,0-43.88-48A1.39,1.39,0,0,1,704.52,1595Z"/><path class="cls-2" d="M686.33,1593.51c19.92,9.39,39.45,27.57,43.85,49.76.17.86-1.06,1.09-1.5.5a304.25,304.25,0,0,0-43.88-48A1.39,1.39,0,0,1,686.33,1593.51Z"/><path class="cls-2" d="M668.15,1592c19.92,9.38,39.45,27.57,43.84,49.76.18.86-1,1.09-1.49.5a304.32,304.32,0,0,0-43.88-48A1.38,1.38,0,0,1,668.15,1592Z"/><path class="cls-2" d="M650,1590.5c19.93,9.39,39.46,27.58,43.85,49.76.17.86-1,1.09-1.49.5a304.79,304.79,0,0,0-43.89-48A1.39,1.39,0,0,1,650,1590.5Z"/><path class="cls-2" d="M859.4,1719.28c22.17,10.9,5.26,45.37-16.95,34.45S837.19,1708.35,859.4,1719.28Z"/><path class="cls-2" d="M696.33,1561.55c3.95,19,16,35.6,25.32,52.23,1,1.72,3.22,1.35,4.33.14a.58.58,0,0,0,.9-.27c7.22-17.59,9.91-40.52,6.73-59.38-2-11.64-10.62-25.91-24.69-22.5C695.61,1535,694,1550.46,696.33,1561.55Zm7.09-16.85c12.48-20.56,23.83,5.46,24.93,14.1a123.48,123.48,0,0,1,.72,16.87c-.12,11.71-1.89,23.18-3.17,34.77-4.09-8.45-8.85-16.47-13.24-24.76C707.42,1575.8,696.54,1556,703.42,1544.7Z"/><path class="cls-2" d="M803.31,1635.35c4.76-13.68-8.62-23.67-20-26.75-18.46-5-41.54-4.53-59.76,1a.57.57,0,0,0-.35.86c-1.31,1-1.9,3.2-.28,4.33,15.65,10.9,31,24.48,49.55,30.25C783.27,1648.36,798.81,1648.28,803.31,1635.35Zm-53.3-8.93c-7.82-5.17-15.35-10.7-23.36-15.57,11.65-.16,23.24-.82,34.91.2a124.24,124.24,0,0,1,16.73,2.34c8.49,1.94,33.29,15.74,11.61,26.18C778,1645.32,759.34,1632.58,750,1626.42Z"/><path class="cls-12" d="M720.56,1571.57l220.71,110.28s172.26-350.24,191.17-372.81c25.19-30.08,353.35,12.41,430.75-84.76,80-100.48,11.46-225.27,11.46-225.27l-249.8-.15s-.74,27.7,13.67,68.21c0,0-285.64-17-366.47,61.57C910,1189,720.56,1571.57,720.56,1571.57Z"/><path class="cls-7" d="M1384,1092.29A430.87,430.87,0,0,0,1344.3,1068c-7-3.68-21.22-10-30.1-12.16-7.28-1.76-10.47-2.3-3.64.93l18.38,8.73c-1.32,0-2.62-.08-3.88-.15-4.9-.25-9.82-.42-14.73-.55-9.6-.24-19.22-.18-28.82-.24-19.5-.11-38.79,1.73-58.24,2.7a.41.41,0,0,0,0,.81c19.41-.64,38.9.4,58.31.32,9.62,0,19.22.23,28.83.41q7,.14,14.08.25a113,113,0,0,0,11.93,0l5.36,2.53c14.12,6.66,28.21,13.62,41.82,21.28C1384,1093.11,1384.44,1092.56,1384,1092.29Z"/><path class="cls-7" d="M1319,989.52c2.53,11.78,4.71,23.65,7.66,35.34,1.36,5.37,2.69,10.82,4.52,16.05,1.55,4.41,4,9.46,9,10.6,5.76,1.32,7.59-3.6,7.28-8.41-.35-5.36-1.54-10.77-2.42-16.07-1-6.11-2-12.21-2.94-18.34-.45-3.07-.92-6.13-1.33-9.2-.11-.77-.48-6.62-.84-8.31,0,.14-.15.27-.33.24l-.2,0a.4.4,0,0,1-.35-.32c0-.46,0-.55.32-.86a.47.47,0,0,1,.54,0c1.09.65,1.12,2.17,1.44,3.31.84,3,1.7,6,2.47,9,1.42,5.64,2.81,11.28,4,17s2.42,11.36,3.62,17c.9,4.25,2,8.73.69,13a9.91,9.91,0,0,1-9.43,7.16c.19.39.42.76.58,1.16.47,1.17.81,2.41,1.2,3.6s.77,2.45,1.07,3.7a11.11,11.11,0,0,1,.28,1.82c0,.68-.11,1.33,0,2a1,1,0,0,1-1.83.59c-.28-.61-.71-1.08-1-1.67a10.83,10.83,0,0,1-.77-2c-.36-1.18-.65-2.36-.91-3.57s-.58-2.39-.76-3.59a19.6,19.6,0,0,1-.14-2.17,13.37,13.37,0,0,1-6.66-2.79c-3.4-2.75-5.3-6.84-6.62-10.91-1.6-4.92-2.8-10-4-15-3-12.46-5.43-25.1-6.18-37.91A1.08,1.08,0,0,1,1319,989.52Z"/><path class="cls-7" d="M1439.39,1023.07c.86,5.84,1.34,11.72,2.48,17.52s2.46,11.34,4.13,16.88a59.58,59.58,0,0,0,6.62,15.3,56.26,56.26,0,0,0,11,11.94,96.82,96.82,0,0,0,26.93,16.2,127.62,127.62,0,0,0,15.1,5c2.67.7,5.38,1.26,8.11,1.7,2.27.37,4.52.53,6.51,1.75a1.33,1.33,0,0,1-.2,2.27c-3.55,1.6-8.44.48-12.15,0a90.19,90.19,0,0,1-12.9-2.72,94,94,0,0,1-24.16-11.16c-7.32-4.69-14.65-10.49-19.93-17.45-5.48-7.22-8.39-15.58-10.15-24.39-2.1-10.55-3.41-22-2.47-32.74A.57.57,0,0,1,1439.39,1023.07Z"/><path class="cls-7" d="M765.35,1531.41c6.15,1.83,11.94,4.87,17.73,7.52,6.13,2.8,12.28,5.59,18.36,8.5,12,5.71,23.87,11.59,35.63,17.74,23.68,12.36,47.29,24.86,70.64,37.85,12.17,6.77,38.33,21.19,39.45,22.62.53.69-.32,1.87-1.07,1.54-24.34-10.67-48.08-22.54-71.86-34.34s-47.48-23.68-70.63-36.62c-6.41-3.58-12.72-7.34-19.08-11-6.67-3.83-13.81-7.28-19.89-12.08C764,1532.68,764.49,1531.16,765.35,1531.41Z"/><path class="cls-7" d="M1574.48,1057.1a.83.83,0,0,0-1.66,0c.48,54.24-7.91,114.89-49.65,153.8-45.78,42.66-111.82,47.75-171.25,47.25-34.11-.29-68.16-1.16-102.28-.07s-68.87,2.77-102.9,7.11c-13.74,1.76-25.25,6.7-35,16.72-9.43,9.73-16.2,21.76-23.16,33.29q-25.74,42.63-49.86,86.22-47.94,86.61-88.73,176.91-5.07,11.21-10,22.45c-.22.49.52.91.74.41q41.44-90.56,89.21-178,23.79-43.76,49.21-86.61c8-13.42,15.67-27.16,24.54-40,7.85-11.35,17.66-22,31.26-26.14,8.19-2.49,16.93-2.92,25.41-3.7q13.07-1.2,26.16-2.15,25.5-1.86,51.07-2.79c34.39-1.26,68.73-.84,103.13-.21,59.71,1.08,124.94-1,174.45-39,21.42-16.44,36.86-39,46-64.27,9.35-25.78,12.68-53.45,13.31-80.75C1574.67,1070.75,1574.63,1063.93,1574.48,1057.1Z"/><path class="cls-7" d="M1217,1294.67c-12.18.21-24.36.72-36.54,1.13-10.13.34-20.32.24-30.23,2.7-9.22,2.29-16.54,3.41-24.09,13.72-9.42,12.88-60.69,111.94-82.23,155.8q-9,18.24-17.65,36.6c-6,12.66-11.27,25.62-17.22,38.28-.22.47.47.85.7.39,5.28-10.59,11.15-20.89,16.59-31.39s10.75-21.1,16-31.7q16-32.07,32.11-64.12c10.66-21.16,23.6-41.8,34.42-62.88,9.08-17.72,21.48-41.91,30.14-45.49,10.19-4.22,26.79-8.4,37.71-9.16,13.42-.94,26.86-1.76,40.27-2.92A.48.48,0,0,0,1217,1294.67Z"/><path class="cls-2" d="M1485.46,660c11.46,45.29,32.84,97.72,22.37,145-8.26,37-35.52,66.42-65.57,87.88-66.13,47.14-167.13,72.26-232.93,10.52-26.27-24.66-42.11-84-12.87-113,15-14.82,35.1-21.67,53.59-31,24.42-12.23,40.08-30.57,47.09-57.09,13.73-51.67,2-85-3.94-136.65-1.07-9.58-.78-19.3,6.88-29.15,6.18-9.72,15.71-17.46,26.65-22.88,9-6,18.87-10.38,29.76-11.42,22.94-2.27,48.75,14,68.77,23.34,20.26,9.46,31.15,21.44,37,43.22C1470.47,599.05,1477.74,629.57,1485.46,660Z"/><path class="cls-2" d="M1495.54,680.36c-13.17-40.84-27.13-81.35-40.84-122-.08-.25-.47-.17-.4.09,10.31,33.77,20.14,67.64,30.89,101.28,10.54,33,23.64,66.15,31.24,99.93,17.09,75.83-54.82,122.9-120.32,132.48-3,.44-1.95,5.13,1.05,4.6,57.24-10.22,121.19-43.64,125.66-109C1525.26,751.94,1506.32,713.74,1495.54,680.36Z"/><path class="cls-2" d="M1296.05,560.92a.64.64,0,0,0-1.25.28c6.7,42.26,18.47,90.9,2.12,132.25a108.44,108.44,0,0,1-40.26,50c-14.4,9.63-31,13.62-46.73,20.22-61.67,25.84-44.46,112.75,9.2,137,1.13.51,2-1.41.94-2-38.26-19.44-58.88-64.83-39.27-105.29,15.75-32.48,58.89-32.07,85.12-53.24C1320.26,696.35,1309.83,621.44,1296.05,560.92Z"/><path class="cls-13" d="M1409.85,731.81c-28.32,61.19-125,203.11-171.65,209.58-41.23,5.73-143.29-18-177.68-36.88-15.81-8.68,24-125.82,50.5-120.26,33.16,7,78,23.32,108.78,25.22,10.87.68,63.27-36.74,155.56-97.53C1409.68,689.34,1425.79,697.35,1409.85,731.81Z"/><path class="cls-13" d="M1057.63,798.83s-82.1-12.69-86.32-11.91-3.34,6.84-2.82,11.59c.11,1.15,1.67,4.06,3.58,7.9,6.17,12.19,16.59,34,0,38.9-21.77,6.5-45.27-42.4-47.74-50.62-.64-2.21-.45-6.34.65-11.32,3-13.39,12.25-32.93,28.06-38,21.68-6.92,46.44-3.91,68.11-2.82Z"/><path class="cls-13" d="M1057.63,798.83s-82.1-12.69-86.32-11.91-3.34,6.84-2.82,11.59c.11,1.15,1.67,4.06,3.58,7.9-16.77-8.14-35.27-17.2-47-23,3-13.39,12.25-32.93,28.06-38,21.68-6.92,46.44-3.91,68.11-2.82Z"/><path class="cls-13" d="M1060.52,904.51c-4.29-2.3-26.36-8.81-56.2-19.15-8-23-29.36-67.07-35-78.76-4-14.06-20.59-41.85-21.88-41.22-2.42,1.17-11,5.32-21.74,9.51-14.25,5.53-32.35,11.21-45.31,10.38-7.06-.46-12.53-2.81-15.13-8.12-4.65-9.53,15.8-20.58,38.87-35.8,31.41-20.76,71.11-44.55,90.55-38.82,28.72,8.46,57,43.58,66.69,53.05S1111,784.25,1111,784.25C1102.82,827.33,1066.27,907.52,1060.52,904.51Z"/><path class="cls-13" d="M966.11,797.86c-.36-.58-.69-.29-.43.43.83,2.26,4.38,12.38,2.18,13.48-3.84,1.91-26.81-10.49-37.36-14-.57-.19-.88.58-.33.73,2.88.77,13,6.16,15.48,7.4,4.84,2.4,19,10.78,23.87,8.38C972.75,812.67,967.49,800.12,966.11,797.86Z"/><path class="cls-13" d="M853.59,853.06c-2.83,2.76-6,5-7.31,3.74l0,0c-1.24-1.38,1.1-4.45,3.93-7.22Z"/><path class="cls-13" d="M886.45,849.17c-3,2.89-25.46,5.19-33.77,4.78a4.09,4.09,0,0,1-3.46-3.46c-.19-8.21,2.69-30.8,5.67-33.7,2-2,11.37-6.84,20.47-12.53,11.92-7.38,139.9-126,142-126.55s5.93,2.6,7.84,4.56,5,5.93,4.41,8S907.18,817.29,899.5,829C893.58,838,888.47,847.21,886.45,849.17Z"/><path class="cls-13" d="M886.44,849.19a2.82,2.82,0,0,1-1.14.66A108.22,108.22,0,0,1,866,834.31a70.73,70.73,0,0,1-12-15.94,3.66,3.66,0,0,1,.87-1.57,11.81,11.81,0,0,1,1.46-1.15c2.73,5.54,10.95,19,31.4,31.93A9.87,9.87,0,0,1,886.44,849.19Z"/><rect class="cls-13" x="900.22" y="771.13" width="9.31" height="57.02" rx="0.73" transform="translate(845.96 -406.49) rotate(45.74)"/><rect class="cls-13" x="896.51" y="787.04" width="5.44" height="36.2" rx="0.43" transform="translate(847.96 -400.77) rotate(45.73)"/><rect class="cls-13" x="894.59" y="806.17" width="1.59" height="5.42" transform="translate(-310.4 854.46) rotate(-44.26)"/><path class="cls-13" d="M1004.32,885.36c-10.21-3.5-19.32-6.51-25.57-8.38-24.62-7.37-35.91-19.45-45.81-33.87s-60-29.87-35.56-45,68.1,21.94,72.36,15.55c.79-1.21.57-3.75-.38-7C975,818.29,996.3,862.32,1004.32,885.36Z"/><path class="cls-1" d="M1269.42,768.72l101.43,40.65s32-44.62,46.28-71.81c18.84-36,9.89-51.42-36.53-33.42C1349.53,716.19,1269.42,768.72,1269.42,768.72Z"/><path class="cls-2" d="M1358.47,804.45c1.17.24,11.73,4.07,12.4,4.56,3.64-5.34,7.21-10.73,10.9-16q2.77-4,5.67-7.87c2.13-2.85,4.4-6.21,6.28-8.73.29-.4.82-.07.57.36-2.12,3.52-3.81,6.08-5.67,9.12-1.65,2.72-3.37,5.41-5.15,8-3.75,5.59-7.52,11.7-11.54,17.09-.31.42-12.62-5.55-13.62-6.19C1358.14,804.69,1358.29,804.41,1358.47,804.45Z"/><path class="cls-2" d="M1283.57,763.22c15.17,4.9,30.23,10,45.09,15.78q11.13,4.34,22.1,9c7.32,3.11,14.33,7,21.67,10,.41.16.12.8-.28.62-7.17-3.37-14.87-5.8-22.21-8.77s-14.77-5.94-22.17-8.84c-14.78-5.81-29.57-11.64-44.48-17.11C1282.87,763.69,1283.16,763.09,1283.57,763.22Z"/><path class="cls-1" d="M1303.27,1010.47l288.18,23.29S1517.7,782.34,1458.3,718.87c-27-28.88-53.46-24.47-75.84-5.89-5.59,4.64-74.85,92.55-80.71,123.18-5.19,27.08,16.82,57.13,16.82,57.13Z"/><path class="cls-2" d="M1346,759.58c-8.68,13.87-18.13,27.22-26.85,41a190.53,190.53,0,0,0-12.17,21.05,53.82,53.82,0,0,0-6,23.31,41.51,41.51,0,0,1,.46-12.32,56.4,56.4,0,0,1,3.7-11.81c3.18-7.65,7.55-14.64,11.81-21.62,4.16-6.26,8.42-12.53,12.84-18.59.71-2.15,1.59-4.26,2.41-6.36a73.42,73.42,0,0,1,4.52-8.94,75.49,75.49,0,0,1-3.34,9.4c-.41.87-.77,1.69-1.13,2.56C1336.66,771.24,1341.23,765.33,1346,759.58Z"/><path class="cls-7" d="M1534.05,865.31c-11.45,4.38-22.9,8.91-35.1,11.07a37.11,37.11,0,0,1-10.74.43,16.64,16.64,0,0,1-9.8-4.34c-5.32-5.18-7.16-12.62-8.34-19.55-1.22-8.34-1.65-16.68-2-25a9.45,9.45,0,0,0-.09-1.22c-.23-5.46-.52-10.93-1.08-16.35a111.7,111.7,0,0,0-3.77-20.82,50.85,50.85,0,0,0-9.52-18.66,38.53,38.53,0,0,0-16.91-12c-6.64-2.36-13.81-2.83-20.83-2.64a184.12,184.12,0,0,0-29,3.91,7.45,7.45,0,0,1-1,.19c-4,.85-8,1.7-12,2.54-11.45,2.41-22.9,4.9-34.58,6.22a11.35,11.35,0,0,0,.66-1c11.35-1.32,22.52-3.77,33.73-6.17,4.15-.89,8.29-1.79,12.49-2.64a8.63,8.63,0,0,1,1-.19,172.39,172.39,0,0,1,28.69-4c7.11-.19,14.41.28,21.25,2.64a40.27,40.27,0,0,1,17.47,12.34,52.21,52.21,0,0,1,9.66,19.08,111.45,111.45,0,0,1,3.77,21.06c.52,5.13.8,10.27,1,15.4,0,.43,0,.85.09,1.23a249.62,249.62,0,0,0,2,25.86c1.13,6.88,3,14.14,8,19s13,4.85,19.74,3.72c12.06-2.12,23.51-6.55,35-10.88ZM1363.27,988.37c-5.23-4.76-11.26-9.42-18.66-10.18a16.64,16.64,0,0,0-10.41,2.69,38.5,38.5,0,0,0-8.15,7c-6.31,7.11-11.4,15-16.25,23.08l.94.1c4.8-7.92,9.84-15.69,16-22.57,4.62-5.09,10.74-10.13,17.81-9.38s13,5.23,18.09,9.94c9.28,8.72,17.15,18.85,25.86,28.27l1.65.14C1381.08,1007.92,1373,997.41,1363.27,988.37Zm200.79-40.14c-1,0-2,.14-3,.23-14.46,1.56-27.13,9.66-37.64,19.13s-19.69,20.59-28.74,31.57c-7.11,8.52-14.13,17.19-22,25l1.37.14c7.68-7.73,14.46-16.16,21.39-24.5,9-11,18-22,28.55-31.52s22.94-17.48,37.12-19c1.08-.1,2.17-.19,3.25-.24C1564.25,948.75,1564.15,948.51,1564.06,948.23Zm-56.3-145.62c-13.62,2.35-25.49,10.41-35.33,19.69-1.18,1.08-2.31,2.21-3.44,3.34l-1,1c-8.48,8.72-16,18.33-23.56,27.8-6.87,8.66-13.66,17.43-21.34,25.39-.28.28-.56.61-.89.89-1.84,1.94-3.82,3.82-5.84,5.66-5.28,4.61-11.12,8.81-17.72,11.26a39.1,39.1,0,0,1-20.68,1.6,52.13,52.13,0,0,1-19.22-8.34,109,109,0,0,1-16.21-13.61c-10.17-9.9-19-21.16-29.68-30.67a48.24,48.24,0,0,0-11.49-7.83c0,.33-.1.71-.15,1a44.24,44.24,0,0,1,11,7.49c10.55,9.47,19.36,20.73,29.49,30.77a111.28,111.28,0,0,0,16.4,13.75,51.61,51.61,0,0,0,19.64,8.53,40,40,0,0,0,21.3-1.65c6.78-2.54,12.67-6.83,18-11.54,2.22-2,4.38-4.1,6.41-6.22a12.55,12.55,0,0,0,.89-.9c7.5-7.91,14.14-16.53,20.88-25,7.3-9.33,14.65-18.7,22.84-27.19a11.24,11.24,0,0,1,1-1c1.27-1.32,2.59-2.64,4-3.91,9.8-9.28,21.58-17.34,35-19.6C1508,803.08,1507.85,802.84,1507.76,802.61Zm-30.53,94.46c-4.52-5.85-11.73-8.53-18.47-10.46-11.35-3.07-23-4.43-34.44-6.51-.42-.09-.84-.18-1.27-.23-2.07-.42-4.14-.8-6.22-1.27a112.34,112.34,0,0,1-20.3-6.13,51.83,51.83,0,0,1-17.48-11.54,38.91,38.91,0,0,1-10-18.18c-1.55-6.84-1.22-14-.23-21,2.12-14,6.88-27.46,11.35-40.94,2.26-6.83,4.57-13.71,6.64-20.68.1-.33.19-.71.29-1a182.44,182.44,0,0,0,4.66-19.36c1.93-10.88,2.45-22.42-.42-33.17l-.71.43c2.73,10.55,2.17,21.86.24,32.55a189.7,189.7,0,0,1-4.76,19.74,6.33,6.33,0,0,0-.33,1c-2,6.74-4.29,13.47-6.55,20.16-4.48,13.48-9.28,26.95-11.5,41.13-1,7.07-1.36,14.32.24,21.39a39.89,39.89,0,0,0,10.22,18.75,52.6,52.6,0,0,0,17.9,11.78,110.79,110.79,0,0,0,20.5,6.12c1.84.43,3.72.8,5.56,1.13.42.1.85.15,1.27.24,11.73,2.17,23.6,3.49,35,6.55,6.69,1.88,13.71,4.52,18,10.08s3.34,13.47,1.46,20.07c-4,13.62-11.07,26.1-17.48,38.77s-13,25.35-17.38,39c-2.08,6.79-3.68,13.86-3.44,21a36.43,36.43,0,0,0,.51,5.08l.66.05a31.33,31.33,0,0,1-.56-5.13c-.19-7.07,1.37-14.09,3.49-20.83,4.33-13.52,11-26.19,17.43-38.82s13.52-25.11,17.62-38.86a38.37,38.37,0,0,0,1.69-10.6A16.77,16.77,0,0,0,1477.23,897.07Z"/><path class="cls-7" d="M1420.54,705.68c.29,5.2-13.62,43.68-36.18,49.21-7.36,1.78-18.91-37.91-18.91-37.91l-1.52-2.74-21.29-38.31,39.06-45.14,5.75-6.15s5.13,10.86,11.39,24.46c.29.63.59,1.26.89,1.93s.74,1.48,1,2.2c1,2,1.94,4.08,2.86,6.16.71,1.58,1.41,3.11,2.1,4.8s1.4,3.3,2.13,5C1414.73,685.81,1420.38,703.47,1420.54,705.68Z"/><path class="cls-7" d="M1398.84,649.1c-2.11,36.11-24.26,57.12-34.91,65.14l-21.29-38.31,39.06-45.14,5.75-6.15S1392.58,635.5,1398.84,649.1Z"/><path class="cls-13" d="M1270.65,618.05c2.48,76.88,48.81,84.07,65.39,83.52,15-.51,66.22-4.13,71.69-80.85s-31.06-99.87-65.54-100.54S1268.16,541.17,1270.65,618.05Z"/><path class="cls-2" d="M1281.06,604.43a49.7,49.7,0,0,0,5.13-1.38c2-.55,3.59-.78,5-2.4a2.74,2.74,0,0,0-.19-3.34c-1.8-1.86-4.37-1.78-6.76-1.22a10,10,0,0,0-6.06,3.86C1276.58,602,1278.7,604.83,1281.06,604.43Z"/><path class="cls-2" d="M1333.72,601.4a51.61,51.61,0,0,1-5.25-.82c-2-.33-3.65-.39-5.2-1.85a2.72,2.72,0,0,1-.17-3.33c1.59-2,4.15-2.25,6.59-1.95a10,10,0,0,1,6.44,3.18C1337.91,598.49,1336.11,601.54,1333.72,601.4Z"/><path class="cls-2" d="M1322.58,620.91c0-.2.41.23.41.45,0,5.24.88,11.24,5.67,12.83.14,0,.14.31,0,.29C1322.82,633.85,1321.73,625.87,1322.58,620.91Z"/><path class="cls-2" d="M1327.08,615.3c8.4-.9,9.58,16,1.8,16.8S1320,616.05,1327.08,615.3Z"/><path class="cls-2" d="M1330.45,616c1.54.85,3.1,2.43,4.89,2.48,2.07.06,3.5-1.81,4.72-3.61.13-.18.29-.05.31.18.27,3.23-.74,6.63-4.17,7.35-3.13.66-5.6-2-6.63-5.23C1329.37,616.54,1329.83,615.61,1330.45,616Z"/><path class="cls-2" d="M1293.46,621.85c-.06-.2-.39.27-.37.49.57,5.21.35,11.27-4.23,13.37-.15.06-.11.33.06.29C1294.62,634.74,1294.84,626.69,1293.46,621.85Z"/><path class="cls-2" d="M1288.37,616.76c-8.45,0-7.79,16.91,0,16.89S1295.45,616.74,1288.37,616.76Z"/><path class="cls-2" d="M1284.89,618c-1.3,1-2.56,2.63-4.15,2.8-1.84.19-3.28-1.59-4.53-3.29-.13-.18-.25,0-.25.19,0,3.24,1.23,6.56,4.36,7.06,2.85.45,4.82-2.4,5.47-5.65C1285.91,618.51,1285.41,617.62,1284.89,618Z"/><path class="cls-2" d="M1326.18,663.75c-1.1,1.36-2.15,3.19-4,3.56s-4-.21-5.74-.66a.19.19,0,0,0-.2.29,7.06,7.06,0,0,0,6.93,2.06c2.31-.68,3.24-2.85,3.56-5.07C1326.76,663.62,1326.35,663.55,1326.18,663.75Z"/><path class="cls-2" d="M1305.46,656.4s3.59,4.89,8.52,6.66a9.61,9.61,0,0,0,5.83.39c4.23-1.09,4.35-5,3.59-8.28a23.34,23.34,0,0,0-1.87-5.09A27.64,27.64,0,0,1,1305.46,656.4Z"/><path class="cls-14" d="M1314,663.06a9.61,9.61,0,0,0,5.83.39c4.23-1.09,4.35-5,3.59-8.28C1318.87,655.61,1314.38,658.67,1314,663.06Z"/><path class="cls-2" d="M1303.22,646.13s-.62,7.87-.41,11.55c0,.35.93.46,2.18.46.06,0,.1,0,.15,0a17.55,17.55,0,0,0,16.62-7.54c.23-.37-.26-.72-.58-.47-4.65,3.84-10,5.08-15.72,5.51-.32-1,1.52-13.45.93-13.46-2,0-5.91,1.55-8.25,2.39.82-16.44,4.27-32.61,4.84-49a.5.5,0,0,0-1-.18c-4.82,16.69-6.18,35.58-7.46,52.53C1294.36,650.05,1301.79,646.84,1303.22,646.13Z"/><path class="cls-2" d="M1402.22,626.85c-8.36-.53-30-23.62-30.57-64,0,0,3,36.23,5.68,41.56s-12.13-13-13-45.56c0,0-18.09,12.95-33.48,17.2s-24.81,4.07-25.9,3,21.56-8.16,27.71-15.19c0,0-41,18.86-59.85,20.23-2.18.16-4.62-44.71,24.61-63.64s75.33,1.81,87.71,13.85c0,0,14.57,2.13,30.34,23.75S1411.22,627.42,1402.22,626.85Z"/><path class="cls-3" d="M1332.68,645.9a24.17,24.17,0,0,1-22-26.07h0a24.13,24.13,0,1,1,22,26.07Zm-18.82-25.8a20.91,20.91,0,1,0,22.58-19.1,21.3,21.3,0,0,0-5.19.21A21,21,0,0,0,1313.86,620.1Z"/><path class="cls-3" d="M1281.76,648.24c-9.89.48-18.47-9.94-19.13-23.23a28.89,28.89,0,0,1,4.27-17.11c3.17-4.84,7.59-7.65,12.5-7.88s9.59,2.11,13.21,6.63a28.75,28.75,0,0,1,5.92,16.6c.62,12.58-6.09,23.3-15.2,24.82A13.46,13.46,0,0,1,1281.76,648.24Zm-12.16-38.57a25.69,25.69,0,0,0-3.75,15.18c.57,11.52,7.63,20.56,15.75,20.16s14.27-10.08,13.71-21.6a25.62,25.62,0,0,0-5.21-14.74c-3-3.69-6.71-5.61-10.54-5.43a9.9,9.9,0,0,0-1.22.14C1275,603.94,1271.91,606.13,1269.6,609.67Z"/><path class="cls-3" d="M1311.59,622.58l2-2.57c-3.81-2.89-12.47-6.61-18,0l2.47,2.08C1303,616.16,1311.24,622.32,1311.59,622.58Z"/><path class="cls-3" d="M1419.32,623.53l2.79-1.62c-.76-1.3-7.59-12.74-14.85-13.56-6.78-.74-49.79,5.42-51.62,5.68l.46,3.2c12.33-1.78,45.56-6.26,50.8-5.67C1411.69,612.1,1417.48,620.38,1419.32,623.53Z"/><path class="cls-7" d="M1408.79,649.05a16,16,0,0,1-3.43,1.34,11.85,11.85,0,0,1-3.59.52,10.53,10.53,0,0,1-4.57-.9,12.29,12.29,0,0,1-3.15-1.88,14.72,14.72,0,0,1-3.41-3.94l1.79-20.91s13.84-25.83,25.34-21.17S1420.93,642.82,1408.79,649.05Z"/><path class="cls-2" d="M1415.12,612.37a.18.18,0,0,1,.11.33c-8.47,4.67-12.17,13.49-14.43,22.44,2.25-3.61,5.64-5.85,10.43-3.22.25.14.08.53-.18.5-3.74-.34-6.3.61-8.41,3.82a39.1,39.1,0,0,0-3.35,7.57c-.32.85-1.81.59-1.61-.36a1.6,1.6,0,0,1,0-.21C1396.15,631.91,1403.07,615,1415.12,612.37Z"/><path class="cls-1" d="M1407.34,646a3.56,3.56,0,1,1-3.26-3.83A3.56,3.56,0,0,1,1407.34,646Z"/><path class="cls-1" d="M1414,639.76a2.52,2.52,0,1,1-2.3-2.72A2.51,2.51,0,0,1,1414,639.76Z"/><path class="cls-13" d="M1471.51,732.65c52.4,81.19,121.35,217,83.81,243.05-61.71,42.8-233,56.52-272.18,58-16.9.67-41.6-111.47-29.28-124.72s191.9-8.82,194-19.69c1.21-6.15-9-60.7-21.11-128.52C1412.83,682.62,1456.52,709.42,1471.51,732.65Z"/><path class="cls-13" d="M1283.88,902.38s-51.27-4.54-84.93-5.92c-18.79-.78-51.11.77-65.17,6.51-21,8.59-103.49,57.95-92,78.2,10.44,18.33,75.9-33.07,75.9-33.07s-70.64,46-54,65.79,82.88-48.15,82.88-48.15-71.52,48.92-51.15,66.58c15.4,13.35,78.86-44.77,78.86-44.77s-61.18,42.47-45.94,56.88c16.85,15.93,78.79-34.05,78.79-34.05,44.91,30.11,78.62,26.07,102.25,20.34C1315.13,1029.34,1283.88,902.38,1283.88,902.38Z"/><path class="cls-13" d="M1141.14,930.62c-8.49,5.1-17.12,10.22-25.13,16.06s-15.83,12-23.26,18.53c-18.22,16.1-27.12,29-26.48,28.29,15-17.47,43.4-38.84,51.42-44.68s15.7-12.07,23.69-17.91C1141.58,930.77,1141.35,930.49,1141.14,930.62Z"/><path class="cls-13" d="M1162.77,959.16c-10.56,7-21.3,13.54-31.56,21s-19.24,15.36-28.91,23.46c-.75.62-.17.82.6.22,10-7.71,19.82-14.07,29.89-21.66s19.86-15.59,30.17-22.78C1163.12,959.29,1162.93,959.05,1162.77,959.16Z"/><path class="cls-13" d="M1185.74,980.32c-16.69,9.85-31.55,22.78-45.81,35.8-.71.65.07.82.83.2,15-12.19,26.69-21.86,45.32-35.42C1186.37,980.69,1186.09,980.11,1185.74,980.32Z"/><path class="cls-15" d="M1293.66,900.68c-11.92-1-24.88-.43-37.14-.88-10.7-.4-20.71-1.86-31.13-2.54-21.36-1.4-52.86-3.39-74.1,0-15.37,2.45-34.43,15-45.26,20.09-.48.23-.1.89.37.72,20.31-7.29,32.57-16,51-18.66,21.15-3,76.33,1.12,97.6,2.34,12.45.71,26.17-.56,38.63-.1A.48.48,0,0,0,1293.66,900.68Z"/><path class="cls-1" d="M1538.5,835.69l-108.88-9.34s-8.52-54.26-9-85c-.63-40.62,14.3-50.38,47.66-13.4C1490.6,752.73,1538.5,835.69,1538.5,835.69Z"/><path class="cls-2" d="M1442.89,827.52c-1.15-.31-12.3-1.64-13.12-1.5-.85-6.41-1.6-12.83-2.52-19.22-.45-3.2-1-6.4-1.52-9.58-.62-3.51-1.13-7.53-1.68-10.63a.34.34,0,1,0-.67.07c.31,4.1.67,7.15.95,10.7.26,3.17.59,6.35,1,9.5.84,6.67,1.44,13.83,2.61,20.45.09.51,13.77.73,15,.61C1443.08,827.9,1443.08,827.57,1442.89,827.52Z"/><path class="cls-2" d="M1528.34,824.42c-15.76-2.45-31.5-4.68-47.38-6.2q-11.87-1.14-23.77-1.93c-7.93-.52-15.93-.23-23.84-.86a.34.34,0,0,0,0,.68c7.92.21,15.89,1.52,23.79,2.16s15.85,1.35,23.77,2.08c15.81,1.48,31.64,2.92,47.42,4.75C1528.75,825.15,1528.76,824.49,1528.34,824.42Z"/><rect class="cls-3" x="216.62" y="1020.04" width="1586.71" height="56.43"/><rect class="cls-4" x="273.41" y="1076.48" width="1473.12" height="56.41"/><polygon class="cls-3" points="273.54 1924.62 250.73 1924.62 317.11 1132.89 375.32 1132.89 273.54 1924.62"/><polygon class="cls-4" points="375.31 1132.9 368.5 1185.88 312.69 1185.88 317.12 1132.9 375.31 1132.9"/><polygon class="cls-3" points="1746.41 1924.62 1769.22 1924.62 1702.84 1132.89 1644.63 1132.89 1746.41 1924.62"/><polygon class="cls-4" points="1644.64 1132.9 1651.46 1185.88 1707.26 1185.88 1702.84 1132.9 1644.64 1132.9"/><polygon class="cls-4" points="615.65 1020.02 942.96 1020.02 863.46 801.61 536.15 801.61 615.65 1020.02"/><polygon class="cls-3" points="604.05 1020.02 931.36 1020.02 851.86 801.61 524.56 801.61 604.05 1020.02"/><polygon class="cls-4" points="524.54 801.62 604.06 1020.04 736.45 1020.04 555.19 801.62 524.54 801.62"/><polygon class="cls-4" points="545.74 1020.02 585.58 1020.02 621.33 958.1 581.49 958.1 545.74 1020.02"/><polygon class="cls-1" points="621.33 958.1 621.33 1020.04 585.58 1020.04 621.33 958.1"/><polygon class="cls-4" points="769.18 1020.02 809.02 1020.02 844.77 958.1 804.93 958.1 769.18 1020.02"/><polygon class="cls-1" points="844.77 958.1 844.77 1020.04 809.02 1020.04 844.77 958.1"/><rect class="cls-6" x="1077.86" y="1008.17" width="264.55" height="11.87"/><rect class="cls-5" x="1077.86" y="1008.17" width="133.15" height="11.87"/><polygon class="cls-6" points="1196.68 1020.03 938.86 1020.03 905.15 844.92 1162.97 844.92 1196.68 1020.03"/><path class="cls-5" d="M1066.61,932.47a14.15,14.15,0,0,1-14.32,15.7,17.48,17.48,0,0,1-17.07-15.7,14.15,14.15,0,0,1,14.32-15.69A17.48,17.48,0,0,1,1066.61,932.47Z"/><polygon class="cls-2" points="411.53 991.07 403.05 989.96 446.7 657.92 605.15 570.96 609.26 578.46 454.61 663.34 411.53 991.07"/><path class="cls-1" d="M438.6,660.63a12.06,12.06,0,1,0,12.06-12.06A12.06,12.06,0,0,0,438.6,660.63Z"/><path class="cls-1" d="M593.46,574.71a12.06,12.06,0,1,0,12.06-12.06A12.06,12.06,0,0,0,593.46,574.71Z"/><polygon class="cls-1" points="686.58 585.74 629.91 649.01 603.75 616.71 587.82 597.01 630.31 549.62 651.62 563.31 686.58 585.74"/><polygon class="cls-16" points="686.58 585.74 629.91 649.01 603.75 616.71 651.62 563.31 686.58 585.74"/><polygon class="cls-1" points="768.75 616.97 669.91 727.27 604.28 643.54 678.34 560.88 768.75 616.97"/><polygon class="cls-3" points="484.9 1020.04 338.66 1020.04 347.64 974.1 475.93 974.1 484.9 1020.04"/><path class="cls-9" d="M1290.91,191.7,1139.72,341.79a26.22,26.22,0,1,1-37-37.2l151.14-150.14Z"/><polygon class="cls-6" points="1290.91 191.7 1247.93 234.38 1219.36 188.77 1253.91 154.45 1290.91 191.7"/><path class="cls-9" d="M1092.77,351.46h0a6.65,6.65,0,0,1,0-9.4l34.19-34,9.37,9.43-34.2,34A6.65,6.65,0,0,1,1092.77,351.46Z"/><path class="cls-9" d="M1136.39,317.52l-34.23,34a6.65,6.65,0,0,1-9.34-9.46l5.76-5.73L1127,308.11Z"/><rect class="cls-1" x="1222.02" y="165.87" width="78.48" height="37.01" transform="translate(503.35 -840.49) rotate(45.2)"/><path class="cls-1" d="M1277.87,204.61l-37-37.22,31.22-31a26.23,26.23,0,0,1,37.09.13h0a26.24,26.24,0,0,1-.12,37.1Z"/><path class="cls-3" d="M1195.91,286l-56.17,55.77a26.11,26.11,0,0,1-31.77,3.94l-5.81,5.78a6.65,6.65,0,0,1-9.34-9.46l5.76-5.73a26.11,26.11,0,0,1,4.17-31.74l19-18.82Z"/><rect class="cls-9" x="225.62" y="693.2" width="83.23" height="292.86" transform="translate(1106.86 572.4) rotate(90)"/><rect class="cls-17" x="303.27" y="819.38" width="62.53" height="40.51" transform="translate(1174.17 505.1) rotate(90)"/><rect class="cls-18" x="254.17" y="819.38" width="62.53" height="40.51" transform="translate(1125.06 554.2) rotate(90)"/><rect class="cls-19" x="205.07" y="819.38" width="62.53" height="40.51" transform="translate(1075.97 603.3) rotate(90)"/><rect class="cls-3" x="352.37" y="819.38" width="62.53" height="40.51" transform="translate(1223.26 456) rotate(90)"/><rect class="cls-20" x="155.97" y="819.38" width="62.53" height="40.51" transform="translate(1026.87 652.4) rotate(90)"/><g class="cls-21"><rect x="352.37" y="819.95" width="62.53" height="40.51" transform="translate(1223.84 456.57) rotate(90)"/><rect class="cls-22" x="303.27" y="819.95" width="62.53" height="40.51" transform="translate(1174.74 505.67) rotate(90)"/><rect class="cls-23" x="254.17" y="819.95" width="62.53" height="40.51" transform="translate(1125.64 554.77) rotate(90)"/><rect class="cls-24" x="205.07" y="819.95" width="62.53" height="40.51" transform="translate(1076.54 603.87) rotate(90)"/><rect class="cls-25" x="155.97" y="819.95" width="62.53" height="40.51" transform="translate(1027.44 652.97) rotate(90)"/></g><path class="cls-1" d="M140.67,844.92a5.29,5.29,0,1,1,5.28-5.29A5.29,5.29,0,0,1,140.67,844.92Z"/><rect class="cls-9" x="188.55" y="603.71" width="83.23" height="292.86" transform="translate(597.84 56.96) rotate(45)"/><g class="cls-26"><rect x="281.55" y="647.23" width="62.53" height="40.51" transform="translate(563.6 -25.7) rotate(45)"/><rect class="cls-22" x="246.83" y="681.94" width="62.53" height="40.51" transform="translate(577.98 9.02) rotate(45)"/><rect class="cls-23" x="212.11" y="716.66" width="62.53" height="40.51" transform="translate(592.36 43.74) rotate(45)"/><rect class="cls-24" x="177.4" y="751.38" width="62.53" height="40.51" transform="translate(606.75 78.46) rotate(45)"/><rect class="cls-25" x="142.68" y="786.1" width="62.53" height="40.51" transform="translate(621.13 113.18) rotate(45)"/></g><rect class="cls-3" x="282.4" y="648.07" width="62.53" height="40.51" transform="translate(564.45 -26.05) rotate(45)"/><rect class="cls-17" x="247.68" y="682.79" width="62.53" height="40.51" transform="translate(578.83 8.67) rotate(45)"/><rect class="cls-18" x="212.96" y="717.51" width="62.53" height="40.51" transform="translate(593.21 43.39) rotate(45)"/><rect class="cls-19" x="178.24" y="752.23" width="62.53" height="40.51" transform="translate(607.59 78.11) rotate(45)"/><rect class="cls-20" x="143.52" y="786.95" width="62.53" height="40.51" transform="translate(621.97 112.83) rotate(45)"/><path class="cls-2" d="M144.4,843.37a5.29,5.29,0,1,1,0-7.48A5.29,5.29,0,0,1,144.4,843.37Z"/><rect class="cls-9" x="99.05" y="566.64" width="83.23" height="292.86"/><rect class="cls-17" x="109.4" y="625.02" width="62.53" height="40.51"/><rect class="cls-18" x="109.4" y="674.12" width="62.53" height="40.51"/><rect class="cls-19" x="109.4" y="723.22" width="62.53" height="40.51"/><rect class="cls-3" x="109.4" y="575.92" width="62.53" height="40.51"/><rect class="cls-20" x="109.4" y="772.32" width="62.53" height="40.51"/><path class="cls-2" d="M149.23,839.63a8.56,8.56,0,1,1-8.56-8.56A8.56,8.56,0,0,1,149.23,839.63Z"/><polygon class="cls-10" points="1922.76 907.85 1725.64 907.85 1725.64 654.82 1872 654.82 1922.76 703.03 1922.76 907.85"/><rect class="cls-9" x="1725.64" y="833.81" width="197.11" height="74.05"/><polygon class="cls-1" points="1746.31 831.18 1792.61 786.83 1834.58 831.18 1746.31 831.18"/><polygon class="cls-1" points="1786.07 831.18 1849.41 769 1906.84 831.18 1786.07 831.18"/><path class="cls-7" d="M1790.19,734.68a22.1,22.1,0,1,1-22.09-22.09A22.09,22.09,0,0,1,1790.19,734.68Z"/><polygon class="cls-9" points="1872 654.82 1922.76 703.03 1872 703.03 1872 654.82"/></svg>