<svg id="Layer_1" data-name="Layer 1" xmlns="http://www.w3.org/2000/svg" xmlns:xlink="http://www.w3.org/1999/xlink" viewBox="0 0 2000 2000"><defs><style>.cls-1{fill:none;}.cls-2{fill:#4054b7;}.cls-18,.cls-3{opacity:0.7;}.cls-14,.cls-3,.cls-7{isolation:isolate;}.cls-4{fill:#fff;}.cls-5{fill:#263238;}.cls-6{clip-path:url(#clip-path);}.cls-7{opacity:0.1;}.cls-8{clip-path:url(#clip-path-2);}.cls-9{fill:#8c8c8c;}.cls-10{clip-path:url(#clip-path-3);}.cls-11,.cls-14{opacity:0.2;}.cls-12{fill:gray;}.cls-13{clip-path:url(#clip-path-4);}.cls-15{clip-path:url(#clip-path-5);}.cls-16{fill:#c1caea;}.cls-17{opacity:0.4;}.cls-19{opacity:0.5;}</style><clipPath id="clip-path"><rect class="cls-1" x="601.07" y="323.69" width="842.84" height="1644.81" rx="72.64"/></clipPath><clipPath id="clip-path-2"><rect class="cls-2" x="638.54" y="435.4" width="767.9" height="1435.49"/></clipPath><clipPath id="clip-path-3"><path class="cls-1" d="M916.85,1123.66s21.26,114.66,17,152.88-12.76,53.08-91.3,67.94-155.09,29.72-148.64,123.18,74.3,267.5,74.3,267.5,8.5,91.3,48.82,148.64h908.78s-133.77-227.18-195.11-337.6S1430.65,1344.48,1384,1299.91s-244.19-21.21-244.19-21.21-15-97.71-19.11-159.3-4.2-76.39-4.2-76.39S1010.41,1142.57,916.85,1123.66Z"/></clipPath><clipPath id="clip-path-4"><path class="cls-1" d="M962.43,645.83a165.57,165.57,0,0,0-105.06,99.4c-31.32,81-2.5,88.71-16.36,148.14-25.42,108.81,31.07,209.07,60.53,238.54s49.83,40.67,84.8,40.67,121.52-84.65,138.08-117.82,7.36-160.09,0-206.22S1004.75,666.09,962.43,645.83Z"/></clipPath><clipPath id="clip-path-5"><circle class="cls-1" cx="739.69" cy="513.76" r="53.03"/></clipPath></defs><title>JETPAX 7</title><path class="cls-2" d="M144.9,755.69s-72,317.79,136.23,596.45S850.31,1740.91,1140,1838s560.33-11,660.39-254.6-106.36-376.67-153.69-695.95-11.86-411-224.58-655.38-646-241.5-937.4,6S144.9,755.69,144.9,755.69Z"/><g class="cls-3"><path class="cls-4" d="M149.38,751.65s-72,317.79,136.23,596.45,569.18,388.77,858.9,485.83,560.33-11,660.39-254.6-106.37-376.67-153.69-695.95-11.86-411-224.58-655.38-646-241.5-937.4,6S149.38,751.65,149.38,751.65Z"/></g><g id="freepik--Graphics--inject-2"><path class="cls-2" d="M453.13,528.81a2.5,2.5,0,0,1-2.5-2.5V481.93a2.5,2.5,0,1,1,5,0v44.38A2.5,2.5,0,0,1,453.13,528.81Z"/><path class="cls-2" d="M475.3,506.65H430.92a2.51,2.51,0,0,1,0-5H475.3a2.51,2.51,0,0,1,0,5Z"/><path class="cls-2" d="M1562.23,411.74a2.5,2.5,0,0,1-2.5-2.5V364.86a2.5,2.5,0,0,1,5,0v44.38A2.5,2.5,0,0,1,1562.23,411.74Z"/><path class="cls-2" d="M1584.44,389.53h-44.37a2.51,2.51,0,0,1,0-5h44.37a2.51,2.51,0,0,1,0,5Z"/><path class="cls-2" d="M1672.09,1608.94a2.5,2.5,0,0,1-2.5-2.5v-44.38a2.5,2.5,0,0,1,5,0v44.38A2.5,2.5,0,0,1,1672.09,1608.94Z"/><path class="cls-2" d="M1694.31,1586.77h-44.38a2.5,2.5,0,1,1,0-5h44.38a2.5,2.5,0,0,1,0,5Z"/><path class="cls-2" d="M1039.32,160.34a2.5,2.5,0,0,1-2.5-2.5V113.47a2.5,2.5,0,0,1,5,0v44.37A2.49,2.49,0,0,1,1039.32,160.34Z"/><path class="cls-2" d="M1061.49,138.13h-44.38a2.5,2.5,0,0,1,0-5h44.38a2.5,2.5,0,0,1,0,5Z"/><path class="cls-2" d="M931.86,68.19a2.5,2.5,0,0,1-2.5-2.5V21.31a2.5,2.5,0,1,1,5,0V65.69A2.5,2.5,0,0,1,931.86,68.19Z"/><path class="cls-2" d="M954.07,46H909.7a2.5,2.5,0,0,1,0-5h44.37a2.5,2.5,0,0,1,0,5Z"/><path class="cls-2" d="M328.81,855.1a2.5,2.5,0,0,1-2.5-2.5V808.22a2.5,2.5,0,0,1,5,0V852.6A2.5,2.5,0,0,1,328.81,855.1Z"/><path class="cls-2" d="M351,832.94H306.6a2.51,2.51,0,1,1,0-5H351a2.51,2.51,0,0,1,0,5Z"/><path class="cls-2" d="M1505.68,244.08a39.18,39.18,0,1,1,38.13-30.21A38.94,38.94,0,0,1,1505.68,244.08Zm-.07-73.36a34.21,34.21,0,0,0-33.2,26.36h0a34.11,34.11,0,1,0,33.2-26.36ZM1470,196.5h0Z"/><path class="cls-2" d="M354.83,1800a2.5,2.5,0,0,1-2.51-2.5v-44.38a2.51,2.51,0,0,1,5,0v44.38A2.5,2.5,0,0,1,354.83,1800Z"/><path class="cls-2" d="M377,1777.79H332.61a2.51,2.51,0,0,1,0-5H377a2.51,2.51,0,0,1,0,5Z"/><path class="cls-2" d="M298.21,1632.32a39.18,39.18,0,1,1,38.14-30.2A39,39,0,0,1,298.21,1632.32Zm-.06-73.36a34.22,34.22,0,0,0-33.2,26.35h0a34.11,34.11,0,1,0,33.2-26.36Zm-35.63,25.78h0Z"/><path class="cls-2" d="M370.28,593a39.16,39.16,0,1,1,15.49-3.21A39.24,39.24,0,0,1,370.28,593Zm-.1-73.34a34.17,34.17,0,1,0,31.41,20.61A33.93,33.93,0,0,0,370.18,519.64Z"/><path class="cls-2" d="M1579.94,1548.25a39.26,39.26,0,1,1,14.92-3A39.09,39.09,0,0,1,1579.94,1548.25Zm0-73.36a34.16,34.16,0,1,0,31.64,21.15A33.94,33.94,0,0,0,1579.9,1474.89Z"/><path class="cls-2" d="M1651.4,1135.7a39.17,39.17,0,0,1-16.91-74.53h0a39.17,39.17,0,1,1,16.91,74.53Zm-14.76-70a34.17,34.17,0,1,0,45.55,16.15,33.94,33.94,0,0,0-45.55-16.15Z"/><path class="cls-2" d="M1700.8,590.35a8.38,8.38,0,0,1-.86,0,10.86,10.86,0,1,1,11.67-11.66,9.43,9.43,0,0,1,0,1.68h0a10.85,10.85,0,0,1-10.81,10Zm0-16.71-.47,0a5.85,5.85,0,0,0,0,11.67,5.92,5.92,0,0,0,4.26-1.39,5.82,5.82,0,0,0,2-4h0a6.76,6.76,0,0,0,0-.9,5.84,5.84,0,0,0-5.82-5.4Z"/><path class="cls-2" d="M1597.4,1645.11a10.86,10.86,0,1,1,10.86-10.86A10.87,10.87,0,0,1,1597.4,1645.11Zm0-16.71a5.86,5.86,0,1,0,5.85,5.85A5.85,5.85,0,0,0,1597.4,1628.4Z"/><path class="cls-2" d="M1501,1285.75c-.29,0-.57,0-.85,0a10.86,10.86,0,1,1,11.66-11.66,9.43,9.43,0,0,1,0,1.68h0A10.86,10.86,0,0,1,1501,1285.75Zm0-16.71-.45,0a5.85,5.85,0,1,0,6.29,6.29h0q0-.45,0-.9A5.87,5.87,0,0,0,1501,1269Z"/><path class="cls-2" d="M1594.14,1053.87c-.29,0-.57,0-.86,0a10.86,10.86,0,1,1,11.66-11.67,9.43,9.43,0,0,1,0,1.68h0a10.85,10.85,0,0,1-10.8,10Zm0-16.71a3.54,3.54,0,0,0-.46,0,5.87,5.87,0,0,0-5.39,6.28,5.86,5.86,0,0,0,11.68,0h0a6.76,6.76,0,0,0,0-.9,5.86,5.86,0,0,0-5.83-5.4Z"/><path class="cls-2" d="M833.4,104.91a10.86,10.86,0,1,1,10.86-10.86A10.87,10.87,0,0,1,833.4,104.91Zm0-16.71a5.86,5.86,0,1,0,5.86,5.85A5.86,5.86,0,0,0,833.4,88.2Z"/></g><path class="cls-2" d="M1692.8,434.75s8.91-26.06-15-75-40.48-77.65-40.48-77.65-38.72,53.69-17.26,101.76a677.83,677.83,0,0,0,56.74,97.91Z"/><path class="cls-2" d="M1584.29,579.39s8.91-26.07-15-75.05-40.37-77.79-40.37-77.79-38.67,53.73-17.26,101.76a677.13,677.13,0,0,0,56.73,97.9Z"/><path class="cls-2" d="M1675.34,478.33s11.61-25,62.84-43.68,83-28.26,83-28.26-9.21,65.54-57.93,85.45a677,677,0,0,1-108.72,31.42Z"/><path class="cls-2" d="M1545.72,648.68s14.16-23.62,67-36.87,85.55-19.56,85.55-19.56-16.06,64.18-66.59,78.84a674.79,674.79,0,0,1-111.42,20Z"/><path class="cls-2" d="M1486.28,862.4s8.91-26.06,57.84-50,79.49-36.87,79.49-36.87-2.25,66.19-48.57,91.11a678,678,0,0,1-104.76,42.77Z"/><path class="cls-2" d="M1468.22,913.23s12.51-24.51-4.35-76.39-28.87-82.7-28.87-82.7-46,47.63-31.56,98.26a675.66,675.66,0,0,0,42.22,105.06Z"/><path class="cls-2" d="M1380.62,1052.51s8.91-26,57.84-50S1518,965.66,1518,965.66s-2.2,66.14-48.53,91.06a676.52,676.52,0,0,1-105.06,42.77Z"/><path class="cls-2" d="M1357.91,1198.25s2-27.42,43.27-63.09,67.59-55.78,67.59-55.78,14.61,64.59-23.91,100.41a678.51,678.51,0,0,1-90.55,67.84Z"/><path class="cls-5" d="M1351.21,1336h0a1.25,1.25,0,0,1-1.23-1.27c0-1.74,2.91-174.29,12.92-234.57,5.88-35.41,25.4-63.05,48-95.05,16.71-23.64,35.64-50.44,52.87-85.41,20.37-41.34,27.45-86.63,34.3-130.42,6.76-43.22,13.14-84,31.94-115.51,18-30,38.88-53.4,61-78.12,23.52-26.24,47.85-53.38,68.67-89.56a794.69,794.69,0,0,0,37.55-77.35,1.25,1.25,0,0,1,2.31,1,797.92,797.92,0,0,1-37.68,77.62c-21,36.43-45.38,63.66-69,90-22.08,24.63-42.93,47.89-60.76,77.73-18.55,31.05-24.9,71.64-31.62,114.62-6.88,44-14,89.45-34.52,131.14-17.32,35.14-36.32,62-53.07,85.75-22.43,31.75-41.8,59.16-47.58,94-10,60.09-12.86,232.46-12.89,234.2A1.25,1.25,0,0,1,1351.21,1336Z"/><path class="cls-5" d="M1669.09,496.79a1.27,1.27,0,0,1-1.19-.85,1.26,1.26,0,0,1,.79-1.59l49.63-16.75a1.26,1.26,0,0,1,1.59.78,1.24,1.24,0,0,1-.79,1.58l-49.63,16.76A1.12,1.12,0,0,1,1669.09,496.79Z"/><path class="cls-5" d="M1682.8,462.67a1.25,1.25,0,0,1-1.23-1l-6.51-34.87a1.26,1.26,0,0,1,1-1.46,1.22,1.22,0,0,1,1.46,1l6.51,34.87a1.25,1.25,0,0,1-1,1.46Z"/><path class="cls-5" d="M1534.31,673.54a1.25,1.25,0,0,1-.38-2.44c.41-.13,41.81-13.61,83.61-26.57a1.25,1.25,0,1,1,.74,2.39c-41.79,13-83.17,26.43-83.58,26.56A1.32,1.32,0,0,1,1534.31,673.54Z"/><path class="cls-5" d="M1568.28,627.52a1.24,1.24,0,0,1-1.23-1.08c-.1-.63-9.26-63.47-27.89-109.07a1.25,1.25,0,1,1,2.31-.94c18.76,45.89,28,109,28,109.66a1.24,1.24,0,0,1-1.06,1.41Z"/><path class="cls-5" d="M1474.93,901.07a1.22,1.22,0,0,1-.92-.4,1.24,1.24,0,0,1,.07-1.76,429.44,429.44,0,0,1,102.81-70.25,1.25,1.25,0,0,1,1.67.57,1.27,1.27,0,0,1-.58,1.68,427,427,0,0,0-102.2,69.83A1.28,1.28,0,0,1,1474.93,901.07Z"/><path class="cls-5" d="M1456,935.45a1.26,1.26,0,0,1-1.25-1.17,488.76,488.76,0,0,0-12.53-79.84c-9.33-34.39-10.91-39.18-11-39.37a1.25,1.25,0,1,1,2.37-.79c.06.18,1.62,4.88,11,39.54a490.16,490.16,0,0,1,12.6,80.28,1.24,1.24,0,0,1-1.15,1.34Z"/><path class="cls-5" d="M1364.11,1101.69a1.27,1.27,0,0,1-.81-.3,1.25,1.25,0,0,1-.13-1.76,461.38,461.38,0,0,1,50.16-50.17,405.62,405.62,0,0,1,55.79-37.31,1.25,1.25,0,1,1,1.21,2.18,404.37,404.37,0,0,0-55.41,37.06,459.35,459.35,0,0,0-49.86,49.86A1.22,1.22,0,0,1,1364.11,1101.69Z"/><path class="cls-5" d="M1354.31,1248.88l-.26,0a1.25,1.25,0,0,1-1-1.48c.08-.33,7.15-33.15,29.93-55,16.68-16,35.48-35.76,49.21-50.2,4.88-5.14,9-9.48,12-12.55a1.26,1.26,0,0,1,1.77,0,1.24,1.24,0,0,1,0,1.77c-3,3.07-7.1,7.4-12,12.53-13.75,14.46-32.57,34.27-49.29,50.29-22.21,21.28-29.14,53.36-29.2,53.68A1.27,1.27,0,0,1,1354.31,1248.88Z"/><path class="cls-2" d="M1335.1,701.26s2.75-17.31,30.81-37.67,45.83-31.77,45.83-31.77,5.8,41.72-20.56,62.38a430.26,430.26,0,0,1-61,38.23Z"/><path class="cls-2" d="M1353.06,814.93s2.75-17.32,30.81-37.68,45.88-31.77,45.88-31.77,5.9,41.88-20.56,62.39a431.27,431.27,0,0,1-61.09,38.22Z"/><path class="cls-2" d="M1331.94,731s.9-17.51-22.36-43.28-38.22-40.57-38.22-40.57-14.36,39.62,7.15,65.29a432.37,432.37,0,0,0,51.78,50Z"/><path class="cls-2" d="M1354.11,865.35s-.95-17.46-26.72-40.67-42.32-36.32-42.32-36.32-10,40.87,14,64.19a430.9,430.9,0,0,0,56.58,44.32Z"/><path class="cls-2" d="M1324,1003.23s2.75-17.26-17.61-45.37-33.77-44.38-33.77-44.38-18.41,37.87,0,65.69a424.85,424.85,0,0,0,46.23,55Z"/><path class="cls-2" d="M1319,1037.5s.25-17.56,25-41.67,40.88-38,40.88-38,11.65,40.47-11.51,64.69a433.62,433.62,0,0,1-55,46.47Z"/><path class="cls-2" d="M1319.79,1184.74s7.55-15.86,40-27.47,52.93-17.56,52.93-17.56-6.2,41.68-37.32,54.09a433,433,0,0,1-69.34,19.41Z"/><path class="cls-2" d="M1326.89,1141.77s2.75-17.31-17.61-45.38-33.77-44.43-33.77-44.43-18.41,37.88.25,65.69a426.75,426.75,0,0,0,46.18,55Z"/><path class="cls-2" d="M1296.22,1230.47s7.06-16.06-5.55-48.38-21.41-51.53-21.41-51.53-27.42,32-16.41,63.64a425.72,425.72,0,0,0,30.72,65Z"/><path class="cls-5" d="M1259.35,1310.51a1.31,1.31,0,0,1-.57-.13,1.25,1.25,0,0,1-.54-1.68c.5-1,50.08-98.81,62.41-135.56,7.13-21.24,4.4-42.42,1.24-67-2.37-18.35-5-39.14-4.3-64,.88-29.48,10.4-57.19,19.62-84,9-26.24,17.54-51,16.3-73.89-1.18-21.84-6-41-11-61.3-5.49-22-11.16-44.76-12.06-71.65a496.32,496.32,0,0,1,1.91-54.94,1.2,1.2,0,0,1,1.36-1.13,1.25,1.25,0,0,1,1.13,1.36,493.43,493.43,0,0,0-1.9,54.64c.89,26.61,6.53,49.23,12,71.11,5.09,20.41,9.89,39.69,11.09,61.78,1.26,23.35-7.33,48.36-16.44,74.84s-18.61,54.15-19.48,83.25c-.74,24.69,1.92,45.38,4.28,63.63,3.2,24.84,6,46.28-1.34,68.06-12.4,36.93-62.06,134.91-62.56,135.9A1.24,1.24,0,0,1,1259.35,1310.51Z"/><path class="cls-5" d="M1330.34,743.78a1.22,1.22,0,0,1-.9-.39l-22.92-24.21a1.25,1.25,0,0,1,1.82-1.72l22.91,24.21a1.25,1.25,0,0,1-.91,2.11Z"/><path class="cls-5" d="M1332.79,720.52a1.26,1.26,0,0,1-1-2l14-17.71a1.26,1.26,0,0,1,2,1.56l-14,17.71A1.24,1.24,0,0,1,1332.79,720.52Z"/><path class="cls-5" d="M1353.61,883.16a1.25,1.25,0,0,1-.9-.38c-.2-.2-19.49-20.23-39.11-40a1.25,1.25,0,1,1,1.78-1.76c19.64,19.79,38.93,39.84,39.12,40a1.24,1.24,0,0,1-.89,2.11Z"/><path class="cls-5" d="M1348.1,847.34a1.23,1.23,0,0,1-.74-.24,1.25,1.25,0,0,1-.26-1.75,355.67,355.67,0,0,1,48.5-53.42,1.25,1.25,0,0,1,1.67,1.86,352.82,352.82,0,0,0-48.16,53.05A1.24,1.24,0,0,1,1348.1,847.34Z"/><path class="cls-5" d="M1319.23,1029a1.24,1.24,0,0,1-1.17-.83,273.3,273.3,0,0,0-36.65-69.73,1.24,1.24,0,0,1,.27-1.74,1.26,1.26,0,0,1,1.75.27,275.19,275.19,0,0,1,37,70.36,1.26,1.26,0,0,1-.76,1.6A1.23,1.23,0,0,1,1319.23,1029Z"/><path class="cls-5" d="M1319.64,1053.76a1.26,1.26,0,0,1-.67-.19,1.24,1.24,0,0,1-.39-1.72,311.51,311.51,0,0,1,30.94-41.34c15.62-16.66,17.93-18.94,18-19a1.25,1.25,0,1,1,1.75,1.79c-.09.09-2.44,2.41-17.92,18.92a307.5,307.5,0,0,0-30.67,41A1.25,1.25,0,0,1,1319.64,1053.76Z"/><path class="cls-5" d="M1310.93,1202.6a1.25,1.25,0,0,1-.66-2.31c1.08-.67,26.57-16.5,41-21a166.39,166.39,0,0,0,25.12-10.23,1.25,1.25,0,0,1,1.14,2.23,169.42,169.42,0,0,1-25.51,10.38c-14.09,4.45-40.12,20.62-40.39,20.78A1.21,1.21,0,0,1,1310.93,1202.6Z"/><path class="cls-5" d="M1321.84,1174.78a1.25,1.25,0,0,1-1.22-1,292.89,292.89,0,0,0-13.3-42.74,254.11,254.11,0,0,0-19.9-37.2,1.25,1.25,0,0,1,2.1-1.36,257.5,257.5,0,0,1,20.11,37.6,294.65,294.65,0,0,1,13.43,43.14,1.25,1.25,0,0,1-.94,1.5Z"/><path class="cls-5" d="M1283.56,1260.59a1.65,1.65,0,0,1-.31,0,1.26,1.26,0,0,1-.9-1.53,73.72,73.72,0,0,0-.44-38.72c-5.08-15.24-10.27-33.82-13.71-46.11-.83-3-1.54-5.51-2.1-7.46a1.25,1.25,0,0,1,2.41-.69c.56,2,1.27,4.5,2.1,7.48,3.43,12.27,8.62,30.81,13.69,46a76.34,76.34,0,0,1,.48,40.08A1.27,1.27,0,0,1,1283.56,1260.59Z"/><path class="cls-2" d="M422.71,974.62s-8.25-23.82-53-45.58-72.79-33.37-72.79-33.37,2.25,60.44,44.68,83.05a620.81,620.81,0,0,0,95.95,38.77Z"/><path class="cls-2" d="M425.77,1139.81s-8.21-23.81-53-45.57S300,1060.87,300,1060.87s2.3,60.43,44.73,83.05a621.65,621.65,0,0,0,95.85,38.67Z"/><path class="cls-2" d="M434.62,1015.79s-5.65-24.46,20.71-66.74,43.88-67,43.88-67,30,52.43,6.3,94.11a622.94,622.94,0,0,1-60.43,83.75Z"/><path class="cls-2" d="M436.92,1211.36s-3.05-25,27.62-64.19,50.58-62,50.58-62,24.51,55.28-3.65,94.21a620.32,620.32,0,0,1-69.19,76.94Z"/><path class="cls-2" d="M514.07,1398.77s-8.21-23.77,13.56-68.59S564.2,1259,564.2,1259s35.57,48.93,16.16,92.91a617.14,617.14,0,0,1-51.48,89.7Z"/><path class="cls-2" d="M529.68,1445.64s-5-24.71-46-52.63-67.29-43.37-67.29-43.37-6.35,60,32.42,88.55a620.41,620.41,0,0,0,89.45,51.93Z"/><path class="cls-2" d="M544.69,1595.28s-8.21-23.76,13.55-68.54,36.57-71.24,36.57-71.24,35.58,48.93,16.21,92.9a618.36,618.36,0,0,1-51.53,89.7Z"/><path class="cls-2" d="M610.17,1712.9s-14-20.91-4.25-69.79S623.23,1565,623.23,1565s46.83,38.32,39.17,85.8a618.78,618.78,0,0,1-27.06,99.81Z"/><path class="cls-5" d="M682.22,1816.46a1.23,1.23,0,0,1-1-.5c-1-1.26-95.67-127.22-122.43-176.36-15.72-28.88-17.18-59.84-18.88-95.68-1.25-26.42-2.67-56.36-9.91-91.12-8.54-41-28.86-77.66-48.5-113.08-19.46-35.08-37.84-68.21-41.92-101.4-3.87-31.49-1.91-60,.16-90.12,2.21-32.3,4.51-65.7-.9-103.57a711.63,711.63,0,0,0-16.43-76.84,1.25,1.25,0,0,1,2.41-.66,711.35,711.35,0,0,1,16.49,77.14c5.45,38.14,3.15,71.67.92,104.1-2.06,30-4,58.4-.16,89.65,4,32.71,22.28,65.63,41.61,100.49,19.74,35.58,40.15,72.37,48.77,113.78,7.28,35,8.7,65,10,91.51,1.68,35.54,3.13,66.23,18.58,94.61,26.67,49,121.27,174.78,122.22,176a1.24,1.24,0,0,1-1,2Z"/><path class="cls-5" d="M439.77,1033a1.22,1.22,0,0,1-.68-.2,1.26,1.26,0,0,1-.36-1.74l26.31-40a1.25,1.25,0,1,1,2.09,1.38l-26.31,40A1.26,1.26,0,0,1,439.77,1033Z"/><path class="cls-5" d="M430.47,1000.68a1.24,1.24,0,0,1-.83-.31l-24.26-21.46A1.25,1.25,0,0,1,407,977l24.27,21.46a1.25,1.25,0,0,1-.83,2.19Z"/><path class="cls-5" d="M441.78,1235.92a1.31,1.31,0,0,1-.71-.21,1.25,1.25,0,0,1-.33-1.74c.22-.33,22.53-33.31,45.33-66.15a1.25,1.25,0,1,1,2.06,1.42c-22.8,32.84-45.1,65.8-45.32,66.13A1.23,1.23,0,0,1,441.78,1235.92Z"/><path class="cls-5" d="M440.58,1183.84a1.25,1.25,0,0,1-.87-.35c-.42-.4-42.32-40.53-81.36-63a1.27,1.27,0,0,1-.46-1.71,1.25,1.25,0,0,1,1.71-.46c39.3,22.58,81.42,62.91,81.84,63.32a1.25,1.25,0,0,1,0,1.77A1.28,1.28,0,0,1,440.58,1183.84Z"/><path class="cls-5" d="M527,1433.44l-.21,0a1.26,1.26,0,0,1-1-1.44,393.54,393.54,0,0,1,34.58-108.51,1.25,1.25,0,0,1,2.25,1.1,391,391,0,0,0-34.36,107.82A1.25,1.25,0,0,1,527,1433.44Z"/><path class="cls-5" d="M532.68,1469a1.24,1.24,0,0,1-.93-.42A443,443,0,0,0,478,1418.26c-25.94-19.62-29.77-22.15-29.92-22.25a1.25,1.25,0,1,1,1.36-2.1c.15.1,3.89,2.56,30.09,22.37a445.42,445.42,0,0,1,54.11,50.64,1.26,1.26,0,0,1-.93,2.09Z"/><path class="cls-5" d="M559.84,1640.26h-.06a1.24,1.24,0,0,1-1.18-1.31,423.65,423.65,0,0,1,8.12-64.27A373.82,373.82,0,0,1,586,1516.45a1.25,1.25,0,1,1,2.3,1,371.42,371.42,0,0,0-19.09,57.79,420,420,0,0,0-8.08,63.86A1.25,1.25,0,0,1,559.84,1640.26Z"/><path class="cls-5" d="M635.49,1751.92a1.26,1.26,0,0,1-1.14-.73,109.6,109.6,0,0,1-9.36-56.43c3.23-22.18,5.87-49.13,7.63-67,.5-5.11.93-9.47,1.27-12.74a1.23,1.23,0,0,1,1.38-1.11,1.25,1.25,0,0,1,1.11,1.37c-.34,3.27-.77,7.62-1.27,12.73-1.76,17.85-4.41,44.83-7.64,67a107,107,0,0,0,9.16,55.08,1.26,1.26,0,0,1-.62,1.66A1.19,1.19,0,0,1,635.49,1751.92Z"/><path class="cls-2" d="M314.65,1367.7s-7.75-14,1.05-44.48,15-48.63,15-48.63,27.62,26.82,20,56.49a395.46,395.46,0,0,1-22.16,61.63Z"/><path class="cls-2" d="M391.45,1439.49s-7.76-14.06,1.05-44.48,15-48.68,15-48.68,27.61,26.82,20,56.54A393.67,393.67,0,0,1,405,1464.7Z"/><path class="cls-2" d="M329.06,1390.86s-9.06-13.16-40.42-18.66-50.33-7.75-50.33-7.75,11.9,36.62,41.82,43a393,393,0,0,0,65.44,7Z"/><path class="cls-2" d="M420.56,1475.21s-10.5-12.06-42.12-14.26-50.93-2.45-50.93-2.45,15.71,35,46.13,38.42a393.23,393.23,0,0,0,65.83,0Z"/><path class="cls-2" d="M476.3,1591.53s-7.71-14-38.18-22.82-49.28-13-49.28-13,8,37.67,37.08,47.22a394.17,394.17,0,0,0,64.18,13.86Z"/><path class="cls-2" d="M491.85,1618.84s-9.65-12.75-5.3-44.17,8.16-50.28,8.16-50.28,31.11,22.61,28.06,53a393.77,393.77,0,0,1-13.56,64.44Z"/><path class="cls-2" d="M575.15,1724.66s-3.5-15.61,13.51-42.38S617,1639.91,617,1639.91s19,33.52,3.5,60a393.77,393.77,0,0,1-39,53Z"/><path class="cls-2" d="M556.19,1689.68s-7.7-14-38.17-22.81-49.28-13-49.28-13,8,37.68,37.07,47.23A395.22,395.22,0,0,0,570.15,1715Z"/><path class="cls-2" d="M584,1770.83s-4-15.51-31.22-31.72-44.33-25-44.33-25-1.8,38.42,23.87,55A393.54,393.54,0,0,0,591,1798.85Z"/><path class="cls-5" d="M601.67,1849.63a1.26,1.26,0,0,1-1.23-1c-.19-1-19.38-99.36-31.17-132.75-6.8-19.26-20.66-33-36.72-48.88-12-11.9-25.66-25.4-39.1-43.76-15.93-21.74-24.65-47.08-33.09-71.59-8.25-24-16-46.58-29.74-62.35-13.14-15.14-27.39-26.31-42.47-38.14-16.25-12.74-33.06-25.92-48.84-44.73a469.8,469.8,0,0,1-29.51-40.69,1.25,1.25,0,0,1,.37-1.73,1.24,1.24,0,0,1,1.73.37,469.28,469.28,0,0,0,29.34,40.46c15.6,18.59,32.3,31.69,48.45,44.35,15.18,11.91,29.52,23.15,42.82,38.47,14,16.13,21.88,39,30.21,63.17s17,49.49,32.75,70.94c13.32,18.2,26.88,31.62,38.84,43.46,16.28,16.1,30.33,30,37.32,49.82,11.85,33.56,31.07,132.11,31.27,133.1a1.27,1.27,0,0,1-1,1.47Z"/><path class="cls-5" d="M334.42,1401.32l-.2,0-30.11-4.55a1.24,1.24,0,0,1-1.05-1.42,1.22,1.22,0,0,1,1.42-1l30.12,4.55a1.25,1.25,0,0,1-.18,2.49Z"/><path class="cls-5" d="M323.11,1383.16h0a1.25,1.25,0,0,1-1.24-1.26l.15-20.62a1.25,1.25,0,0,1,1.25-1.24h0a1.26,1.26,0,0,1,1.24,1.26l-.15,20.62A1.26,1.26,0,0,1,323.11,1383.16Z"/><path class="cls-5" d="M429.52,1488.72l-.17,0c-.25,0-25.3-3.53-50.57-6.74a1.26,1.26,0,0,1,.32-2.49c25.28,3.22,50.34,6.72,50.59,6.76a1.25,1.25,0,0,1-.17,2.49Z"/><path class="cls-5" d="M405.4,1466a1.25,1.25,0,0,1-1.25-1.21,322,322,0,0,1,5-65.75,1.25,1.25,0,0,1,2.46.45,319.78,319.78,0,0,0-5,65.23,1.24,1.24,0,0,1-1.21,1.28Z"/><path class="cls-5" d="M486.65,1613.09a1.19,1.19,0,0,1-.67-.2,248.1,248.1,0,0,0-65.51-29.57,1.24,1.24,0,0,1-.86-1.54,1.23,1.23,0,0,1,1.55-.86,250.08,250.08,0,0,1,66.17,29.87,1.25,1.25,0,0,1-.68,2.3Z"/><path class="cls-5" d="M501,1630.85a1.24,1.24,0,0,1-1.24-1.12,283.59,283.59,0,0,1-.86-47c1.89-20.79,2.3-23.7,2.31-23.81a1.23,1.23,0,0,1,1.42-1.06,1.25,1.25,0,0,1,1.06,1.42c0,.12-.43,3.1-2.29,23.64a281.47,281.47,0,0,0,.84,46.54,1.25,1.25,0,0,1-1.11,1.37Z"/><path class="cls-5" d="M578.2,1742.87a1.3,1.3,0,0,1-.42-.08,1.25,1.25,0,0,1-.75-1.6,234,234,0,0,1,17.65-38.12,160.56,160.56,0,0,0,12.41-21.58,1.25,1.25,0,1,1,2.26,1.08,161.92,161.92,0,0,1-12.55,21.83A232.5,232.5,0,0,0,579.38,1742,1.25,1.25,0,0,1,578.2,1742.87Z"/><path class="cls-5" d="M570.45,1716.7a1.23,1.23,0,0,1-.79-.28,264.79,264.79,0,0,0-33.61-23.3,232.28,232.28,0,0,0-35.35-15.56,1.25,1.25,0,0,1,.81-2.36,233.71,233.71,0,0,1,35.77,15.74,267.42,267.42,0,0,1,34,23.54,1.25,1.25,0,0,1-.79,2.22Z"/><path class="cls-5" d="M591,1800.05a1.27,1.27,0,0,1-1.15-.76,67.4,67.4,0,0,0-22-27.6c-12.22-8-26.44-18.59-35.84-25.59l-5.63-4.18a1.25,1.25,0,1,1,1.48-2c1.48,1.08,3.4,2.51,5.64,4.18,9.38,7,23.56,17.54,35.78,25.55a69.9,69.9,0,0,1,22.87,28.66,1.26,1.26,0,0,1-.65,1.65A1.24,1.24,0,0,1,591,1800.05Z"/><rect class="cls-5" x="601.07" y="323.69" width="842.84" height="1644.81" rx="72.64"/><g class="cls-6"><g class="cls-7"><path class="cls-4" d="M673.71,323.69a72.64,72.64,0,0,0-72.64,72.64V1895.86a72.56,72.56,0,0,0,26.06,55.73l491.74-1627.9Z"/></g><path class="cls-4" d="M1022.51,1952.09a31.17,31.17,0,1,1,31.12-31.17v0A31.15,31.15,0,0,1,1022.51,1952.09Zm0-57.34a26.17,26.17,0,1,0,26.16,26.22v0A26.2,26.2,0,0,0,1022.47,1894.75Z"/></g><path class="cls-5" d="M1371.27,1971H673.71a75.22,75.22,0,0,1-75.14-75.14V396.33a75.22,75.22,0,0,1,75.14-75.14h697.56a75.23,75.23,0,0,1,75.14,75.14V1895.86A75.23,75.23,0,0,1,1371.27,1971ZM673.71,326.19a70.22,70.22,0,0,0-70.14,70.14V1895.86A70.22,70.22,0,0,0,673.71,1966h697.56a70.23,70.23,0,0,0,70.14-70.14V396.33a70.23,70.23,0,0,0-70.14-70.14Z"/><rect class="cls-2" x="638.54" y="435.4" width="767.9" height="1435.49"/><rect class="cls-2" x="638.54" y="435.4" width="767.9" height="1435.49"/><g class="cls-8"><path class="cls-5" d="M1137.68,629C1023,567.38,942.32,609.86,942.32,609.86s-91.31,17-159.25,131.62-116.76,344-50.93,462.87S927.26,1370,1074,1357.24s246.3-214.47,246.3-367.31S1252.35,690.5,1137.68,629ZM747,1166.13a473.8,473.8,0,0,1-2.15-150.74s25.52,208.07,46.73,254.8C791.58,1270.19,761.86,1242.62,747,1166.13Z"/><path class="cls-5" d="M1026.92,1361.83c-136.21,0-240.64-54.53-297-156.27-67.27-121.49-15.65-352.92,51-465.35C846.48,629.56,935,608.84,941.49,607.47c5.9-2.9,86.61-40.2,197.38,19.29h0c111.74,60,183.93,202.51,183.93,363.17,0,145.43-94.57,356.47-248.58,369.8Q1050,1361.83,1026.92,1361.83ZM1014.7,598.26c-44,0-70.76,13.57-71.22,13.81a2.55,2.55,0,0,1-.7.25c-.91.16-91,18.18-157.55,130.44-66,111.4-117.3,340.44-50.9,460.38,61.67,111.38,182.21,165.23,339.45,151.61,151.18-13.09,244-221.31,244-364.82,0-158.84-71.16-299.66-181.29-358.76h0C1089,605.63,1047.14,598.26,1014.7,598.26ZM791.58,1272.69a2.49,2.49,0,0,1-1.7-.66c-1.24-1.15-30.49-29-45.33-105.42,0,0,0,0,0,0A475.25,475.25,0,0,1,742.38,1015a2.38,2.38,0,0,1,2.5-2.14,2.49,2.49,0,0,1,2.45,2.2c.26,2.08,25.71,208.22,46.53,254.07a2.5,2.5,0,0,1-.82,3.06A2.47,2.47,0,0,1,791.58,1272.69Zm-42.12-107c9.34,48.06,24.72,76.71,34.55,91.08-16.06-51.89-32.88-173.46-39.14-221.4A470.56,470.56,0,0,0,749.46,1165.67Z"/><path class="cls-9" d="M744.85,1017.89h-.19a2.51,2.51,0,0,1-2.3-2.69C753.24,875.91,846.06,738.15,847,736.77a2.5,2.5,0,1,1,4.13,2.82c-.93,1.36-93,138.06-103.78,276A2.51,2.51,0,0,1,744.85,1017.89Z"/><path class="cls-4" d="M916.85,1123.66s21.26,114.66,17,152.88-12.76,53.08-91.3,67.94-155.09,29.72-148.64,123.18,74.3,267.5,74.3,267.5,8.5,91.3,48.82,148.64h908.78s-133.77-227.18-195.11-337.6S1430.65,1344.48,1384,1299.91s-244.19-21.21-244.19-21.21-15-97.71-19.11-159.3-4.2-76.39-4.2-76.39S1010.41,1142.57,916.85,1123.66Z"/><g class="cls-10"><g class="cls-11"><path d="M916.85,1123.66s8.31,45,13.51,87.9A119.33,119.33,0,0,0,966.63,1230c67.19,21.61,131.93,0,131.93,0l31.77-19.41c-3.81-29.72-7.76-63.94-9.66-91.16-4.2-61.53-4.2-76.39-4.2-76.39S1010.41,1142.57,916.85,1123.66Z"/><path d="M1615.41,1694.74c-31.27-53.93-62.79-108.82-85.05-148.54-61.54-110.41-99.76-201.72-146.49-246.29-20-19.31-68.79-25.87-117.31-27.12l60,70,283.07,391Z"/></g></g><path class="cls-5" d="M1725.82,1886.3H817.05a2.52,2.52,0,0,1-2-1.06c-39-55.41-48.59-143.16-49.24-149.49-3.29-8.52-68.06-177.06-74.33-267.92-6.64-96,73.33-111.17,150.66-125.8,76.87-14.55,85.17-28.78,89.28-65.76,4.17-37.42-16.77-151-17-152.16a2.49,2.49,0,0,1,.71-2.24,2.58,2.58,0,0,1,2.25-.67c91.19,18.47,196.35-79,197.41-80a2.47,2.47,0,0,1,2.69-.47A2.5,2.5,0,0,1,1119,1043c0,.15.15,15.54,4.2,76.25,3.69,55.46,16.41,141.35,18.72,156.7,23.76-2.65,199.08-20.55,243.81,22.16,33.91,32.38,63.23,88.39,100.36,159.3,14.59,27.88,29.68,56.7,46.84,87.59,60.62,109.12,193.74,335.27,195.08,337.54a2.5,2.5,0,0,1-2.16,3.77Zm-907.47-5h903.1c-17.72-30.14-136.6-232.48-192.93-333.88-17.18-30.94-32.29-59.79-46.9-87.7-36.91-70.5-66.06-126.19-99.37-158-45.3-43.27-240.21-20.77-242.17-20.54a2.51,2.51,0,0,1-2.77-2.11c-.15-1-15.07-98.51-19.13-159.5-2.83-42.41-3.76-62.57-4.06-71.11C1094,1066,1002.45,1140.78,920,1126.78c3.62,20,20.26,115.25,16.39,150-4.33,38.9-13.49,55-93.33,70.12-78.64,14.88-152.93,28.93-146.6,120.54,6.35,92,73.45,265,74.13,266.77a2.69,2.69,0,0,1,.16.68C770.79,1735.83,779.51,1825.11,818.35,1881.3Z"/><path class="cls-12" d="M1480,1883.8l-81.2-112.52s-34,42.48-110.41,6.36-112.52-129.53-112.52-197.47c0-64.49,17.21-283.81,19-306-12.25.7-23.16,1.5-32,2.25-3.16,22.47-33.07,232.29-59.19,318.64-27.61,91.3-80.7,121-184.71,85s-48.87-216.58-42.47-256.9c4-25,20-68.84,31.87-98.51a129.76,129.76,0,0,1-30.87,12,1696.65,1696.65,0,0,0-88,226.63,588.46,588.46,0,0,0-22.82,167.9l1.56,4s8.5,91.3,48.82,148.64Z"/><path class="cls-5" d="M817.05,1886.4a2.52,2.52,0,0,1-2-1.06c-39-55.43-48.6-143.22-49.24-149.5l-1.43-3.74a2.59,2.59,0,0,1-.17-.87,590.58,590.58,0,0,1,22.91-168.61,1704.32,1704.32,0,0,1,88.2-227,2.5,2.5,0,0,1,1.66-1.36,127.16,127.16,0,0,0,30.27-11.77,2.5,2.5,0,0,1,3.52,3.12c-8.08,20.21-27.33,70.2-31.72,98-.82,5.14-2.37,12.34-4.34,21.45-13.07,60.44-43.67,202,45.16,232.69,52,18,91.5,19.44,120.82,4.46,27.13-13.85,47-42.59,60.68-87.86,26.65-88.14,57.79-308.91,59.1-318.26a2.5,2.5,0,0,1,2.26-2.15c10-.85,21-1.63,32-2.25a2.5,2.5,0,0,1,2.64,2.69c-1.94,24.57-18.95,241.88-18.95,305.83,0,70.92,38.15,160.75,111.08,195.2,73.78,34.87,107.06-5.24,107.39-5.65a2.59,2.59,0,0,1,2-.94,2.47,2.47,0,0,1,2,1l81.2,112.52a2.5,2.5,0,0,1-2,4Zm-47.89-155.66,1.39,3.63a2.45,2.45,0,0,1,.16.66c.08.9,8.8,90.18,47.64,146.37l656.79-.1-76.58-106.12c-8.89,8.57-44.63,36.18-111.21,4.72-74.81-35.35-113.95-127.23-113.95-199.73,0-62.14,16-268.19,18.74-303.36-9.27.55-18.53,1.2-27.05,1.91-4.41,31.32-33.29,232.09-59,317-14.11,46.65-34.78,76.37-63.2,90.88-30.6,15.63-71.4,14.26-124.72-4.19-93-32.17-61.77-176.74-48.42-238.48,2-9,3.49-16.17,4.29-21.17,4.06-25.73,20.51-69.8,29.56-92.86a132.2,132.2,0,0,1-24.33,8.89,1699.42,1699.42,0,0,0-87.42,225.23A585.22,585.22,0,0,0,769.16,1730.74Z"/><path class="cls-4" d="M962.43,645.83a165.57,165.57,0,0,0-105.06,99.4c-31.32,81-2.5,88.71-16.36,148.14-25.42,108.81,31.07,209.07,60.53,238.54s49.83,40.67,84.8,40.67,121.52-84.65,138.08-117.82,7.36-160.09,0-206.22S1004.75,666.09,962.43,645.83Z"/><g class="cls-13"><g class="cls-14"><path d="M962.43,645.83l-3.25.95c.3,23.56,4,72.14,26.61,110.61,31.22,52.78,69.59,67.14,108,129.53s21.71,110.56-9.56,165.59-67.19,98.36-110.36,103.16a184.49,184.49,0,0,1-45.53-.6,92.87,92.87,0,0,0,58,17.36c35,0,121.52-84.65,138.08-117.82s7.36-160.09,0-206.22S1004.75,666.09,962.43,645.83Z"/></g></g><path class="cls-5" d="M986.34,1175.08c-34.19,0-55.22-10.06-86.57-41.4-29.83-29.83-86.65-131.9-61.2-240.88,5.66-24.25,4.13-39.36,2.5-55.36-2.25-22.19-4.58-45.13,14-93.11A167.07,167.07,0,0,1,961.68,643.44a2.52,2.52,0,0,1,1.83.13c42.3,20.25,155.66,156.12,163.38,204.58,7.49,47,16.45,174.33-.23,207.73C1109.85,1089.55,1023.14,1175.08,986.34,1175.08ZM962.23,648.52a162.11,162.11,0,0,0-102.52,97.6c-18.12,46.88-15.85,69.21-13.66,90.82,1.59,15.7,3.24,31.93-2.61,57-25,106.95,30.66,207,59.87,236.2,30.24,30.24,50.41,39.94,83,39.94,34.53,0,119.86-84.42,135.85-116.43,16.2-32.46,7.18-158.2-.24-204.71C1114.65,803.12,1003.41,669.38,962.23,648.52Z"/><path class="cls-5" d="M958.48,975.22c-5.66,0-45.23-3.59-54.16-19.27-5.7-10,3.45-15.5,10.79-19.9,5.64-3.38,11.46-6.87,12.95-12l12-42a2.5,2.5,0,1,1,4.81,1.37l-12,42c-2,7.08-9,11.26-15.19,15-8.73,5.24-12,7.89-9,13.13,7.05,12.38,42.7,16.75,49.81,16.75a2.5,2.5,0,0,1,0,5Z"/><path class="cls-5" d="M1021.72,932.74a2.5,2.5,0,0,1-1.3-4.64,74.72,74.72,0,0,1,41.41-10.66,2.5,2.5,0,1,1-.19,5,69.59,69.59,0,0,0-38.63,10A2.47,2.47,0,0,1,1021.72,932.74Z"/><path class="cls-5" d="M903,928.89a2.51,2.51,0,0,1-1.66-.63c-12.11-10.77-33-9.72-33.22-9.73a2.54,2.54,0,0,1-2.63-2.36,2.49,2.49,0,0,1,2.35-2.63c.95-.06,23.15-1.17,36.82,11a2.5,2.5,0,0,1-1.66,4.37Z"/><path class="cls-5" d="M1070.29,950.9a7.2,7.2,0,1,1,7.21-7.2A7.21,7.21,0,0,1,1070.29,950.9Zm0-11.9a4.7,4.7,0,1,0,4.71,4.7A4.71,4.71,0,0,0,1070.29,939Z"/><path class="cls-5" d="M1028.67,957.11a4.26,4.26,0,1,1,4.25-4.25A4.26,4.26,0,0,1,1028.67,957.11Zm0-6a1.76,1.76,0,1,0,1.75,1.76A1.75,1.75,0,0,0,1028.67,951.1Z"/><path class="cls-5" d="M1057.43,969.36a4.25,4.25,0,1,1,4.26-4.25A4.25,4.25,0,0,1,1057.43,969.36Zm0-6a1.75,1.75,0,1,0,1.76,1.75A1.76,1.76,0,0,0,1057.43,963.36Z"/><path class="cls-5" d="M878.38,941.2a4.26,4.26,0,1,1,4.25-4.25A4.25,4.25,0,0,1,878.38,941.2Zm0-6a1.75,1.75,0,1,0,1.75,1.75A1.75,1.75,0,0,0,878.38,935.2Z"/><path class="cls-5" d="M857.07,960.16a4.25,4.25,0,1,1,4.25-4.25A4.25,4.25,0,0,1,857.07,960.16Zm0-6a1.75,1.75,0,1,0,1.75,1.75A1.75,1.75,0,0,0,857.07,954.16Z"/><path class="cls-5" d="M857,939.69h0a4.25,4.25,0,0,1,0-8.49h0a4.27,4.27,0,0,1,4.24,4.24h0A4.26,4.26,0,0,1,857,939.69Zm0-6a1.75,1.75,0,0,0,0,3.49h0a1.76,1.76,0,0,0,1.75-1.74A1.76,1.76,0,0,0,857,933.7Z"/><path class="cls-5" d="M853.81,831.21a4.93,4.93,0,0,1-2.48-.66,5,5,0,0,1-1.87-6.78c.19-.34,19.51-33.19,69-11.63a5,5,0,0,1-4,9.17c-41-17.84-55.75,6.38-56.36,7.42A5,5,0,0,1,853.81,831.21Z"/><path class="cls-5" d="M1078.35,833.74a5,5,0,0,1-3.91-1.88c-36.8-46-89.42-18-91.64-16.75a5,5,0,0,1-4.83-8.77c.62-.34,62.17-33.39,104.28,19.27a5,5,0,0,1-3.9,8.13Z"/><path class="cls-5" d="M972,1035.12c-28,0-50.58-16.18-51-16.46a2.5,2.5,0,0,1,3-4c2.45,1.8,60.49,43.19,103.77-15.72a2.5,2.5,0,0,1,4,3C1013,1027.49,991.2,1035.12,972,1035.12Z"/><ellipse class="cls-5" cx="895.04" cy="894.57" rx="10.61" ry="17.16"/><path class="cls-5" d="M1045.43,898.22c0,9.51-4.76,17.16-10.66,17.16s-10.61-7.65-10.61-17.16,4.76-17.16,10.61-17.16S1045.43,888.77,1045.43,898.22Z"/><path class="cls-5" d="M1052.43,887.72a5,5,0,0,1-3.12-1.1c-17.19-13.75-37.76-3.85-38.63-3.43a5,5,0,0,1-4.46-9c1.09-.55,27.08-13.24,49.34,4.57a5,5,0,0,1-3.13,8.91Z"/><path class="cls-5" d="M912.31,887.72a5,5,0,0,1-4.08-2.1c-4.63-6.48-10.12-10.14-16.76-11.18-14-2.19-28,8.17-28.15,8.28a5,5,0,0,1-6-8c.7-.53,17.5-13,35.62-10.17,9.34,1.44,17.23,6.58,23.43,15.27a5,5,0,0,1-4.06,7.91Z"/><path class="cls-5" d="M1124.42,848.34s23.77,115.52-71.29,268.16c-67.09,107.71-86.4,174.25-86.4,259.2s54.18,130.08,54.18,130.08-12.75,101.91,40.33,165.59,99.8,67.94,131.62,67.94a315.45,315.45,0,0,0,65.84-8.5l-36.07-17a125.75,125.75,0,0,0,114.62-53.08,191.25,191.25,0,0,0,36.12-131.63s17,27.57-2.15,91.25c0,0,17,0,25.51-53.08s8.46-106.16-17-150.73-27.61-61.59-27.61-61.59,4.25,10.66,27.61,12.76a83.36,83.36,0,0,0,44.58-10.61s-29.72-12.76-40.33-31.87-19.11-38.22-19.11-38.22l21.22,4.25a359.93,359.93,0,0,1-50.93-99.81c-17-55,27.61-135.87,4.25-250.54a516.9,516.9,0,0,0-89.2-197.47"/><path class="cls-5" d="M1192.92,1741.82c-37.72,0-83.05-8.18-133.6-68.84-49.88-59.84-42.27-153.92-41-166.19-7.55-6.87-54.06-52.46-54.06-131.09,0-89.48,22.71-157.66,86.78-260.52,93.36-149.92,71.2-265.19,71-266.33a2.5,2.5,0,1,1,4.9-1c.24,1.17,22.88,118.25-71.61,270-63.52,102-86,169.45-86,257.88,0,82.82,52.75,127.71,53.28,128.16a2.5,2.5,0,0,1,.89,2.23c-.13,1-12,101.59,39.76,163.68,55.88,67,105.74,67,129.7,67a312.53,312.53,0,0,0,58.19-6.84l-29.48-13.86a2.5,2.5,0,0,1-1.35-2.92,2.41,2.41,0,0,1,2.64-1.83,123.4,123.4,0,0,0,112.34-52,188.6,188.6,0,0,0,35.68-129.95,2.5,2.5,0,0,1,4.62-1.55c.7,1.13,16.43,27.73-.38,88.1,5-3.88,13.74-15.32,19.14-49,10.23-63.86,4.92-111.24-16.71-149.1-25.42-44.5-27.83-61.8-27.93-62.52a2.5,2.5,0,0,1,4.81-1.24c0,.06,4.3,9.29,25.52,11.2a80.59,80.59,0,0,0,38.73-8c-9-4.49-28.46-15.58-36.89-30.77-10.54-19-19.13-38.23-19.21-38.42a2.5,2.5,0,0,1,2.78-3.47l15,3a362.14,362.14,0,0,1-47.6-95.34c-7.68-24.85-3.08-54.89,2.24-89.68,6.64-43.42,14.91-97.47,1.94-161.14A510.85,510.85,0,0,0,1248.18,745a2.5,2.5,0,0,1,4-3,515.85,515.85,0,0,1,89.63,198.42c13.16,64.58,4.82,119.11-1.89,162.93-5.23,34.18-9.74,63.7-2.41,87.41a357.23,357.23,0,0,0,50.56,99.07,2.5,2.5,0,0,1,.08,2.82,2.45,2.45,0,0,1-2.6,1.1l-16.4-3.29c3.13,6.76,9.57,20.24,17,33.6,10.08,18.15,38.83,30.66,39.12,30.78a2.5,2.5,0,0,1,1.51,2.17,2.47,2.47,0,0,1-1.27,2.31,85.79,85.79,0,0,1-45.91,10.93c-11-1-18.08-3.84-22.57-6.75,3.09,9.12,9.94,25.73,24.86,51.83,22.22,38.92,27.72,87.34,17.3,152.38-8.6,53.64-26,55.19-28,55.19a2.5,2.5,0,0,1-2.4-3.22c9.69-32.28,9.93-55.16,7.94-69.67a193.51,193.51,0,0,1-37.49,112.24,128.5,128.5,0,0,1-104.3,54.63l24.8,11.66a2.5,2.5,0,0,1-.49,4.7A318.43,318.43,0,0,1,1192.92,1741.82Z"/><path class="cls-9" d="M1205.42,1574.88c-25.81,0-48.24-7.58-67-22.7-39.34-31.71-59.21-95.87-54.53-176,3.52-57.83,32.77-96.83,66.65-142,20.18-26.9,41-54.72,58.69-89.53a2.5,2.5,0,0,1,4.46,2.26c-17.84,35.21-38.84,63.2-59.15,90.28-33.39,44.51-62.23,83-65.65,139.27-4.59,78.52,14.61,141.15,52.67,171.83,27.57,22.22,63.68,27.31,107.3,15.12,53.4-14.89,65.7-63,60-99.6-5.65-36.34-30.69-74.23-66.45-73-40.61,1.36-47.72,41.76-48,43.48a2.55,2.55,0,0,1-2.87,2.06,2.49,2.49,0,0,1-2.06-2.87c.07-.46,8-46.17,52.76-47.67.65,0,1.3,0,1.94,0,37.45,0,63.75,39.44,69.62,77.26,6,38.67-7,89.42-63.6,105.19Q1226.38,1574.88,1205.42,1574.88Z"/><path class="cls-9" d="M1229.89,1105a2.37,2.37,0,0,1-.83-.14,2.49,2.49,0,0,1-1.53-3.18,376.41,376.41,0,0,0,17.29-71.07c16-110.79-20.76-207.22-54.45-268.6a2.5,2.5,0,1,1,4.39-2.41c34.06,62.05,71.25,159.57,55,271.72a380.61,380.61,0,0,1-17.52,72A2.51,2.51,0,0,1,1229.89,1105Z"/><path class="cls-9" d="M1174.1,732.43a2.48,2.48,0,0,1-2.09-1.14c-10.4-16-17.73-25-17.81-25.1a2.5,2.5,0,0,1,3.88-3.16c.3.37,7.56,9.3,18.12,25.53a2.5,2.5,0,0,1-.74,3.46A2.43,2.43,0,0,1,1174.1,732.43Z"/><path class="cls-9" d="M1181.53,1672.45a133.65,133.65,0,0,1-52.65-10.4c-39.5-16.8-67.34-52.35-80.52-102.81-17.6-67.32-1.75-161.72,14.65-229.06a2.5,2.5,0,0,1,4.86,1.19c-16.26,66.77-32,160.29-14.67,226.61,12.77,48.9,39.62,83.3,77.64,99.47,41.79,17.77,93,11.72,144.25-17a2.5,2.5,0,1,1,2.45,4.36C1244.83,1663.14,1212,1672.45,1181.53,1672.45Z"/><path class="cls-9" d="M1074.9,1296.66a2.35,2.35,0,0,1-.69-.1,2.5,2.5,0,0,1-1.72-3.09c5.35-18.9,9.3-30.62,9.34-30.73a2.5,2.5,0,1,1,4.74,1.6c0,.11-4,11.73-9.27,30.5A2.5,2.5,0,0,1,1074.9,1296.66Z"/><path class="cls-9" d="M1213.92,1357.24a2.52,2.52,0,0,1-2.23-1.37c-.61-1.21-14.87-30.19-5.23-85.56,3.54-20.36,19.28-40.52,37.51-63.86,32.73-41.93,73.47-94.1,70.41-177.91-4.72-129.86-78.17-273.37-78.91-274.8a2.49,2.49,0,0,1,1.07-3.37,2.52,2.52,0,0,1,3.37,1.07c.75,1.45,74.71,145.95,79.48,276.92,3.11,85.63-38.25,138.6-71.48,181.16-17.81,22.82-33.19,42.52-36.53,61.65-9.35,53.74,4.64,82.16,4.78,82.44a2.5,2.5,0,0,1-1.11,3.36A2.38,2.38,0,0,1,1213.92,1357.24Z"/><path class="cls-5" d="M962.43,645.83s.65,62.63,84.05,137.28S1143,855.5,1143,855.5s-114.11-81.2-116.31-180.11"/><path class="cls-5" d="M1143,858c-3.79,0-22.2-5.06-98.14-73C961.55,710.45,960,648.45,959.93,645.85a2.49,2.49,0,0,1,2.47-2.52h0a2.5,2.5,0,0,1,2.5,2.47c0,.61,1.76,62.54,83.22,135.44,36.31,32.5,59.15,50.28,73.29,60-33.12-28.83-95.6-92.75-97.23-165.8a2.51,2.51,0,0,1,2.45-2.56,2.43,2.43,0,0,1,2.56,2.45c2.14,96.49,114.13,177.32,115.26,178.12a2.5,2.5,0,0,1-1,4.5A2.39,2.39,0,0,1,1143,858Z"/><path class="cls-5" d="M956.68,1689.84a2.51,2.51,0,0,1-2.42-3.16,458.83,458.83,0,0,1,41.1-101.26,2.5,2.5,0,0,1,4.38,2.41A454.23,454.23,0,0,0,959.09,1688,2.51,2.51,0,0,1,956.68,1689.84Z"/><circle class="cls-4" cx="739.69" cy="513.76" r="53.03"/><g class="cls-15"><path class="cls-5" d="M714.58,467.17c17.41-9.35,29.72-2.9,29.72-2.9s13.86,2.6,24.22,20,17.76,52.33,7.75,70.39-29.72,25-52,23.27-37.42-32.62-37.42-55.84S697.12,476.53,714.58,467.17ZM774,548.87a71,71,0,0,0,.35-22.91s-3.9,31.62-7.1,38.72A30,30,0,0,0,774,548.87Z"/><path class="cls-5" d="M731.44,578.69c20.72,0,36.63-8.31,45-23.82,10-18.46,2.35-53.68-7.75-70.79a41.19,41.19,0,0,0-24.47-20c-.9-.45-13.21-6.1-30,2.95s-28,30.82-28,55c0,22.12,14.36,54.24,37.82,56.24A72.24,72.24,0,0,0,731.44,578.69Zm1.86-116.12a25.36,25.36,0,0,1,10.8,2.1h0a40,40,0,0,1,24,20c10,16.91,17.81,51.73,7.7,70-9.36,17-27.67,25-51.58,23.07-23-2-37.07-33.67-37.07-55.44,0-24.16,10.8-45.57,27.56-54.53a38.62,38.62,0,0,1,18.62-5.25ZM766,566.43l1.56-1.4a31.59,31.59,0,0,0,6.9-16.06,73.11,73.11,0,0,0,.3-23.06l-.45-2.81-.35,2.81c0,.3-3.9,31.66-7.11,38.62Zm8.36-37.17a71.25,71.25,0,0,1-.75,19.56,37.15,37.15,0,0,1-5,13.66,296.85,296.85,0,0,0,5.75-33.22Z"/><path class="cls-4" d="M741.25,469.77a25,25,0,0,1,16,15c5,12.31.35,13.46,2.45,22.52a42.63,42.63,0,0,1-9.2,36.27,16.08,16.08,0,0,1-12.86,6.15c-5.31,0-18.51-12.86-21-17.91s-1.1-24.36,0-31.37S734.8,472.83,741.25,469.77Z"/><path class="cls-5" d="M737.6,550.27a16.58,16.58,0,0,0,13.16-6.3,43.45,43.45,0,0,0,9.5-36.77,22.46,22.46,0,0,1-.35-8.41,28.32,28.32,0,0,0-18.36-29.52h-.3c-6.45,3.11-23.66,23.77-25,31.12s-2.51,26.52,0,31.62S732,550.27,737.6,550.27Zm3.65-80a27.38,27.38,0,0,1,17.61,28.62,25.51,25.51,0,0,0,.4,8.71,42.49,42.49,0,0,1-9.1,35.87,15.57,15.57,0,0,1-12.56,6.05c-5.26,0-18.21-12.81-20.61-17.71s-1.1-24,0-31.07,18.26-27.31,24.26-30.52Z"/><path class="cls-5" d="M741.85,519.85s6.75-.35,8.26-3c.85-1.5-.56-2.35-1.66-3s-1.75-1-2-1.8l-1.85-6.41-.8.25,1.85,6.41c.3,1.05,1.35,1.7,2.3,2.3s1.81,1.15,1.35,1.9c-1.05,1.9-6.45,2.55-7.5,2.55Z"/><path class="cls-5" d="M757.76,498a.55.55,0,0,0,.4,0,.75.75,0,0,0,.36-1l-.06-.1s-3-5-10.56-1.8a.8.8,0,0,0-.48,1l0,.08a.8.8,0,0,0,1,.42l0,0c6.16-2.65,8.41,1,8.46,1.1A.93.93,0,0,0,757.76,498Z"/><path class="cls-5" d="M723.59,498.39a.79.79,0,0,0,.65-.3,11,11,0,0,1,13.86-2.55.75.75,0,0,0,1-.2l.06-.1a.86.86,0,0,0-.3-1.15,12.86,12.86,0,0,0-16,3,.79.79,0,0,0,0,1.13l0,0A.66.66,0,0,0,723.59,498.39Z"/><path class="cls-5" d="M739.75,529a14.52,14.52,0,0,0,7.8-2.55v-.55a.39.39,0,0,0-.56,0l0,0a10.86,10.86,0,0,1-15.25-1.78c-.16-.2-.31-.41-.46-.62a.43.43,0,0,0-.6,0,.41.41,0,0,0,0,.55A11.13,11.13,0,0,0,739.75,529Z"/><path class="cls-5" d="M749.86,507.6c0,1.45.75,2.6,1.6,2.6s1.65-1.15,1.65-2.6-.75-2.66-1.65-2.66S749.86,506.14,749.86,507.6Z"/><path class="cls-5" d="M728.59,508.15c0,1.45.75,2.6,1.65,2.6s1.6-1.15,1.6-2.6-.75-2.61-1.6-2.61S728.59,506.7,728.59,508.15Z"/><path class="cls-5" d="M727.54,506.6a.85.85,0,0,0,.5,0,5.8,5.8,0,0,1,5.81-.56.89.89,0,0,0,1.15-.35.86.86,0,0,0-.4-1.1,7.29,7.29,0,0,0-7.56.7.8.8,0,0,0-.18,1.12.79.79,0,0,0,.68.34Z"/><path class="cls-5" d="M748.8,506.6a.76.76,0,0,0,.7-.35,3.76,3.76,0,0,1,2.51-1.66,6.12,6.12,0,0,1,4.2,1.25.83.83,0,0,0,1.2,0,.79.79,0,0,0,0-1.13l0,0a8.17,8.17,0,0,0-5.45-1.55,5.44,5.44,0,0,0-3.61,2.35.86.86,0,0,0,.27,1.18,1.07,1.07,0,0,0,.38.13Z"/><path class="cls-5" d="M716.59,500.54S713,518.1,727.44,541.32c10,16.41,13.11,26.51,13.11,39.42a26.91,26.91,0,0,1-8.21,20s2,15.51-6.15,25a23.75,23.75,0,0,1-20,10.36,47.59,47.59,0,0,1-10-1.3l5.51-2.6a19.06,19.06,0,0,1-17.46-8.06,29.15,29.15,0,0,1-5.51-20s-2.55,4.2.35,13.86c0,0-2.6,0-3.9-8a35.06,35.06,0,0,1,2.6-22.92,30.92,30.92,0,0,0,4.21-9.35s-.65,1.6-4.21,1.9A12.34,12.34,0,0,1,671,578a15,15,0,0,0,6.1-5c1.6-2.9,2.9-5.8,2.9-5.8l-3.2.65a55.88,55.88,0,0,0,7.76-15c2.55-8.4-4.21-20.66-.65-38.12a78.78,78.78,0,0,1,13.55-30"/><path class="cls-5" d="M706.18,636.47A24.5,24.5,0,0,0,726.54,626c7.56-9.1,6.41-23.36,6.26-25.31a27.81,27.81,0,0,0,8.2-20c0-13.61-3.45-24-13.21-39.62-14.21-22.82-10.8-40.33-10.8-40.48a.4.4,0,0,0-.4-.4.39.39,0,0,0-.4.4s-3.46,18,10.9,41.08c9.66,15.55,13.16,25.56,13.16,39.07a27,27,0,0,1-8.06,19.51h0s1.81,15.41-6.05,25a23.37,23.37,0,0,1-19.71,10,44.52,44.52,0,0,1-8.76-1l7-3.3-2.85.45a18.69,18.69,0,0,1-17-7.91,28.74,28.74,0,0,1-5.41-19.71l.3-2-1.1,1.75a17.91,17.91,0,0,0,0,13.31,12,12,0,0,1-2.8-7.35,33.94,33.94,0,0,1,2.5-22.67,30.13,30.13,0,0,0,4.26-9.5l.4-3.21-1.2,3s-.66,1.35-3.86,1.65a11.88,11.88,0,0,1-5.8-1.2,13.3,13.3,0,0,0,5.55-4.66c1.6-2.85,3-5.8,3-5.85l.3-.7-2.95.6a56.37,56.37,0,0,0,7.21-14.46,32.77,32.77,0,0,0-.35-13.66,65.54,65.54,0,0,1-.3-24.46,78.87,78.87,0,0,1,13.45-30,.39.39,0,0,0,0-.56l0,0a.4.4,0,0,0-.56,0l0,0a79,79,0,0,0-13.6,30,67.42,67.42,0,0,0,.25,25,31.88,31.88,0,0,1,.4,13.26,54.74,54.74,0,0,1-7.71,15l-.65.85,3.5-.7c-.5,1.05-1.45,3.05-2.55,5a14.31,14.31,0,0,1-6,4.66l-.75.35.7.4a13.07,13.07,0,0,0,7,1.7,7.54,7.54,0,0,0,3.36-1,52.32,52.32,0,0,1-3.76,7.8A34.37,34.37,0,0,0,675,609.26c1.3,8.2,4,8.45,4.3,8.45h.55v-.55a25.18,25.18,0,0,1-1.25-10,29.67,29.67,0,0,0,5.66,16.61A19.7,19.7,0,0,0,700,632.07l-4.71,2.2,1.15.3A49.49,49.49,0,0,0,706.18,636.47Z"/><path class="cls-5" d="M741.25,469.77s0,9.51-12.81,20.87-14.66,11-14.66,11,17.36-12.35,17.66-27.36"/><path class="cls-5" d="M713.78,502.19c.55,0,3.36-.75,15-11.1,12.66-11.36,12.91-20.77,12.91-21.17a.45.45,0,0,0-.4-.45s-.45,0-.45.4-.25,9.51-12.61,20.62a125.63,125.63,0,0,1-10.65,8.75c5-4.55,14.1-14.06,14.3-25a.39.39,0,0,0-.4-.4.35.35,0,0,0-.4.29v.11c-.35,14.6-17.36,26.91-17.51,27l-.8.6h1Z"/></g><path class="cls-4" d="M908.45,502.19h-85.6a5,5,0,1,1,0-10h85.6a5,5,0,0,1,0,10Z"/><path class="cls-4" d="M986.64,522.55H822.85a5,5,0,1,1,0-10H986.64a5,5,0,1,1,0,10Z"/><rect class="cls-4" x="1094.96" y="461.52" width="101.81" height="54.58" rx="12.51"/><rect class="cls-5" x="1228.63" y="461.52" width="130.38" height="54.58" rx="12.51"/><path class="cls-5" d="M1108.81,504a2.13,2.13,0,0,1-.65-1.55V479.13a1.87,1.87,0,0,1,.65-1.55,2.46,2.46,0,0,1,3.11,0,2.09,2.09,0,0,1,.65,1.55v22h11.75a1.57,1.57,0,0,1,1.25.55,1.85,1.85,0,0,1,0,2.4,1.54,1.54,0,0,1-1.25.55h-13.85A2.29,2.29,0,0,1,1108.81,504Z"/><path class="cls-5" d="M1130.48,504a2,2,0,0,1-.6-1.55V479.08a2,2,0,0,1,.6-1.55,2.44,2.44,0,0,1,3.1,0,1.87,1.87,0,0,1,.65,1.55v23.41a1.79,1.79,0,0,1-.65,1.55A2.44,2.44,0,0,1,1130.48,504Z"/><path class="cls-5" d="M1148.89,504.14a4.87,4.87,0,0,1-1.5-2.35l-8-22.31a4.09,4.09,0,0,1,0-.7,1.61,1.61,0,0,1,.65-1.35,2.27,2.27,0,0,1,1.55-.55,2,2,0,0,1,1.2.35,2,2,0,0,1,.8,1l7.56,21.86,7.6-21.86a2.1,2.1,0,0,1,.8-1,2,2,0,0,1,1.2-.35,2.28,2.28,0,0,1,1.56.55,1.61,1.61,0,0,1,.65,1.35,2.06,2.06,0,0,1,0,.7l-8,22.31a5,5,0,0,1-1.5,2.35,3.56,3.56,0,0,1-2.25.7A3.44,3.44,0,0,1,1148.89,504.14Z"/><path class="cls-5" d="M1167.9,504a2,2,0,0,1-.65-1.5V479.13a2,2,0,0,1,.6-1.5,1.83,1.83,0,0,1,1.45-.65h14.21a1.54,1.54,0,0,1,1.25.55,1.85,1.85,0,0,1,0,2.4,1.54,1.54,0,0,1-1.25.55H1171.6v8.25h11.21a1.81,1.81,0,0,1,1.3.51,1.73,1.73,0,0,1,.4,1.2,1.82,1.82,0,0,1-.45,1.2,1.52,1.52,0,0,1-1.25.5H1171.6v9H1184a1.51,1.51,0,0,1,1.25.55,1.85,1.85,0,0,1,0,2.4,1.48,1.48,0,0,1-1.25.55H1169.4A2.24,2.24,0,0,1,1167.9,504Z"/><path class="cls-4" d="M1238.64,485a2.11,2.11,0,0,1-1.4-.5,2.21,2.21,0,0,1-.36-3.09h0a21.25,21.25,0,0,1,14.36-7.65,20.5,20.5,0,0,1,15.81,7.5,2.21,2.21,0,0,1,0,3.11l0,0a2.15,2.15,0,0,1-3,.06l-.06-.06a16.55,16.55,0,0,0-12.4-6.15,17.12,17.12,0,0,0-11.11,6A2.1,2.1,0,0,1,1238.64,485Z"/><path class="cls-4" d="M1259.4,484.83a4.24,4.24,0,0,1-3.6,2.05,4.35,4.35,0,0,1-4.35-4.35,4.21,4.21,0,0,1,1.1-2.8,10.23,10.23,0,0,0-1.75,0,10,10,0,1,0,9.75,10.25v-.24A9.07,9.07,0,0,0,1259.4,484.83Z"/><path class="cls-4" d="M1277.06,498.54a1.15,1.15,0,0,1-.75-1.1,1.78,1.78,0,0,1,0-.65,1.44,1.44,0,0,1,.45-.5.88.88,0,0,1,.6,0h.35a9.14,9.14,0,0,0,3.8.9,4.55,4.55,0,0,0,2.86-.8,2.71,2.71,0,0,0,1.1-2.35,3.51,3.51,0,0,0-1.3-2.8,5,5,0,0,0-3.26-1.05h-1.1a.91.91,0,0,1-.75-.35,1.23,1.23,0,0,1,0-1.61.83.83,0,0,1,.75-.35h1a5,5,0,0,0,3.06-.85,2.86,2.86,0,0,0,1.15-2.45,2.6,2.6,0,0,0-1-2.25,4.06,4.06,0,0,0-2.56-.8,11.16,11.16,0,0,0-2.15.25,10.76,10.76,0,0,0-1.8.65h-.35a1.1,1.1,0,0,1-.85-.45,1.7,1.7,0,0,1-.35-1,.91.91,0,0,1,.45-.85,7.06,7.06,0,0,1,2.25-.85,9.88,9.88,0,0,1,3-.4,8.5,8.5,0,0,1,3.3.6,5,5,0,0,1,3.3,5,4.54,4.54,0,0,1-3.25,4.5,5,5,0,0,1,2.75,1.81,5.84,5.84,0,0,1,.95,3.35,5.7,5.7,0,0,1-.55,2.5,5.08,5.08,0,0,1-1.55,1.8,6.36,6.36,0,0,1-2.2,1,8.5,8.5,0,0,1-2.6.35A10.54,10.54,0,0,1,1277.06,498.54Z"/><path class="cls-4" d="M1292.37,503.49h0l1.15-6.7c0-.5.45-.75,1-.8h2a.43.43,0,0,1,0,.35h0l-2.35,6.7a.88.88,0,0,1-.25.45.58.58,0,0,1-.45,0h-1C1292.47,503.89,1292.37,503.79,1292.37,503.49Z"/><path class="cls-4" d="M1307.18,498.94a1.38,1.38,0,0,1-.45-1.1v-15l-2.9,1.85a1.22,1.22,0,0,1-.6,0,1.18,1.18,0,0,1-1.15-1.15,1,1,0,0,1,.55-.9l5-3a1.37,1.37,0,0,1,.85,0,1.56,1.56,0,0,1,1,.4,1.5,1.5,0,0,1,.45,1.15v17a1.46,1.46,0,0,1-.5,1.1,1.64,1.64,0,0,1-1.1.4A1.76,1.76,0,0,1,1307.18,498.94Z"/><path class="cls-4" d="M1320.59,499.09a9.82,9.82,0,0,1-2.65-1.65.79.79,0,0,1-.3-.65,1.56,1.56,0,0,1,.4-1,1.1,1.1,0,0,1,.85-.45.75.75,0,0,1,.55,0,6.75,6.75,0,0,0,4.35,1.55,3.9,3.9,0,0,0,3-1.05,4.24,4.24,0,0,0,1-3,3.79,3.79,0,0,0-1-2.8,3.4,3.4,0,0,0-2.6-1.05,4.18,4.18,0,0,0-2.1.5,5.22,5.22,0,0,0-1.7,1.15h-.3a3.39,3.39,0,0,1-1.3-.35c-.45,0-.7-.5-.7-.8v-9c0-1,.5-1.4,1.55-1.4h9.1a1.05,1.05,0,0,1,.85.35,1.24,1.24,0,0,1,.3.8,1.22,1.22,0,0,1-.3.85,1.05,1.05,0,0,1-.85.35h-8.15v6.35h0l.5-.35.8-.45a6.13,6.13,0,0,1,1.2-.35,8.55,8.55,0,0,1,1.6,0,5.77,5.77,0,0,1,4.45,1.8,6.36,6.36,0,0,1,1.75,4.61,6.18,6.18,0,0,1-2,4.75,7,7,0,0,1-5,1.8A9.53,9.53,0,0,1,1320.59,499.09Z"/><path class="cls-4" d="M1338.15,499.24a5.08,5.08,0,0,1-1.9-1.15,5.93,5.93,0,0,1-1.3-1.65,7.38,7.38,0,0,1-.9-2.15,13.76,13.76,0,0,1-.45-5.05,18.53,18.53,0,0,1,0-3.16,15.93,15.93,0,0,1,.7-2.8,7.22,7.22,0,0,1,1.35-2.3,4.93,4.93,0,0,1,2-1.5,6.34,6.34,0,0,1,2.85-.55,6.55,6.55,0,0,1,2.9.55,5.64,5.64,0,0,1,2,1.5,8.43,8.43,0,0,1,1.3,2.3,10.85,10.85,0,0,1,.7,2.8,19.7,19.7,0,0,1,.25,3.16,27.58,27.58,0,0,1,0,3.15,13.63,13.63,0,0,1-.75,2.8,6.41,6.41,0,0,1-1.3,2.3,5.4,5.4,0,0,1-2,1.55,6.59,6.59,0,0,1-2.9.6A7.4,7.4,0,0,1,1338.15,499.24Zm3.95-2.45a3,3,0,0,0,1.1-1,4.34,4.34,0,0,0,.7-1.35,7.91,7.91,0,0,0,.45-1.65v-5.16a8,8,0,0,0,0-1.55,7.3,7.3,0,0,0-.75-2.75,5.65,5.65,0,0,0-.7-1.05,5.53,5.53,0,0,0-1-.65,3.89,3.89,0,0,0-1.35-.25,3.8,3.8,0,0,0-1.3.25,3.66,3.66,0,0,0-1,.65,5.65,5.65,0,0,0-.7,1.05,12.06,12.06,0,0,0-.5,1.25,11.18,11.18,0,0,0-.25,1.5,8,8,0,0,0,0,1.55,23.06,23.06,0,0,0,0,3.11,8,8,0,0,0,0,1.55,9,9,0,0,0,.25,1.45,5.55,5.55,0,0,0,.5,1.3,3.44,3.44,0,0,0,.7,1.1,3.27,3.27,0,0,0,2.3.9,3.46,3.46,0,0,0,1.55-.3Z"/><line class="cls-1" x1="1307.18" y1="1785.54" x2="1257.95" y2="1728.56"/><path class="cls-5" d="M1307.18,1787.94a2.37,2.37,0,0,1-1.85-.85l-49.28-57a2.46,2.46,0,0,1,0-3.47l0,0a2.54,2.54,0,0,1,3.55.25l49.23,57a2.45,2.45,0,0,1-.16,3.46,2.39,2.39,0,0,1-1.74.64Z"/><path class="cls-16" d="M847.86,1465.55H762.31a5,5,0,1,1,0-10h85.55a5,5,0,1,1,0,10Z"/><path class="cls-16" d="M926.06,1486.22H762.31a5,5,0,0,1,0-10H926.06a5,5,0,0,1,0,10Z"/><path class="cls-16" d="M749.4,1474.06a36.72,36.72,0,1,1-36.72-36.72h0A36.72,36.72,0,0,1,749.4,1474.06Z"/><path class="cls-4" d="M712.68,1513.23A39.22,39.22,0,1,1,751.91,1474h0A39.28,39.28,0,0,1,712.68,1513.23Zm0-73.39a34.22,34.22,0,1,0,34.22,34.22v0a34.27,34.27,0,0,0-34.22-34.17Z"/><path class="cls-16" d="M847.86,1563.16H762.31a5,5,0,0,1,0-10h85.55a5,5,0,1,1,0,10Z"/><path class="cls-16" d="M926.06,1583.82H762.31a5,5,0,0,1,0-10H926.06a5,5,0,1,1,0,10Z"/><path class="cls-16" d="M749.4,1573.12a36.72,36.72,0,1,1-36.77-36.67h0A36.72,36.72,0,0,1,749.4,1573.12Z"/><path class="cls-4" d="M712.68,1612.34a39.23,39.23,0,1,1,39.23-39.22h0A39.28,39.28,0,0,1,712.68,1612.34Zm0-73.39a34.22,34.22,0,1,0,34.22,34.22v-.05A34.21,34.21,0,0,0,712.68,1539Z"/><path class="cls-16" d="M847.86,1665.57H762.31a5,5,0,0,1,0-10h85.55a5,5,0,1,1,0,10Z"/><path class="cls-16" d="M926.06,1686.23H762.31a5,5,0,0,1,0-10H926.06a5,5,0,0,1,0,10Z"/><circle class="cls-16" cx="712.68" cy="1672.22" r="36.72"/><path class="cls-4" d="M712.68,1711.45a39.23,39.23,0,1,1,39.23-39.23h0A39.28,39.28,0,0,1,712.68,1711.45Zm0-73.45a34.22,34.22,0,1,0,34.22,34.22h0a34.27,34.27,0,0,0-34.17-34.37h-.05Z"/><path class="cls-4" d="M1240.19,1814.41H728.29a43.18,43.18,0,0,1,0-86.35h511.9a43.18,43.18,0,1,1,0,86.35Zm-511.9-81.5a38.17,38.17,0,1,0,0,76.34h511.9a38.17,38.17,0,0,0,0-76.34Z"/><path class="cls-4" d="M719.29,1785.69a12.43,12.43,0,0,1-4.51-5,16.68,16.68,0,0,1-1.55-7.36,17,17,0,0,1,1.6-7.45,12.39,12.39,0,0,1,4.71-5,13.13,13.13,0,0,1,7.05-1.85,14.51,14.51,0,0,1,7.06,1.8,2.09,2.09,0,0,1,.8.65,1.58,1.58,0,0,1,0,1.7,2.24,2.24,0,0,1-.6.7,2,2,0,0,1-.85.25h-.65l-.61-.3-.9-.4-1-.35-1.45-.3h-1.65a8.77,8.77,0,0,0-3.9.85,7,7,0,0,0-2.8,2.3,11.07,11.07,0,0,0-1.6,3.45,17.36,17.36,0,0,0,0,8.71,10,10,0,0,0,1.65,3.45,7.32,7.32,0,0,0,2.8,2.25,9.4,9.4,0,0,0,4.05.8,11.32,11.32,0,0,0,2.25-.25l1.8-.6,1.71-.85a1.4,1.4,0,0,1,1.9.3,1.82,1.82,0,0,1,.45,1.2,1.77,1.77,0,0,1-1,1.6,14,14,0,0,1-7.86,2.15A12.66,12.66,0,0,1,719.29,1785.69Z"/><path class="cls-4" d="M744.45,1786.64a8.3,8.3,0,0,1-3.1-2.2,10,10,0,0,1-1.85-3.15,11.75,11.75,0,0,1,0-7.71,10,10,0,0,1,1.85-3.15,8.68,8.68,0,0,1,3.15-2.2,11.19,11.19,0,0,1,4.2-.75,10.05,10.05,0,0,1,5.36,1.35,8.44,8.44,0,0,1,3.4,3.6,11.14,11.14,0,0,1,1.1,5,11.71,11.71,0,0,1-.6,3.8,10.21,10.21,0,0,1-1.85,3.15,8.3,8.3,0,0,1-3.1,2.2,11.81,11.81,0,0,1-8.56,0Zm8.71-3.8a10,10,0,0,0,0-10.76,5.34,5.34,0,0,0-4.41-1.95,5.43,5.43,0,0,0-4.4,1.95,8.42,8.42,0,0,0-1.55,5.41,8.11,8.11,0,0,0,1.6,5.35,5.3,5.3,0,0,0,4.35,2,5.4,5.4,0,0,0,4.41-1.85Z"/><path class="cls-4" d="M763.46,1786.64a1.58,1.58,0,0,1-.55-1.35v-15.71a1.85,1.85,0,0,1,.55-1.35,2.29,2.29,0,0,1,1.4-.45,2.24,2.24,0,0,1,1.35.45,1.44,1.44,0,0,1,.6,1.25V1771a6.07,6.07,0,0,1,2.56-2.7,7.43,7.43,0,0,1,3.7-.85,6.87,6.87,0,0,1,4.1,1.15,5.84,5.84,0,0,1,2.3,3.25,6.26,6.26,0,0,1,2.6-3.3,7.78,7.78,0,0,1,4.26-1.1,8.59,8.59,0,0,1,2.8.4,6.71,6.71,0,0,1,2.2,1.3,5.72,5.72,0,0,1,1.55,2.35,8.52,8.52,0,0,1,.55,3.35v10.41a1.68,1.68,0,0,1-.55,1.35,2.11,2.11,0,0,1-1.4.5,2,2,0,0,1-1.4-.5,1.68,1.68,0,0,1-.55-1.35v-10.51a5,5,0,0,0-1-3.5,3.82,3.82,0,0,0-3.05-1.2,5,5,0,0,0-3.81,1.65,6.52,6.52,0,0,0-1.5,4.61v8.9a1.69,1.69,0,0,1-.6,1.4,1.9,1.9,0,0,1-1.4.5,2,2,0,0,1-1.35-.5,1.65,1.65,0,0,1-.55-1.4v-10a5.56,5.56,0,0,0-1.1-3.75,3.68,3.68,0,0,0-3-1.25,5,5,0,0,0-3.85,1.6,6.37,6.37,0,0,0-1.45,4.41v9.2a1.6,1.6,0,0,1-.61,1.35,2,2,0,0,1-1.4.5A1.91,1.91,0,0,1,763.46,1786.64Z"/><path class="cls-4" d="M799.48,1786.64a1.71,1.71,0,0,1-.55-1.35v-15.71a1.85,1.85,0,0,1,.55-1.35,2.29,2.29,0,0,1,1.4-.45,2.16,2.16,0,0,1,1.36.45,1.46,1.46,0,0,1,.6,1.25V1771a6,6,0,0,1,2.55-2.7,7.43,7.43,0,0,1,3.7-.85,6.87,6.87,0,0,1,4.1,1.15,5.79,5.79,0,0,1,2.3,3.25,6.26,6.26,0,0,1,2.6-3.3,7.78,7.78,0,0,1,4.26-1.1,8.59,8.59,0,0,1,2.8.4,7.55,7.55,0,0,1,2.25,1.3,5.58,5.58,0,0,1,1.5,2.35,8.52,8.52,0,0,1,.55,3.35v10.41a1.68,1.68,0,0,1-.55,1.35,2.2,2.2,0,0,1-2.8,0,1.68,1.68,0,0,1-.55-1.35v-10.51a5,5,0,0,0-1-3.5,3.77,3.77,0,0,0-3-1.2,5,5,0,0,0-3.86,1.65,6.52,6.52,0,0,0-1.5,4.61v8.9a1.66,1.66,0,0,1-.6,1.4,1.9,1.9,0,0,1-1.4.5,2,2,0,0,1-1.35-.5,1.65,1.65,0,0,1-.55-1.4v-10a5.34,5.34,0,0,0-1.1-3.75,3.68,3.68,0,0,0-3-1.25,5,5,0,0,0-3.85,1.6,6.37,6.37,0,0,0-1.45,4.41v9.2a1.62,1.62,0,0,1-.6,1.35,1.93,1.93,0,0,1-1.41.5A2,2,0,0,1,799.48,1786.64Z"/><path class="cls-4" d="M836.51,1784.69a10,10,0,0,1-2.71-7.35,11.43,11.43,0,0,1,.6-3.76,10.76,10.76,0,0,1,1.81-3.15,8,8,0,0,1,2.95-2.15,9.63,9.63,0,0,1,4-.8,10.09,10.09,0,0,1,4,.75,6.89,6.89,0,0,1,2.75,2,9.81,9.81,0,0,1,1.55,3,13,13,0,0,1,.6,3.61,1.36,1.36,0,0,1-.35,1.05,1,1,0,0,1-.9.4h-13a6.58,6.58,0,0,0,1.75,5,6.28,6.28,0,0,0,4.35,1.65,7,7,0,0,0,2.9-.6,15.61,15.61,0,0,0,2.7-1.6h.75a.78.78,0,0,1,.6,0,1,1,0,0,1,.45.5.91.91,0,0,1,0,.65,1.43,1.43,0,0,1,0,.65,1.5,1.5,0,0,1-.45.55,10.59,10.59,0,0,1-7.3,2.65A9.36,9.36,0,0,1,836.51,1784.69Zm12.1-8.75a7.11,7.11,0,0,0-1.45-4.16,4.61,4.61,0,0,0-3.8-1.65,5.15,5.15,0,0,0-2.35.5,4.45,4.45,0,0,0-1.7,1.3,7.07,7.07,0,0,0-1,1.9,9,9,0,0,0-.5,2.11Z"/><path class="cls-4" d="M857,1786.64a1.58,1.58,0,0,1-.55-1.35v-15.66a1.69,1.69,0,0,1,.55-1.35,2.27,2.27,0,0,1,2.75,0,1.61,1.61,0,0,1,.6,1.3v1.4a5,5,0,0,1,2.45-2.6,8,8,0,0,1,3.85-.85,8.22,8.22,0,0,1,2.75.4,6.42,6.42,0,0,1,2.26,1.35,5.34,5.34,0,0,1,1.5,2.35,8.9,8.9,0,0,1,.55,3.35v10.36a1.66,1.66,0,0,1-.6,1.35,2.14,2.14,0,0,1-2.75,0,1.58,1.58,0,0,1-.55-1.35v-10.41a5,5,0,0,0-1.16-3.55,3.94,3.94,0,0,0-3-1.2,4.72,4.72,0,0,0-3.65,1.6,6.07,6.07,0,0,0-1.6,4.31v9.25a1.66,1.66,0,0,1-.6,1.35,2.06,2.06,0,0,1-2.75,0Z"/><path class="cls-4" d="M882,1785.89a6.12,6.12,0,0,1-1.4-4.4v-11h-2.25a1.4,1.4,0,0,1-1-.35,1.25,1.25,0,0,1,0-1.77l0,0a1.46,1.46,0,0,1,1.1-.35h2.25l.55-5.4a1.79,1.79,0,0,1,1.9-1.7h0a1.34,1.34,0,0,1,1,.35,1.46,1.46,0,0,1,.45,1.15v5.55h3.46a1.22,1.22,0,0,1,1.4,1.3,1.24,1.24,0,0,1-.35.9,1.48,1.48,0,0,1-1,.3h-3.46v10a5.78,5.78,0,0,0,.5,2.75,1.87,1.87,0,0,0,1.7.9h1.41a1.5,1.5,0,0,1,1.15.45,1.69,1.69,0,0,1,.4,1,1.22,1.22,0,0,1,0,.6,1.34,1.34,0,0,1,0,.4l-.4.3h-3.51A5,5,0,0,1,882,1785.89Z"/><path class="cls-4" d="M1231.84,1797.65a2.28,2.28,0,0,1-1.35-.4c-2.51-1.6-24.57-16.21-24.57-29a14.61,14.61,0,0,1,25.72-9.45,14.6,14.6,0,0,1,25.71,9.45c0,12.76-21.66,27.42-24.16,29A2.19,2.19,0,0,1,1231.84,1797.65Zm-11.31-39a9.55,9.55,0,0,0-9.61,9.5v0c0,8,14,19.21,20.92,23.91,6.8-4.7,20.51-15.9,20.51-23.91a9.6,9.6,0,0,0-18.41-3.75,2.52,2.52,0,0,1-2.3,1.55h0a2.53,2.53,0,0,1-2.31-1.55A9.53,9.53,0,0,0,1220.53,1758.68Z"/><path class="cls-2" d="M1357.56,1664.77a28.07,28.07,0,0,0-53.93-11,28.07,28.07,0,0,0-53.93,11c0,27.37,54.43,62.59,54.43,62.59S1357.56,1692.14,1357.56,1664.77Z"/><path class="cls-2" d="M1387.63,1568.61a20.92,20.92,0,0,0-40-8.2,21,21,0,0,0-40,8.2c0,20.42,40.57,46.63,40.57,46.63S1387.63,1589,1387.63,1568.61Z"/><g class="cls-17"><path class="cls-4" d="M1387.63,1568.61a20.92,20.92,0,0,0-40-8.2,21,21,0,0,0-40,8.2c0,20.42,40.57,46.63,40.57,46.63S1387.63,1589,1387.63,1568.61Z"/></g><path class="cls-2" d="M1368.47,1510a15,15,0,0,0-28.42-5.8,15,15,0,0,0-28.42,5.8c0,14.41,28.67,33,28.67,33S1368.47,1524.44,1368.47,1510Z"/><g class="cls-18"><path class="cls-4" d="M1368.47,1510a15,15,0,0,0-28.42-5.8,15,15,0,0,0-28.42,5.8c0,14.41,28.67,33,28.67,33S1368.47,1524.44,1368.47,1510Z"/></g><path class="cls-2" d="M1399.43,1455.45a15,15,0,0,0-28.41-5.75,15,15,0,0,0-28.42,5.75c0,14.46,28.67,33,28.67,33S1399.43,1469.91,1399.43,1455.45Z"/><g class="cls-19"><path class="cls-4" d="M1399.43,1455.45a15,15,0,0,0-28.41-5.75,15,15,0,0,0-28.42,5.75c0,14.46,28.67,33,28.67,33S1399.43,1469.91,1399.43,1455.45Z"/></g><path class="cls-2" d="M1328.64,1415.63a15,15,0,0,0-28.41-5.76,15,15,0,0,0-28.42,5.76c0,14.45,28.67,33,28.67,33S1328.64,1430.08,1328.64,1415.63Z"/><g class="cls-18"><path class="cls-4" d="M1328.64,1415.63a15,15,0,0,0-28.41-5.76,15,15,0,0,0-28.42,5.76c0,14.45,28.67,33,28.67,33S1328.64,1430.08,1328.64,1415.63Z"/></g><path class="cls-2" d="M1365.61,1364.85a10,10,0,0,0-18.81-3.86,10,10,0,0,0-18.81,3.86c0,9.55,19,21.81,19,21.81S1365.61,1374.4,1365.61,1364.85Z"/><g class="cls-18"><path class="cls-4" d="M1365.61,1364.85a10,10,0,0,0-18.81-3.86,10,10,0,0,0-18.81,3.86c0,9.55,19,21.81,19,21.81S1365.61,1374.4,1365.61,1364.85Z"/></g></g><path class="cls-5" d="M1406.44,1873.39H638.54a2.5,2.5,0,0,1-2.5-2.5V435.4a2.5,2.5,0,0,1,2.5-2.5h767.9a2.5,2.5,0,0,1,2.5,2.5V1870.89A2.5,2.5,0,0,1,1406.44,1873.39Zm-765.4-5h762.9V437.9H641Z"/></svg>