<svg id="Layer_1" data-name="Layer 1" xmlns="http://www.w3.org/2000/svg" viewBox="0 0 2000 2000"><defs><style>.cls-1{fill:#4054b7;}.cls-2{opacity:0.7;isolation:isolate;}.cls-3{fill:#fff;}.cls-4{fill:#92bbf7;}.cls-5{fill:#020202;}.cls-6{fill:#263238;}.cls-7{fill:#787878;}</style></defs><title>JETPAX 6</title><g id="freepik--background-simple--inject-2"><path class="cls-1" d="M399.25,1756.07s229.53,137.47,507.91,23.8,381.51-359.8,533.38-540.16c79.33-94.68,203.23-142.59,300-220.24,309.38-248.22,230.37-699.76-31-837.65C1483.33,62.2,1212.16,83.81,869,242.89S278.69,502.58,82.25,848.81,115.76,1566,399.25,1756.07Z"/><path d="M679.41,1825.8a618.22,618.22,0,0,1-130.9-14.09c-91.33-19.94-149.36-54.28-149.88-54.7h0C247.48,1655.66,124,1511.51,59.81,1361.52c-75.88-177.24-68.37-354.68,21.5-513.13C268.15,519,498.72,412.61,817.92,265.33c16.59-7.73,33.5-15.45,50.62-23.38,174-80.69,326-124.84,464.59-135.18,139.77-10.43,263,13.89,376.92,74.11,126,66.49,214,209.28,229.53,372.74,17.32,181.52-55,351.55-198.43,466.68-37.26,30-79.33,55.84-119.93,80.9-64.51,39.87-131.31,81.1-180,139.13-39.66,47.18-75.36,97.81-113.15,151.46-105.63,149.89-214.81,305-420.65,389A599.68,599.68,0,0,1,679.41,1825.8Zm-279.64-70.67c1.36.84,59,34.66,149.37,54.38,83.92,18.37,214.19,27.87,357.6-30.68C1112,1695,1221,1540.21,1326.45,1390.53c37.79-53.65,73.49-104.37,113.25-151.55,48.85-58.35,115.76-99.58,180.48-139.56,40.49-25.05,82.46-50.94,119.72-80.79,142.89-114.71,214.92-284.12,197.59-464.8C1921.94,391.1,1834.36,248.94,1709,182.76c-225.46-119.3-492.35-99.89-839.62,61.17-17.12,7.93-33.93,15.76-50.63,23.38-318.77,147.07-549,253.33-735.56,582-195.81,345.18,26.83,711.45,316.58,905.8Z"/><g class="cls-2"><path class="cls-3" d="M399.25,1756.07s229.53,137.47,507.91,23.8,381.51-359.8,533.38-540.16c79.33-94.68,203.23-142.59,300-220.24,309.38-248.22,230.37-699.76-31-837.65C1483.33,62.2,1212.16,83.81,869,242.89S278.69,502.58,82.25,848.81,115.76,1566,399.25,1756.07Z"/></g></g><path class="cls-4" d="M1951.48,1376.23c-16.6-2.92-38.21,18.69-45,31.84-.42.84-5.53,13.57-7.2,18.27v-.42a284.22,284.22,0,0,0-2.51-46.24c-2.09-13.57-4.7-27.14-8-40.29a321.89,321.89,0,0,0-10.23-33.51c-1.67-5.11-3.44-10.23-5.11-14.82h.42c.41,0,1.67-20.35,1.25-21.6-.84-14.83-11.48-43.74-27.56-47.92-10.64-2.5-21.6,4.28-23.8,14.83,0,.83-.41,1.25-.41,2.08-1.67,11.9,6,24.22,13.57,32.26s30.16,17.43,35.59,19.52c1.67,4.69,3.44,9.81,5.11,15.24,2.93,9.81,6.37,21.18,9.29,33.5.84,3.45,1.67,7.2,2.51,11.07-2.51-5.54-5.95-13.57-6.37-14.41-7.62-13.15-30.16-33.5-46.24-29.75-10.64,2.51-17,13.57-14.4,24.22,0,.83.42,1.25.83,2.09,3.87,11.48,16.6,18.68,27.14,22.44,10.65,3.44,35.18,1.67,40.71.83,1.25,7.62,2.92,15.24,3.86,24.22a279.84,279.84,0,0,1,1.67,45.82v2.92c-.83-2.92-6-19.1-6.37-20.35-6.36-13.57-26.3-36.53-42.9-34.76-11.06,1.67-18.68,11.9-17,22.44,0,.84.42,1.26.42,2.09,2.5,11.48,14.4,20.77,24.63,25.05,11.9,5.53,40.29,5.53,41.13,5.53a326,326,0,0,1-6.79,45c-2.09,11.07-5.11,22-8,33.09-.84-3.86-6-18.68-6.37-19.94-6.37-13.57-26.31-36.53-42.9-34.75-11.07,1.67-18.69,11.89-17,22.44,0,.83.42,1.25.42,2.08,2.51,11.49,14.41,20.78,24.64,25.06,11.06,5.11,37.78,5.53,41.12,5.53-1.25,5.11-2.5,10.23-3.86,14.82-4.28,16.6-8.87,32.67-13.15,49.27-1.26,5.53-2.51,11.06-3.86,16.59-1.67-5.95-5.12-15.65-5.12-16.59-6.37-13.57-26.3-36.54-42.9-34.76a20,20,0,0,0-17,22.44v1.25c-14,4.7-24.64,28-25.89,41.13v7.2c-.83-5.11-2.09-10.65-2.92-16.07-2.09-14.83-4.28-30.17-5.95-45.83l-1.25-9.81c5.53-1.67,25.46-8.45,33.08-15.24s15.24-17.85,14.41-28.39a17.75,17.75,0,0,0-19.1-17h-1.67c-14.82,2.92-26.31,28-28,41.54v7.62c-1.25-8.46-2.5-16.6-3.86-24.63a334.09,334.09,0,0,0-10.23-41.55c3.45-.83,25.89-8.45,34.34-15.65,8.46-7.62,15.24-17.85,14.41-28.39a18,18,0,0,0-19.1-17,3.74,3.74,0,0,0-2.09.42c-14.82,2.92-26.31,28-28,41.54,0,.84-.41,13.15,0,17.85v-.42c-5.11-13.15-11.06-26.3-18.68-38.2a257.05,257.05,0,0,0-20.35-31.84c-6.79-9.29-13.57-17.84-19.52-25-3.45-3.86-6.37-7.2-9.29-10.64h.42c.41,0-5.54-17.85-6-18.69-5.54-12.31-23.8-33.09-39-31.42-9.81,1.26-17,10.65-15.24,20.36,0,.83.42,1.25.42,2.09,2.08,10.64,12.73,18.68,22,23s31,5.11,36.53,5.11c2.93,3.45,6,7.21,9.29,11.49a275.1,275.1,0,0,1,18.69,25.46c1.67,2.51,3.86,5.54,5.53,8.46-3.86-3.86-9.81-9.29-10.23-10.23-10.65-8.45-36.53-18.68-49.27-9.81-8,6-10.23,17-4.28,25,.42.42.84,1.25,1.26,1.67,6.78,8.45,19.93,10.65,30.16,10.23s30.58-10.23,34.76-12.74a207.29,207.29,0,0,1,11.06,19.11,244.69,244.69,0,0,1,16.08,38.2c.42.83.42,1.67.83,2.5-1.67-2.08-11.48-14.4-11.9-14.82-9.81-9.81-34.34-22.44-47.91-15.24-8.87,5.12-11.89,16.08-6.78,24.64a3.1,3.1,0,0,1,.83,1.67c6,8.87,18.69,12.73,28.81,13.15,11.9.83,35.6-8.46,37-8.87a310.61,310.61,0,0,1,8.88,40.29c1.67,10.23,2.92,20.77,4.28,31-2.09-2.93-11.07-14-11.9-14.83-9.82-9.81-34.34-22.44-47.91-15.23-8.88,4.69-11.9,15.65-6.79,24.63a3.16,3.16,0,0,1,.84,1.67c6,8.87,18.68,12.73,28.81,13.15,11.06.84,33.5-7.62,36.53-8.87.42,4.7.83,9.29,1.67,14,1.67,15.23,2.92,31,5.11,45.82.84,5.11,1.26,10.23,2.09,15.24-3.44-4.28-9.29-11.9-10.23-12.32-9.81-9.81-34.34-22.44-47.91-15.24-8.87,5.12-11.9,16.08-6.78,24.63a3.25,3.25,0,0,1,.83,1.67c6,8.88,18.69,12.74,28.81,13.16s29.75-6.37,35.18-8.46a243.72,243.72,0,0,0,5.11,25.47,103.56,103.56,0,0,0,2.92,10.65l2.93,10.23c2.5,6.78,4.69,13.15,6.78,19.52,1.25,2.92,2.09,5.94,3.44,8.87-2.92-4.7-7.2-12.32-7.61-12.74-8-11.06-30.59-27.14-45-22.44a18.38,18.38,0,0,0-10.65,23.38c.42.42.42,1.26.84,1.67,4.69,9.81,16.59,15.24,26.72,17.43,9.81,2.09,33.5-2.08,37.36-2.92,2.93,7.62,5.95,14.82,8.46,21.61,2.92,6.78,5.95,14.4,8.87,20.77h-25v16.6h6l9.81,114.6h77.24l9.81-114.6h4.7v-16.6h-22c-.42-8-1.26-17-1.67-26.72-.42-7.2-.42-15.24-.84-23,4.28-.41,29.75-2.92,40.29-8.87,9.81-5.53,20.77-15.24,22-27.14a19.93,19.93,0,0,0-16.6-23,3.77,3.77,0,0,1-2.09-.42c-17-.41-34.76,24.22-39.87,38.21-.42.83-2.92,12.31-4.28,17.84v-36.84c0-3.86.42-7.62.42-11.48s.83-7.62.83-11.48a135.68,135.68,0,0,1,2.51-17.44c7.62.42,29.33.84,39-2.92s23-12.32,25.88-23.38a19.6,19.6,0,0,0-12.73-25,4.53,4.53,0,0,0-2.09-.42c-16.6-2.92-38.2,18.27-45,31.84-.41.41-1.67,3.86-2.92,7.2,1.25-6,2.09-11.9,3.44-17.43,3.87-16.08,7.62-32.67,11.9-49.27.84-3.44,1.67-6.78,2.51-10.23,6.37.42,29.75,1.25,40.29-2.92s23-11.9,25.89-23.38a19.6,19.6,0,0,0-12.74-25.05,3.74,3.74,0,0,0-2.09-.42c-16.59-2.92-38.2,18.68-45,31.84-.42.41-1.67,3.86-3.45,8,2.09-8.87,4.28-17.85,5.53-27.14a345.7,345.7,0,0,0,5.95-46.65c3.87.41,29.75,1.67,41.13-2.51,10.23-3.86,22.44-11.9,25.89-23.38a20.52,20.52,0,0,0-12.32-25.47C1952.73,1376.23,1952.31,1376.23,1951.48,1376.23Zm-138.41,358.65c-3.45-7.2-7.2-15.65-11.07-24.63-2.5-6-5.53-12.74-8-19.1a215.24,215.24,0,0,0,25.88-15.66,191.88,191.88,0,0,0,31.42,7.62c0,8.87,0,17.43.42,25.89.42,9.29.42,18.26.83,26.3Zm40.81-114.19c-.42,3.86-1.25,8-1.25,11.9a105.51,105.51,0,0,1-.84,11.48c0,8-.41,15.24-.41,23v10.22c-.84-5.94-2.51-15.23-2.51-16.07-4.28-14.4-20.77-40.29-37.37-40.71a19.86,19.86,0,0,0-19.93,19.94v2.09c.41,2.92.83,6,2.5,8.87a64.81,64.81,0,0,0-2.92,20.35c0,.84,1.67,11.48,2.5,16.6-1.67-4.28-3.44-8-5.11-12.32-2.51-6-4.7-12.73-7.2-19.1-1.26-3.44-2.09-6.78-3.45-10.23s-1.67-6.78-2.92-10.23c-1.25-5.11-2.51-10.23-3.86-15.24,6.36-2.08,25.05-8.45,32.25-15.24a45.1,45.1,0,0,0,13.57-19.93l2.51,1.25c10.22,4.7,33.08,5.11,39.87,5.53a228.78,228.78,0,0,0-5.43,27.87Z"/><path class="cls-5" d="M1870.48,1865.77h-79.23l-9.7-114.6h-6.06v-18.69h24.43c-1.57-3.44-3.13-7.2-4.7-11-1.15-2.82-2.4-5.64-3.55-8.35q-2.36-6.26-5-12.84c-1-2.61-2.09-5.32-3.13-8-5.85,1.14-27.45,4.8-37,2.81-4.91-1-21.29-5.32-27.35-17.85a2.29,2.29,0,0,1-.52-1.14c0-.11-.11-.42-.21-.42l-.21-.42a19.5,19.5,0,0,1,.52-14.72,19,19,0,0,1,10.65-10c15.45-5,38.62,12.53,46.24,22.86.1.11.42.63,1.77,2.82-1.87-5.64-3.86-11.48-6.15-17.53l-3-10.23c-1-2.82-1.77-6-2.61-9l-.42-1.67c-2-8-3.65-16.18-4.9-24.22-5,1.88-24.22,8.56-34.45,8.14s-23.38-4.17-29.64-13.67l-.21-.31v-.32a2.79,2.79,0,0,0-.52-.93,18.46,18.46,0,0,1-2.19-14.41,19.43,19.43,0,0,1,9.18-11.9c14.41-7.72,39.56,5.85,49.16,15.35.84.62,2.61,2.71,7.83,9.39-.21-1.25-.31-2.51-.52-3.76-.31-2.5-.63-5-1-7.51-1.47-10-2.51-20.46-3.55-30.59-.52-5.11-1.05-10.23-1.57-15.24-.73-4.17-1.15-8.45-1.56-12.63-6.06,2.41-25.58,9.19-35.7,8.46-10.23-.42-23.38-4.18-29.65-13.57l-.2-.31v-.32a2.15,2.15,0,0,0-.53-.94l-.2-.2a19,19,0,0,1-1.88-15,17.76,17.76,0,0,1,9.08-11.06c14.51-7.72,39.66,6,49.16,15.45.73.73,6.16,7.41,9.6,11.79-1.15-9-2.29-18.16-3.76-27a338.43,338.43,0,0,0-8.55-39.14c-16.5,6.16-29.13,9.18-36.33,8.56-10.23-.42-23.38-4.18-29.64-13.57l-.21-.32v-.31a2.92,2.92,0,0,0-.52-.94,18.44,18.44,0,0,1-2.19-14.4,19.43,19.43,0,0,1,9.18-11.9c14.51-7.73,39.77,5.95,49.27,15.45.21.2,2.4,2.92,8.24,10.33a255.09,255.09,0,0,0-15-35,196.19,196.19,0,0,0-10.43-18.16c-6.06,3.34-24.74,12-34.45,12.32-6.58.31-22.75-.21-31-10.55a9,9,0,0,1-.73-.93c-.21-.32-.42-.53-.52-.74-6.37-8.55-4.39-20.25,4.38-26.61,13.36-9.4,40,1.35,50.52,9.81l.31.31a28.18,28.18,0,0,0,3.24,3.24l-.31-.52a269.29,269.29,0,0,0-18.58-25.37l-2.09-2.71q-3.6-4.55-6.89-8.46c-7.1,0-27.35-1-36.43-5.22-4.59-2.08-19.93-10-22.65-23.69a2.37,2.37,0,0,0-.21-.94,4.41,4.41,0,0,1-.31-1.36,18,18,0,0,1,3.44-13.77,19,19,0,0,1,12.84-7.62c16.08-1.78,34.66,19.93,40.19,32,.1.11,5.64,15.76,6,19.1,2.82,3.13,5.53,6.37,8.77,9.92,7.72,9.29,13.88,17.33,19.62,25.15a251.73,251.73,0,0,1,20.46,31.94,198,198,0,0,1,16.49,32.67c0-3.86.1-8,.21-10.12v-1.25c1.67-13.26,12.94-39.35,28.7-42.59a4.57,4.57,0,0,1,2.51-.52c10.64-.52,19.73,7.62,20.14,18,1.05,12.94-8.76,23.9-14.82,29.23-8,6.89-28.08,14-33.71,15.65a357.4,357.4,0,0,1,9.91,40.71l2.19,14.09c2.82-13.88,13.68-36.63,28.4-39.56h1.87a18.75,18.75,0,0,1,20.15,18c.84,11.06-7.1,22.44-14.82,29.22-7.93,7-28.18,13.78-32.67,15.24l1.15,8.88c1.77,16.07,4,32,6,45.82.31,2.19.73,4.38,1.14,6.57,2.2-14,12.53-34.44,25.58-39.45v-.52a21,21,0,0,1,17.85-23.49c17.32-1.77,37.57,21.71,43.94,35.39l.1.41c.11.53,1.15,3.76,2.09,6.58.63,1.88,1.25,3.86,1.88,5.84l2.92-12.63c2.09-8.35,4.39-16.59,6.58-24.63s4.49-16.28,6.57-24.63c1.15-4.28,2.3-8.87,3.45-13.57-6-.11-29.75-.73-40.29-5.64-10.65-4.49-22.65-14.09-25.16-25.78a1.72,1.72,0,0,0-.21-.94,4.41,4.41,0,0,1-.31-1.36,19.9,19.9,0,0,1,3.76-14.92,21,21,0,0,1,14.19-8.56c17.33-1.88,37.58,21.71,44,35.38l.31.84c2.4,7,4.07,12.11,5.12,15.55,2.61-9.6,5.11-19.52,7-29.33a321.16,321.16,0,0,0,6.68-43.73c-6-.11-29.64-.63-40.5-5.64-10.65-4.49-22.65-14.09-25.16-25.78a1.84,1.84,0,0,0-.2-.94,4.25,4.25,0,0,1-.32-1.36,19.94,19.94,0,0,1,3.76-14.93,21,21,0,0,1,14.2-8.55c17.32-1.88,37.57,21.71,43.94,35.38.31.83,2.71,8.45,4.49,14.3a274.94,274.94,0,0,0-1.88-42.17c-.63-6.37-1.67-12.11-2.61-17.64-.31-1.88-.63-3.65-.94-5.53-6.58.83-29.54,2.4-40.19-1-8.55-3.13-23.48-10.12-27.86-23.17,0-.1-.11-.21-.21-.42a3.72,3.72,0,0,1-.63-2.08,21.24,21.24,0,0,1,2.4-15.66,20.49,20.49,0,0,1,12.84-9.6c17.33-4.07,40.08,17.53,47.39,30.16.21.42.83,1.78,1.67,3.66a4.84,4.84,0,0,1,.31.73v-.21c-2.92-12.11-6.16-23.28-9.29-33.51-1.67-5.32-3.23-10.23-4.9-14.82-3.55-1.46-27.46-11.06-35.6-19.62-4.9-5.12-16-18.58-13.88-33.09a4.24,4.24,0,0,1,.21-1.25,3,3,0,0,0,.21-.73,19.92,19.92,0,0,1,9-13.16,21.36,21.36,0,0,1,16.08-2.81c17.12,4.48,27.55,34.23,28.39,48.95h0c.21,2.61-.63,20.77-1.46,22.23,1.56,4.28,3.13,9,4.59,13.57l.1.42a348.65,348.65,0,0,1,10.23,33.61,404.21,404.21,0,0,1,8,40.39,267,267,0,0,1,2.61,40.82c2.09-5.43,4.8-12,5.12-12.74,6.47-12.63,28.7-35.49,46-32.46.83,0,1.67,0,1.88.94h0a21.58,21.58,0,0,1,11.79,26.3c-3.44,11.69-16,20-26.51,24-10.34,3.86-31.84,3.24-39.35,2.82l-1.15,3.13v-3.13h-.11c-.1,1.77-.2,3.65-.31,5.43v1.35l-.1-.31a366.06,366.06,0,0,1-5.43,39.25c-.73,5.53-1.88,11.06-3,16.49,7.62-12.84,28.5-33.4,45-30.48a4.56,4.56,0,0,1,2.4.52,20.46,20.46,0,0,1,12.11,10.34,20.94,20.94,0,0,1,1.15,16.07c-3.34,13-18.06,20.67-26.52,24-11.16,4.49-34.86,3.34-39.87,3.13l-2.29,9.29c-3.45,13.57-6.69,27.14-9.82,40.29l-2.08,8.87c-.63,2.51-1,5.22-1.57,7.93,7.2-12.94,28.18-33.92,45.3-30.89a5.4,5.4,0,0,1,2.4.52,20.62,20.62,0,0,1,12.11,10.23,20.94,20.94,0,0,1,1.15,16.07c-3,11.28-16.18,19.94-26.51,24-10.55,4.18-33.61,3.34-38.62,3.13a112,112,0,0,0-2.3,16.39,52.76,52.76,0,0,1-.42,5.74,51,51,0,0,0-.42,5.64c0,2-.1,3.86-.21,5.74s-.2,3.76-.2,5.63v27.56c1.25-5.64,2-8.35,2.19-8.87,5.11-14,22.86-38.83,40.39-38.83h.42l.42.1a2.76,2.76,0,0,0,1.67.32,20.59,20.59,0,0,1,13.88,8.35,21,21,0,0,1,3.65,15.76c-1.56,14.92-17.74,25.15-22.54,28-9.4,5.33-30.17,7.93-39.77,9,.21,3.44.31,7,.31,10.44.11,4.07.21,7.82.42,11.48.21,5.53.63,10.85.94,15.86.21,3.45.52,6.68.63,9.82h22.12v18.68h-4.8Zm-77.24-2.19h75.25L1878.2,1749h4.59v-14.4h-22l-.1-1c-.21-3.44-.42-7.09-.74-10.85-.31-5.12-.73-10.33-.93-16-.21-3.65-.32-7.52-.42-11.48-.11-2.72-.11-5.33-.21-8l-.63,2.51v-46.24c0-1.88.11-3.87.21-5.75s.21-3.75.21-5.63a52.79,52.79,0,0,1,.42-5.85,50.77,50.77,0,0,0,.42-5.63,130,130,0,0,1,2.6-17.64l.21-.84h.94c1.15.11,27.45,1.46,38.62-2.92,9.92-3.86,22.44-12.11,25.26-22.65a18.65,18.65,0,0,0-12-23.8,3.46,3.46,0,0,0-1.78-.42c-16.17-2.82-37.68,18.58-44,31.21l-.21.31c-.31.53-1.67,4.08-2.72,6.69h0l-2.08-.42c.62-2.72,1-5.43,1.56-8.14.63-3.24,1.15-6.27,1.88-9.29l2.09-8.88c3.13-13.15,6.37-26.82,9.81-40.39l2.71-11.06.84.1c9.71.63,30.48.83,39.87-2.92,8-3.24,22.13-10.44,25.26-22.65a18.91,18.91,0,0,0-1-14.51,18.59,18.59,0,0,0-11-9.29,2.8,2.8,0,0,0-1.78-.42c-16.59-2.92-37.78,19.1-44,31.21l-.21.31c-.21.32-1.15,2.72-2.09,5.12l-1,2.61-2-.63c1-4.17,2-8.45,2.93-12.73-1.47,5.74-2.93,11.48-4.49,17h.1l-.31,1.36c-1.25,5.11-2.51,10.23-3.86,14.82-2.09,8.25-4.39,16.6-6.58,24.63s-4.49,16.29-6.58,24.64l-4.69,20.56-1.15-4c-.84-2.82-2-6.36-3-9.6-1.46-4.59-2-6.26-2.09-7-6.05-12.84-25.67-35.7-41.75-34-10.33,1.56-17.22,10.75-16.07,21.29v2.19l-.73.21c-13.26,4.39-23.9,27.14-25.16,40.29v7.1l-2.09.21c-.41-2.3-.83-4.59-1.35-7-.63-3-1.15-6.06-1.67-9.19-2-13.78-4.18-29.75-5.95-45.93l-1.36-10.64.84-.32c.21-.1,24.21-7.51,32.67-15,7.3-6.57,14.92-17.22,14.09-27.55a16.73,16.73,0,0,0-5.64-11.9,16.13,16.13,0,0,0-12.21-4.07h-1.77c-13.37,2.71-25.16,26.3-26.93,40.6v7.52l-2.09.2c-1.25-8.45-2.51-16.59-3.86-24.63a370.38,370.38,0,0,0-10.13-41.44l-.31-1,1-.31a6.82,6.82,0,0,1,.84-.21l-2.09.1V1457c-6-15.44-11.9-27.45-18.48-37.78a240.48,240.48,0,0,0-20.35-31.73c-.94-1.36-1.88-2.61-2.92-4,1,1.46,2,2.92,2.92,4.38l1.25,1.88c1.36,2.09,2.93,4.39,4.28,6.68l1.88,3.34h0l.52.84a187.19,187.19,0,0,1,11.07,19.21,255.73,255.73,0,0,1,16.18,38.3,7,7,0,0,1,.41,1.36c.11.42.21.73.32,1l4.38,8.88-3.13-3.87a329.48,329.48,0,0,1,7.72,36c1.46,9.08,2.72,18.58,3.87,27.66l.93,7.52-.73-.94a98.3,98.3,0,0,0,1.47,11.17l1.56,15.34c1,10.13,2.09,20.57,3.45,30.48.41,2.51.73,5.12,1,7.62s.63,5.12,1,7.62l.63,4-.73-.84v.32a242.77,242.77,0,0,0,5.11,25.36l.42,1.67a76.54,76.54,0,0,0,2.51,8.77l3,10.23c2.51,6.78,4.7,13.25,6.79,19.52.62,1.46,1.15,2.92,1.67,4.38s1,2.92,1.67,4.38l-1.88.94c-1.67-2.5-3.55-6-5.22-8.66-1-1.78-2.19-3.65-2.4-4-8.56-11.79-30.38-26.51-43.84-22.13a17.12,17.12,0,0,0-10,21.82,2.43,2.43,0,0,1,.52,1c0,.11.11.42.21.42l.21.31c5.64,11.8,21.29,15.87,26,16.81,9.71,2.09,33.61-2.19,36.85-2.92l.93-.21.32.83c1.15,3,2.29,6,3.44,8.88q2.67,6.57,5,12.83c1.15,2.72,2.4,5.54,3.55,8.35,1.78,4.18,3.55,8.56,5.32,12.32l.74,1.46h-25.68v14.41h5.84Zm109.39-238c-16.29,0-33.61,24.32-38.42,37.47-.41.83-2.08,8.45-3.23,13.57l-1.46,6.26c9-.94,30.27-3.55,39.66-8.77,4.7-2.61,20-12.31,21.5-26.3a18.88,18.88,0,0,0-3.34-14.2,18.33,18.33,0,0,0-12.31-7.51,4.71,4.71,0,0,1-2.2-.42C1902.73,1625.6,1902.73,1625.6,1902.63,1625.6Zm-204.38-18.48c5.85,8.56,18.27,12.11,27.87,12.53,11.38.41,34.55-8.35,34.76-8.46l.73-.31-3.34-4.28c-2.61-3.24-6.89-8.77-7.72-9.29-10.55-10.54-34.55-21.82-46.87-15.24a16.88,16.88,0,0,0-8.14,10.54,16,16,0,0,0,1.77,12.53A5,5,0,0,1,1698.25,1607.12Zm-10.12-78.07c5.84,8.56,18.26,12.1,27.87,12.52,10.12.84,30.27-6.47,35.38-8.56-2.82-3.76-10.33-13-11.17-13.88-10.33-10.33-34.23-21.71-46.66-15.13a16,16,0,0,0-8,9.81,16.94,16.94,0,0,0,1.67,13.25A11.77,11.77,0,0,1,1688.13,1529.05Zm146.23-76.31a8.53,8.53,0,0,0-1.67.11,19.76,19.76,0,0,0-12.73,7.72,18.05,18.05,0,0,0-3.34,13.57,2.37,2.37,0,0,0,.21.94,4.56,4.56,0,0,1,.31,1.36c2.4,10.65,13.78,19.83,24,24,10.12,4.69,33.82,5.32,39.45,5.42-.62-2.19-2.09-7.09-5.84-18.26l-.21-.73C1868.7,1474.66,1850.23,1452.74,1834.36,1452.74Zm-159.39,4.6c5.85,8.56,18.27,12.11,27.87,12.52,6.79.52,19.42-2.5,35.39-8.45l-1.57-2c-3-3.76-9.18-11.59-9.6-12-10.33-10.33-34.24-21.71-46.66-15a16.88,16.88,0,0,0-8.14,10.54,16,16,0,0,0,1.78,12.53A5.13,5.13,0,0,1,1675,1457.34Zm70.36-.32.1.32v.42c5.22-1.57,25.36-8.67,33.09-15.24,5.64-5.12,15-15.45,14.09-27.56a17,17,0,0,0-17.95-16,2.84,2.84,0,0,0-1.67.31l-.32.11c-13.57,2.71-25.36,26.3-27.14,40.7v1.15C1745.33,1444.5,1745.12,1452.85,1745.33,1457ZM1900,1427.17c7.82.42,28.07.94,37.89-2.71,10.12-3.76,22-11.69,25.26-22.65a19.39,19.39,0,0,0-11.69-24.11l-1.47-.53c-16.17-1.67-36.53,19.63-42.69,31.42-.41.73-5.53,13.57-7.2,18.16Zm-50.73-52.92a8.53,8.53,0,0,0-1.67.11,19.74,19.74,0,0,0-12.74,7.72,18.1,18.1,0,0,0-3.34,13.57,2.56,2.56,0,0,0,.21.94,4.12,4.12,0,0,1,.32,1.36c2.4,10.64,13.77,19.83,24,24,10.23,4.7,33.3,5.33,39.35,5.43-1.46-4.9-5.63-18-6-19C1883.52,1396.17,1865.05,1374.25,1849.29,1374.25Zm48.43,52.82h.42v-1.15c.21-8,.1-15.87-.32-23.69.32,8.24.32,16-.1,23.27Zm-235.27-51.88c-4.59,0-8.87.94-12.11,3.24-7.72,5.74-9.5,16.07-4,23.48a3.62,3.62,0,0,1,.63.94c.21.21.31.52.52.73,8,10,24.53,10.13,29.33,9.92,9.82-.42,29.86-9.92,34.24-12.53l-2.61-2.61c-1.36-1.35-2.92-2.81-4.38-4.28-3.66-3.55-5.33-5.11-5.85-5.95C1690.94,1382.29,1675.18,1375.19,1662.45,1375.19Zm178.49-68.78a15.76,15.76,0,0,0-3.86.41,18.26,18.26,0,0,0-11.49,8.56,19.1,19.1,0,0,0-2.19,14.3,2,2,0,0,0,.42,1.25l.31.63c4.07,12.32,18.37,19,26.62,21.92,9.81,3.13,32.77,1.77,39.56.84l-1.88-4.08c-1.57-3.44-3.44-7.82-4.8-10.85-.84-1.88-1.36-3.24-1.57-3.55C1874.76,1323.31,1855.55,1306.41,1840.94,1306.41Zm-207.2-3.87a8.58,8.58,0,0,0-1.67.11,17.13,17.13,0,0,0-11.37,6.78,16,16,0,0,0-3,12.32,2.37,2.37,0,0,0,.21.94,4.41,4.41,0,0,1,.31,1.36c2.51,12.42,17,19.93,21.4,21.91,8.56,3.87,28.18,4.91,35,5l-.32-.42h1.47c-1-3.86-5.12-16.08-5.64-17.12C1665.06,1322.48,1648.25,1302.54,1633.74,1302.54ZM1842.92,1222a19.18,19.18,0,0,0-10.23,3,17.94,17.94,0,0,0-8,11.59,3.87,3.87,0,0,1-.2,1.14,2.61,2.61,0,0,0-.21.73c-2,14.1,9.7,27.66,13.25,31.53,8.35,8.87,35,19.1,35.28,19.2l.11.11c.52-4.6,1.25-18.27,1-19.63-.83-14-11-43-26.82-47.18A13.78,13.78,0,0,0,1842.92,1222Zm10.75,514.38-41.23-.41-.31-.63c-3.55-7.52-7.31-16.07-11.07-24.63l-1.67-3.76c-2.19-5-4.38-10.23-6.47-15.35l-.31-.93.63-.32-.73-1.77c-.84-2.09-1.67-4.18-2.51-6.16s-1.67-4.07-2.5-6.16c-1.47-3.34-2.72-7-4-10.54-1-2.82-2.09-5.74-3.24-8.56-.62-1.77-1.14-3.44-1.67-5.12s-1-3.34-1.67-5-1-3.54-1.56-5.21a47.31,47.31,0,0,0-1.46-5l-4.07-16.39.93-.32c20.36-6.78,28.5-11.89,31.84-15a44.43,44.43,0,0,0,13.26-19.51l.41-1.15,3.66,1.77c8.56,4,27,4.8,35.9,5.22,1.47.1,2.61.1,3.55.21l1.26.1-.32,1.26a238.75,238.75,0,0,0-5.53,27.87c-.1,1.25-.31,2.4-.52,3.65a54.33,54.33,0,0,0-.73,8,103.71,103.71,0,0,1-.84,11.48c0,4.07-.1,7.93-.21,11.79-.1,3.66-.21,7.31-.21,11.07v10.23l-2.08.1c-.42-3-1-6.78-1.57-10-.62-3.76-.94-5.43-.94-6.05-4.07-13.78-20-39.46-36.32-39.88a19,19,0,0,0-18.89,18.9v2.08a22.71,22.71,0,0,0,2.4,8.35l.2.42-.1.42a61.93,61.93,0,0,0-2.92,20c0,.83,1.56,10.54,2.5,16.39l.21,1.46a193,193,0,0,0,24.43-14.93l.41-.31.53.21a200.66,200.66,0,0,0,31.21,7.62l.93.1v.94c0,9,0,17.33.42,25.78.21,4.49.32,8.87.42,13.15.1,4.6.21,9,.42,13.16Zm-39.87-2.61,37.68.42c-.21-3.86-.31-7.93-.42-12.11s-.21-8.56-.42-13c-.41-8.25-.41-16.39-.41-25a193.52,193.52,0,0,1-30.17-7.42,189.54,189.54,0,0,1-24.74,15c1.88,4.81,4.07,9.61,6.06,14.41l1.67,3.76C1806.6,1718.18,1810.35,1726.43,1813.8,1733.73Zm-41.44-111.89,3.55,14.3a46.66,46.66,0,0,1,1.46,5.11,47.31,47.31,0,0,0,1.46,5c.63,1.67,1.15,3.45,1.67,5.12s1,3.34,1.67,5c1.15,2.82,2.19,5.74,3.24,8.66,1.35,3.66,2.61,7.2,4,10.44.53,1.36,1.05,2.71,1.67,4-.62-3.76-1.14-7.21-1.14-7.83a63.73,63.73,0,0,1,2.92-20.25,26.2,26.2,0,0,1-2.4-8.87v-2.3a21,21,0,0,1,21-21c17.33.42,34.13,27.24,38.41,41.54v.32c0,.2.21,1.46.42,2.92,0-2.71.1-5.43.21-8.25.1-3.75.2-7.62.2-11.69a109.29,109.29,0,0,0,.84-11.48,59.17,59.17,0,0,1,.83-8.35c.21-1.25.32-2.5.53-3.65h0a210.42,210.42,0,0,1,5.22-26.83c-.63,0-1.47-.1-2.3-.1-9.71-.42-27.77-1.36-36.74-5.43l-1.46-.73a46.74,46.74,0,0,1-13.47,19.2C1799.08,1611.3,1788.43,1616.41,1772.36,1621.84Z"/><path class="cls-4" d="M1931.43,1339.39c8.88-6.79,18.69-17.85,18.69-29.75a19.89,19.89,0,0,0-19.1-20.77h-2.09c-17,1.67-31.84,28-35.18,42.48-.41,1.25-2.5,21.61-2.08,21.61S1920.89,1347.43,1931.43,1339.39Z"/><path class="cls-5" d="M1891.56,1354H1891l-.31-.42c-.84-1.25,1.88-22.44,2-22.54,3.44-14.51,18.37-41.34,36.11-43.11h2.2a21,21,0,0,1,20.14,21.92c0,14.4-13.36,26.09-19.1,30.48h0C1921.1,1348.57,1891.77,1354,1891.56,1354Zm39.46-64.09h-2.09c-16.39,1.67-31,28-34.24,41.65-.41,1.46-1.88,16.08-2.08,20.15,5.42-1,29.12-6.27,38.2-13.16,4.28-3.23,18.26-15,18.26-28.8A18.94,18.94,0,0,0,1931,1289.91Z"/><path class="cls-4" d="M1711.72,1399.62s22.44-14.41,29.33-24.64c5.53-8.45,10.23-21.19,6.36-31.42-2.92-9.29-13.57-14.4-23-11.48a3.16,3.16,0,0,0-1.67.84c-13.57,6.78-17.85,33.92-16.07,47.49C1707,1381.77,1711.72,1399.62,1711.72,1399.62Z"/><path class="cls-5" d="M1711,1401.29l-.42-1.47c-1.25-4.9-4.7-18-5.12-19-1.77-13.78,2.4-41.55,16.5-48.75a3.93,3.93,0,0,1,2.08-1,19.54,19.54,0,0,1,14.51,1.25,18.09,18.09,0,0,1,9.6,11c3.87,10.44-.83,23.49-6.47,32.36-6.89,10.23-28.7,24.32-29.64,25Zm13.46-68.06a2.12,2.12,0,0,0-.94.52l-.31.21c-13.15,6.58-17.12,33.72-15.55,46.45.31.94,3.54,13.26,4.69,17.54,4.8-3.14,22-14.93,27.77-23.49,5.42-8.35,9.91-20.67,6.26-30.48a16.52,16.52,0,0,0-8.56-9.81,17.74,17.74,0,0,0-13-1Z"/><rect class="cls-3" x="869.79" y="418.14" width="1075.73" height="648.4"/><path class="cls-6" d="M1945.53,1068.63H869.79a2.09,2.09,0,0,1-2.08-2.09V418.14a2.09,2.09,0,0,1,2.08-2.09H1945.53a2.09,2.09,0,0,1,2.08,2.09v648.4A2.09,2.09,0,0,1,1945.53,1068.63Zm-1073.65-4.28H1943.33V420.23H871.88Z"/><rect class="cls-3" x="869.79" y="1046.61" width="1075.73" height="19.94"/><path class="cls-6" d="M1945.53,1068.63H869.79a2.09,2.09,0,0,1-2.08-2.09v-19.93a2.09,2.09,0,0,1,2.08-2.09H1945.53a2.09,2.09,0,0,1,2.08,2.09v19.93A2.09,2.09,0,0,1,1945.53,1068.63Zm-1073.65-4.28H1943.33v-15.66H871.88Z"/><path class="cls-6" d="M1821,1022.81h-.42a2.39,2.39,0,0,1-1.14-.84c-1.26-2.5,1.56-5,39.45-31.42,13.15-9.18,29.75-20.77,39.25-28.18-7.41,4.38-19,10.86-36.54,20.36-3.65,2.29-7.3,4.69-10.75,6.88-36.22,23.07-48,30.17-51,29.44a2.25,2.25,0,0,1-1.15-.73c-.31,0-.41,0-.52-.11a2.21,2.21,0,0,1-1.25-.94c-1.57-2.92,3.86-7.3,57.62-40.91,19.41-12.11,42.9-26.83,50.83-33.09-9.81,4.38-36.53,21.5-58.66,35.59-38.83,24.74-56.16,35.49-59.92,34.66a2.28,2.28,0,0,1-1.25-.94c-1.77-3,4.07-7.94,61.59-45.3,10.85-7.1,22.86-14.82,33.19-21.82-11,6.06-25,13.47-42.17,22.55-.63.31-1.36.73-2,1-40.92,25.89-59.19,37.37-62.94,36.33a2.32,2.32,0,0,1-1.26-.94,1.24,1.24,0,0,1-.21-1.05.1.1,0,0,0-.1-.1,2.63,2.63,0,0,1-.52-.63c-2.09-3.44,8-10.54,67.53-48.12,25.47-16,56.26-35.49,64.4-42.58-9.7,4.28-39.56,23.17-64.19,38.72-48.54,30.79-71.92,45.2-76.61,44.05a2.42,2.42,0,0,1-1.36-.94,2.66,2.66,0,0,1-.21-1.57,3.76,3.76,0,0,1,1.36-1.88c-1.57.53-2.61.74-3.24.53a2,2,0,0,1-1.25-.94,2.43,2.43,0,0,1-.21-1.46c.31-1.15,2.4-3.14,6.47-6-4.9,2.61-7.83,3.65-9.18,3.34a2.75,2.75,0,0,1-1.26-.84c-2.29-3.76,10.13-12.52,73.38-52.19,26.41-16.59,58.66-36.74,66.49-43.73a48.07,48.07,0,0,0-6.68,3.34c-5.84,3.75-14.61,8.87-26.62,15.65-11.89,7.31-25,15.56-37.15,23.18-48,30.27-71.09,44.36-75.37,43.31a1.93,1.93,0,0,1-1.25-.94,2,2,0,0,1-.21-1.56c0-.11.11-.21.11-.32h-.32a1.77,1.77,0,0,1-1.35-1,2,2,0,0,1-.21-1.56.73.73,0,0,1,.21-.42,2.12,2.12,0,0,1-1.26-.94,1.72,1.72,0,0,1-.2-1.25,2.91,2.91,0,0,1-1-.84,2.05,2.05,0,0,1-.21-1.67c1.15-4.7,24.43-18.89,73.49-47.91,26.09-15.45,57.93-34.34,66.07-41.23-9.92,4.18-42,24.43-68.16,41-46.55,29.54-68.89,43.32-73.17,42.17a1.93,1.93,0,0,1-1.25-.94c-1.78-3,4-7.62,64.09-45.72,27.66-17.53,61.47-39,68.89-46.13-9.09,3.55-39.88,23.07-65,39.14-44.16,28.08-65.45,41.13-69.62,40.08a2.13,2.13,0,0,1-1.36-.94,1.79,1.79,0,0,1-.21-1.56c.21-.84,1.36-2.09,3.24-3.76a5.08,5.08,0,0,1-2.3.31,2.21,2.21,0,0,1-1.25-.94c-.42-.83-.32-1.67.94-3a1.84,1.84,0,0,1-.94-.84,1.75,1.75,0,0,1-.21-1.25c.63-3,14.09-12.32,57-40.61,21-13.88,46-30.47,55.32-37.89-9.71,5-31.73,18.9-50.1,30.59-42.07,26.61-56.68,35.28-59.91,34.44a2.23,2.23,0,0,1-1.26-.94c-.73-1.35-.1-2.81,5.43-6.78a4.46,4.46,0,0,1-2.61.42,2.42,2.42,0,0,1-1.15-.84,1.91,1.91,0,0,1-.21-1.36c.32-1.56,3.76-4.38,12.43-10-4.49,2.3-7.21,3.34-8.36,2.93a3,3,0,0,1-1.25-.94c-1.46-2.61,2.09-5.85,40.19-31.63,10.64-7.2,23-15.55,30-20.77-6.69,3.86-17.33,10.65-26.41,16.49-25,16-32.57,20.56-35,19.83a2,2,0,0,1-1.15-.94c-.94-1.35-1-1.56,16.49-17.32,2.72-2.4,5.74-5.22,8.56-7.73a1.4,1.4,0,0,1-1.35-.52,1.51,1.51,0,0,1,0-2.19,1.28,1.28,0,0,1,.94-.42c.62-.31,2.5-1.46,3.75-2.3,4.39-2.81,5.33-3.44,6.37-2.29,1.25,1.77,1.36,2-16.18,17.74-3.86,3.45-8.56,7.73-11.9,10.86,6.58-3.55,18.06-11,27.87-17.22,24.95-16,32.57-20.57,35-19.84a2.08,2.08,0,0,1,1.15.94c1.14,2.4-1.57,4.91-36.33,28.39-13.15,8.88-30.27,20.46-36.63,25.89,8.45-4,29.64-17.54,45.92-27.87,32.15-20.46,42-26.41,44.57-25.68a2.42,2.42,0,0,1,1.15.84c1,1.88-.52,3.86-17.33,14.51,16.7-10.13,23.7-13.78,25.89-13.26a2.65,2.65,0,0,1,1.25.84,2.24,2.24,0,0,1,.21,1.46,5.87,5.87,0,0,1-2,2.4c4.07-2.09,6.26-2.92,7.3-2.61a2.34,2.34,0,0,1,1.15.83c1.67,2.72-3.65,7.21-60,44.47-20.45,13.57-45.19,30-53.23,36.43l1.25-.63c5.85-3.86,16.18-9.91,34.24-20,9-5.64,18.47-11.59,27.24-17.22,41.34-26.31,59.92-37.79,63.78-36.74a2.76,2.76,0,0,1,1.25.94,1.45,1.45,0,0,1,.21,1.14,8.92,8.92,0,0,1,1.46-.1,1.66,1.66,0,0,1,1.25.94,2.24,2.24,0,0,1,.21,1.46,5.88,5.88,0,0,1-1.67,2.19c2.4-1,4-1.35,4.91-1.15a2.21,2.21,0,0,1,1.35.94c2.09,3.66-9.29,11.8-71.39,51.25-23.8,15.14-52.61,33.41-60.75,40.29,10.23-4.38,41.86-24.42,68-40.91,46.55-29.44,68.79-43.32,73.17-42.28a2,2,0,0,1,1.25.94c2.09,3.55-8.24,10.55-69.1,46.66-27.13,16.08-60.12,35.59-69.51,43.42,6-4.49,19.93-12.63,49.27-28.81,5.94-3.75,11.89-7.51,17.53-11.16,48.43-31,71.71-45.41,76.72-44.26a2.38,2.38,0,0,1,1.46.94,2.05,2.05,0,0,1,.21,1.15h.1a2.37,2.37,0,0,1,1.36.94,2,2,0,0,1,.21,1.56h.21a2,2,0,0,1,1.25.94,2.32,2.32,0,0,1,.21,1.46,1,1,0,0,1-.21.52h.94a2,2,0,0,1,1.25.94c2,3.55-9,11.28-69.3,49.06-28.4,17.85-63.15,39.56-70.77,46.87,9.39-4,41.23-24,67.22-40.5,49.37-31.21,73.06-45.72,77.55-44.57a2,2,0,0,1,1.36,1,1.86,1.86,0,0,1,.21,1.57c-.32,1.15-1.88,2.82-4.91,5.11,3-1.35,5-2,5.95-1.67a2.3,2.3,0,0,1,1.25.94,2,2,0,0,1,.21,1.57,8.24,8.24,0,0,1-2.61,3.13,5.21,5.21,0,0,1,2.82-.42,2.25,2.25,0,0,1,1.25.94c2.09,3.45-7.93,10.65-67.53,48.12-12.94,8.14-27.35,17.22-39.46,25.16,9.71-5.43,22-12,37-19.84.32-.2.63-.41.94-.62,44.57-28.5,66.07-41.75,70.46-40.61a2.34,2.34,0,0,1,1.36,1,2.38,2.38,0,0,1,.1,1.46c0,.1-.1.21-.1.31a2,2,0,0,1,.2,1.05c.32,3.23-8.76,10-61.89,44.57-22.76,14.82-50.21,32.67-58.25,39.66,9.08-4.17,33.93-20,54.49-33.19,40.6-25.89,60.23-38,64.4-37.06a2.08,2.08,0,0,1,1.36.94c1.67,2.82-2.82,6.47-54.59,38.73-12.63,7.93-26.83,16.8-37.89,24,7.1-4.07,16.28-9.08,27.76-15.34,2.61-1.67,5.12-3.24,7.52-4.8,38.62-24.43,51.14-31.94,54.28-31.21a3.3,3.3,0,0,1,1.25.83,1.82,1.82,0,0,1,.21,1.47,1.91,1.91,0,0,1-.52.83c1.25,2.82-4.18,7.52-48,38.2-12.52,8.77-26.2,18.27-33.4,23.91,7.51-4.18,20.25-12.42,31.1-19.31,29.44-18.9,39-24.64,41.86-23.91a2.3,2.3,0,0,1,1.25.94c1.36,2,.52,3.13-29.33,24.43-7.62,5.43-16.38,11.69-22.13,16.07,4.6-2.71,10.44-6.57,15.24-9.7,16.5-10.76,21.3-13.57,23.18-13a2,2,0,0,1,1.14.94c.73,1.56.73,1.56-11.69,10.33-.73.52-1.56,1.15-2.4,1.78a2.42,2.42,0,0,1,.52.62c.53.94.21,1.78-1.46,2.92l-.1.11c-.21.21-.31.31-.52.31-1,.73-2.51,1.57-4.6,2.72-1.46.94-2.5,1.67-3.34,2.08-2.81,1.88-4.07,2.4-5,2.2a2.17,2.17,0,0,1-1.14-.74c-.84-1.14-.84-1.87,4.59-6-19.83,12.84-21.92,13.57-23.28,11.49s-.62-3.24,29.23-24.64c8.56-6,18.58-13.25,24.11-17.64-7.93,4.28-22.76,13.78-34.45,21.3C1833.53,1017.07,1824.13,1022.81,1821,1022.81Zm11.48-71.61c-26.82,15.24-58.76,33.4-67,40C1775.18,987.42,1805.87,968.22,1832.48,951.2Zm-2.71-4.49c-.73.42-1.36.84-2.09,1.26-25.47,14.61-56.26,32.35-65,39.14C1772.88,982.62,1803.57,963.21,1829.77,946.71ZM1751.69,970c-.21.21-.52.31-.73.52a177.34,177.34,0,0,0,16.6-9A150.26,150.26,0,0,1,1751.69,970Zm-1.67-2.92-1.25.94c.42-.11.84-.32,1.36-.52.52-.42,1-.73,1.56-1.15C1751.17,966.55,1750.55,966.86,1750,967.07Zm149.37-66.49c-9.6,3.55-44.47,25.68-73.07,43.63q-7.66,4.85-14.4,9.08c4.38-2.5,9.19-5.22,14.2-8.14C1855.66,928.24,1891.77,907.57,1899.39,900.58Zm-93.32,37.26c-8.35,5.22-15.76,9.92-22.23,13.88,7.52-4.59,15.45-9.6,23.38-14.5C1806.91,937.42,1806.49,937.63,1806.07,937.84Zm94.47-30.48c-9.29,4.28-33.09,19.1-55.64,33.4C1868.18,927.51,1892.5,913.52,1900.54,907.36Zm-94.67-6.47c-25.68,14.61-57.93,33.09-65.87,39.77,9.5-3.86,39.77-23.17,64.72-39A10.47,10.47,0,0,1,1805.87,900.89Zm-62.63,31.63-.94.62c1.15-.62,2.5-1.25,3.86-2.08C1745.22,931.58,1744.18,932.1,1743.24,932.52ZM1836,914.77c-.31.21-.52.32-.83.53,2-1.15,4.07-2.2,6-3.34.31-.21.63-.42.84-.53C1840.21,912.48,1838.12,913.63,1836,914.77Zm-45.72-29.85c-18.37,10.65-39.24,22.86-47.8,28.91C1751.8,909.14,1772.05,896.4,1790.31,884.92Zm14.93-16.07c-4.8,2.92-10.23,6.26-16.49,10-15,9.08-32.67,19.73-42.07,26.09,9.81-5.53,27.14-16.38,42-25.67C1794.8,875.42,1800.33,872,1805.24,868.85Zm17.33,18.58c-2.3,1.46-4.6,2.92-6.89,4.28,20.35-11.59,41-23.49,49-29.13-.52.21-1,.53-1.56.74C1857.22,867.7,1845.22,874.8,1822.57,887.43Zm16.07-35.07c-8.56,4.59-24.11,14.19-39.14,23.59C1814.63,867.28,1830.6,857.89,1838.64,852.36Zm23.59,7.93c-5,2.4-14.09,7.72-24.63,14.19,10.75-6.57,18.58-11.16,24-13.77A2.31,2.31,0,0,0,1862.23,860.29Zm-36-8.25c-8.14,4.7-20.35,12.53-31.31,19.52C1806.49,864.57,1818.6,857.16,1826.22,852Z"/><path class="cls-3" d="M1808.89,967.59a15.46,15.46,0,0,0,7.21-3.44,17.28,17.28,0,0,0,4.69-5.12,18.9,18.9,0,0,0,.42-19.52A13.56,13.56,0,0,0,1814,934a12.66,12.66,0,0,0,4.69-3.86,14.52,14.52,0,0,0,2.93-9.29,16.83,16.83,0,0,0-2.93-9.81,20.39,20.39,0,0,0-16.59-6.79h-31V967.9h28.81A37.62,37.62,0,0,0,1808.89,967.59Zm-25.05-51.77h14a48.25,48.25,0,0,1,7.62.83,5.8,5.8,0,0,1,3.44,6,5.88,5.88,0,0,1-2.5,5.53,12.56,12.56,0,0,1-6.79,1.67h-15.24v-14Zm0,41.65V940h15.24a17.2,17.2,0,0,1,6.37,1.26,7.69,7.69,0,0,1,4.28,6.78,7.85,7.85,0,0,1-4.28,8,17.39,17.39,0,0,1-6.37,1.25h-15.24Z"/><path class="cls-3" d="M1833.84,964.25a26.32,26.32,0,0,0,16.6,6,23,23,0,0,0,17.84-6.79c2.51-2.08,3.87-5.11,4.7-8.45h-12.73a7.12,7.12,0,0,1-2.51,3.44,10.08,10.08,0,0,1-6.78,2.09,12.65,12.65,0,0,1-6.79-1.67,11.27,11.27,0,0,1-5.11-9.81h34.34a68.78,68.78,0,0,0-.42-9.29,20.94,20.94,0,0,0-3.86-9.81,18.18,18.18,0,0,0-8-6.79A24.88,24.88,0,0,0,1850,921a23,23,0,0,0-17,6.36,25.18,25.18,0,0,0-6.36,18.69C1826.22,952.35,1828.83,959.14,1833.84,964.25Zm9-31.42c2.08-1.67,4.69-2.92,7.2-2.5a11.63,11.63,0,0,1,7.2,2.5,10.67,10.67,0,0,1,3.45,7.2h-21.19a15.19,15.19,0,0,1,3.34-7.2Z"/><rect class="cls-3" x="1835.61" y="908.2" width="27.56" height="6.37"/><path class="cls-6" d="M1798.14,629a1.91,1.91,0,0,1-1.67-.83,2.31,2.31,0,0,1-.21-1.46c0-.11.11-.21.11-.32-2.92,1.47-4.7,2-5.53,1.78a2.36,2.36,0,0,1-1.15-.84c-1.46-2.61,2.09-5.53,46.55-33.71,18.06-11.48,39.77-25.26,47.18-31.21-8.77,4.07-31.31,18.48-49.89,30.48-35.81,23-52,33-55.64,32a1.64,1.64,0,0,1-1.25-.94c-1.67-2.71,2.71-6.15,52.4-36,15.13-9.08,33.82-20.35,45.93-28.28-7.62,4.59-18,10.43-31.42,17.84-4.7,3-9.5,6-14,8.88-42.9,27.14-57.72,36-61,35.17a2.24,2.24,0,0,1-1.25-.94.39.39,0,0,1-.1-.31,2.23,2.23,0,0,1-1.15,0,2.17,2.17,0,0,1-1.25-.94c-1.57-3.13,4.27-7.72,61.27-43.11,22.85-14.19,50.41-31.21,59-38.3-9.81,4.69-36.12,21.29-57.93,35.17-45.09,28.6-66.8,41.86-71.19,40.81a2.13,2.13,0,0,1-1.35-.94c-2-3.55,8.14-10.85,64.19-46,26.82-16.8,59.7-37.47,65.86-44.05a100.19,100.19,0,0,0-12.31,6.16q-6.9,4.23-16.91,10c-12.74,7.83-27.56,17.23-40.92,25.68-45.2,28.7-65.55,41.23-69.62,40.19a2.56,2.56,0,0,1-1.36-.94,1.82,1.82,0,0,1-.21-1.57,3.16,3.16,0,0,1,.73-1.15,4.14,4.14,0,0,1-2.61.32,2,2,0,0,1-1.25-.94c-.83-1.57.73-3.87,7.83-8.77-6,3.23-9.71,4.59-11.17,4.28a2,2,0,0,1-1.25-.94,2.31,2.31,0,0,1-.21-1.46c.21-.84,1.36-2,3.55-3.66-2.82,1.26-4.8,1.78-5.74,1.47a2.42,2.42,0,0,1-1.36-.94.39.39,0,0,1-.1-.21,5.72,5.72,0,0,1-.84-.73c-1.77-3,4.28-7.73,67.74-47.39,29.33-18.27,65.14-40.71,72.86-47.91-9.71,3.65-43.94,25.36-71.92,43.11-48,30.37-69.51,43.52-73.69,42.58a1.93,1.93,0,0,1-1.25-.94c-2.3-3.75,10.23-12.63,74.53-52.39,25.88-16.08,57.51-35.6,64.82-42.17-9.5,3.44-43,24.73-70.46,42.27-45.82,29.23-67.85,42.8-72.54,41.86a2.42,2.42,0,0,1-1.36-.94,2.67,2.67,0,0,1-.21-1.57c.42-1.56,3.86-4.49,10.65-9.08-5.95,3-9.5,4.38-11.17,4a1.78,1.78,0,0,1-1.36-1,2,2,0,0,1-.1-1.56h0a2.45,2.45,0,0,1,0-1.26c.21-.73,1.15-1.87,2.82-3.23a6.09,6.09,0,0,1-2.51.31,2.33,2.33,0,0,1-1.36-1,1.72,1.72,0,0,1-.21-1c0-.1-.1-.1-.1-.2a2.07,2.07,0,0,1-.21-1.57c0-.1,0-.1.11-.21l-.32-.31c-.41-.84-.41-1.67.94-3a2.85,2.85,0,0,1-1-.83c-.42-.73-.21-1.67.83-2.93h0a2.31,2.31,0,0,1-1.14-.83c-1.67-2.82,3.23-6.68,59.18-41.23,22.54-14,49.79-30.79,58.45-37.68-9.81,4.49-36,21.08-57.62,34.86-52.4,33.3-58.14,36-60,33.09a2.58,2.58,0,0,1-.21-1.57c.21-.73,1-1.77,2.81-3.13a1.32,1.32,0,0,1-.93,0,2.34,2.34,0,0,1-1.15-.83c-1.67-2.82,2.82-6.79,50.62-39.46,14.51-9.91,31.63-21.61,40-28.18-7.73,4.38-21.09,12.84-33.19,20.56-34.87,22.23-47.91,30-51,29.23a2.28,2.28,0,0,1-1.25-.94c-.83-1.46-.73-2.51,9.6-9.19-2.5,1.26-4,1.67-4.69,1.46a2.34,2.34,0,0,1-1.15-.83,2,2,0,0,1-.21-1.36,6.31,6.31,0,0,1,2.09-2.29c-.84-1.36.62-3.24,18.06-19.21,2.81-2.61,6.05-5.53,8.76-8.14a1.51,1.51,0,0,1-.94,0,2.11,2.11,0,0,1-1-.84,1.5,1.5,0,0,1,.73-2.08,1.25,1.25,0,0,1,.84-.11c.83-.42,2.92-1.77,4.17-2.61,3.65-2.5,4.59-3.13,5.64-2a1.38,1.38,0,0,1,.31.42c.84,1.56.42,2.29-16.28,17.74-4.28,4-9.6,8.87-13.15,12.32,3.55-2.19,8.45-5,14.82-8.67,4.9-3.13,10.12-6.36,14.92-9.49,26.62-17,34.66-21.92,37.06-21.3a2.36,2.36,0,0,1,1.15.84h0a4.45,4.45,0,0,1,2.61-.42,2.27,2.27,0,0,1,1.14.84c.63,1.14.63,2.08-3.65,5.32,7.2-4.28,10.23-5.64,11.59-5.22a2,2,0,0,1,1.15.94c1.35,2.5-2.51,5.84-46.24,35.8-17.64,12.11-38.94,26.62-46.66,33.19,9-4.48,30.48-18.16,48.33-29.43,39.24-24.84,58.13-36.43,62-35.49a1.66,1.66,0,0,1,1.25.94,2.31,2.31,0,0,1,.21,1.46,7.22,7.22,0,0,1-.42.84c3.65-1.47,5-1.26,5.74-.21,1.67,3-3.86,7.41-62.31,43.63-19.52,12.11-42.69,26.41-52.82,33.71,1.36-.73,2.92-1.56,4.59-2.61,3.87-2.4,8.77-5.32,14.93-8.87,10.33-6.37,22.55-14,34-21.19,45.09-28.29,66.8-41.33,70.56-40.5a2.25,2.25,0,0,1,1.25.94,1.46,1.46,0,0,1,.21,1.15,3,3,0,0,1,1.36,0,2.13,2.13,0,0,1,1.35.94A2,2,0,0,1,1852,469a4.47,4.47,0,0,1,1.88-.21,2.25,2.25,0,0,1,1.25.94.37.37,0,0,1,.11.31h.73a1.68,1.68,0,0,1,1.25.94c0,.11.11.11.11.21a6.16,6.16,0,0,1,.83.73c.52.94.31,2-1.77,4,2.4-1,4-1.36,4.8-1.15a2.1,2.1,0,0,1,1.25,1v.11a2.25,2.25,0,0,1,.73.63,2,2,0,0,1,.21,1.56c-.42,1.78-4.38,5-12.42,10.33,9.08-5.11,14.4-7.41,16.39-6.88a1.77,1.77,0,0,1,1.35,1c2.09,3.34-8,10.33-67.43,47.18-29,17.95-64.5,40-72,47.18,9.4-3.65,42.28-24.53,69.31-41.65,48.64-30.79,72-45.2,76.51-44.05a2,2,0,0,1,1.36,1.05c2.08,3.65-9.92,12-75.47,53-12.42,7.73-25.47,16-36.74,23.17,8.45-4.69,18.68-10.12,30.69-16.49,2.19-1.36,4.38-2.71,6.47-4.07,50.73-32,75.26-47.18,80.06-45.93a2.35,2.35,0,0,1,1.35.94,1.43,1.43,0,0,1,.21.63l.21.21a2,2,0,0,1,.21,1.56c-.21.94-1.77,2.51-4.59,4.7,2.82-1.25,4.69-1.77,5.63-1.56a2.23,2.23,0,0,1,1.26.94c.94,1.77-1,4.38-10.13,10.43,6-3.13,9.5-4.49,11-4.17a1.9,1.9,0,0,1,1.25.94,1.79,1.79,0,0,1,.21,1.56,4.94,4.94,0,0,1-1.46,2.09,2.2,2.2,0,0,1,1.15,0,2.42,2.42,0,0,1,1.36.94c2.29,3.76-9.19,12-68,49-24.64,15.45-54.7,34.34-61.59,40.92,9.19-3.44,40.81-23.48,66.7-39.87,41.44-26.31,60-37.79,63.78-36.85a2.28,2.28,0,0,1,1.25.94c1.77,3-4.18,7.83-62.84,44.26-19.52,12.11-42.48,26.41-53.65,34.34,5.85-3.76,16.08-9.71,33.72-19.42,6.36-4.07,12.94-8.14,19-12.1,40.5-25.79,58.66-37,62.42-36a2.2,2.2,0,0,1,1.25.93,2,2,0,0,1,.21,1.57,4,4,0,0,1-.73,1.25c.11.11.11.21.21.21,1.15,2-1.25,4.91-18.16,15.76,8.87-5.22,13.78-7.41,15.55-7a1.64,1.64,0,0,1,1.25.94c1.67,2.82-2.81,6.58-50.83,37-14.19,9-31,19.63-39.66,25.89,8.56-4.8,23.38-14.3,36-22.34,31.83-20.25,46-29,49.47-28.28a2.66,2.66,0,0,1,1.26.83c.62,1.15.73,2-3.66,5h.42a1.77,1.77,0,0,1,1.15.94c1.25,2.19-1.15,4.59-32.05,26-9.18,6.37-19.93,13.78-26.09,18.58,6-3.44,15.24-9.29,22.55-14.09,19-12.21,22.65-14.2,24.32-13.88a1.64,1.64,0,0,1,1,.83c1,1.57.63,2.19-15,14.41-1.15.94-2.51,1.88-3.65,2.92h0a1,1,0,0,1,.41.52c.11.11.11.21.21.42a.84.84,0,0,1,0,.73c-.1.73-.42,1.15-3.23,2.71-5.22,3.76-6.68,4.49-7.94,4.07a2,2,0,0,1-1.14-1.14c-.53-1.47-.53-1.67,13.46-12.63,1.57-1.26,3.34-2.61,5-3.87l-11.79,7.52c-21.4,13.67-28.4,17.85-30.8,17.33a2.39,2.39,0,0,1-1.14-.84c-1.26-2.3,1.14-4.59,32-26,9.5-6.58,20.56-14.3,26.62-19-7.83,4.28-22,13.47-34.14,21.19C1810.46,623.76,1801.48,629,1798.14,629Zm30.69-20.66c-9.5,5.53-18.48,11-24.11,14.71C1810.67,619.8,1819.64,614.16,1828.83,608.32Zm17.85-27.66c-4.91,2.92-10.23,6.15-16.18,9.81-17.85,10.75-39.25,23.59-47.7,29.75,9.39-4.6,31-18.48,49-30.07C1837.18,586.71,1842.19,583.58,1846.68,580.66Zm-45.82-11c-22.65,12.73-45.41,25.78-52.51,31.31C1756.7,597.46,1779.25,583.37,1800.86,569.7Zm25.67-21.61c-4.17,2.4-8.56,5-13.36,7.72-27.14,15.77-60,34.87-68.47,41.86,10-4.18,41.75-24.32,68-40.81C1817.56,553.73,1822.25,550.8,1826.53,548.09Zm-19.52,4c-25.57,14.71-56.36,32.56-66,39.66C1751.8,586.92,1781.34,568.34,1807,552.06Zm5-41.13L1791.57,523c-26.83,15.76-59.5,35-67.75,41.75,9.82-3.86,41.55-24.11,67.64-40.81C1799,519.28,1805.76,514.9,1812,510.93Zm67.85.73c-10.33,4.59-41.65,24.43-67.43,40.71-3.44,2.19-6.78,4.28-9.91,6.26,2.92-1.67,6-3.55,9.18-5.32C1838.43,537.65,1871,518.86,1879.87,511.66Zm2.19,7c-8.66,3.65-33,18.78-56,33.4,9.4-5.22,19-10.65,27.56-15.66,6.68-4.07,12.42-7.52,17-10.13A108.06,108.06,0,0,0,1882.06,518.66Zm-65.23,24c-1.57.94-3.14,2-4.6,2.92,3.34-2,6.79-3.86,10.13-5.84C1820.58,540.68,1818.7,541.62,1816.83,542.66Zm-87.89-5.74c-3.45,2.19-6.26,4-8.25,5.43,1.26-.63,2.72-1.36,4.39-2.3,4.07-2.5,9.5-5.74,16.91-10,5.63-3.44,11.9-7.41,18.16-11.37-6,3.34-11.69,6.57-16.91,9.6C1737.5,531.91,1732.8,534.83,1728.94,536.92Zm53.75-17.74c-5,2.82-10.12,5.74-15.13,8.66,2.92-1.57,6-3.24,9.18-4.91ZM1760.88,503c-16.39,9.39-32.36,18.79-39.67,23.9C1729.25,522.83,1745.22,512.91,1760.88,503Zm36.84,12.21c-.73.52-1.46.94-2.19,1.36-4.07,2.61-7.93,5-11.69,7.41,2-1.15,4.07-2.4,6.16-3.65,6.58-3.87,13.47-7.94,20.25-11.9C1806.39,510.51,1802.11,512.81,1797.72,515.21Zm69.31-3.65c-1.77,1-3.65,2.08-5.63,3.23C1863.48,513.75,1865.36,512.6,1867,511.56Zm-59.91-19c-4.91,3.13-10,6.37-15,9.5,5-2.82,10.12-5.74,15.13-8.56,16.91-10.54,28.6-17.64,36-21.61,1.15-.83,2.2-1.56,2.93-2.19-.94.42-2.09.94-3.34,1.57C1836.87,475.65,1825.28,482.44,1807.12,492.56Zm-43.94-11.79-1.57.93c-10.75,6.48-23.17,14-31.11,19.11C1738.75,496.11,1751.48,488.07,1763.18,480.77Zm78.38-12.11c-7.93,3.86-24.32,13.78-41.64,24.53,1.88-1.05,3.86-2.2,5.74-3.24,16.8-10.54,28.49-17.64,35.7-21.19C1841.46,468.66,1841.46,468.66,1841.56,468.66Zm-16.28-7c-8,4-23.69,13.68-38.93,23.28C1801.9,476,1817.77,466.78,1825.28,461.66ZM1781,466.05c-4.69,2.92-9.6,5.95-14.19,8.87,7-4.28,14.19-8.56,20.25-12.42C1785.3,463.54,1783.32,464.69,1781,466.05ZM1753.36,465Z"/><path class="cls-3" d="M1787.6,595.9h22V540.26h15.24l1.67-18.68h-17V511.35c0-4.28.83-6,5.11-6h11.9V486.3h-15.24c-16.59,0-23.79,7.2-23.79,21.19v14.82H1776V541h11.49V595.9Z"/><path class="cls-6" d="M1560.89,782.63h-.42a2.34,2.34,0,0,1-1.15-.83c-1.25-2.3,1-4.49,33.3-27.25,11.38-8,26.2-18.47,32.25-23.59-8.35,4-28.39,16.81-43.63,26.62-30.79,19.73-40.08,25.36-42.79,24.74a2,2,0,0,1-1.15-.94,1.24,1.24,0,0,1-.21-1c-2.09.94-3.44,1.26-4.07,1a2.36,2.36,0,0,1-1.15-.84c0-.1-.1-.1-.1-.21a3.78,3.78,0,0,1-2.09.21,1.36,1.36,0,0,1-.73-.41h-.84a2.77,2.77,0,0,1-1.25-.84,1.8,1.8,0,0,1-.21-1.46c.84-3.65,17.43-14.2,55.11-37.37,18.37-11.27,40.4-24.84,48.85-31.31-.83.41-1.67.83-2.71,1.46-5,3.23-12.11,7.51-21.4,12.73-8.35,5.22-17.53,11.07-26,16.39-54.8,34.76-62.63,38.62-64.71,35.49a1.66,1.66,0,0,1-.32-1.36,5.43,5.43,0,0,1-2.81.52,2.23,2.23,0,0,1-1.26-.94c-1.56-2.92,3.86-7.41,61.59-44.88,22.54-14.61,49.79-32.36,58-39.24-10.12,4.48-38.93,22.85-62.73,38-44.26,28.18-64.09,40.39-68.26,39.45a1.65,1.65,0,0,1-1.26-.93,2.07,2.07,0,0,1-.21-1.57c.21-.84,1.15-1.88,2.82-3.24-3.23,1.57-5.32,2.2-6.36,1.88a1.66,1.66,0,0,1-1.26-.94,2.17,2.17,0,0,1-.21-1.67c0-.21.11-.31.21-.52a3.72,3.72,0,0,1-2.08.11,2.38,2.38,0,0,1-1.36-.94c-1.25-2.09-.32-4.7,23.38-19.73,14.4-9.19,33.82-20.88,52.61-32.05,25-15,52.92-31.73,61-38.09-10.33,4.17-43,24.94-69.93,42-59.81,37.89-71.5,44.36-73.8,40.91a2,2,0,0,1-.21-1.67,4.68,4.68,0,0,1,1.15-1.77,5.49,5.49,0,0,1-3.13.52,2.21,2.21,0,0,1-1.25-.94c-2.09-3.34,8-10.54,67.43-48,21.5-13.57,46.66-29.44,61.16-39.77-10.54,6.26-27.13,15.34-50.83,28-3.44,2.19-6.89,4.39-10.23,6.47-48.33,30.59-69.93,44-74.32,42.8a2,2,0,0,1-1.35-1,1.52,1.52,0,0,1-.21-.93c-.11-.11-.11-.21-.21-.32a2.27,2.27,0,0,1-.21-1.56,6.15,6.15,0,0,1,1.88-2.4,6.08,6.08,0,0,1-2.5.31,2,2,0,0,1-1.36-1.05,1.85,1.85,0,0,1,0-1.67,3,3,0,0,1-.84-.83,2,2,0,0,1,.21-2.09,2.26,2.26,0,0,1-1-.94c-.63-1.25.21-2.82,3.55-5.63-2.2.94-3.66,1.25-4.39,1a2.88,2.88,0,0,1-1.25-.94c-2-3.24,6.05-9.5,70-50.83,23.9-15.45,52.81-34.13,61.69-41.44-10.23,4.8-38.31,22.55-61.48,37.26-46,29-68.16,42.59-72.34,41.65a1.66,1.66,0,0,1-1.25-.94c-1.57-3.13,4.49-7.93,63.57-45,24.53-15.34,54.27-34,62.1-40.81-.94.42-2.08.94-3.34,1.57-4.8,3.44-14,8.87-30.58,18.16-8.56,5.43-17.74,11.27-26.1,16.6-41.12,26.3-60.85,38.62-65.13,37.57a2.13,2.13,0,0,1-1.35-.94,2.56,2.56,0,0,1-.21-1.56,2.86,2.86,0,0,1,1-1.46,2.1,2.1,0,0,1-.83-.84,1.75,1.75,0,0,1-.11-1.46c0-.11.11-.21.11-.31-1.57-2.72,3-6.58,53.23-39.46,20.14-13.26,44.46-29.23,52.4-35.91-8.77,4.18-31,18.27-49.37,30-37.27,23.69-49.38,30.9-52.4,30.17a2.75,2.75,0,0,1-1.26-.84c-1.35-2.82,2.93-6.57,45.2-35.38,14.2-9.61,31.11-21.09,38.31-26.93-8.35,4.28-26.1,15.44-39.87,24.21-34.24,21.71-35.49,21.92-36.85,19.83s-.52-3.34,32.67-25.67c5.53-3.76,11.8-7.94,17-11.59-3.54,2.19-7.3,4.59-10.85,6.89-26.2,16.7-28.5,17.75-30,15.55-1-1.56-1.25-2,18.48-18l.21-.21c-.11,0-.11-.11-.21-.21a1.51,1.51,0,0,1,0-2.19,1.24,1.24,0,0,1,.94-.42c.62-.31,2.5-1.46,3.75-2.3,4.39-2.82,5.33-3.44,6.37-2.4a1.26,1.26,0,0,1,.42,1.15c0,.94,0,.94-9.6,8.77-3.66,2.92-8.67,7.1-12.43,10.33,5.64-3.23,13.78-8.45,20.36-12.73,20.87-13.36,25.15-15.87,27.14-15.35a2.07,2.07,0,0,1,1.15.94c1,2,.1,3.13-31.11,24.22-7.1,4.8-15.24,10.23-21.4,14.61,6.47-3.86,14.62-9.08,22.34-13.88,32.25-20.35,43.42-27,46.34-26.3a2.26,2.26,0,0,1,1.26.93c1.46,2.51-2.09,5.75-42.69,33.2-15.56,10.54-34.14,23.17-41.23,29.12,8.76-4.38,29.22-17.43,46.24-28.29,38.51-24.53,51.77-32.46,55.11-31.62a2.21,2.21,0,0,1,1.25.94c1.57,2.92-3.76,7.3-56,41.75-12.63,8.24-26.93,17.64-37.37,24.94,8-4.59,18.89-10.54,33-18.26,3.66-2.3,7.31-4.6,10.86-6.79,56.57-35.49,63.15-38.62,65.13-35.8h0a2.13,2.13,0,0,1,1.36.94,2.54,2.54,0,0,1,.21.83,3.7,3.7,0,0,1,1.77-.1,2.13,2.13,0,0,1,1.36.94c1.77,3-4.38,8-65.13,46.14-23.28,14.61-51.57,32.35-60,39.24,10.44-4.69,41.33-24.11,66.8-40.18,44-27.77,63.57-39.88,67.33-38.94a2.28,2.28,0,0,1,1.25.94c1.77,3-4.07,7.73-65.45,47.39-26.51,17.12-58.76,37.89-67,45.41,9.92-4.39,40.61-23.8,65.87-39.77,48.32-30.59,71.6-44.89,75.88-43.74a2,2,0,0,1,1.25.94,2.32,2.32,0,0,1,.21,1.46c-.21.94-1.88,2.51-4.8,4.7,3.86-1.88,6.16-2.71,7.31-2.4a2.88,2.88,0,0,1,1.25.94,2.32,2.32,0,0,1,.21,1.46h.1a1.77,1.77,0,0,1,1.36,1,2.47,2.47,0,0,1,.21,1.26,2.83,2.83,0,0,1,1,.83,2,2,0,0,1,.21,1.57,8.16,8.16,0,0,1-2.19,2.71c1.56-.52,2.61-.73,3.23-.52a2,2,0,0,1,1.26.94,1.55,1.55,0,0,1,.2.62,1.7,1.7,0,0,1,.63.63c2.3,3.76-10.23,12.74-74.42,53.34-25.26,16-55.85,35.28-64.2,42.48,10.23-4.49,41.86-24.32,67.85-40.71,48.33-30.48,71.71-44.67,75.88-43.63a2,2,0,0,1,1.26.94,2.26,2.26,0,0,1,.21,1.67,6.06,6.06,0,0,1-1.57,2.19,5.38,5.38,0,0,1,2.09-.2,2.3,2.3,0,0,1,1.35.93c1.78,3-4,7.42-64.29,43.53-28.39,17-66.28,39.77-73.59,46.87a63.52,63.52,0,0,0,8.45-4.07c6.06-4,15.14-9.4,27.35-16.39,10.34-6.47,21.4-13.57,31.63-20.15,45.3-29,67-42.48,71.6-41.44a2.42,2.42,0,0,1,1.36.94,2.07,2.07,0,0,1,.21,1.57,4.36,4.36,0,0,1-1.15,1.67,1,1,0,0,1,.52.1,2.2,2.2,0,0,1,1.36.94c.73,1.26-.1,3-4.18,6.16,1.78-.62,2.93-.94,3.66-.73a1.68,1.68,0,0,1,1.25.94c1.67,2.92-3.86,7.41-61.58,45-21.71,14.09-47.81,31.1-57.1,38.51,9.29-4.69,30.48-18.26,49.69-30.47,42.9-27.35,63.56-40.09,68-39a2,2,0,0,1,1.36,1,2.05,2.05,0,0,1,.21,1.67,4.7,4.7,0,0,1-1.15,1.78,1.86,1.86,0,0,1,.94.83c1.56,2.92-3.13,6.79-53.55,37.79-10.65,6.57-22.54,13.88-32.36,20.14,6.06-3.34,13.47-7.41,22.44-12.32l5.33-3.44c35.17-22.55,50.94-32.36,54.69-31.42a2.5,2.5,0,0,1,1.36.94,2.12,2.12,0,0,1,.21,1.36,6.48,6.48,0,0,1-.42.83,1.38,1.38,0,0,1,0,.94,4.69,4.69,0,0,1-1.77,2.09,1.41,1.41,0,0,1,.1,1.15c-.21.73-1.15,1.77-3.23,3.34a2.45,2.45,0,0,1,.93.83c1.26,2.4-1.77,5.22-35.9,29.33-9.5,6.68-20.56,14.51-27,19.52,6.16-3.55,15.35-9.39,22.65-14.19,26.41-17,28.6-17.85,30-15.76,1.15,1.67,1.25,1.77-16.91,15.86-.83.73-1.77,1.36-2.82,2.19a1.2,1.2,0,0,1,.84,0,1.67,1.67,0,0,1,1,.84c.42.73.32,1.36-.52,2.19a6.88,6.88,0,0,1-1.57,1.36,1.57,1.57,0,0,0-.31.42,1.26,1.26,0,0,1-.94.41c-.1,0-.21.11-.31.21s-.31.21-.52.32c-.84.52-2,1.25-2.93,1.77-3,2-4.38,2.82-5.32,2.82h0c-2.4,1.46-3.44,1.88-4.38,1.67a2.25,2.25,0,0,1-1.15-.73c-1.15-1.67-1.25-1.78,16.91-15.87,2.5-2,5.43-4.28,8.14-6.37-5.22,3.24-11.9,7.42-17.74,11.17C1571.12,778,1563.6,782.63,1560.89,782.63Zm-2.19-33.09c-16,8.87-31.53,17.64-37.68,22.23C1527.9,768.54,1542.93,759.46,1558.7,749.54Zm3.86-22.54c-23.59,13.46-50.63,29.12-58.77,35.48C1513.19,758.31,1539.49,741.61,1562.56,727Zm-58.66,28c-2.19,1.46-4.07,2.71-5.33,3.76,8.25-3.66,29.33-16.81,49.9-29.86-5.85,3.24-11.69,6.58-17.12,9.71C1519.55,746,1510.47,751.42,1503.9,755Zm43.31-41.54c-25.36,14.19-52.5,29.54-59.49,35.49C1496.38,745.47,1523,728.77,1547.21,713.43Zm85.18-10.13c-7.73,2.92-30.9,17.43-52,30.79,8.14-4.48,16.7-9.29,24.63-13.77,9.71-6,16.49-10.13,21.29-12.63C1628.94,705.91,1631,704.45,1632.39,703.3Zm-128.81,13.88c-8.14,4.49-15.13,8.56-20.35,11.8C1488.55,726.16,1495.65,722.09,1503.58,717.18Zm96.76-17.53c-11.58,7.1-24.63,15.45-36.42,23-.42.32-.84.52-1.26.84l2.19-1.26c26.2-14.92,57.94-33.19,66-39.87a77.29,77.29,0,0,0-7.3,3.65C1618,689.52,1610.26,694,1600.34,699.65Zm-39.66-30.79q-6.57,3.75-14.09,8.14c-25.68,14.72-59.18,33.92-71.4,42.79,8.56-6,26.31-16.17,59.92-34.65,4.38-2.82,8.66-5.53,12.73-8C1552.33,674.18,1556.61,671.47,1560.68,668.86Zm69.1,9.18c-7.93,3.24-29.75,16.81-51.25,30.48,7-3.86,14-7.83,20.56-11.59,9.5-5.84,17-10.33,22.55-13.36C1625.19,681.38,1628,679.4,1629.78,678Zm-4.39-14c-9.08,3.65-37.26,21.29-62.94,37.36C1588.65,686.81,1617.88,670.32,1625.39,664.06Zm-79.64,26.82c-1.25.73-2.5,1.36-3.75,2.09.83-.42,1.67-.94,2.6-1.36A4.69,4.69,0,0,1,1545.75,690.88Zm-77-3.23a20.75,20.75,0,0,0-2.19,1.56c7.31-3.24,24.22-13.67,41.65-24.84-1,.52-2,1.15-3,1.67C1487.3,677.42,1475.51,684.51,1468.72,687.65Zm104.48-16.81-14.4,9.08c18.58-10.54,37.47-21.4,48.64-28.6C1600,655.91,1588.86,662.28,1573.2,670.84ZM1607.65,637c-9.81,4.39-35.49,20.46-59.5,35.59C1572.58,658.52,1598.88,643.39,1607.65,637Z"/><path class="cls-3" d="M1500.77,723.66a56.34,56.34,0,0,0,78.07-17,57.25,57.25,0,0,0,8.87-33.09,43.07,43.07,0,0,0,9.82-10.23,38.91,38.91,0,0,1-11.49,2.93,20.35,20.35,0,0,0,8.88-11.07,42.09,42.09,0,0,1-12.74,4.7,19.6,19.6,0,0,0-28-.83c-5.12,4.69-7.2,11.89-6,19.1-16.08-.84-31-8-40.71-20.77-5.11,8.87-2.5,20.77,6.37,26.3a16.75,16.75,0,0,1-8.87-2.51,19.94,19.94,0,0,0,16.07,19.94,21.45,21.45,0,0,1-8.87.42c2.5,8,10.23,13.57,18.68,14A42.68,42.68,0,0,1,1500.77,723.66Z"/><path class="cls-6" d="M1313.51,630.24h-.42a2.42,2.42,0,0,1-1.15-.84,1.71,1.71,0,0,1-.21-1.25c.42-2,5.54-5.64,32.26-23.28,13.67-9,33.09-21.81,40.29-27.87-7.83,4-25.37,15.14-40.08,24.53-30.8,19.63-44.68,28.18-47.91,27.45a2.66,2.66,0,0,1-1.26-.83c-1.35-2.82,2.3-5.74,44.57-31.21,18.17-10.86,42.07-25.26,49-31.21-8,3.55-30.48,17.95-49,29.75-34.65,22.23-50.1,31.94-53.86,31a2.48,2.48,0,0,1-1.35-.94,2.24,2.24,0,0,1-.21-1.46c0-.11,0-.11.1-.21-1.88.73-3,1-3.75.83a2.23,2.23,0,0,1-1.26-.94c-1.56-2.81,3.24-6.88,53.76-40.08,21.71-14.3,50.62-33.29,57.82-40.08-8.76,3.76-35.8,21-58.13,35.28-42.59,27.14-63.15,39.77-67.33,38.73a2.23,2.23,0,0,1-1.36-.94,2.33,2.33,0,0,1-.21-1.46,4.2,4.2,0,0,1,.74-1.26c-1.88.73-3.14.94-3.87.73a2.31,2.31,0,0,1-1.35-1c-1.78-3,4.48-7.83,66.59-44.47,9.92-5.84,20.56-12.21,30.48-18.16-7.62,4.07-16.49,8.87-26.83,14.3l-.62.32c-3.76,2.4-7.52,4.69-11,7-42.8,27.14-60.54,38.1-64.09,37.26a2.21,2.21,0,0,1-1.25-.94.34.34,0,0,1-.11-.21,1.61,1.61,0,0,1-.73-.73,2.11,2.11,0,0,1-.21-1.56.31.31,0,0,1,.11-.21,2.75,2.75,0,0,1-1.57.1,2.21,2.21,0,0,1-1.25-.94,2.05,2.05,0,0,1-.21-1.67c.31-1.14,2-2.92,5.11-5.32-4.69,2.51-7.61,3.44-8.76,3.13a3.18,3.18,0,0,1-1-.73,3.65,3.65,0,0,1-.62-.63c-1.26-2.19,2.08-5.63,18.68-16-13.36,8-20,11.38-22.13,10.86a2.63,2.63,0,0,1-1.25-.83c-1.77-3,4.28-7.73,67.32-47.6,19.94-12.53,42.8-27,57.83-37.26-9.5,5.53-23.48,13.25-43.94,24.42-2.4,1.57-4.91,3.13-7.21,4.59-50.51,32-74.94,47.08-79.74,45.83a1.8,1.8,0,0,1-1.36-1.05c-.1-.1-.1-.31-.21-.63a1.33,1.33,0,0,1-.62-.73,2,2,0,0,1-.21-1.56,4,4,0,0,1,.83-1.36,4.17,4.17,0,0,1-1.56.11,2.67,2.67,0,0,1-1.25-.84,2.05,2.05,0,0,1-.21-1.67c.41-1.67,3.65-4.49,9.91-8.87-6,3.23-9.81,4.59-11.37,4.28a2.38,2.38,0,0,1-1.36-.94,2.33,2.33,0,0,1-.21-1.78,4.75,4.75,0,0,1,1.36-2,3.19,3.19,0,0,1-1.46,0,2.38,2.38,0,0,1-1.36-.94c-2.3-3.86,10.23-12.73,74.53-52.81,10.54-6.58,21.5-13.36,31.31-19.63-8.87,4.8-19.52,10.44-32.25,17.23-.42.2-.74.52-1.15.73-14,8.87-25.78,16.38-35.6,22.44-30.79,19.31-38.09,22.54-39.87,19.73a1.82,1.82,0,0,1-.31-1.47.63.63,0,0,1,.1-.41,1.74,1.74,0,0,1-.62-.63c-1.78-3,3.65-7.52,61.58-44.57,25.26-16.18,56.16-35.91,63.25-42.69-8.87,3.44-38.41,22.23-62.62,37.58-40.19,25.57-58.25,36.63-61.9,35.69a2.21,2.21,0,0,1-1.25-.94c-1.88-3.23,6.89-9.7,58.45-43,20.46-13.15,45.09-29,52.5-35.39-9.5,4.18-37.16,21.61-58,34.76-36.85,23.18-47.91,29.86-50.52,29.12a2.34,2.34,0,0,1-1.15-.83c-1.67-2.51,2.09-5.85,45.61-35.49,14.41-9.81,31.21-21.29,40.4-28.39-5.43,3.65-15.55,9.5-33.51,19.31-2.09,1.36-4.07,2.61-6,3.86-29.65,18.89-38,24-40.29,23.28a2,2,0,0,1-1.15-.94c-.42-.94-.42-1.78,1.67-3.45v-.1c-.42-1-.42-1.88,3.65-4.8-.21-.21-.52-.42-.62-.63-.84-1.67-.53-2.4,17.22-18.89,3.23-2.92,7-6.47,10.12-9.5a1.68,1.68,0,0,1-2.08-.21,1.51,1.51,0,0,1,0-2.19,1.84,1.84,0,0,1,.94-.42c.52-.31,2-1.25,3-2,4.07-2.82,5.22-3.44,6.37-3.13a2,2,0,0,1,1,.83c.84,1.57.42,2.3-17.32,18.79-4.28,4-9.5,8.87-13,12.21,6.68-3.75,19-11.58,29.33-18.16,27.87-17.85,36.43-23,38.83-22.23a2,2,0,0,1,1.15.94,1.43,1.43,0,0,1,.21.63c2.4-1.05,4-1.47,4.8-1.26a4.89,4.89,0,0,1,.94.52,5.93,5.93,0,0,1,2.92-.52,2.27,2.27,0,0,1,1.26.94c1.67,2.72-2.61,6.58-48.23,37.68-14.92,10.23-32.67,22.34-40.6,28.6,8.77-4.8,26.93-16.18,43.32-26.51,40.08-25.26,59.39-37.05,63.36-36a1.93,1.93,0,0,1,1.25.94c1.77,2.82-3.13,7-55.74,40.92-21.5,13.88-47.6,30.58-55.22,37.26,9.19-4.18,35.18-20.67,56.58-34.24,42.58-27,63.15-39.66,67.22-38.51a2.31,2.31,0,0,1,1.35,1c2,3.13-5.63,9.19-66,47.7-16.81,10.75-36.12,23.17-48.44,31.63,8.56-5.12,21.82-12.42,41.65-23.07,4.49-2.92,9.08-5.74,13.36-8.56,44.26-28.18,65.55-41.44,70.14-40.39a2.37,2.37,0,0,1,1.36.94c.11.1.11.31.21.41a1.64,1.64,0,0,1,.83.63,1.38,1.38,0,0,1,.63.73c1.78,2.92-3.86,7.41-63.15,44.26-28,17.32-65.34,40.71-72.33,47.8a91.56,91.56,0,0,0,10.85-5.42c5.85-3.76,13.68-8.46,23.17-13.89,11-6.89,23.07-14.61,34.24-21.71,47.28-30.16,70-44.36,74.74-43.11a1.8,1.8,0,0,1,1.35,1.05,2.35,2.35,0,0,1,.21,1.46,3.59,3.59,0,0,1-1,1.56,5.91,5.91,0,0,1,2.5-.31,2.42,2.42,0,0,1,1.36.94,2.66,2.66,0,0,1,.21,1.57c-.42,1.67-4.38,4.9-12.32,10.12,8.46-4.7,13.47-6.68,15.45-6.26a1.77,1.77,0,0,1,1.36,1c.42.73.31,1.57-.84,2.93a4.52,4.52,0,0,1,2-.11,1.79,1.79,0,0,1,1.35,1,1.73,1.73,0,0,1,.21,1.05c.11.1.21.21.21.31,2.09,3.55-9.92,12-75.05,53.23-25.47,16.08-53.86,34-63.15,41.44,10.44-5.11,37.89-22.44,62.63-38,50.73-32,75.15-47,79.75-45.82a2,2,0,0,1,1.35,1,1.81,1.81,0,0,1,.21,1.57c-.42,1.46-3,4-8.14,7.51,4.7-2.4,7.72-3.34,9.08-3a1.8,1.8,0,0,1,1.36,1.05,3.32,3.32,0,0,1,.21,1.15c.2,1.46-1.47,3.44-6.37,7.09,3.44-1.56,5.74-2.19,6.89-2a2.35,2.35,0,0,1,1.35.94,2.23,2.23,0,0,1,.21,1.67,4,4,0,0,1-.73,1.25,2.42,2.42,0,0,1,1.36.94c.1.11.1.32.21.52s.21.21.21.32c1.15,2-1,4.69-19,15.86,10.65-6.16,16.39-8.87,18.48-8.35a2.17,2.17,0,0,1,1.35.94c.52.94.32,2-2.29,4.18a3.24,3.24,0,0,1,1.46,0,1.93,1.93,0,0,1,1.25.94c1.88,3.44-7.72,10.64-60.54,45.4-18.89,12.42-41.65,27.45-49.68,34,9-4.49,30.58-18.16,48.53-29.54,37.37-23.69,55.43-34.76,59.18-33.82a1.68,1.68,0,0,1,1.26.94,2.31,2.31,0,0,1,.21,1.46,7.46,7.46,0,0,1-2.3,2.72,1.93,1.93,0,0,1,1.25.94c1.25,2.19-1.77,5.32-16.28,14.71,7-4.07,10.33-5.42,11.69-5a2.9,2.9,0,0,1,1.25.94c1.46,2.82-3.65,7.1-44.15,33.82-6.26,4.07-12.84,8.46-18.27,12.21,5.54-3.44,11.9-7.51,17.64-11.17,25.26-16.17,33.4-21.18,36-20.45a2,2,0,0,1,1.15.94c.63,1.25.21,2.61-4.8,6.05.21.1.31.31.52.52,1,1.57,1.26,1.78-15.24,15.24-1.46,1.25-3,2.51-4.59,3.76.21.1.31.21.52.31a1.51,1.51,0,0,1,0,2.19,1.28,1.28,0,0,1-.83.42l-2.19,1.57c-3.76,2.71-5.54,4-7,3.65a2.07,2.07,0,0,1-1.25-.83c-.1-.11-.1-.21-.21-.42-.52-1.46-.52-1.57,13.57-13.15,2.82-2.3,6.16-5,8.87-7.31-6,3.44-15.13,9.18-22.33,13.78-20.57,13.05-24.85,15.34-26.52,15a2,2,0,0,1-1-.73,2,2,0,0,1-.31-1.05C1316.22,629.61,1314.45,630.24,1313.51,630.24Zm37.16-36.43c-3,1.77-6.16,3.76-9.6,5.74-14.1,8.45-30.9,18.58-38.83,24.11,8.76-4.7,25.78-15.55,40.18-24.74C1345.34,597.15,1348.06,595.37,1350.67,593.81Zm-29.75,9.91c-12.42,7.1-23.9,13.89-29.85,18C1297.54,618.44,1308.92,611.34,1320.92,603.72Zm.31-21.18c-21.39,12.21-44,25.36-51.77,31.1C1278.23,609.67,1300.36,595.79,1321.23,582.54Zm33.3-26.93c-7.62,4.59-16.6,9.91-27.14,16.17-24.84,14.72-55.11,32.57-63.25,39.15,9.6-3.87,39-22.76,63.36-38.21C1337.83,566.15,1346.81,560.51,1354.53,555.61Zm-36.43,7.61c-26,14.93-56.26,32.36-64.5,39.25a82,82,0,0,0,7.41-4c4.69-3.14,11.27-7,19.72-11.8,10.23-6.37,21.82-13.67,32.88-20.67C1315.07,565.1,1316.54,564.16,1318.1,563.22ZM1274.16,583c-9.4,5.22-17.33,9.71-22.34,12.95C1257.14,593.18,1265.08,588.59,1274.16,583Zm113-21.29c-7.2,3.55-21,12-35.28,21C1366.33,574.5,1380.42,566.25,1387.2,561.66Zm-3.34-51c-9.71,3.55-45.82,26.3-75.36,45-13.88,8.76-25.37,16-34.65,21.71,9.81-5.85,22.54-13.36,38.93-22.86C1341.38,537.76,1376.55,517.4,1383.86,510.62Zm-62.52,10.85c-4.8,2.82-9.92,5.85-15.35,9-29.12,17-64.61,37.79-73.06,45.09,9.39-4.07,38.83-22.65,65.13-39.35C1306.52,530.76,1314.24,525.86,1321.34,521.47Zm-81.42,39.88a85.42,85.42,0,0,0-10.44,7.41c8.88-3.24,40.61-23.38,67.43-40.5-11.17,6.26-23.27,13-34.13,19.31Q1248.53,556.49,1239.92,561.35Zm148.85-22.24c-8.46,4-27.66,15.87-46.45,27.87C1361.52,555.92,1381.15,544.54,1388.77,539.11ZM1323,552.06c-2.82,1.67-5.74,3.34-8.77,5.11-5.32,3.13-10.86,6.37-16.39,9.5,4.28-2.3,8.87-4.7,13.78-7.31,1-.73,2.09-1.35,3.24-2.08C1317.58,555.5,1320.4,553.73,1323,552.06Zm-7.2,8.45c-.63.42-1.26.73-1.78,1.15-2.09,1.36-4.17,2.61-6.16,4,3.66-2.09,7.62-4.39,11.59-6.68,2.5-1.47,5.11-2.93,7.83-4.49-3,1.67-6.16,3.34-9.5,5A19.89,19.89,0,0,1,1315.81,560.51Zm72.33-35.38c-8.35,3.13-34,19-57.72,33.92,3.44-1.88,6.89-3.86,10.33-5.74,20.67-12.94,35.7-21.92,44.15-25.78C1386.26,526.59,1387.31,525.75,1388.14,525.13Zm-97.28,21-5,2.82c1.25-.74,2.61-1.36,3.86-2.09A7.33,7.33,0,0,0,1290.86,546.11Zm92.69-26.62c-6.27,3-17.43,9.6-30.38,17.54C1366.43,529.82,1377.7,523.46,1383.55,519.49Zm-13.47-31.94c-10,4.07-42.48,24.74-69.2,41.75-3.55,2.3-6.89,4.39-10.23,6.47,4.38-2.5,8.87-5.22,13.67-8C1330.31,512.71,1361.84,494.23,1370.08,487.55Zm4.6,6.26c-9,3.45-35.39,19.83-60.75,35.91,11.06-6.16,22.65-12.73,32.77-18.58,6.26-3.86,11.69-7,16.18-9.5C1368.1,498.3,1372.27,495.59,1374.68,493.81Zm-7.52-10.23c-8.14,3.13-31.63,17.75-54.59,32.36C1336.37,502.58,1360.27,489,1367.16,483.58Z"/><rect class="cls-3" x="1262.78" y="517.4" width="18.68" height="60.64"/><path class="cls-3" d="M1272.07,509.37A11.28,11.28,0,1,0,1261,497.88h0a11.37,11.37,0,0,0,11.06,11.49Z"/><path class="cls-3" d="M1311.94,546.32c0-8.46,3.87-13.57,11.49-13.57s10.22,4.69,10.22,13.57v31.83h18.69V539.53c0-16.07-9.29-24.22-22-24.22a21.15,21.15,0,0,0-18.26,10.23v-8.45h-18.27v60.64h17.85V546.32Z"/><path class="cls-6" d="M1354.63,1021h-.41a1.86,1.86,0,0,1-1.15-.83c0-.11-.11-.11-.11-.21a5.65,5.65,0,0,1-3.34.62,2.27,2.27,0,0,1-1.25-.93c-1.67-2.72,2.51-6.27,47.18-34.55,16.6-10.55,36.64-23.18,43.63-28.81-8.87,4.07-31.83,18.79-50.94,31.1-37,23.7-49,31-52.18,30.17a2.27,2.27,0,0,1-1.26-.94c-1.88-3.24,6.58-9.5,56.37-41.65,19.1-12.32,42.06-27.14,49.89-33.61-9.29,4.49-33.3,19.73-53.13,32.36-41.85,26.62-61.9,39-66.28,38a2,2,0,0,1-1.36-.94c-2.08-3.34,5.54-9.18,66.39-46.86,20.35-12.63,43-26.62,52.29-33.51-10.33,5.43-33.08,19.83-53.54,32.88-46.87,29.75-69.42,43.63-73.9,42.48a2.13,2.13,0,0,1-1.36-.94,2.51,2.51,0,0,1-.21-1.56c.21-.94,1.67-2.51,4.28-4.49-4.8,2.5-7.62,3.44-8.87,3.13a2.77,2.77,0,0,1-1.25-.94c-.11-.1-.11-.21-.21-.31a1.85,1.85,0,0,1-1.05-.94c-1.77-3,4.28-7.62,67.74-45.72,27.14-16.28,60.23-36.11,68.06-42.9-9.71,3.55-43.11,24.84-70.46,42.38-45.92,29.33-66.49,42-70.77,40.92a2,2,0,0,1-1.35-1c-2-3.76,9.18-11.38,70.35-47.8,27.56-16.39,61.06-36.43,68.79-43.43-9.29,4-40,23.39-65,39.25-50.1,31.73-74.22,46.66-79.12,45.41a1.8,1.8,0,0,1-1.36-1c-2.09-3.55,9.5-11.58,72.54-50.31,26.73-16.39,59.29-36.43,67.85-43.73-10,4.38-41,24-66.49,40.08-49.79,31.52-73.79,46.24-78.49,45.19a2.33,2.33,0,0,1-1.36-.94,2.62,2.62,0,0,1-.21-1.56c.11-.63.73-1.36,1.88-2.4a7,7,0,0,1-2.71.31,2,2,0,0,1-1.46-1c-1.78-3.24,4.8-8.14,68.89-45.72,29.64-17.43,65.86-38.62,73.69-45.72-9.6,3.65-43.53,25.16-71.29,42.69-47.6,30.06-69,43.22-73.07,42.17a1.93,1.93,0,0,1-1.25-.94c-.84-1.56.63-3.76,7.31-8.45-4.6,2.29-7.42,3.34-8.56,3a2.84,2.84,0,0,1-1.26-.93c-1.77-3.24,5.12-8.46,71.71-48.33,25.58-15.35,56.68-33.93,65.14-40.81-9.92,4.07-40.09,23.48-65,39.35-45.83,29.33-68,43-72.65,41.85a1.77,1.77,0,0,1-1.36-1c-2.09-3.65,8.77-11.27,68.37-48.12,23.59-14.61,52.09-32.25,60.64-39.25-10.33,4.7-40.08,23.49-64.61,38.94-46.65,29.33-61.58,38.3-64.92,37.47a2,2,0,0,1-1.15-.94c-1.56-2.92,3.34-6.68,59.18-40.5,25.06-15.13,55.53-33.61,63.57-40.5-9.5,4.07-38.31,22.34-62.1,37.37-42.49,26.93-56.37,35.17-59.4,34.34a1.72,1.72,0,0,1-1.14-.94c-.53-1-.32-2.09,2.61-4.49h-.73a2.34,2.34,0,0,1-1.36-.94c-1.57-2.92,3.44-7.3,53.34-40.5,15.34-10.23,33.29-22.13,42.9-29.33-5,3.34-13.78,8.35-28.6,16.49-4.49,2.82-9,5.75-13.36,8.46-35.49,22.55-47,29.43-49.9,28.7a2,2,0,0,1-1.15-.94c-.41-.83-.31-1.77,1.36-3.23h0a2.12,2.12,0,0,1-.21-1.36,3,3,0,0,1,1.05-1.46h0c-1.57-2.51,1.56-5.22,38.09-29.43,10.44-6.89,22.55-14.93,29.65-20.05-7.62,4.28-19.63,11.9-29.12,18-24,15.24-28.6,17.85-30.27,17.43a2,2,0,0,1-1-.73c-1.15-1.88-.52-2.92,24.53-20.36-10.23,6.48-10.85,6.58-11.79,6.27a1.55,1.55,0,0,1-.94-1.05c-.63-1.25-.73-1.46,11.48-10a1.57,1.57,0,0,1,.73-2c.31-.1.63-.21.83-.1.84-.42,2.93-1.78,4.18-2.61,3.76-2.51,4.59-3.14,5.64-2a1.35,1.35,0,0,1,.41,1.26v.1c10.75-6.79,12.84-7.62,14.09-7.31a2.1,2.1,0,0,1,1,.84c.83,1.77.94,2-21.92,17.85-4.18,2.81-8.87,6.16-13.15,9.18,4.59-2.82,9.7-6,14.61-9.18,27.14-17.12,35.91-22.44,38.41-21.82a2.36,2.36,0,0,1,1.15.84c1.25,2.5-1.57,5-36.74,28.18-10.54,7-22.86,15.13-30.38,20.56,2.72-1.56,5.95-3.44,9.92-5.74,7.2-4.38,15.55-9.71,23.07-14.51,34.86-22.13,47-29.33,50.2-28.6a2.27,2.27,0,0,1,1.26.94s0,.11.1.11a3.67,3.67,0,0,1,1.78-.11,3.3,3.3,0,0,1,1,.73,5.06,5.06,0,0,1,2.3-.31,2.68,2.68,0,0,1,1.25.83c1.67,2.72-2.51,6.37-50.63,38.31-19.72,13.15-43.63,29-50.52,35.18,9.29-3.87,37.79-22,59.29-35.81,14.2-9.08,27.66-17.64,38.1-23.9,17.54-10.54,19.21-10,20.25-8.35a2.42,2.42,0,0,1,.21,1.46,7.22,7.22,0,0,1-.42.84,8.5,8.5,0,0,1,3.65-.73,1.92,1.92,0,0,1,1.26.94c1.77,3.34-5.85,9.08-66.7,45.92-19.83,12-43.63,26.41-53.44,33.51,11.17-5.85,36.22-21.61,57.09-34.76,45.93-28.91,66.28-41.44,70.25-40.39a2.21,2.21,0,0,1,1.25.94c1.88,3.44-7.72,10.12-64.19,45.09-26.72,16.49-59.39,36.74-66.07,43.31,8.76-2.92,41.64-24,68.47-41.12,44.36-28.39,65.65-41.65,70.14-40.6a2.33,2.33,0,0,1,1.36.94c1.77,3.13-4.28,7.72-68.47,46.13-26.52,15.87-58.56,35.07-68,42.48,10.75-5,42-24.63,67.74-40.81,48-30.27,69.62-43.42,73.48-42.38a2.9,2.9,0,0,1,1.25.94c.84,1.46-.21,3.45-8.45,9,6.37-3.45,10.23-4.91,11.79-4.49a2,2,0,0,1,1.36,1c1.15,2.2-2.71,6.06-19.21,16.6,13.37-8,20.15-11.38,22.24-10.75a2.43,2.43,0,0,1,1.25,1c.52.94.1,2.2-2.3,4.39a8.13,8.13,0,0,1,3.55-.73,2.41,2.41,0,0,1,1.26,1c1.77,3.55-9.5,11.38-71.09,49.16-28.28,17.33-62.83,38.62-70,45.41,9.61-3.24,45.41-26,74.74-44.68,45.51-28.91,65.86-41.43,69.83-40.39a2.43,2.43,0,0,1,1.25,1,2.82,2.82,0,0,1,.21,1.57c-1.15,4.59-23.9,18.58-71.81,47.18-27.14,16.18-60.23,35.9-67.64,42.69,9.19-3.55,40.5-23.59,66.18-40,47.49-30.27,70.35-44.36,75.05-43.21a1.77,1.77,0,0,1,1.35,1c1.78,3.24-5,8.46-70.87,47.91-13.47,8.14-28.5,17.12-40.92,24.74,8.67-4.8,18.79-10.33,29.23-16,4.28-2.71,8.56-5.43,12.63-8,44.78-28.49,66.38-41.85,70.66-40.7a2.49,2.49,0,0,1,1.36.93,2.12,2.12,0,0,1,.21,1.36l.21.21A2.66,2.66,0,0,1,1446,921c-.32,1.25-2.72,3.34-7.41,6.57,3.54-1.77,5.53-2.4,6.47-2.19a2,2,0,0,1,1.14.94c1.57,2.92-3.23,6.68-57.72,40.39-24,14.93-56,34.76-63.67,41.65,9.19-3.65,39-22.65,61.59-36.95,52.6-33.4,58.34-36.11,60.12-33.19s-2.92,6.89-53.65,39.66c-20.57,13.26-45.41,29.33-52.92,35.91,8.24-4,29.33-17.43,46.76-28.6,35.59-22.86,52.92-33.51,56.47-32.57a2.48,2.48,0,0,1,1.35.94c1.67,2.72-2.5,6.27-47.17,34.55-16.18,10.23-35.6,22.55-43,28.39,1-.52,2.4-1.25,3.76-2,3.55-2.3,9.08-5.64,17.43-10.44,7.2-4.49,15-9.5,21.82-13.78,30.37-19.31,39.45-24.94,42.06-24.32a1.88,1.88,0,0,1,1.15.84c.52.94.42,1.88-1.46,3.55.1.1.21.21.21.31,1,1.78.52,2.71-24.43,22.86-8.35,6.78-19,15.34-24.32,20.35,4.07-2.4,10-6.36,14.51-9.29,14.4-9.6,15.86-10.33,17.22-8.56.94,1.88.32,2.2-9.6,9a16,16,0,0,1-1.36.94v.11a1.49,1.49,0,0,1-.73,2.08,1.88,1.88,0,0,1-.83.21c-.63.31-2,1.36-2.93,2-3.75,2.72-5.53,4-7,2.61a1.51,1.51,0,0,1-.42-.94c-8.45,5.54-12,7.42-13.78,7a2.7,2.7,0,0,1-1.25-.84c-1.35-2-.52-3.44,28.39-26.93,6.89-5.53,14.93-12,19.63-16.18-4,2.51-9.81,5.95-18.06,10.65-6.16,3.86-12.74,8-18.79,11.9C1367.68,1015.08,1357.77,1021,1354.63,1021Zm39.77-67c-4.17,2.51-8.76,5.12-13.57,7.83-26.2,15.13-58,33.61-66.07,40.29,10.13-4.07,43.74-25.36,69-41.44C1387.62,958.4,1391.17,956.21,1394.4,954Zm-38.2-21c-27,15.34-59.08,33.51-67.43,40.29C1298.48,969.36,1329.06,950.16,1356.2,933Zm36.12-28.81c-10.55,6.37-23.8,14.2-40.5,24-26.41,15.45-58.56,34.34-66.18,40.81,10.33-3.55,48.64-28,77.24-46.13C1374.36,915.61,1384.07,909.45,1392.32,904.23Zm-12.84,54.59c-2.4,1.57-4.8,3-7.1,4.49a.54.54,0,0,1-.42.21c2.4-1.36,4.91-2.82,7.41-4.28l10.75-6.16C1386.68,954.86,1383.13,956.84,1379.48,958.82Zm-13.36-48.33c-3.76,2.2-7.83,4.6-12.11,7-28.08,16.28-62.32,36.22-70.88,43.32,10-4.28,41.86-24.43,68.06-40.92C1356.41,916.65,1361.42,913.42,1366.12,910.49ZM1310.9,903c-12.42,7.2-23.9,14-30.48,18.37C1287.31,917.59,1298.79,910.6,1310.9,903Zm116.17-15.66c-8.66,4.07-30.47,17.75-52.29,31.63C1397.33,906.11,1419.56,893.17,1427.07,887.32Zm-9.18-12.11c-11.07,5.22-41.86,24.64-67.33,40.61-.94.62-1.87,1.25-2.81,1.77,1.56-.94,3.13-1.88,4.8-2.82C1377.7,900.27,1408.29,882.52,1417.89,875.21Zm-30.27-20.77c-7.31,3.87-20.67,12.11-34.45,20.88C1367.58,867,1380.94,859,1387.62,854.44Z"/><path class="cls-3" d="M1360,891.29c13.15,0,14.82,0,19.93.42a24.14,24.14,0,0,1,9.29,1.67,16.57,16.57,0,0,1,9.29,9.29,22.83,22.83,0,0,1,1.67,9.29c.42,5.11.42,6.78.42,20.35,0,13.15,0,14.82-.42,19.94a24.21,24.21,0,0,1-1.67,9.29,16.57,16.57,0,0,1-9.29,9.29,23,23,0,0,1-9.29,1.67c-5.11.41-6.78.41-19.93.41s-14.82,0-20.36-.41a24.4,24.4,0,0,1-9.29-1.67,12.42,12.42,0,0,1-5.53-3.87,18.23,18.23,0,0,1-3.86-5.53,23,23,0,0,1-1.67-9.29c0-5.11-.42-6.78-.42-19.93s0-14.83.42-20.36a24.36,24.36,0,0,1,1.67-9.29,12.42,12.42,0,0,1,3.86-5.53,18.35,18.35,0,0,1,5.53-3.86,23,23,0,0,1,9.29-1.67c5-.21,6.68-.21,20.36-.21m0-9c-13.57,0-15.24,0-20.77.42a37.28,37.28,0,0,0-11.9,2.09,24.43,24.43,0,0,0-8.87,5.95,25.4,25.4,0,0,0-6,8.87,39.44,39.44,0,0,0-2.09,11.9v41.54a37.28,37.28,0,0,0,2.09,11.9,24.43,24.43,0,0,0,6,8.87,25.4,25.4,0,0,0,8.87,5.95,39.38,39.38,0,0,0,11.9,2.09c5.11.42,7.2.42,20.77.42s15.24,0,20.77-.42a42.13,42.13,0,0,0,12.32-2.09,24.6,24.6,0,0,0,8.87-5.95,19.91,19.91,0,0,0,5.53-8.87,39.75,39.75,0,0,0,2.09-11.9c.42-5.11.42-7.2.42-20.77s0-15.24-.42-20.77a37.56,37.56,0,0,0-2.09-11.9,30.17,30.17,0,0,0-5.53-8.87,25.49,25.49,0,0,0-8.87-5.95,40,40,0,0,0-12.32-2.09c-5.53,0-7.2-.42-20.77-.42"/><path class="cls-3" d="M1360,906.53a25.89,25.89,0,1,0,25.88,25.88A26.08,26.08,0,0,0,1360,906.53m0,42.48a16.6,16.6,0,1,1,16.59-16.6h0A16.76,16.76,0,0,1,1360,949h0"/><path class="cls-3" d="M1392.63,905.69a6,6,0,1,1-6-6h0a6.09,6.09,0,0,1,6,6h0"/><path class="cls-6" d="M1739.27,696.93h-73a2.09,2.09,0,1,1,0-4.17h73a2.09,2.09,0,1,1,0,4.17Z"/><path class="cls-6" d="M1739.27,712.17h-73a2.09,2.09,0,1,1,0-4.17h73a2.09,2.09,0,1,1,0,4.17Z"/><path class="cls-6" d="M1739.27,727h-73a2.09,2.09,0,1,1,0-4.18h73a2.09,2.09,0,0,1,0,4.18Z"/><path class="cls-6" d="M1739.27,742.34h-73a2.09,2.09,0,1,1,0-4.18h73a2.09,2.09,0,0,1,0,4.18Z"/><path class="cls-6" d="M1653.16,521.26H1432.08a2.09,2.09,0,0,1,0-4.17h221.08a2.09,2.09,0,1,1,0,4.17Z"/><path class="cls-6" d="M1408.7,834.4a2.09,2.09,0,0,1-1.46-.62,2.15,2.15,0,0,1,0-3l63.26-63.25a2.14,2.14,0,0,1,3,3l-63.25,63.26A2.53,2.53,0,0,1,1408.7,834.4Z"/><path class="cls-6" d="M1810.15,815.3a2.1,2.1,0,0,1-2.09-2.09V652a2.09,2.09,0,1,1,4.17,0V813.21A2.09,2.09,0,0,1,1810.15,815.3Z"/><path class="cls-6" d="M1558.9,913.73h-73a2.09,2.09,0,0,1,0-4.17h73a2.09,2.09,0,1,1,0,4.17Z"/><path class="cls-6" d="M1558.9,929h-73a2.09,2.09,0,0,1,0-4.18h73a2.09,2.09,0,0,1,0,4.18Z"/><path class="cls-6" d="M1558.9,943.9h-73a2.09,2.09,0,0,1,0-4.18h73a2.09,2.09,0,0,1,0,4.18Z"/><path class="cls-6" d="M1558.9,959.14h-73a2.09,2.09,0,0,1,0-4.18h73a2.09,2.09,0,0,1,0,4.18Z"/><path class="cls-6" d="M1346.28,658.31h-73a2.09,2.09,0,0,1,0-4.17h73a2.1,2.1,0,0,1,2.09,2.09A2,2,0,0,1,1346.28,658.31Z"/><path class="cls-6" d="M1346.28,673.55h-73a2.09,2.09,0,0,1,0-4.17h73a2.1,2.1,0,0,1,2.09,2.09A2,2,0,0,1,1346.28,673.55Z"/><path class="cls-6" d="M1346.28,688.38h-73a2.09,2.09,0,0,1,0-4.18h73a2.1,2.1,0,0,1,2.09,2.09A2,2,0,0,1,1346.28,688.38Z"/><path class="cls-6" d="M1346.28,703.72h-73a2.09,2.09,0,0,1,0-4.18h73a2.1,2.1,0,0,1,2.09,2.09A2,2,0,0,1,1346.28,703.72Z"/><path class="cls-6" d="M1689.59,548.82h-73a2.09,2.09,0,1,1,0-4.17h73a2.09,2.09,0,0,1,2.09,2.08A2,2,0,0,1,1689.59,548.82Z"/><path class="cls-6" d="M1689.59,564.06h-73a2.09,2.09,0,0,1,0-4.18h73a2.1,2.1,0,0,1,2.09,2.09A2,2,0,0,1,1689.59,564.06Z"/><path class="cls-6" d="M1689.59,579h-73a2.09,2.09,0,0,1,0-4.18h73a2.1,2.1,0,0,1,2.09,2.09A2,2,0,0,1,1689.59,579Z"/><path class="cls-6" d="M1689.59,594.23h-73a2.09,2.09,0,0,1,0-4.18h73a2.1,2.1,0,0,1,2.09,2.09A2,2,0,0,1,1689.59,594.23Z"/><path class="cls-6" d="M1707,941.7h-73a2.09,2.09,0,1,1,0-4.17h73a2.09,2.09,0,1,1,0,4.17Z"/><path class="cls-6" d="M1707,957.05h-73a2.09,2.09,0,1,1,0-4.18h73a2.09,2.09,0,0,1,0,4.18Z"/><path class="cls-6" d="M1707,971.87h-73a2.09,2.09,0,1,1,0-4.18h73a2.09,2.09,0,0,1,0,4.18Z"/><path class="cls-6" d="M1707,986.69h-73a2.09,2.09,0,1,1,0-4.17h73a2.09,2.09,0,1,1,0,4.17Z"/><polygon class="cls-4" points="1659.94 808.93 1597.53 813.21 1597.53 879.39 1666.31 875.11 1659.94 808.93"/><path class="cls-5" d="M1596.48,880.54V812.27l64.4-4.38,6.58,68.26Zm2.09-66.39v64.09l66.49-4.07-6.16-64.09Z"/><path class="cls-6" d="M1609.84,834.4a2.07,2.07,0,0,1-2.09-2,2.2,2.2,0,0,1,2-2.3L1650,827.2a2.15,2.15,0,0,1,.31,4.28l-40.29,2.92Z"/><path class="cls-6" d="M1608.59,851.42a2.1,2.1,0,0,1-2.09-2.09,2.12,2.12,0,0,1,2.09-2.19l42.9-1.26a2.14,2.14,0,0,1,.1,4.28l-43,1.26Z"/><polygon class="cls-4" points="1416.32 587.02 1354.01 591.3 1354.01 657.48 1422.69 653.2 1416.32 587.02"/><path class="cls-5" d="M1352.86,658.63V590.36l64.4-4.38,6.58,68.26Zm2.19-66.39v64.09l66.49-4.07-6.16-64.09Z"/><path class="cls-6" d="M1366.74,612.07a2,2,0,0,1-2.08-2,2.19,2.19,0,0,1,2-2.3l39.87-2.5a2.15,2.15,0,1,1,.31,4.28l-39.87,2.5Z"/><path class="cls-6" d="M1365,629.4a2.1,2.1,0,0,1-2.09-2.09,2.12,2.12,0,0,1,2.09-2.19l42.9-1.67h.1a2.1,2.1,0,0,1,2.09,2.09,2.12,2.12,0,0,1-2.09,2.19l-43,1.67Z"/><polygon class="cls-4" points="1309.02 778.77 1246.6 783.05 1246.6 849.64 1315.39 845.47 1309.02 778.77"/><path class="cls-5" d="M1245.56,850.79V782l64.4-4.38,6.58,68.79Zm2.09-66.7V848.6l66.49-4.07L1308,780Z"/><path class="cls-6" d="M1258.92,804.24a2.08,2.08,0,0,1-2.09-2,2.19,2.19,0,0,1,2-2.29l40.3-2.93a2.15,2.15,0,0,1,.31,4.28l-40.29,2.93Z"/><path class="cls-6" d="M1257.67,821.25a2.14,2.14,0,0,1,0-4.28l42.9-1.25a2.19,2.19,0,0,1,2.19,2.09,2.12,2.12,0,0,1-2.09,2.19l-43,1.25Z"/><g id="freepik--Character--inject-2"><path class="cls-3" d="M1222,926.05s11.9,21.6,11.9,31-54.7,127.76-55.64,131.52,6,25.46,2.09,40.7c-3.86,15.66-18.68,32.26-18.68,32.26L1143,1081.78a49.27,49.27,0,0,0,10.65-48.85c-9.81-28.39-9.81-88.72-9.81-88.72Z"/><path class="cls-6" d="M1161.74,1163.72a.89.89,0,0,1-.52-.11,2.34,2.34,0,0,1-1.57-1.56L1141,1082.3a2,2,0,0,1,.52-2,47,47,0,0,0,10.13-46.66c-9.71-28.39-9.81-86.84-9.81-89.35a2.21,2.21,0,0,1,1.67-2.08L1221.55,924a2,2,0,0,1,2.3,1c.52.94,12.11,22.24,12.11,32,0,6.36-20.15,52-42.59,102.19-6.79,15.23-12.74,28.39-13.15,29.85-.21.83.41,4.49,1,7.72,1.46,8.87,3.76,22.34,1.15,33-3.86,16.07-18.58,32.46-19.1,33.19A2.22,2.22,0,0,1,1161.74,1163.72Zm-16.39-81.31,17.44,74.52c4.38-5.53,12.83-17.11,15.55-28.07,2.5-9.92.31-22.76-1.15-31.32-.94-5.22-1.36-7.83-.94-9.39.31-1.25,3.65-9,13.36-30.58,14.72-33,42.17-94.47,42.17-100.42,0-6.68-7.2-21.71-10.86-28.49l-74.83,17.53c.1,9.92,1,61.17,9.6,86.32A50.83,50.83,0,0,1,1145.35,1082.41Z"/><path class="cls-3" d="M1127.82,1814.21s-4.7,49.68-.84,52.19c3.87,2.92,23.8,2.5,37.37,0,18.69-3.44,28.81.83,42.48.83s42.9,3.87,45.83-2.5c5.95-11.9-29.75-23.38-49.27-35.18-19.52-11.48-37.79-21.6-37.79-21.6Z"/><path class="cls-6" d="M1141.18,1870.58c-7.1,0-13.15-.74-15.55-2.51-3.13-2.09-3.13-20.25,0-54.07a2.1,2.1,0,0,1,1.77-1.88l37.79-6.36a2,2,0,0,1,1.35.2c.21.11,18.48,10.34,37.79,21.72,5.53,3.34,12.52,6.78,19.2,10,14.72,7.2,28.71,14,31.32,21.71a7.7,7.7,0,0,1-.42,6.26c-2.61,5.53-15.66,5.32-35.18,4.17-4.69-.2-9.18-.52-12.52-.52a114.18,114.18,0,0,1-13.78-1c-8.14-.94-16.49-2-28.29.21A136.59,136.59,0,0,1,1141.18,1870.58ZM1129.8,1816c-2,22-3,46-1.36,48.85,2.51,1.88,21,2.09,35.49-.62,12.42-2.3,21.19-1.25,29.54-.21a112.16,112.16,0,0,0,13.26,1c3.44,0,8,.21,12.73.52,10.34.53,29.54,1.67,31.21-1.87a3.67,3.67,0,0,0,.21-3.14c-2.09-6-16.39-13-29.12-19.2-6.78-3.34-13.88-6.79-19.52-10.23-17.22-10.13-33.61-19.31-37-21.19Z"/><path class="cls-6" d="M979.7,1072.07s-17.43,93.32-18.68,111.17-49.68,610.62-49.68,610.62l45,3.86,112-562.29,7.62-1.67,51.77,580.45,42-7.62,2.09-639.84L1159,1070.4Z"/><path class="cls-6" d="M1127.82,1816.3a1.82,1.82,0,0,1-1.25-.42,2.11,2.11,0,0,1-.84-1.46l-51.56-578.05-4,.83L958.41,1798.14a2.1,2.1,0,0,1-2.3,1.67l-45-3.87a2.26,2.26,0,0,1-2-2.29c.53-6,48.44-593,49.69-610.62s17.95-107.62,18.68-111.37a2.13,2.13,0,0,1,2.09-1.78l179.53-1.67a2.06,2.06,0,0,1,2.09,1.88l12.73,96.34-2.08,640.16a2.13,2.13,0,0,1-1.78,2.09l-42,7.62Zm-51.77-584.73a2,2,0,0,1,1.25.41,1.85,1.85,0,0,1,.83,1.57l51.57,578.16,38-6.89,2.09-638.18-12.42-94.15-175.88,1.67c-2.4,12.84-17.12,93-18.37,109.18-1.25,17.12-46.35,569.7-49.48,608.53l41,3.45,111.69-560.41a2.24,2.24,0,0,1,1.67-1.67l7.62-1.67Z"/><path class="cls-4" d="M1024.27,774.18S946.2,757.58,927.93,753c-18.68-4.7-23.8,39-29.33,53.44s-61.48,115.86-57.3,123.9C845.16,938,860,958.72,889.21,938c29.33-20.36,46.66-54.7,46.66-54.7s39,109.91,40.7,122.65c2.09,12.73-5.11,65.34,0,76s53.45,17.43,93.32,16.59,83.61-1.67,89.56-16.59-.84-122.65-.84-122.65,60.23-10.65,70-25.47c9.81-14.4-11.48-35.17-31-73-19.1-38.2-24.22-83.61-39-92.48S1048.7,776,1040.24,776A76.37,76.37,0,0,1,1024.27,774.18Z"/><path class="cls-5" d="M1063.21,1099.42c-38.73,0-82.36-6.68-87.47-17.22-3.13-6.47-1.88-26.51-.73-45.82.73-13,1.46-25.16.62-30.38-1.56-11.48-34.34-104.48-39.87-120.24-4.38,7.83-20.88,35.59-45.82,53-11.07,7.83-21.3,10.65-30.27,8.46-11.59-2.93-17.64-13.36-19.21-16.5-2.92-5.53,15.55-42.37,40-90,8.35-16.18,15.55-30.27,17.22-34.86,1.25-3.34,2.51-8.14,4-13.78,4.8-18.69,11.27-44.15,26.62-40.29,18,4.59,95.5,21.08,96.23,21.19h0a68.47,68.47,0,0,0,15.87,1.67c2,0,9.6-1.05,19.31-2.4,42.59-5.85,89-11.49,99.68-5.12,8.77,5.22,14,21.92,20.67,42.9,4.9,15.76,10.54,33.51,18.79,50,6,11.69,12.21,21.71,17.64,30.48,12.31,19.93,20.35,33.09,13.25,43.52-9.29,14.2-61.79,24.32-69.72,25.79.73,11.37,6.47,107.82.73,122.12-6.16,15.45-48.64,16.28-89.77,17.22h-.73C1067.8,1099.42,1065.5,1099.42,1063.21,1099.42Zm-127-218.88.83,2.29c1.57,4.49,39.15,110.12,40.82,122.86.94,5.32.1,17.74-.63,30.79-1,18.27-2.3,38.83.52,44.78,4.39,9.08,49.27,16.91,92.38,16h.73c38.51-.84,82.25-1.78,87.88-15.87,5.75-14.51-.83-121.08-.93-122.12l-.11-.94.94-.21c.63-.1,59.91-10.64,69.31-24.94,6.37-9.4-1.46-22.13-13.36-41.23-5.43-8.88-11.69-18.9-17.75-30.69-8.35-16.6-14-34.55-19-50.31-6.27-19.84-11.59-36.85-19.73-41.75-10.86-6.58-67.74,1.25-98.22,5.42-10.13,1.36-17.43,2.4-19.63,2.4a73.1,73.1,0,0,1-16.38-1.67c-1.36-.31-78.39-16.59-96.35-21.19-13.25-3.34-19.51,21-24,38.83-1.46,5.64-2.72,10.55-4,14-1.77,4.7-8.66,18.06-17.33,35.07-16,31-42.58,83-40,88,1.46,2.93,7.09,12.63,17.85,15.35,8.45,2.08,18-.63,28.6-8.14,28.7-19.94,46.13-54,46.34-54.39Z"/><polygon class="cls-6" points="1039.1 800.48 1052.67 835.24 1033.98 1048.69 1078.97 1124.68 1105.27 1036.79 1066.23 832.32 1087.95 790.67 1058.62 777.93 1036.17 795.36 1039.1 800.48"/><path class="cls-6" d="M1079,1126.77a2.34,2.34,0,0,1-1.88-1l-45-76a2.79,2.79,0,0,1-.31-1.26l18.58-212.93L1037,801.42l-2.92-4.91a2.07,2.07,0,0,1,.52-2.71l22.44-17.43a2.38,2.38,0,0,1,2.19-.32l29.33,12.74a2.28,2.28,0,0,1,1.15,1.25,2.36,2.36,0,0,1-.1,1.67l-21.3,40.92,38.94,203.85a1.78,1.78,0,0,1-.11,1l-26.3,87.89a2,2,0,0,1-1.78,1.46C1079.18,1126.77,1079.07,1126.77,1079,1126.77Zm-42.8-78.6,42.17,71.19,24.74-82.67-38.93-204.06a2.05,2.05,0,0,1,.21-1.36l20.56-39.56-26-11.27-20,15.45,2,3.44a.37.37,0,0,1,.11.31l13.56,34.76a1.48,1.48,0,0,1,.11.94Z"/><path class="cls-4" d="M1003.09,768.23l-2.93,62.41,65.34-32.25,57.31,33.92L1091.39,767a105,105,0,0,0-47.49-12.73C1029,754.24,1014.46,758.83,1003.09,768.23Z"/><path class="cls-5" d="M1125.21,834.92l-59.81-35.48-66.49,32.77,3-64.61.41-.31c11.28-9.19,26-14.2,41.44-14.2a105.72,105.72,0,0,1,48,12.84l.31.21.11.31Zm-59.71-37.78,54.8,32.46-29.74-61.9a103.3,103.3,0,0,0-46.77-12.42,63.63,63.63,0,0,0-39.66,13.47l-2.82,60.12Z"/><path class="cls-3" d="M1016.65,699.86a273.5,273.5,0,0,1,2.93,49.68c-.84,27.14,2.92,21.61,15.24,42,12.73,20.36,21.19,28.39,32.25,16.6,10.65-11.9,10.65-36.12,12.73-40.71s3.87-61.48,3.87-61.48S1070.1,715.62,1016.65,699.86Z"/><path class="cls-6" d="M1057.15,815.72h-1c-7.72-.73-14.51-9.4-23.07-23.07a116.72,116.72,0,0,0-8.14-11.9c-6.05-8-8.14-10.75-7.41-31.31a279.66,279.66,0,0,0-2.92-49.27,1.84,1.84,0,0,1,.73-1.88,2,2,0,0,1,2-.42c51.15,15,65.13,6.37,65.24,6.27a2.09,2.09,0,0,1,2.19-.11,2.21,2.21,0,0,1,1.15,1.88c-.32,9.6-1.78,57.51-4,62.32-.52,1-.94,4.17-1.46,7.51-1.46,9.92-3.65,24.84-11.69,33.72C1064.77,813.74,1061,815.72,1057.15,815.72Zm-38-112.84a284,284,0,0,1,2.5,46.77c-.62,19,.94,21.08,6.58,28.6a121.87,121.87,0,0,1,8.35,12.21c6.58,10.54,13.57,20.46,19.83,21,2.82.21,5.74-1.36,9-4.8,7.1-7.94,9.19-22.13,10.54-31.53.63-4.07,1-7,1.78-8.66,1.25-2.82,2.71-31.1,3.55-57.41C1074.79,711.23,1057.36,713.64,1019.16,702.88Z"/><path class="cls-3" d="M1086.59,585.35A268.45,268.45,0,0,1,1099.32,663c0,42.9,0,56.89-14.4,64.51s-36.12,8.45-49.27,0a175.4,175.4,0,0,1-37-29.33c-9.29-10.23-34.34-41.13-37.78-62s37-47.5,70.45-61.07A50.23,50.23,0,0,1,1086.59,585.35Z"/><path class="cls-6" d="M1059.35,735.66c-9.19,0-18.06-2.19-24.74-6.47a178.23,178.23,0,0,1-37.27-29.54c-9.49-10.33-34.86-41.86-38.3-63-3.86-23.59,40.81-50.83,71.71-63.46a52.29,52.29,0,0,1,57.4,10.65,2.37,2.37,0,0,1,.53.83,270.52,270.52,0,0,1,12.84,78.29c0,43.52,0,58.14-15.56,66.38A57.46,57.46,0,0,1,1059.35,735.66Zm-7.83-162.52a47.89,47.89,0,0,0-19.21,4c-36.32,14.71-72.12,40.71-69.2,58.76,3.34,20.25,28,50.84,37.26,60.86a173.66,173.66,0,0,0,36.43,28.91c11.9,7.72,32.57,7.62,47.18,0,13.26-7,13.26-19.94,13.26-62.63a265.57,265.57,0,0,0-12.43-76.51A48.19,48.19,0,0,0,1051.52,573.14Z"/><path class="cls-6" d="M1043.79,640.47c.84,4.69-.41,9.29-2.92,9.81s-5.11-2.93-6.37-8,.42-9.29,2.93-9.81S1042.54,635.77,1043.79,640.47Z"/><path class="cls-6" d="M1074.38,630.34a2,2,0,0,1-1.26-.42,2.14,2.14,0,0,1-.52-2.92,13.13,13.13,0,0,1,15.24-5,2.11,2.11,0,0,1-1.46,4,8.72,8.72,0,0,0-10.23,3.44A2.32,2.32,0,0,1,1074.38,630.34Z"/><path class="cls-6" d="M1074.38,688.38a2.21,2.21,0,0,1-1.78-.94,2.15,2.15,0,0,1,.52-2.93l13.57-9.29a2.1,2.1,0,1,1,2.4,3.45L1075.52,688A1.57,1.57,0,0,1,1074.38,688.38Z"/><path class="cls-6" d="M1021.25,630.24a1.28,1.28,0,0,1-.63-.11,2.09,2.09,0,0,1-1.46-2.61,18,18,0,0,1,8.14-9.81c4.8-2.71,10.86-3,17.85-.94a2.11,2.11,0,1,1-1.15,4.07c-16.7-4.8-20.56,7.41-20.67,7.94A2.13,2.13,0,0,1,1021.25,630.24Z"/><path class="cls-6" d="M1062.48,618.86h-.32a2.11,2.11,0,0,1-1.87-2.3c0-.1,1.67-12.52,17.84-12.52a2.09,2.09,0,1,1,0,4.17c-12.21,0-13.57,8.35-13.57,8.77A2.13,2.13,0,0,1,1062.48,618.86Z"/><path class="cls-6" d="M1065,675.75a2.06,2.06,0,0,1-1.77-.94,2.14,2.14,0,0,1,.52-2.93c8.56-5.74,16.07-12.31,16.49-14.19,0-2.51-8.24-17.33-15.86-29.65a2.13,2.13,0,1,1,3.65-2.19c5.11,8.25,16.91,27.87,16.39,32.26-.53,4.69-13,13.67-18.37,17.22A1.6,1.6,0,0,1,1065,675.75Z"/><path class="cls-6" d="M986.07,676.58c5.12-1.67,8-6.37,7.62-11.9,0-10.23-5.11-15.66-5.11-30.16s44.57-36.95,67-34.34,43.73,2.5,56.05-10.23c12.73-12.74,14.82-26.73,10.23-25.89a88.76,88.76,0,0,0-17.43,6.78,63.47,63.47,0,0,0-10.23-50.93c-17.43-25-21.61-8.46-19.1-4.28S1085.34,539,1085.34,539s-27.56-20.77-45-19.1-73.8,26.72-86.95,46.24c-13.57,19.1-14.4,49.26-11.06,66.17,3.44,16.6,13.57,18.27,13.57,18.27L978.35,679Z"/><path class="cls-6" d="M978.45,681.17a2.19,2.19,0,0,1-1.67-.83l-22-27.77c-2.82-.83-11.38-4.59-14.41-19.72-3.23-16.29-2.92-47.81,11.38-67.85,13.57-20,69.93-45.3,88.51-47.18,13.16-1.25,31.21,9.29,40.5,15.34-2.4-5.84-5.84-13.88-7.3-16.38-1.67-2.82-1.26-9.19,2.4-11.59,5-3.24,11.79,1.36,20.25,13.47A64.84,64.84,0,0,1,1107.36,567a89.65,89.65,0,0,1,14-5,3.8,3.8,0,0,1,4.28,2c2.4,4.69-2.09,17.11-12.42,27.45-13.26,13.67-35.6,13.25-57.73,10.75-16.49-1.88-45.09,10.44-57.82,21.81-4.39,4-6.79,7.62-6.79,10.44,0,7.52,1.46,12.42,2.82,17.22,1.15,4.08,2.3,7.94,2.3,13a13.09,13.09,0,0,1-9.08,13.88l-7.62,2.5A1.59,1.59,0,0,1,978.45,681.17ZM1042.54,522a11.85,11.85,0,0,0-1.88.1c-17.53,1.67-72.75,26.41-85.38,45.3-13.57,19-13.78,49.06-10.75,64.61,3,14.72,11.48,16.49,11.9,16.6a2.41,2.41,0,0,1,1.25.73l21.61,27.24,6.26-2.09a8.89,8.89,0,0,0,6.16-9.7c0-4.49-1.05-7.94-2.09-11.9a61.16,61.16,0,0,1-2.92-18.37c0-4.18,2.82-8.67,8.24-13.57,13.68-12.22,43.32-24.85,61.17-22.86,21.08,2.4,42.27,2.92,54.28-9.5,10-10,12.52-19.83,11.79-22.23a84.76,84.76,0,0,0-16.49,6.47,2.06,2.06,0,0,1-2.3-.21,2.46,2.46,0,0,1-.83-2.19c3.76-17.64.31-35.07-9.81-49.27-8.25-11.79-13-13.36-14.41-12.42s-1.77,4.7-1.15,5.84c2.61,4.39,10,22.86,10.34,23.7a2.18,2.18,0,0,1-.73,2.5,2,2,0,0,1-2.61,0C1083.87,540.57,1058.93,522,1042.54,522Z"/><path class="cls-7" d="M955.91,633.68h-.21a2.1,2.1,0,0,1-1.88-2.3c.1-1.14,3.44-27.76,29-36.53,24.52-8.56,46.76-8.56,77.45-8.56,6.78,0,15-1.56,15.55-9.08s-7.2-17.33-12.95-18.16a2.11,2.11,0,0,1,.63-4.18c8.46,1.15,17.22,13.26,16.6,22.65-.32,4.81-3.34,13-19.83,13-30.38,0-52.3,0-76.1,8.35-23.07,7.93-26.2,32.77-26.2,33A2.05,2.05,0,0,1,955.91,633.68Z"/><path class="cls-7" d="M953.82,598a1,1,0,0,1-.52-.1,2.05,2.05,0,0,1-1.57-2.51c.21-.94,5.95-23.69,52.5-25.78a2,2,0,0,1,2.2,2,2,2,0,0,1-2,2.19c-43,2-48.43,22.33-48.53,22.54A2.11,2.11,0,0,1,953.82,598Z"/><path class="cls-3" d="M998.81,684.62s-11.07-25.89-28.4-18.27c-17.43,7.2,1.67,42.9,19.94,42s20.77-11.9,20.77-11.9"/><path class="cls-6" d="M989.72,710.5c-12.31,0-24.73-14.3-27.66-27.55-2-9,.74-15.76,7.52-18.58a16.79,16.79,0,0,1,13.46-.31c11.07,4.38,17.44,19.1,17.75,19.72a2.15,2.15,0,0,1-4,1.67c-.1-.1-6-13.67-15.34-17.43a12.53,12.53,0,0,0-10.23.31c-6.47,2.72-6,9.82-5,13.78,2.5,11.38,13.78,24.64,24,24.22,16.28-.73,18.68-9.92,18.79-10.23a2.18,2.18,0,0,1,2.5-1.57,2.06,2.06,0,0,1,1.57,2.51c-.11.52-3.14,12.63-22.76,13.57A1.28,1.28,0,0,0,989.72,710.5Z"/><path class="cls-3" d="M1001.31,808.52s0-51.78,5.53-62,23-18.26,32.67-23.79c10.23-5.54,14.41,0,10.23,8a91.05,91.05,0,0,1-16.59,19.11s48.32-23,52.6-16.6c4.7,6.37,5.54,14.4,0,19.1a112.4,112.4,0,0,0-13.57,11.06c-2.5,3.87,2.51,31-2.5,39.88s-30.17,19.1-42.9,27.14-103.54,108.24-128.18,120-39,19.1-51.77,2.51-10.23-32.67,6.37-52.61C869.79,881.06,1001.31,808.52,1001.31,808.52Z"/><path class="cls-6" d="M864.26,965c-7.1,0-13.26-2.92-19.1-10.54-13.15-17-11.17-34.13,6.37-55.22,16-18.89,134-84.44,147.59-92,0-8.14.52-52,5.74-61.68,4.91-9.19,18.58-16.5,28.5-21.82,1.77-.94,3.54-1.88,5-2.71,8-4.39,11.79-1.88,13.15-.63,2.5,2.51,2.5,6.78,0,11.59a100.87,100.87,0,0,1-8.46,11.16c18.27-8,40.61-16.49,44.47-10.85,5.74,7.83,5.53,16.8-.42,21.92a119.1,119.1,0,0,0-13.26,10.65c-.62,1.46-.31,7.51-.1,12.31.42,10.13.94,21.5-2.3,27.25-3.75,6.57-16.49,13.25-28.7,19.72-5.53,2.93-10.86,5.64-14.82,8.25-4.59,2.92-20.88,19.52-39.77,38.62-32.46,33-73,74-88.51,81.52l-.84.42C884.93,959.66,873.86,965,864.26,965Zm182.35-242.26a13.22,13.22,0,0,0-6,2c-1.46.83-3.24,1.77-5,2.82-9.5,5.11-22.44,12.11-26.72,20.14s-5.22,46.66-5.22,61a2.21,2.21,0,0,1-1.15,1.88c-1.36.73-131.41,72.54-147.49,91.64-16.28,19.63-18.16,34.55-6.26,50,11.58,15,24.63,8.67,48.33-2.82l.83-.41c14.93-7.21,56.78-49.69,87.37-80.69,19.83-20.14,35.59-36.11,40.6-39.25,4.18-2.6,9.5-5.42,15.14-8.35,11.16-5.84,23.9-12.52,27-18,2.71-4.7,2.19-16.39,1.77-25s-.52-12.94.84-15A107.28,107.28,0,0,1,1084.71,751c4.8-4.07,3.13-11.17-.42-16.07-3.23-2.3-28.39,7-50,17.22a2.27,2.27,0,0,1-2.71-.73,2,2,0,0,1,.42-2.71A87.56,87.56,0,0,0,1048.18,730c1.67-3.13,1.56-5.53.62-6.36A2.42,2.42,0,0,0,1046.61,722.72Zm-45.3,85.8Z"/><path class="cls-3" d="M911.34,1793.44s-14.41,28.39-24.22,37.78c-9.81,9.82-29.75,29.33-27.56,33.93s93.74,0,93.74,0,7.62,3.44,5.11-19.52c-1.25-10.65-2.09-48.85-2.09-48.85Z"/><path class="cls-6" d="M888.16,1869.32c-28.91,0-30.06-2.4-30.47-3.34-2.2-4.9,7.09-15.55,26.4-34.65l1.67-1.67c9.4-9,23.7-37,23.8-37.26a2.09,2.09,0,0,1,2.09-1.15l45,3.44a2.15,2.15,0,0,1,2,2.09c0,.42.83,38.2,2.09,48.64,1.25,11.69.21,18.58-3.24,21.08a5,5,0,0,1-4.28.84C922.82,1868.8,902.26,1869.32,888.16,1869.32Zm-26.61-5.43c6.57,2.09,51.46,1.15,91.64-.83a1.53,1.53,0,0,1,.94.21,1.26,1.26,0,0,0,.63-.21c.73-.63,2.92-3.55,1.46-17.12-1.15-9.29-1.88-39.14-2.09-47.07l-41.65-3.13c-2.92,5.74-15.13,28.59-24,37l-1.57,1.57C880.86,1840.51,862.38,1858.88,861.55,1863.89Zm0,.42Z"/><path class="cls-3" d="M1158.82,959.14s.83-109.92-4.7-123.9"/><path class="cls-6" d="M1158.82,961.22h0a2.09,2.09,0,0,1-2.09-2.08c.31-37.89-.31-112.32-4.49-123.07a2.09,2.09,0,0,1,3.87-1.56c5.63,14.19,4.8,120.24,4.8,124.73A2.08,2.08,0,0,1,1158.82,961.22Z"/></g><g id="freepik--Chair--inject-2"><path class="cls-6" d="M378.9,1839.68a23.8,23.8,0,1,0-23.8,23.8,23.79,23.79,0,0,0,23.8-23.8Z"/><path class="cls-6" d="M355.1,1865.56A25.89,25.89,0,1,1,381,1839.68,25.88,25.88,0,0,1,355.1,1865.56Zm0-47.59a21.61,21.61,0,1,0,21.61,21.6A21.65,21.65,0,0,0,355.1,1818Z"/><circle class="cls-3" cx="355.1" cy="1839.68" r="11.9"/><path class="cls-6" d="M355.1,1853.67a14,14,0,1,1,14-14A14,14,0,0,1,355.1,1853.67Zm0-23.8a9.71,9.71,0,1,0,9.71,9.7A9.69,9.69,0,0,0,355.1,1829.87Z"/><path class="cls-6" d="M634.73,1839.68a23.8,23.8,0,1,0-23.8,23.8,23.79,23.79,0,0,0,23.8-23.8Z"/><path class="cls-6" d="M610.93,1865.56a25.89,25.89,0,1,1,25.89-25.88A25.87,25.87,0,0,1,610.93,1865.56Zm0-47.59a21.61,21.61,0,1,0,21.61,21.6A21.64,21.64,0,0,0,610.93,1818Z"/><path class="cls-3" d="M622.83,1839.68a11.63,11.63,0,0,0-11.9-11.9,11.9,11.9,0,0,0-11.9,11.9,11.64,11.64,0,0,0,11.9,11.9h0A12,12,0,0,0,622.83,1839.68Z"/><path class="cls-6" d="M610.93,1853.67a13.73,13.73,0,0,1-14-14,14,14,0,0,1,14-14,13.73,13.73,0,0,1,14,14A14,14,0,0,1,610.93,1853.67Zm0-23.8a9.68,9.68,0,0,0-9.7,9.7,9.37,9.37,0,0,0,9.7,9.71,9.77,9.77,0,0,0,9.81-9.71A9.46,9.46,0,0,0,610.93,1829.87Z"/><circle class="cls-6" cx="694.54" cy="1839.68" r="23.8"/><path class="cls-6" d="M694.54,1865.56a25.89,25.89,0,1,1,25.89-25.88A25.88,25.88,0,0,1,694.54,1865.56Zm0-47.59a21.61,21.61,0,1,0,21.61,21.6A21.65,21.65,0,0,0,694.54,1818Z"/><circle class="cls-3" cx="694.54" cy="1839.68" r="11.9"/><path class="cls-6" d="M694.54,1853.67a14,14,0,1,1,14-14A14,14,0,0,1,694.54,1853.67Zm0-23.8a9.71,9.71,0,1,0,9.71,9.7A9.69,9.69,0,0,0,694.54,1829.87Z"/><path class="cls-6" d="M523.57,1464.54h50.1v348H523.15l.42-348Z"/><path class="cls-6" d="M573.67,1814.63H523.15a1.89,1.89,0,0,1-1.46-.63,2.06,2.06,0,0,1-.63-1.46l.42-348a2.1,2.1,0,0,1,2.09-2.09h50.1a2.1,2.1,0,0,1,2.09,2.09v348A2.1,2.1,0,0,1,573.67,1814.63Zm-48.43-4.28h46.24V1466.63H525.65Z"/><rect class="cls-6" x="509.58" y="1629.56" width="77.24" height="182.45"/><path class="cls-6" d="M586.82,1814.21H509.58a2.1,2.1,0,0,1-2.09-2.09V1629.56a2.09,2.09,0,0,1,2.09-2.08h77.24a2.09,2.09,0,0,1,2.09,2.08V1812A2.12,2.12,0,0,1,586.82,1814.21Zm-75.15-4.28h73V1631.76h-73Z"/><path class="cls-6" d="M431.92,1282.08h65.34V1420.8H432.34l-.42-138.72Z"/><path class="cls-6" d="M497.26,1423H432.34a2.1,2.1,0,0,1-2.09-2.09l-.42-138.72a1.89,1.89,0,0,1,.63-1.46,2.06,2.06,0,0,1,1.46-.63h65.34a2.1,2.1,0,0,1,2.09,2.09V1420.8A2.19,2.19,0,0,1,497.26,1423Zm-62.83-4.28h60.64V1284.17H434Z"/><path class="cls-1" d="M592.25,1282.08H339.86a44.54,44.54,0,0,1-44.57-44.57v-.83l5.95-247a44.2,44.2,0,0,1,44.15-43.32H554.15a44.34,44.34,0,0,1,43.74,37.79l38.2,247a44.17,44.17,0,0,1-37,50.52C597,1281.67,594.86,1282.08,592.25,1282.08Z"/><path d="M592.25,1283.13H339.86a45.66,45.66,0,0,1-45.61-45.62v-.83l5.95-247a45.37,45.37,0,0,1,45.19-44.36H554.15A45.33,45.33,0,0,1,598.93,984l38.2,247a45.28,45.28,0,0,1-37.78,51.67,28,28,0,0,0-3.13.21A25.55,25.55,0,0,1,592.25,1283.13Zm-247-335.69a43.3,43.3,0,0,0-43.11,42.28l-5.95,247.79A43.57,43.57,0,0,0,339.76,1281H592.25c1.25,0,2.5-.1,3.65-.21s2.09-.21,3.24-.21a43.27,43.27,0,0,0,35.9-49.26l-38.2-247a43.11,43.11,0,0,0-42.69-36.85H345.29Z"/><path class="cls-6" d="M398.83,1548.57a2.1,2.1,0,0,1-1.14-3.87l110.74-73a2.11,2.11,0,0,1,2.3,3.55l-110.75,73A2.71,2.71,0,0,1,398.83,1548.57Z"/><path class="cls-6" d="M394.55,1535.41l-19.1,12.74a12.84,12.84,0,0,0-3.44,17.43,3.28,3.28,0,0,0,1.67,1.67l1.25,1.25a12.83,12.83,0,0,0,16.6.84L409,1554.93a12.1,12.1,0,0,0,1.67-17l-.84-.84h0A11.48,11.48,0,0,0,394.55,1535.41Z"/><path class="cls-6" d="M383.8,1574a15.39,15.39,0,0,1-10.23-4l-1.14-1.15a5.35,5.35,0,0,1-2.3-2.51,14.82,14.82,0,0,1,4.07-20.14l19.1-12.74h0a13.86,13.86,0,0,1,18.06,2.09l.73.73a13.92,13.92,0,0,1,3.24,10.54,14.42,14.42,0,0,1-5.12,9.61l-17.43,14.4A13.88,13.88,0,0,1,383.8,1574Zm11.9-36.84-19.1,12.73a10.6,10.6,0,0,0-2.82,14.51c.32.63.42.73.84.94a1,1,0,0,1,.52.42l1.25,1.25a10.62,10.62,0,0,0,13.78.63l17.33-14.41a10,10,0,0,0,1.35-14l-.73-.74a9.4,9.4,0,0,0-12.42-1.35Z"/><path class="cls-1" d="M341.11,1406.82h414.6a38.35,38.35,0,0,1,38.2,38.2v3.45a38.35,38.35,0,0,1-38.2,38.2H341.11a38.36,38.36,0,0,1-38.2-38.2V1445C303.33,1423.83,320.34,1406.82,341.11,1406.82Z"/><path d="M755.71,1488.23H341.11a39.82,39.82,0,0,1-39.77-39.76V1445c.42-21.92,18.27-39.77,39.77-39.77h414.6A39.83,39.83,0,0,1,795.48,1445v3.45A39.82,39.82,0,0,1,755.71,1488.23Zm-414.6-79.85c-19.73,0-36.22,16.39-36.63,36.64v3.34A36.68,36.68,0,0,0,341.11,1485h414.6a36.68,36.68,0,0,0,36.63-36.64v-3.44a36.68,36.68,0,0,0-36.63-36.64H341.11Z"/><path class="cls-1" d="M793.39,1441.58a40.73,40.73,0,0,0-41.13-34.76h-213a40.72,40.72,0,0,0-41.12,34.76,39.74,39.74,0,0,0,34.76,44.15c1.67,0,2.92.42,4.69.42H753.93c22,0,39.88-17.85,39.88-39.46A19.75,19.75,0,0,0,793.39,1441.58Z"/><path d="M753.93,1487.71H537.55a19.43,19.43,0,0,1-2.61-.21,13.18,13.18,0,0,0-2.08-.21A40.82,40.82,0,0,1,505.09,1472a41.27,41.27,0,0,1-8.66-30.58,42.51,42.51,0,0,1,42.79-36.22H753a42.33,42.33,0,0,1,41.86,36.11,22.39,22.39,0,0,1,.42,5.43C795.48,1469.34,776.79,1487.71,753.93,1487.71Zm-220.76-3.55a19.84,19.84,0,0,1,2.3.21,12.1,12.1,0,0,0,2.08.21H753.93c21.09,0,38.31-17,38.31-37.89a15.6,15.6,0,0,0-.42-4.7v-.21a39.33,39.33,0,0,0-39.56-33.4h-213a39.35,39.35,0,0,0-39.56,33.4,38.21,38.21,0,0,0,8,28.19,37.17,37.17,0,0,0,25.47,14.19Z"/><path class="cls-6" d="M351.65,1805.23H705.08A20.76,20.76,0,0,1,725.85,1826v.83h-395V1826A20.63,20.63,0,0,1,351.65,1805.23Z"/><path class="cls-6" d="M726,1829H330.88a2.09,2.09,0,0,1-2.08-2.09v-.83a22.7,22.7,0,0,1,23-23H705.19a23,23,0,0,1,23,23v.83A2.25,2.25,0,0,1,726,1829Zm-392.88-4.28H723.77a18.7,18.7,0,0,0-18.58-17.43H351.65A18.54,18.54,0,0,0,333.08,1824.75Z"/><path class="cls-6" d="M526.91,1805.23H634.73A20.76,20.76,0,0,1,655.5,1826v.83H526.91v-21.61Z"/><path class="cls-6" d="M655.5,1829H526.91a2.1,2.1,0,0,1-2.09-2.09v-21.6a2.1,2.1,0,0,1,2.09-2.09H634.73a23,23,0,0,1,23,23v.84A2.25,2.25,0,0,1,655.5,1829Zm-126.4-4.28H653.41a18.69,18.69,0,0,0-18.57-17.43H529.1Z"/></g><g id="freepik--Table--inject-2"><rect class="cls-3" x="518.87" y="1233.24" width="327.12" height="13.15"/><path class="cls-6" d="M846,1248.58H518.87a2.1,2.1,0,0,1-2.09-2.09v-13.15a2.1,2.1,0,0,1,2.09-2.09H846a2.1,2.1,0,0,1,2.09,2.09v13.15A2,2,0,0,1,846,1248.58Zm-325-4.28H843.91v-8.87H521Z"/><rect class="cls-3" x="611.35" y="1233.24" width="327.12" height="13.15"/><path class="cls-6" d="M938.58,1248.58H611.35a2.1,2.1,0,0,1-2.09-2.09v-13.15a2.1,2.1,0,0,1,2.09-2.09H938.47a2.1,2.1,0,0,1,2.09,2.09v13.15A1.94,1.94,0,0,1,938.58,1248.58Zm-325-4.28h323v-8.87h-323Z"/><rect class="cls-3" x="629.2" y="1001.62" width="272.85" height="208.34"/><path class="cls-6" d="M902.05,1212.05H629.2a2.1,2.1,0,0,1-2.09-2.09V1001.62a2.1,2.1,0,0,1,2.09-2.09H902.05a2.09,2.09,0,0,1,2.08,2.09V1210A2.09,2.09,0,0,1,902.05,1212.05Zm-270.76-4.28H899.85V1003.71H631.29Z"/><rect class="cls-6" x="640.26" y="1001.62" width="272.85" height="208.34"/><path class="cls-6" d="M913.11,1212.05H640.26a2.09,2.09,0,0,1-2.08-2.09V1001.62a2.09,2.09,0,0,1,2.08-2.09H913.11a2.1,2.1,0,0,1,2.09,2.09V1210A2.1,2.1,0,0,1,913.11,1212.05Zm-270.76-4.28H910.92V1003.71H642.35Z"/><rect class="cls-3" x="759.46" y="1113.2" width="70.46" height="133.71"/><path class="cls-6" d="M829.92,1249H759.46a2.09,2.09,0,0,1-2.08-2.09V1113.2a2.09,2.09,0,0,1,2.08-2.09h70.46a2.1,2.1,0,0,1,2.09,2.09v133.71A2.1,2.1,0,0,1,829.92,1249Zm-68.37-4.28h66.18V1115.29H761.55Z"/><path class="cls-4" d="M390.27,1235.84a7.08,7.08,0,0,0,7.21-7.2l1.67-76,36.11-93.73,86.12,33.51c3.86.83,8-1.25,8.87-5.12a7.58,7.58,0,0,0-3.86-8.45l-92.9-36.12a6.45,6.45,0,0,0-5.53,0,8.67,8.67,0,0,0-3.87,3.87l-39,101.87a5.25,5.25,0,0,0-.42,2.5l-1.25,77.66c-.32,3.76,3.13,7.2,6.88,7.2Z"/><path class="cls-5" d="M390.27,1236.89a7.92,7.92,0,0,1-5.94-2.72,7.25,7.25,0,0,1-1.88-5.63L383.7,1151a6.42,6.42,0,0,1,.52-3l39-101.77a9.37,9.37,0,0,1,4.38-4.39,7.1,7.1,0,0,1,6.47,0l92.8,36a8.81,8.81,0,0,1,4.49,9.71c-.94,4.18-5.64,6.89-10.13,5.85L436,1060.17l-35.59,92.59-1.67,75.78A8.39,8.39,0,0,1,390.27,1236.89Zm40.5-193.73a5.73,5.73,0,0,0-2.29.52,7.4,7.4,0,0,0-3.34,3.34l-39,101.77a5.14,5.14,0,0,0-.31,2.19l-1.26,77.66a5.28,5.28,0,0,0,1.36,4.18,5.94,5.94,0,0,0,4.38,2,6.1,6.1,0,0,0,6.16-6.16l1.78-76.3,36.43-94.78,87.15,33.93c3.34.73,6.79-1.25,7.52-4.28a6.52,6.52,0,0,0-3.34-7.31l-92.8-36A4.06,4.06,0,0,0,430.77,1043.16Z"/><rect class="cls-6" x="343.2" y="1215.07" width="94.67" height="27.56"/><path class="cls-6" d="M437.87,1244.72H343.2a2.1,2.1,0,0,1-2.09-2.09v-27.56a2.09,2.09,0,0,1,2.09-2.08h94.67a2.09,2.09,0,0,1,2.09,2.08v27.56A2.1,2.1,0,0,1,437.87,1244.72Zm-92.58-4.28h90.39v-23.38H345.29Z"/><path class="cls-6" d="M414.07,1050a17,17,0,1,1,17,17h0C421.69,1066.54,414.07,1059.34,414.07,1050Z"/><path class="cls-6" d="M375.87,1155.16a17,17,0,1,1,17,17h0a16.75,16.75,0,0,1-17-17Z"/><polygon class="cls-4" points="529.52 1070.3 593.19 1066.12 553.21 1153.49 514.59 1102.97 529.52 1070.3"/><path class="cls-5" d="M553.52,1155.58l-40.08-52.4,15.35-33.82,66.07-4.38Zm-37.68-52.71L553,1151.4l38.41-84.23-61.27,4.07Z"/><path class="cls-3" d="M293.1,1322.38l14,534.21a12.88,12.88,0,0,0,13.16,12.73h0c7.2,0,13.15-6,13.15-12.73l6.78-534.21Z"/><path class="cls-6" d="M320.34,1871.51c-8.56,0-15.24-6.47-15.24-14.82l-14-534.21a2.31,2.31,0,0,1,.63-1.57,2.16,2.16,0,0,1,1.57-.62h47.07a1.91,1.91,0,0,1,1.46.62,2.13,2.13,0,0,1,.63,1.57l-6.79,534.21C335.58,1864.63,328.59,1871.51,320.34,1871.51Zm-25-547,14,532c0,6.06,4.8,10.65,11.06,10.65,6,0,11.06-4.91,11.06-10.65l6.79-532.12h-42.9Z"/><path class="cls-3" d="M465.85,1322.38l14,534.21A12.88,12.88,0,0,0,493,1869.32h0c7.21,0,13.16-6,13.16-12.73l6.78-534.21Z"/><path class="cls-6" d="M493,1871.51c-8.56,0-15.24-6.47-15.24-14.82l-14-534.21a2.35,2.35,0,0,1,.62-1.57,2.16,2.16,0,0,1,1.57-.62H513a1.93,1.93,0,0,1,1.47.62,2.16,2.16,0,0,1,.62,1.57l-6.78,534.21C508.22,1864.63,501.23,1871.51,493,1871.51Zm-24.94-547,14,532c0,6.06,4.81,10.65,11.07,10.65,6,0,11.06-4.91,11.06-10.65l6.79-532.12H468Z"/><path class="cls-3" d="M1177.82,1322.38l14,534.21a12.88,12.88,0,0,0,13.15,12.73h0c7.21,0,13.16-6,13.16-12.73l7.2-534.21Z"/><path class="cls-6" d="M1205.06,1871.51c-8.56,0-15.24-6.47-15.24-14.82l-14-534.21a2.31,2.31,0,0,1,.63-1.57,2.15,2.15,0,0,1,1.56-.62h47.5a1.91,1.91,0,0,1,1.46.62,2.13,2.13,0,0,1,.63,1.57l-7.21,534.21C1220.3,1864.63,1213.31,1871.51,1205.06,1871.51Zm-25-547,14,532c0,6.06,4.8,10.65,11.06,10.65,6,0,11.06-4.91,11.06-10.65l7.21-532.12H1180Z"/><path class="cls-3" d="M1350.56,1322.38l14,534.21a12.88,12.88,0,0,0,13.15,12.73h0c7.2,0,13.15-6,13.15-12.73l7.21-534.21Z"/><path class="cls-6" d="M1377.7,1871.51c-8.56,0-15.24-6.47-15.24-14.82l-14-534.21a2.35,2.35,0,0,1,.62-1.57,2.16,2.16,0,0,1,1.57-.62h47.49a1.91,1.91,0,0,1,1.46.62,2.13,2.13,0,0,1,.63,1.57l-7.2,534.21C1393.05,1864.63,1386.05,1871.51,1377.7,1871.51Zm-24.94-547,14,532c0,6.06,4.8,10.65,11.07,10.65,6,0,11.06-4.91,11.06-10.65l7.2-532.12h-43.31Z"/><rect class="cls-3" x="276.19" y="1264.24" width="1137.21" height="64.09"/><path class="cls-6" d="M1413.4,1330.41H276.19a2.1,2.1,0,0,1-2.09-2.09v-64.08a2.1,2.1,0,0,1,2.09-2.09H1413.4a2.1,2.1,0,0,1,2.09,2.09v64.08A2.1,2.1,0,0,1,1413.4,1330.41Zm-1135.12-4.17H1411.21v-59.92H278.28Z"/><rect class="cls-3" x="276.19" y="1264.24" width="238.09" height="64.09"/><path class="cls-6" d="M514.17,1330.41h-238a2.1,2.1,0,0,1-2.09-2.09v-64.08a2.1,2.1,0,0,1,2.09-2.09H514.28a2.09,2.09,0,0,1,2.08,2.09v64.08A2.11,2.11,0,0,1,514.17,1330.41Zm-235.89-4.17H512.09v-59.92H278.28Z"/><rect class="cls-6" x="276.19" y="1264.24" width="1137.21" height="31.84"/><path class="cls-6" d="M1413.4,1298.16H276.19a2.1,2.1,0,0,1-2.09-2.09v-31.83a2.1,2.1,0,0,1,2.09-2.09H1413.4a2.1,2.1,0,0,1,2.09,2.09v31.83A2.1,2.1,0,0,1,1413.4,1298.16ZM278.28,1294H1411.21v-27.66H278.28Z"/><rect class="cls-3" x="263.04" y="1242.21" width="1163.52" height="35.18"/><path class="cls-6" d="M1426.55,1279.48H263a2.1,2.1,0,0,1-2.09-2.09v-35.18a2.1,2.1,0,0,1,2.09-2.09H1426.55a2.1,2.1,0,0,1,2.09,2.09v35.18A2.1,2.1,0,0,1,1426.55,1279.48ZM265.12,1275.3H1424.36v-31H265.12Z"/><rect class="cls-3" x="529.93" y="1242.21" width="896.62" height="35.18"/><path class="cls-6" d="M1426.55,1279.48H529.93a2.09,2.09,0,0,1-2.08-2.09v-35.18a2.09,2.09,0,0,1,2.08-2.09h896.62a2.1,2.1,0,0,1,2.09,2.09v35.18A2.1,2.1,0,0,1,1426.55,1279.48ZM532,1275.3h892.34v-31H532Z"/></g><g id="freepik--Clock--inject-2"><path class="cls-6" d="M481.08,768.23c-78.38,0-142.16-63.78-142.16-142.17S402.7,483.9,481.08,483.9s142.17,63.77,142.17,142.16S559.47,768.23,481.08,768.23Zm0-280c-76.09,0-137.88,61.89-137.88,137.88S405.1,764,481.08,764,619,702.05,619,626.06,557.18,488.18,481.08,488.18Z"/><path class="cls-6" d="M481.08,744.43A117.95,117.95,0,1,1,599,626.48,118.09,118.09,0,0,1,481.08,744.43Zm0-231.72A113.72,113.72,0,1,0,594.75,626.48C594.86,563.75,543.82,512.71,481.08,512.71Z"/><path class="cls-6" d="M481.08,735.14a2.09,2.09,0,0,1-2.08-2.09V628.15H407.29a2.09,2.09,0,1,1,0-4.18h73.79a2.1,2.1,0,0,1,2.09,2.09V733A2,2,0,0,1,481.08,735.14Z"/></g></svg>